<?xml version="1.0" encoding="UTF-8" standalone="no"?>
<svg
   viewBox="0 0 512 512"
   version="1.1"
   id="svg1"
   sodipodi:docname="circle-check.svg"
   inkscape:version="1.3.2 (091e20e, 2023-11-25, custom)"
   xmlns:inkscape="http://www.inkscape.org/namespaces/inkscape"
   xmlns:sodipodi="http://sodipodi.sourceforge.net/DTD/sodipodi-0.dtd"
   xmlns="http://www.w3.org/2000/svg"
   xmlns:svg="http://www.w3.org/2000/svg">
  <defs
     id="defs1" />
  <sodipodi:namedview
     id="namedview1"
     pagecolor="#505050"
     bordercolor="#eeeeee"
     borderopacity="1"
     inkscape:showpageshadow="0"
     inkscape:pageopacity="0"
     inkscape:pagecheckerboard="0"
     inkscape:deskcolor="#505050"
     inkscape:zoom="0.99414062"
     inkscape:cx="256"
     inkscape:cy="256"
     inkscape:window-width="1366"
     inkscape:window-height="705"
     inkscape:window-x="-8"
     inkscape:window-y="-8"
     inkscape:window-maximized="1"
     inkscape:current-layer="svg1" />
  <!--! Font Awesome Free 6.5.1 by @fontawesome - https://fontawesome.com License - https://fontawesome.com/license/free (Icons: CC BY 4.0, Fonts: SIL OFL 1.1, Code: MIT License) Copyright 2023 Fonticons, Inc. -->
  <path
     d="M256 48a208 208 0 1 1 0 416 208 208 0 1 1 0-416zm0 464A256 256 0 1 0 256 0a256 256 0 1 0 0 512zM369 209c9.4-9.4 9.4-24.6 0-33.9s-24.6-9.4-33.9 0l-111 111-47-47c-9.4-9.4-24.6-9.4-33.9 0s-9.4 24.6 0 33.9l64 64c9.4 9.4 24.6 9.4 33.9 0L369 209z"
     id="path1" />
  <path
     style="fill:#ffffff;stroke-width:1.00589"
     d="M 240.22419,510.87163 C 217.42721,509.63267 190.34174,504.09946 169.25086,496.37267 154.22391,490.86745 128.54718,477.87703 115.6778,469.26889 55.914603,429.29418 15.779129,367.859 4.0492624,298.39966 -0.16015873,273.47322 -0.16732643,238.56923 4.0318696,213.70334 23.792326,96.690191 123.17644,7.521359 240.91159,1.17151 c 46.38192,-2.5015313 87.48581,5.8528461 128.17663,26.051933 40.9875,20.346365 75.8564,51.252005 100.93239,89.460247 8.10376,12.34769 21.18668,38.46967 26.42432,52.76007 8.01189,21.85973 13.26893,48.2333 14.40693,72.27699 1.31008,27.67925 -1.01703,52.22797 -7.32529,77.2747 -4.53746,18.01584 -9.14231,30.2882 -18.63523,49.66467 -27.86219,56.87088 -76.18345,101.46689 -135.58079,125.12846 -33.55466,13.36685 -70.63069,19.173 -109.08636,17.08305 z m 46.4151,-48.73927 c 44.03672,-6.47289 85.18635,-27.17671 116.75136,-58.74171 31.80698,-31.80699 51.9983,-72.12305 58.95558,-117.71678 2.38209,-15.61071 2.38817,-43.66712 0.0129,-59.34774 C 448.34951,133.84105 378.15895,63.650489 285.67387,49.640888 269.82253,47.239733 241.99099,47.277154 225.82318,49.721356 142.35768,62.339437 75.297212,122.50749 54.274585,203.63834 49.608791,221.64465 47.888605,235.74926 47.888605,256 c 0,33.95882 6.237761,61.17117 20.982445,91.53635 31.88848,65.67107 94.83846,108.97704 168.85052,116.15947 11.97346,1.16195 35.48926,0.41036 48.91772,-1.56346 z"
     id="path2" />
  <path
     style="fill:#ffffff;stroke-width:1.00589"
     d="m 220.1875,343.02303 c -1.99314,-0.35983 -5.61436,-1.83604 -8.04715,-3.28047 -2.43279,-1.44443 -19.45026,-17.70885 -37.81659,-36.14315 C 138.48225,267.62529 136.84575,265.54683 136.84575,256 c 0,-16.88663 18.46248,-28.51157 33.41913,-21.04244 1.7885,0.89316 14.68222,13.00679 28.6527,26.91919 l 25.40088,25.29528 57.58537,-57.54702 c 39.96528,-39.93868 58.72967,-58.01943 61.32516,-59.09093 8.42359,-3.47752 19.24893,-1.10142 25.63162,5.626 6.16313,6.496 8.13627,16.70289 4.79408,24.79954 -1.8858,4.56846 -133.86192,137.1897 -139.28141,139.96223 -4.32695,2.2136 -9.40047,2.96508 -14.18578,2.10118 z"
     id="path3" />
</svg>
