<?xml version="1.0" encoding="UTF-8" standalone="no"?>
<svg
   viewBox="0 0 448 512"
   version="1.1"
   id="svg1"
   sodipodi:docname="amazon.svg"
   inkscape:version="1.3.2 (091e20e, 2023-11-25, custom)"
   xmlns:inkscape="http://www.inkscape.org/namespaces/inkscape"
   xmlns:sodipodi="http://sodipodi.sourceforge.net/DTD/sodipodi-0.dtd"
   xmlns="http://www.w3.org/2000/svg"
   xmlns:svg="http://www.w3.org/2000/svg">
  <defs
     id="defs1" />
  <sodipodi:namedview
     id="namedview1"
     pagecolor="#505050"
     bordercolor="#eeeeee"
     borderopacity="1"
     inkscape:showpageshadow="0"
     inkscape:pageopacity="0"
     inkscape:pagecheckerboard="0"
     inkscape:deskcolor="#505050"
     inkscape:zoom="0.99414062"
     inkscape:cx="223.81139"
     inkscape:cy="256"
     inkscape:window-width="1366"
     inkscape:window-height="705"
     inkscape:window-x="-8"
     inkscape:window-y="-8"
     inkscape:window-maximized="1"
     inkscape:current-layer="svg1" />
  <!--! Font Awesome Free 6.5.1 by @fontawesome - https://fontawesome.com License - https://fontawesome.com/license/free (Icons: CC BY 4.0, Fonts: SIL OFL 1.1, Code: MIT License) Copyright 2023 Fonticons, Inc. -->
  <path
     d="M257.2 162.7c-48.7 1.8-169.5 15.5-169.5 117.5 0 109.5 138.3 114 183.5 43.2 6.5 10.2 35.4 37.5 45.3 46.8l56.8-56S341 288.9 341 261.4V114.3C341 89 316.5 32 228.7 32 140.7 32 94 87 94 136.3l73.5 6.8c16.3-49.5 54.2-49.5 54.2-49.5 40.7-.1 35.5 29.8 35.5 69.1zm0 86.8c0 80-84.2 68-84.2 17.2 0-47.2 50.5-56.7 84.2-57.8v40.6zm136 163.5c-7.7 10-70 67-174.5 67S34.2 408.5 9.7 379c-6.8-7.7 1-11.3 5.5-8.3C88.5 415.2 203 488.5 387.7 401c7.5-3.7 13.3 2 5.5 12zm39.8 2.2c-6.5 15.8-16 26.8-21.2 31-5.5 4.5-9.5 2.7-6.5-3.8s19.3-46.5 12.7-55c-6.5-8.3-37-4.3-48-3.2-10.8 1-13 2-14-.3-2.3-5.7 21.7-15.5 37.5-17.5 15.7-1.8 41-.8 46 5.7 3.7 5.1 0 27.1-6.5 43.1z"
     id="path1" />
  <path
     style="fill:#ffffff;stroke-width:1.00589"
     d="M 205.7053,479.13959 C 181.14532,477.10317 163.38869,473.59698 142.63454,466.68576 108.47555,455.31068 78.050426,438.51356 47.425482,414.1227 33.858955,403.3178 12.582249,382.77171 9.1996806,377.20952 c -2.3437559,-3.85399 -1.4542802,-7.04056 1.9652524,-7.04056 1.122609,0 10.27289,4.91187 20.333961,10.91528 61.134172,36.47854 101.721596,52.04302 154.088536,59.08994 17.63008,2.37245 55.02879,2.39879 73.89751,0.0521 38.23156,-4.75494 76.35394,-15.69061 116.92232,-33.54001 8.13363,-3.57866 15.55387,-6.35609 16.48944,-6.17207 2.53712,0.49902 3.8114,3.18659 3.01515,6.35914 -1.00757,4.01446 -11.55031,14.69216 -22.87608,23.16891 -31.15024,23.31434 -71.38302,39.89335 -112.0063,46.15523 -18.40587,2.83717 -41.66955,4.07434 -55.32417,2.94216 z"
     id="path2" />
  <path
     style="fill:#ffffff;stroke-width:1.00589"
     d="m 405.05196,446.86837 c -0.24311,-0.41493 1.57544,-5.95951 4.04123,-12.32129 8.41702,-21.71613 12.12533,-37.92136 10.2401,-44.74908 -1.54109,-5.58139 -5.15866,-6.91746 -19.99241,-7.38375 -10.79713,-0.33941 -34.53121,1.10389 -39.23086,2.38567 -0.82986,0.22634 -2.17596,-0.007 -2.99132,-0.51843 -1.24659,-0.78197 -1.08653,-1.35437 1.00589,-3.59723 4.73717,-5.07776 20.62009,-11.3475 34.17403,-13.4901 14.18647,-2.2426 35.99635,-0.71307 43.37571,3.04194 5.34531,2.71998 5.97549,6.61992 3.42916,21.22168 -2.79991,16.05588 -7.99605,28.93173 -16.87741,41.82158 -7.52075,10.91516 -15.1868,16.98092 -17.17412,13.58901 z"
     id="path3" />
  <path
     style="fill:#ffffff;stroke-width:1.00589"
     d="M 192.12574,477.22745 C 131.27396,469.4391 72.189736,439.4579 23.535584,391.67948 11.848945,380.2032 7.2779056,374.2392 8.5683554,372.15121 c 1.5561736,-2.51795 3.4130066,-1.64265 34.0072286,16.03068 63.644416,36.7654 112.289856,52.28647 169.375506,54.04184 56.41039,1.7346 99.67851,-7.73263 170.2886,-37.25983 9.44877,-3.95122 11.85141,-4.34829 12.71372,-2.10114 1.73899,4.53172 -5.61586,13.60664 -20.09988,24.80063 -30.03012,23.2088 -71.62293,40.95653 -111.30933,47.49589 -23.41778,3.85868 -51.15349,4.66186 -71.41846,2.06817 z"
     id="path4" />
  <path
     style="fill:#ffffff;stroke-width:1.00589"
     d="m 163.54301,369.12652 c -22.32538,-3.52143 -39.00933,-12.02228 -53.19921,-27.10622 -8.60354,-9.14561 -15.306291,-21.39685 -18.99545,-34.71971 -1.94537,-7.02543 -2.225265,-10.47375 -2.204462,-27.15914 0.02053,-16.46847 0.327518,-20.22504 2.219436,-27.15913 13.105826,-48.03435 60.188976,-78.38831 134.962806,-87.00896 9.68173,-1.1162 20.70163,-2.29264 24.48866,-2.61432 l 6.88552,-0.58486 -0.43969,-22.29083 c -0.4829,-24.48087 -1.34802,-29.20002 -6.70988,-36.60185 -1.9131,-2.64096 -5.01424,-5.086179 -8.79888,-6.937827 -4.98425,-2.438572 -7.32695,-2.912251 -15.91606,-3.218143 -8.74964,-0.311608 -10.96162,-0.03351 -16.85284,2.118762 -16.1027,5.882898 -27.63332,16.444788 -35.81216,32.803458 -2.65708,5.31446 -5.08956,10.66043 -5.40553,11.87991 -0.48235,1.86169 -1.11577,2.14318 -3.94983,1.75534 -1.85645,-0.25406 -16.04962,-1.58976 -31.54039,-2.96821 -15.49077,-1.37846 -30.37541,-2.78494 -33.076987,-3.12552 l -4.911957,-0.61922 0.631851,-6.79847 C 97.882146,96.87807 120.38726,66.553146 153.84761,49.365734 182.92232,34.43108 220.23437,29.087845 256,34.737104 c 42.04936,6.641788 72.17397,30.597033 82.67034,65.739856 1.49615,5.0093 1.75042,14.98824 2.25831,88.6311 l 0.57233,82.98624 2.6466,6.16589 c 3.86326,9.00042 10.15538,17.83196 19.68445,27.62882 l 8.41098,8.64737 -27.77081,27.34996 -27.77081,27.34996 -7.71808,-6.98667 C 300.07663,354.187 282.11814,335.87513 275.5733,328.1822 l -4.48489,-5.27162 -6.25589,8.01086 c -13.82317,17.701 -37.00926,31.28175 -62.81117,36.7903 -8.9678,1.91456 -30.3301,2.70001 -38.47834,1.41478 z m 65.2991,-64.42064 c 7.61307,-2.83974 18.01708,-12.85538 21.85982,-21.0438 5.54144,-11.8082 6.04834,-15.42519 6.53765,-46.64973 l 0.45519,-29.04659 -6.88275,0.66862 c -31.47718,3.05778 -50.51769,9.60069 -63.10041,21.68323 -11.12413,10.68195 -15.09158,20.93678 -14.5333,37.56482 0.28729,8.55658 0.78837,11.1962 3.03707,15.99901 5.2489,11.21063 16.80561,20.33271 28.98698,22.88036 6.64322,1.38939 16.76258,0.50932 23.63975,-2.05592 z"
     id="path5" />
</svg>
