<?xml version="1.0" encoding="UTF-8" standalone="no"?>
<svg
   viewBox="0 0 448 512"
   version="1.1"
   id="svg1"
   sodipodi:docname="angle-down.svg"
   inkscape:version="1.3.2 (091e20e, 2023-11-25, custom)"
   xmlns:inkscape="http://www.inkscape.org/namespaces/inkscape"
   xmlns:sodipodi="http://sodipodi.sourceforge.net/DTD/sodipodi-0.dtd"
   xmlns="http://www.w3.org/2000/svg"
   xmlns:svg="http://www.w3.org/2000/svg">
  <defs
     id="defs1" />
  <sodipodi:namedview
     id="namedview1"
     pagecolor="#505050"
     bordercolor="#eeeeee"
     borderopacity="1"
     inkscape:showpageshadow="0"
     inkscape:pageopacity="0"
     inkscape:pagecheckerboard="0"
     inkscape:deskcolor="#505050"
     inkscape:zoom="0.99414062"
     inkscape:cx="223.81139"
     inkscape:cy="256"
     inkscape:window-width="1366"
     inkscape:window-height="705"
     inkscape:window-x="-8"
     inkscape:window-y="-8"
     inkscape:window-maximized="1"
     inkscape:current-layer="svg1" />
  <!--! Font Awesome Free 6.5.1 by @fontawesome - https://fontawesome.com License - https://fontawesome.com/license/free (Icons: CC BY 4.0, Fonts: SIL OFL 1.1, Code: MIT License) Copyright 2023 Fonticons, Inc. -->
  <path
     d="M201.4 342.6c12.5 12.5 32.8 12.5 45.3 0l160-160c12.5-12.5 12.5-32.8 0-45.3s-32.8-12.5-45.3 0L224 274.7 86.6 137.4c-12.5-12.5-32.8-12.5-45.3 0s-12.5 32.8 0 45.3l160 160z"
     id="path1" />
  <path
     style="fill:#ffffff;stroke-width:1.00589"
     d="M 210.73477,348.14543 C 205.5421,345.51695 192.95418,333.32315 120.57913,260.81239 26.971122,167.02887 32.652208,173.5894 32.730877,159.36498 c 0.06511,-11.77248 6.459052,-21.77309 17.769966,-27.79357 3.580561,-1.90583 5.870603,-2.29927 13.37342,-2.29757 7.884636,0.002 9.702162,0.34898 14.082515,2.6901 3.671204,1.96211 23.908622,21.58654 74.936382,72.66657 38.4488,38.48819 70.35646,69.97853 70.90591,69.97853 0.54946,0 32.68899,-31.64169 71.42119,-70.31488 49.9473,-49.87119 71.73824,-70.97443 74.9487,-72.58338 6.31374,-3.16418 17.08703,-3.78992 24.26313,-1.40926 4.0409,1.34057 6.95273,3.34557 11.50151,7.91963 7.44678,7.48817 10.05386,14.27319 9.25669,24.09093 -1.01981,12.55972 2.16116,8.97847 -88.67991,99.83894 -67.12485,67.13918 -84.57753,84.07532 -88.61647,85.99367 -3.66904,1.74267 -7.20615,2.47903 -13.07662,2.72231 -7.32009,0.30335 -8.59245,0.0575 -14.08252,-2.72157 z"
     id="path2" />
  <path
     style="fill:#ffffff;stroke-width:1.00589"
     d="m 212.0044,347.9771 c -2.0679,-1.09179 -9.76299,-7.58283 -17.10019,-14.42455 C 176.66084,316.54116 50.20349,189.39582 42.322171,180.14038 c -8.175107,-9.60044 -9.49669,-12.78843 -8.87919,-21.41881 0.859029,-12.00605 7.433777,-21.65991 18.350652,-26.94467 5.981589,-2.89564 18.336606,-2.81967 24.472107,0.15047 3.214486,1.55611 24.44543,21.97451 75.30648,72.42437 38.95647,38.64151 71.49639,70.2573 72.31094,70.2573 0.81455,0 28.51709,-26.82787 61.5612,-59.61747 77.98612,-77.38548 83.363,-82.49308 88.44513,-84.01572 6.26977,-1.87847 17.18088,-1.50058 22.17892,0.76813 5.50114,2.49707 13.3046,10.32417 16.13964,16.18854 2.76372,5.71683 3.08323,17.42618 0.61729,22.62275 -2.98978,6.30049 -14.84047,18.95648 -65.76431,70.23329 -67.92844,68.39927 -105.67853,104.89422 -111.0018,107.31112 -5.92083,2.68821 -18.85586,2.62229 -24.05483,-0.12258 z"
     id="path3" />
  <path
     style="fill:#ffffff;stroke-width:1.00589"
     d=""
     id="path4" />
  <path
     style="fill:#ffffff;stroke-width:1.00589"
     d="m 212.03179,347.99115 c -2.05284,-1.08406 -9.29528,-7.12201 -16.0943,-13.41766 C 179.08216,318.96604 50.227688,189.42624 42.32141,180.14038 c -8.174472,-9.60085 -9.495906,-12.78875 -8.878429,-21.41881 0.859029,-12.00605 7.433777,-21.65991 18.350652,-26.94467 5.950713,-2.88069 18.337536,-2.81922 24.411523,0.12115 3.128766,1.51461 25.105484,22.62539 75.395094,72.42436 39.03851,38.65764 71.55883,70.28663 72.26737,70.28663 0.70854,0 31.55631,-29.98821 68.55063,-66.64047 36.99431,-36.65226 69.73542,-68.72338 72.75801,-71.26915 3.02261,-2.54577 7.03431,-5.14852 8.9149,-5.78389 5.46499,-1.84638 17.04629,-1.40981 21.97725,0.82845 5.4868,2.49056 13.88565,10.88941 16.37622,16.37622 2.48731,5.47962 2.69236,17.56361 0.38071,22.43507 -3.00098,6.32409 -14.89797,19.01763 -66.76859,71.23901 -68.16338,68.62431 -104.63535,103.87071 -110.00544,106.30894 -5.89627,2.67713 -18.85217,2.61668 -24.01952,-0.11207 z"
     id="path5" />
</svg>
