<?xml version="1.0" encoding="UTF-8" standalone="no"?>
<svg
   viewBox="0 0 640 512"
   version="1.1"
   id="svg1"
   sodipodi:docname="apple-pay.svg"
   inkscape:version="1.3.2 (091e20e, 2023-11-25, custom)"
   xmlns:inkscape="http://www.inkscape.org/namespaces/inkscape"
   xmlns:sodipodi="http://sodipodi.sourceforge.net/DTD/sodipodi-0.dtd"
   xmlns="http://www.w3.org/2000/svg"
   xmlns:svg="http://www.w3.org/2000/svg">
  <defs
     id="defs1" />
  <sodipodi:namedview
     id="namedview1"
     pagecolor="#505050"
     bordercolor="#eeeeee"
     borderopacity="1"
     inkscape:showpageshadow="0"
     inkscape:pageopacity="0"
     inkscape:pagecheckerboard="0"
     inkscape:deskcolor="#505050"
     inkscape:zoom="0.99414062"
     inkscape:cx="320.37721"
     inkscape:cy="256"
     inkscape:window-width="1366"
     inkscape:window-height="705"
     inkscape:window-x="-8"
     inkscape:window-y="-8"
     inkscape:window-maximized="1"
     inkscape:current-layer="svg1" />
  <!--! Font Awesome Free 6.5.1 by @fontawesome - https://fontawesome.com License - https://fontawesome.com/license/free (Icons: CC BY 4.0, Fonts: SIL OFL 1.1, Code: MIT License) Copyright 2023 Fonticons, Inc. -->
  <path
     d="M116.9 158.5c-7.5 8.9-19.5 15.9-31.5 14.9-1.5-12 4.4-24.8 11.3-32.6 7.5-9.1 20.6-15.6 31.3-16.1 1.2 12.4-3.7 24.7-11.1 33.8m10.9 17.2c-17.4-1-32.3 9.9-40.5 9.9-8.4 0-21-9.4-34.8-9.1-17.9.3-34.5 10.4-43.6 26.5-18.8 32.3-4.9 80 13.3 106.3 8.9 13 19.5 27.3 33.5 26.8 13.3-.5 18.5-8.6 34.5-8.6 16.1 0 20.8 8.6 34.8 8.4 14.5-.3 23.6-13 32.5-26 10.1-14.8 14.3-29.1 14.5-29.9-.3-.3-28-10.9-28.3-42.9-.3-26.8 21.9-39.5 22.9-40.3-12.5-18.6-32-20.6-38.8-21.1m100.4-36.2v194.9h30.3v-66.6h41.9c38.3 0 65.1-26.3 65.1-64.3s-26.4-64-64.1-64h-73.2zm30.3 25.5h34.9c26.3 0 41.3 14 41.3 38.6s-15 38.8-41.4 38.8h-34.8V165zm162.2 170.9c19 0 36.6-9.6 44.6-24.9h.6v23.4h28v-97c0-28.1-22.5-46.3-57.1-46.3-32.1 0-55.9 18.4-56.8 43.6h27.3c2.3-12 13.4-19.9 28.6-19.9 18.5 0 28.9 8.6 28.9 24.5v10.8l-37.8 2.3c-35.1 2.1-54.1 16.5-54.1 41.5.1 25.2 19.7 42 47.8 42zm8.2-23.1c-16.1 0-26.4-7.8-26.4-19.6 0-12.3 9.9-19.4 28.8-20.5l33.6-2.1v11c0 18.2-15.5 31.2-36 31.2zm102.5 74.6c29.5 0 43.4-11.3 55.5-45.4L640 193h-30.8l-35.6 115.1h-.6L537.4 193h-31.6L557 334.9l-2.8 8.6c-4.6 14.6-12.1 20.3-25.5 20.3-2.4 0-7-.3-8.9-.5v23.4c1.8.4 9.3.7 11.6.7z"
     id="path1" />
  <path
     style="fill:#ffffff;stroke-width:1.00589"
     d="M 50.797642,335.05601 C 43.066819,333.13491 36.948412,328.05003 27.894019,316.0213 12.438328,295.48845 3.3902131,272.62556 1.0874827,248.28623 -2.2164478,213.36443 13.90468,185.83981 41.939035,178.53779 c 9.306242,-2.42397 15.661268,-1.92685 26.964698,2.10932 18.902871,6.74974 17.305324,6.75118 36.388167,-0.0328 12.5235,-4.45215 20.45478,-5.3038 30.1701,-3.23965 10.06468,2.13838 17.87303,6.2303 24.80995,13.00151 l 5.93642,5.79461 -5.0924,4.05463 c -17.15907,13.66226 -22.57851,36.9827 -13.25565,57.04056 3.4709,7.46753 10.92348,15.67033 18.04168,19.85783 4.48237,2.63689 5.0547,3.33501 4.53556,5.53242 -1.14812,4.85975 -8.54602,19.4766 -13.94382,27.55039 -16.47186,24.63776 -27.16615,29.31691 -48.00773,21.00511 -8.506372,-3.3924 -10.270862,-3.7443 -18.458505,-3.6812 -7.793839,0.0601 -10.382207,0.56503 -18.609037,3.63046 -10.658883,3.97164 -16.143597,5.00765 -20.620826,3.89506 z"
     id="path2" />
  <path
     style="fill:#ffffff;stroke-width:1.00589"
     d="m 85.500982,169.84457 c 0,-5.10466 2.710537,-14.59548 5.816993,-20.36793 5.994995,-11.13997 20.534825,-21.8346 31.780765,-23.37603 l 4.64979,-0.63732 v 3.10489 c 0,10.19327 -6.17055,24.36708 -14.0296,32.22612 -6.00247,6.00248 -15.689556,11.01587 -22.945893,11.87528 l -5.272055,0.6244 z"
     id="path3" />
  <path
     style="fill:#ffffff;stroke-width:1.00589"
     d="m 228.33792,236.8204 v -97.13639 l 43.00196,0.39716 c 47.61835,0.4398 47.39461,0.4129 61.53675,7.39828 10.65282,5.26185 19.7674,14.60673 25.03042,25.66284 5.36479,11.2699 6.7043,17.39374 6.68272,30.55123 -0.0318,19.41946 -5.08699,32.32211 -17.62977,44.99791 -5.84121,5.90312 -9.49063,8.62524 -15.12871,11.28452 -13.41418,6.32698 -16.70344,6.84715 -46.40889,7.33914 l -26.90767,0.44565 v 33.09801 33.09803 h -15.0884 -15.08841 z m 84.64305,2.78056 c 8.01297,-3.21215 14.21534,-9.04062 18.17263,-17.07715 3.18194,-6.46189 3.30612,-7.16836 3.30612,-18.80756 0,-11.23041 -0.20884,-12.54574 -2.92636,-18.43108 -3.58106,-7.7555 -10.46576,-14.26094 -18.49753,-17.47857 -5.31872,-2.13075 -7.50677,-2.32201 -30.12817,-2.63357 l -24.39293,-0.33596 v 38.85645 38.85644 l 24.39293,-0.33596 c 22.55536,-0.31065 24.82084,-0.50749 30.07331,-2.61304 z"
     id="path4" />
  <path
     style="fill:#ffffff;stroke-width:1.00589"
     d="m 405.37525,333.52126 c -16.17831,-4.50886 -27.90724,-16.41812 -31.07337,-31.55112 -1.49252,-7.13373 -1.40686,-10.71615 0.42669,-17.84525 3.88345,-15.09929 16.17344,-24.81667 36.90133,-29.17691 5.04358,-1.06095 45.17008,-4.38749 53.9964,-4.47636 0.2202,-0.002 0.13354,-4.12256 -0.19258,-9.15632 -0.98046,-15.13352 -6.16812,-22.37493 -18.27374,-25.50818 -11.01198,-2.85018 -22.73591,-1.29774 -30.6108,4.05339 -3.98671,2.70904 -9.16215,9.856 -9.16215,12.65235 0,1.71766 -1.03716,1.86042 -13.51632,1.86042 h -13.51633 l 0.59348,-3.7721 c 2.1373,-13.58445 11.35366,-25.39978 25.26321,-32.38732 7.92559,-3.98147 18.88107,-6.18824 30.8624,-6.21663 27.65006,-0.0655 46.51009,10.77745 54.05428,31.07677 2.06536,5.55729 2.15741,7.67686 2.53295,58.32482 l 0.38971,52.55796 H 480.39259 466.73477 V 322.389 c 0,-6.36228 -0.41573,-11.56778 -0.92385,-11.56778 -0.50812,0 -1.89082,1.56458 -3.07266,3.47684 -5.0517,8.17382 -18.32771,17.06759 -29.22595,19.57884 -6.0932,1.40404 -22.5704,1.19577 -28.13706,-0.35564 z m 41.33892,-24.00793 c 12.21625,-5.8934 17.93324,-15.06644 18.79353,-30.15463 l 0.51718,-9.07063 -14.48199,0.70288 c -28.56965,1.38662 -37.85771,3.27459 -44.02149,8.94816 -7.48225,6.8872 -6.77369,21.21477 1.35582,27.41545 5.79626,4.42102 10.19278,5.46907 21.64537,5.15984 9.0626,-0.24469 11.36104,-0.6707 16.19158,-3.00107 z"
     id="path5" />
  <path
     style="fill:#ffffff;stroke-width:1.00589"
     d="m 523.81925,386.59471 -3.7721,-0.45289 V 375.1377 364.1336 h 7.17603 c 8.81118,0 13.75938,-1.40522 18.39058,-5.22265 3.70303,-3.05234 8.46611,-12.03702 10.57115,-19.94057 l 1.20983,-4.54237 -25.2121,-69.87908 c -13.86666,-38.4335 -25.21211,-70.22518 -25.21211,-70.64819 0,-0.42301 6.75928,-0.76911 15.02062,-0.76911 13.43823,0 15.07498,0.18545 15.53654,1.76031 3.42878,11.69925 35.10829,113.52417 35.41563,113.83367 0.22892,0.23051 0.591,0.23051 0.80463,0 0.30835,-0.33272 28.47567,-90.90005 34.46485,-110.81598 l 1.43685,-4.778 h 14.54649 c 8.00057,0 14.54649,0.4045 14.54649,0.8989 0,0.49439 -12.21291,35.23545 -27.13979,77.20235 -16.84436,47.35787 -29.06148,80.14593 -32.20555,86.43258 -7.70163,15.39962 -16.73071,23.67611 -29.43914,26.98534 -6.30006,1.64052 -20.11116,2.66762 -26.1389,1.94391 z"
     id="path6" />
</svg>
