<?xml version="1.0" encoding="UTF-8" standalone="no"?>
<svg
   viewBox="0 0 512 512"
   version="1.1"
   id="svg1"
   sodipodi:docname="bitcoin.svg"
   inkscape:version="1.3.2 (091e20e, 2023-11-25, custom)"
   xmlns:inkscape="http://www.inkscape.org/namespaces/inkscape"
   xmlns:sodipodi="http://sodipodi.sourceforge.net/DTD/sodipodi-0.dtd"
   xmlns="http://www.w3.org/2000/svg"
   xmlns:svg="http://www.w3.org/2000/svg">
  <defs
     id="defs1" />
  <sodipodi:namedview
     id="namedview1"
     pagecolor="#505050"
     bordercolor="#eeeeee"
     borderopacity="1"
     inkscape:showpageshadow="0"
     inkscape:pageopacity="0"
     inkscape:pagecheckerboard="0"
     inkscape:deskcolor="#505050"
     showgrid="false"
     inkscape:zoom="0.99414062"
     inkscape:cx="256"
     inkscape:cy="256"
     inkscape:window-width="1366"
     inkscape:window-height="705"
     inkscape:window-x="-8"
     inkscape:window-y="-8"
     inkscape:window-maximized="1"
     inkscape:current-layer="svg1" />
  <!--! Font Awesome Free 6.5.1 by @fontawesome - https://fontawesome.com License - https://fontawesome.com/license/free (Icons: CC BY 4.0, Fonts: SIL OFL 1.1, Code: MIT License) Copyright 2023 Fonticons, Inc. -->
  <path
     d="M504 256c0 136.967-111.033 248-248 248S8 392.967 8 256 119.033 8 256 8s248 111.033 248 248zm-141.651-35.33c4.937-32.999-20.191-50.739-54.55-62.573l11.146-44.702-27.213-6.781-10.851 43.524c-7.154-1.783-14.502-3.464-21.803-5.13l10.929-43.81-27.198-6.781-11.153 44.686c-5.922-1.349-11.735-2.682-17.377-4.084l.031-.14-37.53-9.37-7.239 29.062s20.191 4.627 19.765 4.913c11.022 2.751 13.014 10.044 12.68 15.825l-12.696 50.925c.76.194 1.744.473 2.829.907-.907-.225-1.876-.473-2.876-.713l-17.796 71.338c-1.349 3.348-4.767 8.37-12.471 6.464.271.395-19.78-4.937-19.78-4.937l-13.51 31.147 35.414 8.827c6.588 1.651 13.045 3.379 19.4 5.006l-11.262 45.213 27.182 6.781 11.153-44.733a1038.209 1038.209 0 0 0 21.687 5.627l-11.115 44.523 27.213 6.781 11.262-45.128c46.404 8.781 81.299 5.239 95.986-36.727 11.836-33.79-.589-53.281-25.004-65.991 17.78-4.098 31.174-15.792 34.747-39.949zm-62.177 87.179c-8.41 33.79-65.308 15.523-83.755 10.943l14.944-59.899c18.446 4.603 77.6 13.717 68.811 48.956zm8.417-87.667c-7.673 30.736-55.031 15.12-70.393 11.292l13.548-54.327c15.363 3.828 64.836 10.973 56.845 43.035z"
     id="path1" />
  <path
     style="fill:#ffffff;stroke-width:1.00589"
     d="M 239.9057,502.94458 C 154.89215,496.91265 80.12392,449.15267 38.983298,374.60065 18.796487,338.01958 8.8178227,298.78678 8.8178227,256 8.8178227,190.21796 33.229781,130.41026 79.375245,83.138924 136.33708,24.78732 216.80266,-1.3935618 297.57673,12.143257 371.49771,24.531575 437.01153,71.40772 473.3172,137.88825 493.31065,174.49893 503.09371,213.3045 503.09371,256 c 0,28.14294 -3.30377,49.80052 -11.43166,74.9391 -24.67167,76.3065 -82.29916,134.47568 -158.71117,160.20302 -27.59464,9.2909 -63.76997,13.87962 -93.04518,11.80246 z m 11.4827,-116.42985 c 2.96996,-12.033 5.52394,-22.02867 5.67548,-22.2126 0.15155,-0.18392 4.95335,0.41443 10.67067,1.32969 14.79396,2.36829 35.28537,2.17307 45.41426,-0.43267 21.25565,-5.46818 34.42129,-19.51359 41.53386,-44.30922 2.19961,-7.66821 2.54128,-10.60839 2.25007,-19.36238 -0.3027,-9.09948 -0.71554,-11.09524 -3.48751,-16.85957 -4.04678,-8.41531 -8.96654,-13.99914 -16.9711,-19.26184 l -6.41902,-4.22025 7.79508,-3.79316 c 16.2478,-7.90631 25.27751,-23.71293 25.27751,-44.2486 0,-14.77441 -5.58469,-26.16217 -17.85564,-36.40948 -5.91392,-4.93862 -24.13512,-14.72981 -31.54131,-16.94876 -2.26867,-0.67971 -4.3257,-1.75928 -4.57121,-2.39905 -0.2455,-0.63976 1.83855,-10.26947 4.63124,-21.39936 2.79267,-11.12988 5.07759,-20.87564 5.07759,-21.65723 0,-0.98028 -3.89193,-2.39572 -12.54727,-4.56328 -6.90101,-1.72822 -13.13564,-3.14222 -13.85474,-3.14222 -0.86538,0 -3.10958,7.25937 -6.63719,21.46946 l -5.32973,21.46945 -9.69125,-2.34289 c -5.33019,-1.28859 -9.9721,-2.46262 -10.31534,-2.60895 -0.34325,-0.14632 1.74471,-9.99807 4.6399,-21.89276 2.89521,-11.8947 5.18919,-21.70627 5.09775,-21.8035 -0.0914,-0.0972 -6.38251,-1.743226 -13.98016,-3.657778 l -13.81393,-3.481005 -0.96553,3.657781 c -0.53103,2.011778 -3.06709,12.091412 -5.63568,22.399202 -3.90007,15.65105 -4.94471,18.67161 -6.33519,18.31807 -25.00745,-6.35837 -52.93769,-13.2651 -53.03591,-13.11497 -0.51553,0.7879 -7.277,29.39714 -7.01063,29.6635 0.18666,0.18665 5.02478,1.48553 10.7514,2.88639 15.69539,3.83945 20.97391,7.69262 20.97391,15.31041 0,1.70149 -6.81977,30.68082 -15.15505,64.39849 -16.71468,67.61393 -16.31747,66.50351 -23.77531,66.46415 -2.10107,-0.0111 -8.11722,-1.1232 -13.36921,-2.47135 -5.252,-1.34815 -9.82913,-2.13122 -10.1714,-1.74015 -1.44554,1.65161 -13.27969,30.41158 -12.73705,30.95422 0.32712,0.32712 12.03965,3.48703 26.02785,7.02202 13.98819,3.535 25.97865,6.63662 26.64545,6.8925 0.8722,0.33469 -0.30478,6.48237 -4.19474,21.91015 -2.9739,11.7947 -5.41881,21.95469 -5.43312,22.57775 -0.0231,1.00357 22.87705,7.41726 26.48336,7.41726 1.00533,0 2.94742,-6.18667 6.71,-21.37525 2.91236,-11.75638 5.45104,-21.66327 5.64153,-22.01531 0.57806,-1.06833 20.48892,4.32609 20.45863,5.54283 -0.0155,0.62293 -2.42588,10.6383 -5.35639,22.25637 l -5.3282,21.12378 12.14618,3.17419 c 6.6804,1.74579 13.06214,3.21691 14.18166,3.26915 1.82858,0.0853 2.58436,-2.12888 7.43543,-21.78323 z"
     id="path2" />
  <path
     style="fill:#ffffff;stroke-width:1.00589"
     d="m 244.43222,324.98137 c -8.31162,-1.59921 -26.11902,-5.98072 -26.9437,-6.62949 -0.27318,-0.21491 13.92063,-58.00289 14.39932,-58.62468 0.37329,-0.48489 27.67605,6.55454 33.66815,8.6806 14.95755,5.30711 25.87102,12.19178 30.56135,19.27934 8.61709,13.02129 3.63368,29.92454 -10.70335,36.30478 -7.2299,3.21743 -26.9302,3.69307 -40.98177,0.98945 z"
     id="path3" />
  <path
     style="fill:#ffffff;stroke-width:1.00589"
     d="m 265.55599,237.31321 c -3.04283,-0.53523 -10.3372,-2.1195 -16.20972,-3.5206 l -10.67731,-2.54744 6.55434,-26.3495 c 3.60489,-14.49223 6.69628,-26.52215 6.86975,-26.73317 0.55414,-0.67405 19.74494,4.05614 27.04251,6.6655 10.31377,3.68785 16.20309,6.89506 21.36636,11.63571 7.68351,7.05462 10.01028,15.34504 7.07798,25.21919 -1.56358,5.26519 -9.00523,12.80076 -14.36183,14.54309 -5.26822,1.71359 -20.66155,2.31861 -27.66208,1.08722 z"
     id="path4" />
</svg>
