<?xml version="1.0" encoding="UTF-8" standalone="no"?>
<svg
   viewBox="0 0 576 512"
   version="1.1"
   id="svg1"
   sodipodi:docname="cart-shopping.svg"
   inkscape:version="1.3.2 (091e20e, 2023-11-25, custom)"
   xmlns:inkscape="http://www.inkscape.org/namespaces/inkscape"
   xmlns:sodipodi="http://sodipodi.sourceforge.net/DTD/sodipodi-0.dtd"
   xmlns="http://www.w3.org/2000/svg"
   xmlns:svg="http://www.w3.org/2000/svg">
  <defs
     id="defs1" />
  <sodipodi:namedview
     id="namedview1"
     pagecolor="#505050"
     bordercolor="#eeeeee"
     borderopacity="1"
     inkscape:showpageshadow="0"
     inkscape:pageopacity="0"
     inkscape:pagecheckerboard="0"
     inkscape:deskcolor="#505050"
     inkscape:zoom="0.98611111"
     inkscape:cx="287.49296"
     inkscape:cy="256.05634"
     inkscape:window-width="1366"
     inkscape:window-height="705"
     inkscape:window-x="-8"
     inkscape:window-y="-8"
     inkscape:window-maximized="1"
     inkscape:current-layer="svg1" />
  <!--! Font Awesome Free 6.5.1 by @fontawesome - https://fontawesome.com License - https://fontawesome.com/license/free (Icons: CC BY 4.0, Fonts: SIL OFL 1.1, Code: MIT License) Copyright 2023 Fonticons, Inc. -->
  <path
     d="M0 24C0 10.7 10.7 0 24 0H69.5c22 0 41.5 12.8 50.6 32h411c26.3 0 45.5 25 38.6 50.4l-41 152.3c-8.5 31.4-37 53.3-69.5 53.3H170.7l5.4 28.5c2.2 11.3 12.1 19.5 23.6 19.5H488c13.3 0 24 10.7 24 24s-10.7 24-24 24H199.7c-34.6 0-64.3-24.6-70.7-58.5L77.4 54.5c-.7-3.8-4-6.5-7.9-6.5H24C10.7 48 0 37.3 0 24zM128 464a48 48 0 1 1 96 0 48 48 0 1 1 -96 0zm336-48a48 48 0 1 1 0 96 48 48 0 1 1 0-96z"
     id="path1" />
  <path
     style="fill:#ffffff;stroke-width:1.01408"
     d="m 184.05634,381.712 c -3.62535,-0.77456 -10.9256,-3.54269 -16.22276,-6.15138 -8.00893,-3.94417 -11.0898,-6.20927 -18.29074,-13.44763 -8.83407,-8.88 -15.49898,-19.53326 -18.13438,-28.98623 -0.62198,-2.23099 -12.99677,-66.34648 -27.49955,-142.47887 C 78.967113,59.715753 77.400997,52.101884 74.96709,49.943662 c -2.524285,-2.238363 -3.060686,-2.28169 -28.248254,-2.28169 -27.180752,0 -30.631623,-0.47519 -37.1481224,-5.115346 C 5.5350853,39.673005 1.6659114,32.776012 0.88232856,27.059153 -0.41869765,17.567132 5.0287308,7.531494 14.052621,2.7959066 17.928199,0.76206848 20.042504,0.56001042 41.35472,0.1867247 c 36.410483,-0.63773347 47.932325,1.5688844 61.29935,11.7398113 6.18482,4.706008 14.77489,14.655504 16.00834,18.541742 0.6114,1.926362 4.11696,1.963273 211.23317,2.22417 l 210.61146,0.265298 6.81949,3.230521 c 13.4397,6.366651 22.07694,19.113607 22.83886,33.705911 0.38587,7.390229 -0.43366,10.777167 -21.48614,88.797382 -24.56864,91.05103 -24.98317,92.23327 -36.82634,105.02498 -10.32381,11.15067 -20.83367,17.56956 -35.74023,21.82834 -6.24782,1.78499 -14.39606,1.91133 -156.25497,2.42268 l -149.66342,0.53948 3.28055,16.60828 c 3.74217,18.94529 5.67689,22.79041 14.08224,27.98745 l 4.95914,3.06624 151.17851,0.50705 151.17851,0.50704 4.56338,2.54849 c 5.39113,3.01076 10.66997,10.34049 11.65771,16.18684 1.6935,10.02376 -3.38751,19.95051 -12.60011,24.61678 l -5.50579,2.78873 -151.17027,-0.10182 C 216.95859,383.13802 189.50065,382.87518 184.05634,381.712 Z"
     id="path2" />
  <path
     style="fill:#ffffff;stroke-width:1.01408"
     d="m 160.62432,508.69078 c -12.09895,-4.27105 -21.38162,-12.49065 -27.15585,-24.04589 -11.75413,-23.52211 -1.53186,-51.90462 22.89476,-63.56812 7.73095,-3.69146 8.19643,-3.781 19.65688,-3.781 h 11.73843 l 8.69286,4.30748 c 28.66634,14.20474 35.84444,50.461 14.63548,73.92321 -12.78569,14.14405 -32.85561,19.37975 -50.46256,13.16432 z"
     id="path3" />
  <path
     style="fill:#ffffff;stroke-width:1.01408"
     d="m 448.62432,508.69078 c -12.09895,-4.27105 -21.38162,-12.49065 -27.15585,-24.04589 -11.75413,-23.52211 -1.53186,-51.90462 22.89476,-63.56812 7.73095,-3.69146 8.19643,-3.781 19.65688,-3.781 h 11.73843 l 8.69286,4.30748 c 28.66634,14.20474 35.84444,50.461 14.63548,73.92321 -12.78569,14.14405 -32.85561,19.37975 -50.46256,13.16432 z"
     id="path4" />
</svg>
