<?xml version="1.0" encoding="UTF-8" standalone="no"?>
<svg
   viewBox="0 0 576 512"
   version="1.1"
   id="svg1"
   sodipodi:docname="cc-mastercard.svg"
   inkscape:version="1.3.2 (091e20e, 2023-11-25, custom)"
   xmlns:inkscape="http://www.inkscape.org/namespaces/inkscape"
   xmlns:sodipodi="http://sodipodi.sourceforge.net/DTD/sodipodi-0.dtd"
   xmlns="http://www.w3.org/2000/svg"
   xmlns:svg="http://www.w3.org/2000/svg">
  <defs
     id="defs1" />
  <sodipodi:namedview
     id="namedview1"
     pagecolor="#505050"
     bordercolor="#eeeeee"
     borderopacity="1"
     inkscape:showpageshadow="0"
     inkscape:pageopacity="0"
     inkscape:pagecheckerboard="0"
     inkscape:deskcolor="#505050"
     inkscape:zoom="0.99414062"
     inkscape:cx="288.18861"
     inkscape:cy="256"
     inkscape:window-width="1366"
     inkscape:window-height="705"
     inkscape:window-x="-8"
     inkscape:window-y="-8"
     inkscape:window-maximized="1"
     inkscape:current-layer="svg1" />
  <!--! Font Awesome Free 6.5.1 by @fontawesome - https://fontawesome.com License - https://fontawesome.com/license/free (Icons: CC BY 4.0, Fonts: SIL OFL 1.1, Code: MIT License) Copyright 2023 Fonticons, Inc. -->
  <path
     d="M482.9 410.3c0 6.8-4.6 11.7-11.2 11.7-6.8 0-11.2-5.2-11.2-11.7 0-6.5 4.4-11.7 11.2-11.7 6.6 0 11.2 5.2 11.2 11.7zm-310.8-11.7c-7.1 0-11.2 5.2-11.2 11.7 0 6.5 4.1 11.7 11.2 11.7 6.5 0 10.9-4.9 10.9-11.7-.1-6.5-4.4-11.7-10.9-11.7zm117.5-.3c-5.4 0-8.7 3.5-9.5 8.7h19.1c-.9-5.7-4.4-8.7-9.6-8.7zm107.8.3c-6.8 0-10.9 5.2-10.9 11.7 0 6.5 4.1 11.7 10.9 11.7 6.8 0 11.2-4.9 11.2-11.7 0-6.5-4.4-11.7-11.2-11.7zm105.9 26.1c0 .3.3.5.3 1.1 0 .3-.3.5-.3 1.1-.3.3-.3.5-.5.8-.3.3-.5.5-1.1.5-.3.3-.5.3-1.1.3-.3 0-.5 0-1.1-.3-.3 0-.5-.3-.8-.5-.3-.3-.5-.5-.5-.8-.3-.5-.3-.8-.3-1.1 0-.5 0-.8.3-1.1 0-.5.3-.8.5-1.1.3-.3.5-.3.8-.5.5-.3.8-.3 1.1-.3.5 0 .8 0 1.1.3.5.3.8.3 1.1.5s.2.6.5 1.1zm-2.2 1.4c.5 0 .5-.3.8-.3.3-.3.3-.5.3-.8 0-.3 0-.5-.3-.8-.3 0-.5-.3-1.1-.3h-1.6v3.5h.8V426h.3l1.1 1.4h.8l-1.1-1.3zM576 81v352c0 26.5-21.5 48-48 48H48c-26.5 0-48-21.5-48-48V81c0-26.5 21.5-48 48-48h480c26.5 0 48 21.5 48 48zM64 220.6c0 76.5 62.1 138.5 138.5 138.5 27.2 0 53.9-8.2 76.5-23.1-72.9-59.3-72.4-171.2 0-230.5-22.6-15-49.3-23.1-76.5-23.1-76.4-.1-138.5 62-138.5 138.2zm224 108.8c70.5-55 70.2-162.2 0-217.5-70.2 55.3-70.5 162.6 0 217.5zm-142.3 76.3c0-8.7-5.7-14.4-14.7-14.7-4.6 0-9.5 1.4-12.8 6.5-2.4-4.1-6.5-6.5-12.2-6.5-3.8 0-7.6 1.4-10.6 5.4V392h-8.2v36.7h8.2c0-18.9-2.5-30.2 9-30.2 10.2 0 8.2 10.2 8.2 30.2h7.9c0-18.3-2.5-30.2 9-30.2 10.2 0 8.2 10 8.2 30.2h8.2v-23zm44.9-13.7h-7.9v4.4c-2.7-3.3-6.5-5.4-11.7-5.4-10.3 0-18.2 8.2-18.2 19.3 0 11.2 7.9 19.3 18.2 19.3 5.2 0 9-1.9 11.7-5.4v4.6h7.9V392zm40.5 25.6c0-15-22.9-8.2-22.9-15.2 0-5.7 11.9-4.8 18.5-1.1l3.3-6.5c-9.4-6.1-30.2-6-30.2 8.2 0 14.3 22.9 8.3 22.9 15 0 6.3-13.5 5.8-20.7.8l-3.5 6.3c11.2 7.6 32.6 6 32.6-7.5zm35.4 9.3l-2.2-6.8c-3.8 2.1-12.2 4.4-12.2-4.1v-16.6h13.1V392h-13.1v-11.2h-8.2V392h-7.6v7.3h7.6V416c0 17.6 17.3 14.4 22.6 10.9zm13.3-13.4h27.5c0-16.2-7.4-22.6-17.4-22.6-10.6 0-18.2 7.9-18.2 19.3 0 20.5 22.6 23.9 33.8 14.2l-3.8-6c-7.8 6.4-19.6 5.8-21.9-4.9zm59.1-21.5c-4.6-2-11.6-1.8-15.2 4.4V392h-8.2v36.7h8.2V408c0-11.6 9.5-10.1 12.8-8.4l2.4-7.6zm10.6 18.3c0-11.4 11.6-15.1 20.7-8.4l3.8-6.5c-11.6-9.1-32.7-4.1-32.7 15 0 19.8 22.4 23.8 32.7 15l-3.8-6.5c-9.2 6.5-20.7 2.6-20.7-8.6zm66.7-18.3H408v4.4c-8.3-11-29.9-4.8-29.9 13.9 0 19.2 22.4 24.7 29.9 13.9v4.6h8.2V392zm33.7 0c-2.4-1.2-11-2.9-15.2 4.4V392h-7.9v36.7h7.9V408c0-11 9-10.3 12.8-8.4l2.4-7.6zm40.3-14.9h-7.9v19.3c-8.2-10.9-29.9-5.1-29.9 13.9 0 19.4 22.5 24.6 29.9 13.9v4.6h7.9v-51.7zm7.6-75.1v4.6h.8V302h1.9v-.8h-4.6v.8h1.9zm6.6 123.8c0-.5 0-1.1-.3-1.6-.3-.3-.5-.8-.8-1.1-.3-.3-.8-.5-1.1-.8-.5 0-1.1-.3-1.6-.3-.3 0-.8.3-1.4.3-.5.3-.8.5-1.1.8-.5.3-.8.8-.8 1.1-.3.5-.3 1.1-.3 1.6 0 .3 0 .8.3 1.4 0 .3.3.8.8 1.1.3.3.5.5 1.1.8.5.3 1.1.3 1.4.3.5 0 1.1 0 1.6-.3.3-.3.8-.5 1.1-.8.3-.3.5-.8.8-1.1.3-.6.3-1.1.3-1.4zm3.2-124.7h-1.4l-1.6 3.5-1.6-3.5h-1.4v5.4h.8v-4.1l1.6 3.5h1.1l1.4-3.5v4.1h1.1v-5.4zm4.4-80.5c0-76.2-62.1-138.3-138.5-138.3-27.2 0-53.9 8.2-76.5 23.1 72.1 59.3 73.2 171.5 0 230.5 22.6 15 49.5 23.1 76.5 23.1 76.4.1 138.5-61.9 138.5-138.4z"
     id="path1" />
  <path
     style="fill:#ffffff;stroke-width:1.00589"
     d="M 38.287498,479.25331 C 18.46759,474.95544 3.6635225,458.7816 1.0395985,438.55901 -0.28025391,428.3869 -0.28025391,85.624888 1.0395985,75.452779 2.1757341,66.696574 6.8982138,56.004062 12.43735,49.646293 16.982962,44.428882 25.405697,38.785426 32.944306,35.906088 l 5.78261,-2.208642 244.935164,-0.281474 c 178.80202,-0.205476 246.78738,0.02596 251.79513,0.857141 18.01571,2.990245 33.84484,17.284237 38.36704,34.646112 1.3646,5.239041 1.54707,27.421131 1.54707,188.068305 0,174.85228 -0.0752,182.39986 -1.88198,188.9157 -4.5694,16.4787 -18.94889,29.80795 -36.07059,33.43612 -10.0547,2.13063 -489.289904,2.04803 -499.131252,-0.086 z M 179.30059,427.83837 c 2.41677,-1.2153 2.76621,-1.19715 2.76621,0.14366 0,1.14828 1.13968,1.53467 4.52652,1.53467 h 4.52652 v -19.11198 -19.11199 h -4.52652 c -3.49625,0 -4.52652,0.36976 -4.52652,1.62453 0,1.47472 -0.21834,1.48147 -2.36768,0.0732 -9.74082,-6.38244 -24.10292,0.23181 -26.68923,12.29132 -3.64851,17.01243 11.48888,29.99985 26.2907,22.55662 z m 46.0729,-0.38496 c 4.05659,-2.04189 5.98211,-5.46512 5.98211,-10.6351 0,-5.3906 -3.96191,-8.77666 -12.07073,-10.3163 -9.77925,-1.8568 -10.21301,-2.05206 -9.86611,-4.44108 0.5046,-3.47493 5.34236,-3.8773 15.07428,-1.25379 2.34609,0.63246 2.91264,0.3022 4.39322,-2.56094 1.60407,-3.10192 1.60057,-3.35956 -0.0621,-4.57534 -2.84334,-2.0791 -11.95243,-3.7031 -16.74209,-2.98485 -6.66533,0.99952 -10.57873,3.81655 -12.0297,8.65944 -2.38481,7.95982 2.09794,12.97001 13.38323,14.95788 7.09591,1.24991 9.91054,3.18791 7.99029,5.50166 -2.55583,3.07959 -9.86155,2.77982 -18.25816,-0.74915 -1.02551,-0.43101 -2.10588,0.32827 -3.26916,2.29755 -2.25917,3.82446 -2.26084,3.81743 1.35706,5.68832 7.11209,3.67781 17.2842,3.85144 24.11786,0.4117 z m 38.78105,1.01657 c 2.61414,-0.9939 2.9394,-2.45235 1.43148,-6.41852 -0.86078,-2.26399 -1.28375,-2.44968 -3.58611,-1.57433 -7.49335,2.84897 -9.52054,0.4748 -9.52054,-11.15016 v -8.98119 h 6.53831 6.53831 v -4.52653 -4.52652 h -6.53831 -6.53831 v -5.53242 -5.53241 h -4.52652 -4.52652 v 5.53241 5.53242 h -4.02358 -4.02358 v 4.02358 c 0,4.00883 0.0144,4.02357 3.93702,4.02357 h 3.93701 l 0.33804,11.49782 c 0.28717,9.76769 0.65493,11.92458 2.44403,14.33399 3.63632,4.89704 10.58657,6.16222 18.11927,3.29829 z m 37.36216,-1.03092 c 2.35128,-1.00805 4.27505,-2.10707 4.27505,-2.44227 0,-1.30978 -3.11543,-6.54492 -3.89486,-6.54492 -0.45404,0 -2.3103,0.7407 -4.12502,1.646 -1.81474,0.90531 -5.13594,1.64602 -7.38045,1.64602 -3.36764,0 -4.61331,-0.59539 -7.12672,-3.40633 l -3.04577,-3.40632 13.7923,-0.27986 13.79231,-0.27986 v -3.04681 c 0,-10.64191 -6.08666,-19.31303 -14.43553,-20.56502 -12.50887,-1.87582 -21.77665,6.33256 -21.77665,19.28737 0,16.19119 13.89289,24.26545 29.92534,17.392 z m 67.04229,1.45354 c 6.53375,-2.22627 6.69168,-3.03357 2.00789,-10.26343 -0.11603,-0.1791 -1.58851,0.38671 -3.27217,1.25736 -5.21393,2.69624 -9.91507,2.0715 -13.82359,-1.83702 -3.73772,-3.73772 -4.49043,-8.21856 -2.21831,-13.20532 2.28834,-5.02237 10.49448,-7.08467 15.89847,-3.99547 3.40267,1.94515 3.31325,1.97832 5.47164,-2.02955 1.87274,-3.47747 1.87235,-3.56292 -0.0227,-4.96314 -2.03435,-1.50314 -9.10985,-3.57307 -12.18117,-3.56358 -6.85163,0.0211 -15.51191,5.66248 -18.06197,11.76562 -0.74745,1.78891 -1.359,5.5449 -1.359,8.34665 0,2.80174 0.61155,6.55773 1.359,8.34664 1.6777,4.01531 7.79813,9.52353 11.48459,10.33584 1.51127,0.33301 3.20041,0.75647 3.75365,0.94102 2.40996,0.80392 6.52129,0.37806 10.96371,-1.13562 z m 36.02707,-0.99681 c 2.47302,-1.27885 2.80097,-1.26875 2.80097,0.0862 0,1.14828 1.13968,1.53467 4.52653,1.53467 h 4.52652 v -19.11198 -19.11199 h -4.52652 c -3.38344,0 -4.52653,0.38689 -4.52653,1.53203 0,1.31374 -0.38419,1.2803 -2.69638,-0.23471 -1.78293,-1.16822 -4.65818,-1.76674 -8.48731,-1.76674 -10.77968,0 -18.36286,8.11359 -18.2553,19.53218 0.0622,6.60653 2.9137,13.1825 6.82845,15.74754 6.76291,4.43123 13.52409,5.04312 19.80957,1.79276 z m 74.43615,0 c 2.47302,-1.27885 2.80097,-1.26875 2.80097,0.0862 0,1.14828 1.13968,1.53467 4.52653,1.53467 h 4.52652 v -26.65619 -26.65619 h -4.52652 -4.52653 v 9.16874 9.16873 l -2.36767,-1.55136 c -7.81734,-5.12211 -20.79878,-1.40264 -25.21159,7.22369 -8.79335,17.18953 8.2493,36.22914 24.77829,27.68167 z M 95.559921,418.60197 c 0,-15.90293 1.650916,-19.26209 9.466679,-19.26209 5.83997,0 7.08837,3.01429 7.26835,17.54948 l 0.15012,12.12439 4.13109,0.30931 4.13111,0.30932 V 418.6598 c 0,-15.96406 1.64435,-19.31992 9.46668,-19.31992 5.97705,0 7.15397,2.99779 7.01184,17.86032 l -0.11871,12.41588 4.64524,-0.30116 4.64524,-0.30117 v -12.57367 c 0,-14.28576 -0.47482,-16.72288 -4.09671,-21.02725 -4.79626,-5.70004 -15.58654,-6.47194 -21.45405,-1.53476 -2.81006,2.36451 -2.87204,2.37052 -4.61324,0.4465 -3.89276,-4.30145 -12.74996,-4.94837 -18.265964,-1.33414 -2.149333,1.4083 -2.367675,1.40155 -2.367675,-0.0732 0,-1.25477 -1.030276,-1.62453 -4.526522,-1.62453 h -4.526523 v 19.11199 19.11198 h 4.526523 4.526522 z m 228.509449,-2.05953 c 0.28704,-11.2367 0.59809,-13.26851 2.32267,-15.17134 1.58452,-1.74828 2.87523,-2.12675 6.31887,-1.85287 4.24316,0.33747 4.35019,0.26884 5.48438,-3.51677 0.94949,-3.1691 0.89869,-4.02429 -0.2835,-4.77239 -2.41159,-1.52608 -7.29472,-1.04503 -10.7448,1.05853 -2.66748,1.62639 -3.26915,1.71827 -3.26915,0.49919 0,-1.10014 -1.19345,-1.49406 -4.52652,-1.49406 h -4.52653 v 19.11199 19.11198 h 4.44659 4.44658 z m 111.48269,0.12146 c 0,-15.84783 0.80353,-17.61213 7.82455,-17.18037 4.42182,0.27193 4.64298,0.15103 5.85314,-3.19967 1.76916,-4.89852 1.79693,-4.82751 -2.17992,-5.57358 -2.32584,-0.43633 -4.9833,-0.12655 -7.5442,0.8794 -2.17446,0.85415 -3.95357,1.13676 -3.95357,0.62802 0,-0.50873 -2.03693,-0.92497 -4.52652,-0.92497 h -4.52652 v 19.11199 19.11198 h 4.52652 4.52652 z m 68.19961,11.64573 c 3.03147,-3.03148 0.0225,-7.51827 -4.31228,-6.4303 -1.95071,0.4896 -2.5278,1.28072 -2.5278,3.46531 0,1.55698 0.30177,3.13264 0.6706,3.50146 1.09294,1.09295 4.86835,0.76466 6.16948,-0.53647 z M 225.07126,357.58658 c 12.92912,-2.09689 26.95313,-6.72058 39.98179,-13.18192 6.08565,-3.01808 11.8249,-6.06417 12.75389,-6.76908 1.5037,-1.14099 0.39896,-2.59988 -10.06643,-13.29358 -20.67663,-21.1277 -32.27565,-42.16673 -39.06402,-70.85673 -3.70301,-15.6502 -4.36109,-40.26244 -1.51961,-56.83301 5.40226,-31.50428 18.5309,-57.06463 41.03822,-79.89802 13.03324,-13.22206 13.20061,-11.27105 -1.63539,-19.063183 -41.12237,-21.598201 -93.64367,-20.543544 -133.40593,2.678863 -75.819658,44.28106 -92.680233,145.0354 -35.40661,211.58051 19.80313,23.00888 50.34033,40.22927 80.799,45.56379 10.91678,1.91196 34.95195,1.94934 46.52509,0.0724 z m 176.78336,-0.90166 c 27.19043,-6.16039 50.19229,-18.55301 69.07798,-37.21688 18.66006,-18.44089 30.45694,-39.00848 37.26855,-64.97688 4.02367,-15.33968 5.03981,-40.17286 2.31192,-56.49988 -8.49576,-50.84903 -44.21938,-92.52672 -93.41783,-108.987817 -14.72652,-4.927282 -26.85951,-6.83894 -43.40565,-6.83894 -16.0498,0 -27.69432,1.7644 -42.47242,6.435507 -9.66548,3.055093 -27.73501,11.356644 -32.25065,14.81667 l -2.29872,1.76135 10.89624,11.03376 c 11.41403,11.55808 20.74756,24.40867 27.33574,37.63635 29.51034,59.25064 17.18846,130.38881 -30.21224,174.425 -6.73335,6.25541 -8.10432,7.99655 -6.9161,8.78358 14.45473,9.57424 34.37355,17.28472 53.28553,20.62656 10.14869,1.79333 41.16648,1.18371 50.79765,-0.99838 z M 294.53429,324.49336 c 22.47759,-20.05638 36.64799,-44.12855 43.57624,-74.02578 2.95124,-12.73543 3.62735,-36.62351 1.43773,-50.79764 -3.27858,-21.22329 -12.05161,-42.79977 -24.5033,-60.26367 -6.03314,-8.46167 -24.67177,-27.75205 -26.81443,-27.75205 -0.69027,0 -5.15902,3.65258 -9.93053,8.11685 -48.77495,45.63423 -57.54058,121.53069 -20.52201,177.68793 4.84503,7.34991 10.65508,14.33405 18.01947,21.66084 5.97788,5.94735 11.26743,10.81336 11.75458,10.81336 0.48713,0 3.62914,-2.44793 6.98225,-5.43984 z m 204.38909,-19.70751 c 0,-1.10648 0.45265,-2.01178 1.00589,-2.01178 0.55324,0 1.0059,0.83196 1.0059,1.8488 0,1.41711 0.82205,1.8797 3.52063,1.98116 3.2629,0.12267 3.52062,-0.0863 3.52062,-2.8547 0,-3.18592 -0.86432,-3.73216 -2.8165,-1.77998 -0.93883,0.93883 -1.20707,0.93883 -1.20707,0 0,-0.74289 -1.58864,-1.20707 -4.1312,-1.20707 -3.35384,0 -4.0163,0.29939 -3.52063,1.59111 0.33582,0.87511 0.61057,2.23307 0.61057,3.01768 0,0.78461 0.45265,1.42657 1.0059,1.42657 0.55324,0 1.00589,-0.9053 1.00589,-2.01179 z"
     id="path2" />
  <path
     style="fill:#ffffff;stroke-width:1.00589"
     d="m 166.2857,419.50632 c -3.92106,-2.39083 -5.62865,-7.47856 -4.22105,-12.57648 2.12438,-7.69389 11.4706,-10.24089 17.06184,-4.64965 2.40538,2.40538 2.94031,3.78991 2.94031,7.61033 0,5.70973 -1.18009,8.0796 -5.00934,10.05978 -3.92903,2.03178 -6.91315,1.90878 -10.77176,-0.44398 z"
     id="path3" />
  <path
     style="fill:#ffffff;stroke-width:1.00589"
     d="m 282.09685,403.47251 c 3.06981,-5.93637 12.13138,-5.93637 15.2012,0 l 1.5041,2.90863 h -9.1047 -9.10471 z"
     id="path4" />
  <path
     style="fill:#ffffff;stroke-width:1.00589"
     d="m 392.18602,420.01555 c -3.51404,-1.98271 -5.31234,-6.62546 -4.60602,-11.89151 1.49496,-11.14573 16.2372,-12.05667 19.81222,-1.22422 1.35195,4.09642 0.0719,9.25425 -2.98266,12.01861 -2.60295,2.35564 -8.97877,2.92789 -12.22354,1.09712 z"
     id="path5" />
  <path
     style="fill:#ffffff;stroke-width:1.00589"
     d="m 466.73477,420.18941 c -1.3831,-0.68776 -3.36527,-2.98856 -4.40483,-5.11289 -1.61076,-3.29159 -1.71868,-4.43456 -0.73021,-7.73377 3.14052,-10.48212 17.24749,-10.7718 20.10772,-0.41291 2.66291,9.64426 -6.29312,17.57557 -14.97268,13.25957 z"
     id="path6" />
  <path
     style="fill:#ffffff;stroke-width:1.00589"
     d="M 123.72495,479.88201 C 45.583904,479.26343 38.321176,479.06373 33.697446,477.40655 19.233164,472.22242 9.3197479,462.26559 3.4007944,446.97721 1.5774824,442.26767 1.4991341,435.50537 1.2412941,260.58917 1.0668045,142.21707 1.3252638,77.141906 1.9843852,73.492899 2.540236,70.415617 4.8187295,64.191562 7.0477041,59.661668 11.892893,49.814903 17.96261,43.975593 29.118666,38.428523 L 36.610612,34.70334 284.11277,34.439441 c 169.16136,-0.180368 249.11481,0.06877 252.597,0.787102 17.47211,3.604271 33.60393,19.190052 36.70872,35.466177 1.40798,7.380963 1.37147,364.44467 -0.038,371.82701 -2.56416,13.43006 -12.01688,25.60605 -24.77364,31.91079 -6.182,3.05531 -8.99375,3.80599 -16.62291,4.43794 -13.08735,1.08409 -307.13105,1.81408 -408.25898,1.01355 z m -1.11896,-76.19523 c 2.24215,-3.56208 9.88235,-4.60404 12.31211,-1.67913 0.97425,1.17282 1.48406,5.63343 1.73236,15.15752 0.29765,11.41761 0.58137,13.40756 1.84258,12.92358 0.81992,-0.31462 3.08045,-0.57205 5.02343,-0.57205 h 3.53268 l -0.3458,-14.33399 c -0.39148,-16.22815 -1.54168,-19.59322 -7.88999,-23.08316 -4.59281,-2.52488 -13.84269,-2.09318 -17.85743,0.83342 l -2.7634,2.0144 -3.52062,-2.41928 c -3.10904,-2.13646 -4.22623,-2.34381 -9.556,-1.77363 -3.31945,0.35511 -8.864437,0.59203 -12.322197,0.52648 l -6.286837,-0.11918 v 19.17747 19.17747 h 4.427292 4.427293 l 0.722222,-11.81925 c 0.941613,-15.40958 1.889516,-17.3077 8.657597,-17.33627 5.69831,-0.024 6.36242,1.56517 6.76112,16.17928 l 0.35113,12.87031 4.1754,0.30443 4.17539,0.30445 1.14431,-13.07662 c 0.62936,-7.19215 1.19518,-13.15746 1.25736,-13.25625 z m 54.94463,25.38748 c 2.05468,-0.8585 3.70429,-1.06333 4.05063,-0.50295 0.32135,0.51997 2.5945,0.94539 5.05144,0.94539 h 4.46715 v -19.17747 -19.17747 l -6.28683,0.17374 c -3.45776,0.0956 -8.18195,-0.15706 -10.49818,-0.56136 -6.08021,-1.06132 -10.90609,0.16394 -15.08006,3.82874 -16.65115,14.6199 -1.68408,42.81952 18.29585,34.47138 z m 47.6802,-1.02016 c 1.64173,-0.84897 3.69143,-2.5522 4.55488,-3.78494 1.57656,-2.25087 2.11357,-9.26543 0.9429,-12.31618 -0.90404,-2.35587 -7.00752,-5.19152 -14.23468,-6.61338 -4.84487,-0.95317 -6.26209,-1.63332 -6.26209,-3.00529 0,-2.71397 2.79468,-3.21698 10.36083,-1.86484 7.49801,1.33997 8.04033,1.10896 9.39914,-4.00376 0.98419,-3.70323 -4.79794,-6.16301 -14.51134,-6.17326 -10.15067,-0.0107 -16.31347,4.73659 -16.31347,12.56655 0,5.24475 3.35144,9.03313 9.44271,10.67381 10.65681,2.87039 12.18401,3.48394 12.18401,4.89483 0,2.89489 -5.16229,3.6067 -12.38659,1.70794 -6.70027,-1.76102 -6.73197,-1.75954 -8.48571,0.39756 -2.75669,3.39072 -2.17851,5.48138 2.01179,7.27455 2.07466,0.88781 4.67741,1.83695 5.78389,2.10918 3.57756,0.88023 14.44445,-0.27558 17.51373,-1.86277 z m 37.55896,1.40971 c 3.36114,-0.93344 3.77043,-1.39859 3.75671,-4.26944 -0.025,-5.22627 -1.15147,-6.19578 -5.82161,-5.01037 -2.21463,0.56213 -4.60882,0.66222 -5.32043,0.22243 -1.26924,-0.78444 -2.6724,-8.8316 -2.8402,-16.28855 l -0.0849,-3.7721 h 6.53831 6.53831 v -4.52653 -4.52652 h -6.53831 -6.53831 v -5.53242 -5.53241 h -4.52652 -4.52652 v 5.53241 5.53242 h -4.02358 -4.02358 v 4.02358 c 0,3.89681 0.10662,4.02357 3.38391,4.02357 3.26312,0 3.40673,0.16658 4.02358,4.66692 0.35181,2.56681 0.63967,7.33419 0.63967,10.59419 0,7.7503 1.88418,12.09641 6.15667,14.20118 3.93765,1.93982 7.8911,2.13788 13.20678,0.66164 z m 38.72692,-1.4694 c 4.52221,-1.81291 4.98676,-2.85639 3.10769,-6.98048 -1.33541,-2.9309 -2.75044,-3.11346 -8.38863,-1.08223 -5.93764,2.13911 -8.15719,1.86638 -11.80338,-1.45035 l -3.28503,-2.98819 10.18467,-0.0295 c 5.60158,-0.0162 11.59922,-0.31239 13.3281,-0.65817 2.98124,-0.59624 3.14228,-0.86871 3.12133,-5.28094 -0.027,-5.68178 -2.68424,-11.69995 -6.92605,-15.68612 -2.76407,-2.5975 -4.05864,-3.02869 -9.9343,-3.3089 -8.26774,-0.39428 -13.55345,2.19058 -17.02944,8.3279 -2.79339,4.93211 -3.17689,15.93428 -0.73479,21.08062 4.56475,9.61948 16.20924,12.9274 28.35983,8.05635 z m 68.6319,0.91012 c 4.58791,-1.83571 5.3264,-4.62244 2.23624,-8.43862 -1.76775,-2.18308 -1.91296,-2.19666 -6.57189,-0.61492 -4.17907,1.41884 -5.18286,1.44257 -8.17301,0.19321 -6.07865,-2.53983 -8.65326,-9.42399 -5.63421,-15.06514 2.34412,-4.38002 9.96456,-6.03414 15.71933,-3.41209 2.38898,1.08849 2.89118,0.96068 4.6215,-1.17617 4.21239,-5.20208 0.0875,-9.12496 -10.42021,-9.90982 -7.33836,-0.54813 -13.83749,2.38983 -18.00102,8.13742 -2.62914,3.62942 -2.92729,4.82989 -2.92729,11.78632 0,6.94516 0.3005,8.16013 2.90883,11.76083 5.52462,7.62651 16.79199,10.52002 26.24173,6.73898 z m 32.72225,0.16973 c 2.05469,-0.8585 3.7043,-1.06333 4.05064,-0.50295 0.32135,0.51997 2.5945,0.94539 5.05143,0.94539 h 4.46716 v -19.17747 -19.17747 l -6.28684,0.11918 c -3.45776,0.0656 -9.00275,-0.16696 -12.3222,-0.51669 -7.95315,-0.83791 -13.90118,2.08415 -17.60006,8.64627 -3.35719,5.95592 -3.41029,15.51295 -0.12158,21.88055 3.83651,7.42827 14.71116,11.14682 22.76145,7.78319 z m 74.43615,0 c 2.05469,-0.8585 3.7043,-1.06333 4.05063,-0.50295 0.32136,0.51997 2.59451,0.94539 5.05144,0.94539 h 4.46716 v -26.65619 -26.65619 h -4.52652 -4.52653 v 8.5501 c 0,4.70255 -0.17458,8.5501 -0.38796,8.5501 -0.21338,0 -1.6845,-0.67619 -3.26916,-1.50265 -5.53694,-2.88771 -15.68077,-1.28088 -20.84105,3.30133 -5.17805,4.59797 -7.1764,15.80508 -4.12179,23.11577 4.11647,9.8521 14.89118,14.70456 24.10378,10.85529 z m -153.04294,-4.22448 c 0.35182,-2.56681 0.63967,-8.12424 0.63967,-12.34986 0,-9.92709 1.38633,-12.15414 7.56585,-12.15414 4.98765,0 6.8804,-2.046 6.32721,-6.83953 -0.30208,-2.61759 -0.51487,-2.70789 -5.84591,-2.48087 -3.04282,0.12959 -8.36149,0.21328 -11.81925,0.18599 l -6.28684,-0.0496 v 19.17747 19.17747 h 4.38981 4.38979 z m 111.77848,-8.15823 c 0.40285,-7.05383 1.1522,-13.61729 1.66522,-14.58546 0.66927,-1.26303 2.1667,-1.76031 5.30073,-1.76031 5.06338,0 6.76026,-1.52213 6.9777,-6.2591 l 0.15133,-3.2969 -5.53241,0.16007 c -3.04283,0.088 -8.3615,0.19575 -11.81926,0.23936 l -6.28683,0.0793 v 19.12409 19.1241 h 4.40553 4.40554 z m 68.41326,8.80157 c 0,-3.35297 -0.16766,-3.52062 -3.52063,-3.52062 -3.35298,0 -3.53568,0.1827 -3.83667,3.83667 l -0.31605,3.83667 3.83668,-0.31605 c 3.65397,-0.30099 3.83667,-0.48369 3.83667,-3.83667 z m -271.84709,-68.72 c 18.48824,-4.82749 45.14657,-16.48884 45.83213,-20.0487 0.1977,-1.02654 -3.49966,-5.72835 -9.43827,-12.00235 -21.70623,-22.93209 -32.29612,-41.74599 -39.40819,-70.01221 -2.53125,-10.06021 -2.71426,-12.25933 -2.7389,-32.91025 -0.029,-24.26269 0.87242,-30.71958 6.74018,-48.28291 7.21717,-21.60232 17.93167,-38.4539 37.17646,-58.47042 4.32327,-4.49664 7.86049,-8.65134 7.86049,-9.23266 0,-5.13121 -30.56959,-18.211135 -51.30059,-21.950183 -12.85538,-2.318598 -37.40504,-2.310435 -50.14534,0.01668 -43.20706,7.892098 -79.811315,35.403583 -99.678276,74.917453 -4.982428,9.90968 -10.801283,28.66092 -12.683444,40.87237 -2.236461,14.51014 -1.599847,37.25415 1.407767,50.2947 11.427265,49.54686 43.989763,85.94847 91.757073,102.57518 16.55885,5.76376 22.5797,6.54385 47.21256,6.1171 14.89531,-0.25806 23.42565,-0.84439 27.40635,-1.8838 z m 173.61573,-0.6207 c 46.70187,-11.64346 84.22282,-46.02189 99.2536,-90.94072 4.76082,-14.22751 6.62504,-27.11241 6.63686,-45.87173 0.0144,-22.79549 -4.28407,-41.60566 -13.91934,-60.91168 C 485.72032,133.43185 463.3157,110.58165 438.71741,97.767224 416.90029,86.401649 398.98878,82.080967 373.68959,82.080967 c -24.15409,0 -37.32317,2.851326 -59.77626,12.942559 -11.2386,5.051024 -17.14312,8.535064 -17.16217,10.126744 -0.007,0.57215 2.50979,3.51438 5.59254,6.53832 23.30819,22.86351 37.17921,47.07886 44.34738,77.41947 3.73022,15.78881 4.34841,39.34983 1.47348,56.15807 -5.27737,30.85391 -18.03356,55.73091 -40.62977,79.23576 l -11.24014,11.69212 2.48529,2.05616 c 3.37091,2.78888 23.03155,12.03576 31.4308,14.78267 16.14229,5.27922 22.81251,6.09706 45.99358,5.63927 17.51084,-0.34581 23.22411,-0.82534 30.02012,-2.51969 z m -108.4616,-33.9636 c 18.6828,-17.57544 31.63591,-38.80398 38.65243,-63.34654 3.55725,-12.44262 4.5399,-20.6626 4.56284,-38.16828 0.0226,-17.29098 -1.5027,-27.84488 -6.12635,-42.38819 -6.91527,-21.75141 -16.68402,-37.88216 -33.47348,-55.27348 -10.22669,-10.5933 -11.52582,-11.61511 -13.98321,-10.99834 -3.8325,0.9619 -20.17732,17.62435 -27.53827,28.07342 -10.82137,15.36122 -18.24291,32.64789 -22.69414,52.86038 -2.87175,13.04031 -3.10729,40.55212 -0.46032,53.76771 3.70222,18.48417 10.96666,36.36072 20.94094,51.53204 5.99852,9.12403 27.44861,31.68566 30.1246,31.68566 0.96945,0 5.46718,-3.48497 9.99496,-7.74438 z M 499.3425,305.54028 c 0.46942,-1.0059 0.70413,-1.0059 1.17354,0 0.32273,0.69155 2.13334,1.25736 4.02358,1.25736 3.11328,0 3.4368,-0.27169 3.4368,-2.8862 0,-2.84181 -0.0928,-2.88829 -6.03536,-3.02262 -5.69469,-0.12873 -6.03536,-0.004 -6.03536,2.2156 0,3.50764 2.20675,5.07168 3.4368,2.43586 z"
     id="path7" />
  <path
     style="fill:#ffffff;stroke-width:1.00589"
     d="M 123.72495,479.88201 C 45.583904,479.26343 38.321176,479.06373 33.697446,477.40655 19.427858,472.29221 9.2048416,462.18913 3.6681403,447.72957 L 1.5088409,442.09037 1.2412941,260.58917 C 1.0668045,142.21707 1.3252638,77.141906 1.9843852,73.492899 2.540236,70.415617 4.8187295,64.191562 7.0477041,59.661668 11.988708,49.620179 18.068645,43.86192 29.747334,38.163035 l 8.120614,-3.962642 H 285.28452 c 270.07421,0 252.2636,-0.381198 264.17363,5.654072 6.73644,3.413612 16.857,13.545395 20.28219,20.304669 1.47194,2.904724 3.12711,7.644839 3.67815,10.533586 1.40798,7.380963 1.37147,364.44467 -0.038,371.82701 -2.56416,13.43006 -12.01688,25.60605 -24.77364,31.91079 -6.182,3.05531 -8.99375,3.80599 -16.62291,4.43794 -13.08735,1.08409 -307.13105,1.81408 -408.25898,1.01355 z m -1.11896,-76.19523 c 2.24226,-3.56225 9.88316,-4.60425 12.31101,-1.67887 0.94707,1.14114 1.53744,5.7917 1.88349,14.83693 0.27721,7.24615 0.84352,13.06164 1.25845,12.92333 0.41493,-0.13831 2.60747,-0.25147 4.87231,-0.25147 h 4.1179 l -0.3458,-14.33399 c -0.39148,-16.22815 -1.54168,-19.59322 -7.88999,-23.08316 -4.62015,-2.5399 -13.53988,-2.10264 -17.61152,0.86335 l -2.83827,2.06753 -3.60615,-2.46337 c -3.19788,-2.18448 -4.28943,-2.38999 -9.64151,-1.81516 -3.31945,0.35652 -8.864437,0.59459 -12.322197,0.52904 l -6.286837,-0.11918 v 19.17747 19.17747 h 4.427292 4.427293 l 0.722222,-11.81925 c 0.941613,-15.40958 1.889516,-17.3077 8.657597,-17.33627 5.69831,-0.024 6.36242,1.56517 6.76112,16.17928 l 0.35113,12.87031 4.1754,0.30443 4.17539,0.30445 1.14431,-13.07662 c 0.62936,-7.19215 1.19518,-13.15746 1.25736,-13.25625 z m 54.94463,25.38748 c 2.05468,-0.8585 3.70429,-1.06333 4.05063,-0.50295 0.32135,0.51997 2.5945,0.94539 5.05144,0.94539 h 4.46715 v -19.17747 -19.17747 l -6.28683,0.14236 c -3.45776,0.0783 -8.6105,-0.17109 -11.45052,-0.55418 -6.81982,-0.91992 -11.44108,0.70272 -15.8268,5.55717 -7.8364,8.67396 -7.45255,20.79849 0.91356,28.85618 2.39652,2.30818 5.40464,4.39663 6.6847,4.641 4.8211,0.92042 9.04142,0.67188 12.39667,-0.73003 z m 47.6802,-1.02016 c 1.64173,-0.84897 3.69143,-2.5522 4.55488,-3.78494 1.57656,-2.25087 2.11357,-9.26543 0.9429,-12.31618 -0.90404,-2.35587 -7.00752,-5.19152 -14.23468,-6.61338 -4.90713,-0.96542 -6.26209,-1.62431 -6.26209,-3.04513 0,-2.65657 3.15289,-3.22712 10.18644,-1.84336 5.99302,1.17906 6.29997,1.13879 8.08055,-1.06014 2.49942,-3.08665 2.32984,-4.72036 -0.69575,-6.7028 -3.30561,-2.16591 -15.13519,-3.02934 -19.91074,-1.45327 -8.35261,2.7566 -11.68311,12.92004 -6.07241,18.53073 1.45911,1.45911 4.51451,3.15434 6.78978,3.76718 10.65681,2.87039 12.18401,3.48394 12.18401,4.89483 0,2.89489 -5.16229,3.6067 -12.38659,1.70794 -6.70027,-1.76102 -6.73197,-1.75954 -8.48571,0.39756 -2.92465,3.59732 -2.22585,5.63321 2.51474,7.32641 2.35128,0.8398 4.95403,1.77541 5.78389,2.07913 2.63988,0.96617 13.91322,-0.28277 17.01078,-1.88458 z m 37.55896,1.40971 c 3.39414,-0.9426 3.77211,-1.38326 3.77211,-4.39775 0,-4.53877 -1.93908,-6.00068 -6.34553,-4.784 -1.90579,0.52621 -4.05922,0.58954 -4.7854,0.14074 -1.29181,-0.79837 -2.69771,-8.79472 -2.86671,-16.30492 l -0.0849,-3.7721 h 6.53831 6.53831 v -4.52653 -4.52652 h -6.53831 -6.53831 v -5.53242 -5.53241 h -4.52652 -4.52652 v 5.53241 5.53242 h -4.02358 -4.02358 v 4.02358 c 0,3.89681 0.10662,4.02357 3.38391,4.02357 3.26312,0 3.40673,0.16658 4.02358,4.66692 0.35181,2.56681 0.63967,7.36441 0.63967,10.66134 0,12.79531 7.08172,18.20647 19.36345,14.79567 z m 38.72692,-1.4694 c 4.52221,-1.81291 4.98676,-2.85639 3.10769,-6.98048 -1.33541,-2.9309 -2.75044,-3.11346 -8.38863,-1.08223 -5.93764,2.13911 -8.15719,1.86638 -11.80338,-1.45035 l -3.28503,-2.98819 10.18467,-0.0295 c 5.60158,-0.0162 11.59922,-0.31239 13.3281,-0.65817 2.95002,-0.59001 3.14342,-0.90143 3.14342,-5.06178 0,-7.62899 -4.09939,-14.83802 -10.26046,-18.04361 -4.4282,-2.30399 -12.54328,-1.7989 -17.46811,1.08725 -10.2172,5.98767 -11.71202,24.83215 -2.62188,33.05288 5.28565,4.78011 15.28129,5.67491 24.06361,2.15417 z m 70.1292,0.12685 c 2.99712,-1.96379 3.24748,-4.55744 0.73894,-7.65535 -1.76775,-2.18308 -1.91296,-2.19666 -6.57189,-0.61492 -4.17907,1.41884 -5.18286,1.44257 -8.17301,0.19321 -6.07865,-2.53983 -8.65326,-9.42399 -5.63421,-15.06514 2.34412,-4.38002 9.96456,-6.03414 15.71933,-3.41209 2.38898,1.08849 2.89118,0.96068 4.6215,-1.17617 4.21239,-5.20208 0.0875,-9.12496 -10.42021,-9.90982 -7.07699,-0.52861 -13.61763,2.29163 -17.68651,7.62621 -2.4937,3.26941 -2.73886,4.37018 -2.73886,12.29753 0,7.91229 0.24815,9.03203 2.71966,12.27234 4.3343,5.68258 10.04027,8.05782 18.12074,7.5432 3.93418,-0.25055 7.82197,-1.1276 9.30452,-2.099 z m 31.22495,0.953 c 2.05469,-0.8585 3.7043,-1.06333 4.05064,-0.50295 0.32135,0.51997 2.5945,0.94539 5.05143,0.94539 h 4.46716 v -19.14534 -19.14534 l -6.78979,-0.0593 c -3.73438,-0.0326 -9.75074,-0.11286 -13.36968,-0.17839 -8.06238,-0.146 -12.44831,2.18633 -16.08446,8.55327 -1.94888,3.41254 -2.45991,5.70683 -2.42274,10.87711 0.0643,8.94191 2.9958,14.16165 9.88029,17.59233 5.72073,2.85076 10.19129,3.1631 15.21715,1.06317 z m 74.43615,0 c 2.05469,-0.8585 3.7043,-1.06333 4.05063,-0.50295 0.32136,0.51997 2.59451,0.94539 5.05144,0.94539 h 4.46716 v -26.65619 -26.65619 h -4.52652 -4.52653 v 8.5501 c 0,4.70255 -0.15678,8.5501 -0.3484,8.5501 -0.19162,0 -1.81527,-0.73177 -3.60809,-1.62615 -4.76029,-2.37474 -12.9179,-1.46807 -18.19159,2.02189 -7.23324,4.78673 -10.13041,15.76263 -6.47188,24.51871 4.11647,9.8521 14.89118,14.70456 24.10378,10.85529 z m -153.05507,-4.8385 c 0.34888,-2.90452 0.63825,-8.46196 0.64306,-12.34986 0.0115,-9.26251 1.50642,-11.54012 7.57459,-11.54012 4.98765,0 6.8804,-2.046 6.32721,-6.83953 -0.30208,-2.61759 -0.51487,-2.70789 -5.84591,-2.48087 -3.04282,0.12959 -8.36149,0.21328 -11.81925,0.18599 l -6.28684,-0.0496 v 19.17747 19.17747 h 4.38642 4.38641 z m 111.75742,-7.52808 c 0.40135,-7.04497 1.15756,-13.60843 1.68046,-14.58547 0.68466,-1.27929 2.1731,-1.77643 5.31868,-1.77643 5.06338,0 6.76026,-1.52213 6.9777,-6.2591 l 0.15133,-3.2969 -5.53241,0.16007 c -3.04283,0.088 -8.3615,0.19575 -11.81926,0.23936 l -6.28683,0.0793 v 19.12409 19.1241 h 4.39029 4.39031 z m 68.75908,9.07143 c 0.26584,-2.75048 -0.0726,-3.33132 -2.26101,-3.88059 -4.07443,-1.02261 -5.59583,0.0993 -5.59583,4.1267 0,3.55984 0.0554,3.60833 3.7721,3.30073 3.43456,-0.28426 3.80008,-0.60164 4.08474,-3.54684 z m -268.6934,-70.05075 c 17.47779,-4.89478 41.71013,-15.77698 42.35841,-19.0222 0.16707,-0.83635 -4.09432,-6.21047 -9.46978,-11.94248 -21.80706,-23.25353 -32.26706,-41.79569 -39.21994,-69.52415 -2.1057,-8.39769 -2.68624,-13.61646 -3.13737,-28.20419 -0.86846,-28.0817 2.74534,-46.84989 13.23726,-68.74759 8.13331,-16.97503 15.27594,-26.96121 30.92851,-43.24147 4.32327,-4.49664 7.86049,-8.65134 7.86049,-9.23266 0,-5.13794 -30.45163,-18.151238 -51.30059,-21.922956 -13.20468,-2.388818 -37.5317,-2.358953 -50.29469,0.06174 C 110.19829,96.629445 63.392389,153.19065 63.381291,221.29666 c -0.0099,60.47604 38.746259,113.11249 97.391149,132.27135 14.68391,4.79713 20.84458,5.50588 44.42992,5.11144 19.51972,-0.32646 22.52751,-0.61397 30.87267,-2.95109 z m 170.14941,0.42098 c 35.70504,-8.88869 66.64116,-31.42454 86.43312,-62.9634 7.87313,-12.54601 15.31866,-32.54215 17.7891,-47.77546 2.04042,-12.58171 2.03969,-38.15608 -0.001,-49.88383 -4.90881,-28.2047 -19.3325,-54.78454 -40.90531,-75.37994 -15.16938,-14.48209 -30.84399,-24.030176 -50.92224,-31.018959 -15.98234,-5.563087 -25.30587,-7.019856 -44.92808,-7.019856 -18.44347,0 -28.10782,1.357231 -42.43084,5.958863 -10.06785,3.234547 -34.52005,15.162412 -34.52005,16.839002 0,0.70346 2.75253,3.98077 6.11674,7.2829 23.28721,22.85753 37.40779,48.02394 44.35482,79.05139 3.13449,13.9996 3.37872,44.80066 0.46166,58.22164 -6.49745,29.89378 -18.74031,52.78296 -40.13713,75.0402 l -11.24014,11.69212 2.48529,2.05178 c 7.12063,5.87859 34.10695,16.49619 49.25256,19.37809 11.59949,2.20715 47.00687,1.30996 58.19194,-1.47454 z m -105.59565,-37.0295 c 21.10549,-21.05391 34.76593,-47.27366 38.91211,-74.68762 1.90183,-12.5747 1.87241,-36.58498 -0.0584,-47.65708 -3.25067,-18.6407 -10.74909,-37.37803 -21.33508,-53.31293 -7.08519,-10.66519 -26.79522,-31.8332 -29.62589,-31.81737 -2.36394,0.0132 -12.25009,8.67699 -19.77737,17.33197 -41.30744,47.49591 -45.67821,117.44771 -10.6138,169.86812 6.17978,9.23864 27.06657,31.08827 29.71828,31.08827 1.12389,0 6.5013,-4.54986 12.78015,-10.81336 z M 499.3425,305.54028 c 0.46942,-1.0059 0.70413,-1.0059 1.17354,0 0.32273,0.69155 2.13334,1.25736 4.02358,1.25736 3.11328,0 3.4368,-0.27169 3.4368,-2.8862 0,-2.84181 -0.0928,-2.88829 -6.03536,-3.02262 -5.69469,-0.12873 -6.03536,-0.004 -6.03536,2.2156 0,3.50764 2.20675,5.07168 3.4368,2.43586 z"
     id="path8" />
</svg>
