<?xml version="1.0" encoding="UTF-8" standalone="no"?>
<svg
   viewBox="0 0 576 512"
   version="1.1"
   id="svg1"
   sodipodi:docname="cc-paypal.svg"
   inkscape:version="1.3.2 (091e20e, 2023-11-25, custom)"
   xmlns:inkscape="http://www.inkscape.org/namespaces/inkscape"
   xmlns:sodipodi="http://sodipodi.sourceforge.net/DTD/sodipodi-0.dtd"
   xmlns="http://www.w3.org/2000/svg"
   xmlns:svg="http://www.w3.org/2000/svg">
  <defs
     id="defs1" />
  <sodipodi:namedview
     id="namedview1"
     pagecolor="#505050"
     bordercolor="#eeeeee"
     borderopacity="1"
     inkscape:showpageshadow="0"
     inkscape:pageopacity="0"
     inkscape:pagecheckerboard="0"
     inkscape:deskcolor="#505050"
     inkscape:zoom="0.99414062"
     inkscape:cx="288.18861"
     inkscape:cy="256"
     inkscape:window-width="1366"
     inkscape:window-height="705"
     inkscape:window-x="-8"
     inkscape:window-y="-8"
     inkscape:window-maximized="1"
     inkscape:current-layer="svg1" />
  <!--! Font Awesome Free 6.5.1 by @fontawesome - https://fontawesome.com License - https://fontawesome.com/license/free (Icons: CC BY 4.0, Fonts: SIL OFL 1.1, Code: MIT License) Copyright 2023 Fonticons, Inc. -->
  <path
     d="M186.3 258.2c0 12.2-9.7 21.5-22 21.5-9.2 0-16-5.2-16-15 0-12.2 9.5-22 21.7-22 9.3 0 16.3 5.7 16.3 15.5zM80.5 209.7h-4.7c-1.5 0-3 1-3.2 2.7l-4.3 26.7 8.2-.3c11 0 19.5-1.5 21.5-14.2 2.3-13.4-6.2-14.9-17.5-14.9zm284 0H360c-1.8 0-3 1-3.2 2.7l-4.2 26.7 8-.3c13 0 22-3 22-18-.1-10.6-9.6-11.1-18.1-11.1zM576 80v352c0 26.5-21.5 48-48 48H48c-26.5 0-48-21.5-48-48V80c0-26.5 21.5-48 48-48h480c26.5 0 48 21.5 48 48zM128.3 215.4c0-21-16.2-28-34.7-28h-40c-2.5 0-5 2-5.2 4.7L32 294.2c-.3 2 1.2 4 3.2 4h19c2.7 0 5.2-2.9 5.5-5.7l4.5-26.6c1-7.2 13.2-4.7 18-4.7 28.6 0 46.1-17 46.1-45.8zm84.2 8.8h-19c-3.8 0-4 5.5-4.2 8.2-5.8-8.5-14.2-10-23.7-10-24.5 0-43.2 21.5-43.2 45.2 0 19.5 12.2 32.2 31.7 32.2 9 0 20.2-4.9 26.5-11.9-.5 1.5-1 4.7-1 6.2 0 2.3 1 4 3.2 4H200c2.7 0 5-2.9 5.5-5.7l10.2-64.3c.3-1.9-1.2-3.9-3.2-3.9zm40.5 97.9l63.7-92.6c.5-.5.5-1 .5-1.7 0-1.7-1.5-3.5-3.2-3.5h-19.2c-1.7 0-3.5 1-4.5 2.5l-26.5 39-11-37.5c-.8-2.2-3-4-5.5-4h-18.7c-1.7 0-3.2 1.8-3.2 3.5 0 1.2 19.5 56.8 21.2 62.1-2.7 3.8-20.5 28.6-20.5 31.6 0 1.8 1.5 3.2 3.2 3.2h19.2c1.8-.1 3.5-1.1 4.5-2.6zm159.3-106.7c0-21-16.2-28-34.7-28h-39.7c-2.7 0-5.2 2-5.5 4.7l-16.2 102c-.2 2 1.3 4 3.2 4h20.5c2 0 3.5-1.5 4-3.2l4.5-29c1-7.2 13.2-4.7 18-4.7 28.4 0 45.9-17 45.9-45.8zm84.2 8.8h-19c-3.8 0-4 5.5-4.3 8.2-5.5-8.5-14-10-23.7-10-24.5 0-43.2 21.5-43.2 45.2 0 19.5 12.2 32.2 31.7 32.2 9.3 0 20.5-4.9 26.5-11.9-.3 1.5-1 4.7-1 6.2 0 2.3 1 4 3.2 4H484c2.7 0 5-2.9 5.5-5.7l10.2-64.3c.3-1.9-1.2-3.9-3.2-3.9zm47.5-33.3c0-2-1.5-3.5-3.2-3.5h-18.5c-1.5 0-3 1.2-3.2 2.7l-16.2 104-.3.5c0 1.8 1.5 3.5 3.5 3.5h16.5c2.5 0 5-2.9 5.2-5.7L544 191.2v-.3zm-90 51.8c-12.2 0-21.7 9.7-21.7 22 0 9.7 7 15 16.2 15 12 0 21.7-9.2 21.7-21.5.1-9.8-6.9-15.5-16.2-15.5z"
     id="path1" />
  <path
     style="fill:#ffffff;stroke-width:1.00589"
     d="M 40.235756,478.77075 C 29.778452,476.91326 19.076933,470.98045 12.43735,463.3596 6.8982138,457.00184 2.1757341,446.30932 1.0395985,437.55312 -0.28025391,427.38101 -0.28025391,84.618994 1.0395985,74.446885 2.1757341,65.69068 6.8982138,54.998168 12.43735,48.640399 16.982962,43.422989 25.405697,37.779532 32.944306,34.900194 l 5.78261,-2.208642 244.935164,-0.28247 c 178.93387,-0.206355 246.78368,0.02461 251.79513,0.857141 13.47256,2.238129 26.24879,11.081291 33.58468,23.245872 6.73392,11.166387 6.32943,-1.582237 6.32943,199.487905 0,201.07015 0.40449,188.32152 -6.32943,199.4879 -4.39675,7.29082 -11.87629,14.50712 -18.93681,18.27034 -11.99016,6.39069 4.09336,6.02802 -262.41942,5.91738 C 154.0778,479.62015 42.725344,479.21296 40.235756,478.77075 Z M 252.70992,323.14342 c 1.32178,-1.50282 62.32628,-89.97577 64.51018,-93.55714 0.42473,-0.6965 0.48618,-2.16762 0.13657,-3.26915 -0.58949,-1.85735 -1.5377,-2.00279 -13.05702,-2.00279 h -12.42137 l -2.94857,3.7721 c -1.62172,2.07466 -6.72094,9.43026 -11.33162,16.34578 -4.61066,6.91552 -9.57954,14.22937 -11.04193,16.253 l -2.65889,3.67932 -5.31981,-18.26478 c -2.92589,-10.04564 -6.02974,-19.0702 -6.89743,-20.0546 -1.37695,-1.56213 -3.12186,-1.75406 -13.71724,-1.50884 l -12.13961,0.28097 0.0958,3.52063 c 0.0527,1.93634 4.46902,16.19489 9.81401,31.68566 5.34499,15.49076 9.71521,28.71534 9.71162,29.38795 -0.004,0.67261 -3.11726,5.65179 -6.91927,11.06483 -3.80201,5.41305 -8.37668,12.45342 -10.16595,15.64527 -4.6184,8.23869 -3.9371,8.7821 11.01059,8.7821 9.96975,0 12.03087,-0.27198 13.3399,-1.76031 z m -84.2261,-26.29958 c 2.54013,-1.12361 5.95647,-2.99571 7.59186,-4.16022 l 2.97344,-2.11727 v 2.885 c 0,4.68763 1.46576,5.29914 12.70184,5.29914 9.59589,0 10.41255,-0.15872 12.14427,-2.36024 1.3979,-1.77715 3.19001,-10.76345 7.25413,-36.37487 6.36426,-40.10652 7.11917,-36.70693 -8.15105,-36.70693 -8.52549,0 -10.14014,0.27346 -11.87847,2.01179 -1.10648,1.10648 -2.01178,2.7121 -2.01178,3.56802 0,1.15826 -0.96466,0.80419 -3.77211,-1.3845 -2.07465,-1.61742 -5.31076,-3.44935 -7.19135,-4.07098 -4.88381,-1.61433 -18.95967,-1.39585 -24.96482,0.38749 -12.13391,3.60338 -23.30839,14.65063 -28.48044,28.15615 -3.28268,8.57192 -3.33154,22.95862 -0.1028,30.27622 2.69974,6.11871 9.15865,12.73649 14.71977,15.08185 8.56052,3.61033 20.34471,3.4121 29.16751,-0.49065 z m 284.3473,0.0338 c 2.39953,-1.02856 5.90551,-3.16824 7.79107,-4.75483 l 3.42829,-2.88472 -0.69399,2.76506 c -0.38169,1.52078 -0.21445,3.66108 0.37165,4.7562 0.95734,1.78881 2.13136,1.99115 11.55294,1.99115 9.26538,0 10.71038,-0.23943 12.40179,-2.05495 1.88737,-2.02585 2.42435,-4.90601 11.02103,-59.11145 2.17332,-13.70361 2.18361,-13.68906 -9.94599,-14.06759 -11.9511,-0.37298 -13.8405,0.10899 -15.1497,3.86455 l -1.04438,2.99592 -3.40427,-2.98899 c -4.62418,-4.06009 -10.1571,-5.34239 -20.97463,-4.86107 -12.34019,0.54908 -18.89633,3.20541 -27.28957,11.05687 -20.9087,19.55907 -19.56882,54.56628 2.44559,63.89607 8.06117,3.41635 20.7182,3.15788 29.49017,-0.60222 z M 58.116596,296.29365 c 1.333146,-1.69483 2.656681,-6.89561 4.267219,-16.76788 1.669559,-10.23407 2.859179,-14.83556 4.175818,-16.15221 1.549376,-1.54936 3.507101,-1.84114 12.353528,-1.84114 5.781806,0 12.911079,-0.50022 15.842829,-1.1116 17.65115,-3.68091 29.64296,-15.93274 32.91405,-33.62769 3.93487,-21.28567 -3.06916,-34.13216 -20.89697,-38.32834 -7.793803,-1.83445 -54.337813,-1.92557 -56.781224,-0.11116 -2.259253,1.67766 -19.221441,105.73515 -17.699284,108.57932 0.85068,1.58951 2.41044,1.81754 12.432101,1.81754 10.953247,0 11.544737,-0.10851 13.391933,-2.45684 z m 284.850884,0.99903 c 0.66542,-0.8018 2.3249,-8.36991 3.6877,-16.81804 1.57788,-9.78134 3.06653,-16.01074 4.09867,-17.15123 1.35257,-1.49459 3.32028,-1.79099 11.88951,-1.79099 12.60214,0 19.28268,-1.20284 27.13617,-4.8859 14.57457,-6.83505 22.61047,-21.1831 22.61521,-40.37933 0.003,-13.92697 -4.77443,-21.50766 -16.74153,-26.56254 -4.41944,-1.86676 -7.3917,-2.08591 -32.55843,-2.40057 -25.75497,-0.32201 -27.81009,-0.2181 -29.33791,1.48328 -1.19296,1.32847 -3.9227,16.20083 -9.96716,54.3038 -6.97241,43.95251 -8.10962,52.7329 -7.00259,54.0668 1.85217,2.23172 24.34394,2.34745 26.18036,0.13472 z m 181.55187,0.83652 c 0.89047,-0.34171 2.05188,-1.43003 2.58089,-2.41848 1.27511,-2.38257 17.25587,-102.36186 16.87866,-105.59677 -0.29143,-2.49922 -0.36409,-2.5165 -11.77622,-2.80071 -6.49267,-0.1617 -11.90697,0.13801 -12.45859,0.68963 -1.69297,1.69297 -17.82368,108.00187 -16.60957,109.46478 1.117,1.34591 18.22245,1.87507 21.38483,0.66155 z"
     id="path2" />
  <path
     style="fill:#ffffff;stroke-width:1.00589"
     d="M 160.44008,278.7017 C 150.10617,276.21679 145.9457,266.44015 150.77934,256 c 7.68148,-16.59122 31.713,-16.852 34.8036,-0.37768 2.41384,12.86685 -12.12259,26.21027 -25.14286,23.07938 z"
     id="path3" />
  <path
     style="fill:#ffffff;stroke-width:1.00589"
     d="m 69.40668,237.06783 c 0,-3.28772 3.149297,-22.39041 4.051096,-24.57274 0.829781,-2.00805 1.646607,-2.26263 7.243645,-2.25765 12.460028,0.0111 16.870288,2.82391 16.870288,10.75974 0,6.29826 -2.626653,11.96446 -6.718674,14.49347 -4.709991,2.91093 -21.446355,4.14173 -21.446355,1.57718 z"
     id="path4" />
  <path
     style="fill:#ffffff;stroke-width:1.00589"
     d="m 353.75618,234.76194 c 0.333,-2.15011 1.34664,-8.43581 2.25253,-13.96823 l 1.64707,-10.05894 7.51396,-0.27083 c 12.59542,-0.454 17.65944,3.60555 16.63224,13.33319 -1.02493,9.70611 -6.37139,13.60376 -19.70313,14.3639 l -8.94813,0.5102 z"
     id="path5" />
  <path
     style="fill:#ffffff;stroke-width:1.00589"
     d="m 444.72675,278.63014 c -5.66475,-1.33735 -8.04788,-3.13617 -10.28945,-7.76662 -1.61513,-3.33641 -1.98153,-5.41801 -1.49224,-8.47781 1.81447,-11.34709 10.22214,-18.96171 20.93226,-18.95782 12.68568,0.005 19.19227,11.18108 13.60903,23.37648 -1.43182,3.12751 -3.88465,6.45432 -5.7248,7.76462 -2.81141,2.0019 -11.3604,5.25764 -13.04126,4.96655 -0.327,-0.0566 -2.1241,-0.46406 -3.99354,-0.9054 z"
     id="path6" />
</svg>
