<?xml version="1.0" encoding="UTF-8" standalone="no"?>
<svg
   viewBox="0 0 448 512"
   version="1.1"
   id="svg1"
   sodipodi:docname="check1.svg"
   inkscape:version="1.3.2 (091e20e, 2023-11-25, custom)"
   xmlns:inkscape="http://www.inkscape.org/namespaces/inkscape"
   xmlns:sodipodi="http://sodipodi.sourceforge.net/DTD/sodipodi-0.dtd"
   xmlns="http://www.w3.org/2000/svg"
   xmlns:svg="http://www.w3.org/2000/svg">
  <defs
     id="defs1" />
  <sodipodi:namedview
     id="namedview1"
     pagecolor="#505050"
     bordercolor="#eeeeee"
     borderopacity="1"
     inkscape:showpageshadow="0"
     inkscape:pageopacity="0"
     inkscape:pagecheckerboard="0"
     inkscape:deskcolor="#505050"
     inkscape:zoom="0.99414062"
     inkscape:cx="223.81139"
     inkscape:cy="256"
     inkscape:window-width="1366"
     inkscape:window-height="705"
     inkscape:window-x="-8"
     inkscape:window-y="-8"
     inkscape:window-maximized="1"
     inkscape:current-layer="svg1" />
  <!--! Font Awesome Free 6.5.1 by @fontawesome - https://fontawesome.com License - https://fontawesome.com/license/free (Icons: CC BY 4.0, Fonts: SIL OFL 1.1, Code: MIT License) Copyright 2023 Fonticons, Inc. -->
  <path
     d="M438.6 105.4c12.5 12.5 12.5 32.8 0 45.3l-256 256c-12.5 12.5-32.8 12.5-45.3 0l-128-128c-12.5-12.5-12.5-32.8 0-45.3s32.8-12.5 45.3 0L160 338.7 393.4 105.4c12.5-12.5 32.8-12.5 45.3 0z"
     id="path1" />
  <path
     style="fill:#ffffff;stroke-width:1.00589"
     d="m 149.87819,413.8171 c -2.48958,-0.90367 -5.43182,-2.27365 -6.53831,-3.04442 C 138.17353,407.17384 5.6665791,273.68217 3.9198422,270.31654 -4.2005244,254.67012 3.0972368,234.6128 19.614931,227.17983 c 7.099383,-3.19473 18.178748,-3.1407 25.147348,0.12263 4.002085,1.87414 16.280475,13.56989 60.107731,57.25548 l 55.07827,54.90022 118.94138,-118.79367 c 95.89032,-95.77124 119.9161,-119.259 123.97085,-121.194701 7.56173,-3.609907 19.0326,-3.427916 26.88176,0.42649 10.83188,5.319101 17.18993,15.551931 17.30569,27.852251 0.14113,14.99624 10.44453,3.64275 -137.02137,150.986 -108.60872,108.5184 -132.35533,131.77271 -136.50989,133.67984 -6.6065,3.0327 -17.38574,3.67235 -23.63851,1.40273 z"
     id="path2" />
</svg>
