<?xml version="1.0" encoding="UTF-8" standalone="no"?>
<svg
   viewBox="0 0 512 512"
   version="1.1"
   id="svg1"
   sodipodi:docname="circle-question.svg"
   inkscape:version="1.3.2 (091e20e, 2023-11-25, custom)"
   xmlns:inkscape="http://www.inkscape.org/namespaces/inkscape"
   xmlns:sodipodi="http://sodipodi.sourceforge.net/DTD/sodipodi-0.dtd"
   xmlns="http://www.w3.org/2000/svg"
   xmlns:svg="http://www.w3.org/2000/svg">
  <defs
     id="defs1" />
  <sodipodi:namedview
     id="namedview1"
     pagecolor="#505050"
     bordercolor="#eeeeee"
     borderopacity="1"
     inkscape:showpageshadow="0"
     inkscape:pageopacity="0"
     inkscape:pagecheckerboard="0"
     inkscape:deskcolor="#505050"
     inkscape:zoom="0.99414062"
     inkscape:cx="256"
     inkscape:cy="256"
     inkscape:window-width="1366"
     inkscape:window-height="705"
     inkscape:window-x="-8"
     inkscape:window-y="-8"
     inkscape:window-maximized="1"
     inkscape:current-layer="svg1" />
  <!--! Font Awesome Free 6.5.1 by @fontawesome - https://fontawesome.com License - https://fontawesome.com/license/free (Icons: CC BY 4.0, Fonts: SIL OFL 1.1, Code: MIT License) Copyright 2023 Fonticons, Inc. -->
  <path
     d="M464 256A208 208 0 1 0 48 256a208 208 0 1 0 416 0zM0 256a256 256 0 1 1 512 0A256 256 0 1 1 0 256zm169.8-90.7c7.9-22.3 29.1-37.3 52.8-37.3h58.3c34.9 0 63.1 28.3 63.1 63.1c0 22.6-12.1 43.5-31.7 54.8L280 264.4c-.2 13-10.9 23.6-24 23.6c-13.3 0-24-10.7-24-24V250.5c0-8.6 4.6-16.5 12.1-20.8l44.3-25.4c4.7-2.7 7.6-7.7 7.6-13.1c0-8.4-6.8-15.1-15.1-15.1H222.6c-3.4 0-6.4 2.1-7.5 5.3l-.4 1.2c-4.4 12.5-18.2 19-30.6 14.6s-19-18.2-14.6-30.6l.4-1.2zM224 352a32 32 0 1 1 64 0 32 32 0 1 1 -64 0z"
     id="path1" />
  <path
     style="fill:#ffffff;stroke-width:1.00589"
     d="M 240.22419,510.87163 C 217.42721,509.63267 190.34174,504.09946 169.25086,496.37267 154.22391,490.86745 128.54718,477.87703 115.6778,469.26889 55.914603,429.29418 15.779129,367.859 4.0492624,298.39966 -0.16015873,273.47322 -0.16732643,238.56923 4.0318696,213.70334 23.792326,96.690191 123.17644,7.521359 240.91159,1.17151 c 46.38192,-2.5015313 87.48581,5.8528461 128.17663,26.051933 40.9875,20.346365 75.8564,51.252005 100.93239,89.460247 8.10376,12.34769 21.18668,38.46967 26.42432,52.76007 8.01189,21.85973 13.26893,48.2333 14.40693,72.27699 1.31008,27.67925 -1.01703,52.22797 -7.32529,77.2747 -4.53746,18.01584 -9.14231,30.2882 -18.63523,49.66467 -27.86219,56.87088 -76.18345,101.46689 -135.58079,125.12846 -33.55466,13.36685 -70.63069,19.173 -109.08636,17.08305 z m 46.4151,-48.73927 c 21.68543,-3.18751 40.26782,-8.98629 60.89706,-19.00341 42.01006,-20.3992 75.1934,-53.58254 95.5926,-95.5926 14.74468,-30.36518 20.98244,-57.57753 20.98244,-91.53635 0,-33.95882 -6.23776,-61.17117 -20.98244,-91.53635 C 413.01013,102.43703 355.01513,60.144673 285.67387,49.640888 269.82253,47.239733 241.99099,47.277154 225.82318,49.721356 133.92868,63.613711 63.61131,134.0997 49.640888,226.32613 c -2.36777,15.63095 -2.36777,43.71679 0,59.34774 12.430394,82.05987 69.681342,147.80682 148.448782,170.47846 28.66929,8.25188 59.10843,10.30753 88.54962,5.98003 z"
     id="path2" />
  <path
     style="fill:#ffffff;stroke-width:1.00589"
     d="m 246.3256,381.91723 c -13.72425,-5.13203 -21.40903,-15.84828 -21.40903,-29.85436 0,-12.75319 6.40213,-22.82254 18.00681,-28.32132 15.73535,-7.45606 34.68988,-0.18811 42.05977,16.12747 3.2544,7.20463 2.99386,18.07206 -0.60984,25.43776 -3.08276,6.30093 -8.43263,11.6666 -14.99989,15.0442 -5.37778,2.76583 -17.61583,3.59749 -23.04782,1.56625 z"
     id="path3" />
  <path
     style="fill:#ffffff;stroke-width:1.00589"
     d="m 248.99342,286.48014 c -2.53895,-0.70566 -5.85508,-2.97484 -9.12284,-6.2426 -6.12847,-6.12847 -7.5117,-10.44686 -7.50348,-23.4256 0.012,-18.97966 1.30665,-20.47054 34.19479,-39.37794 24.27978,-13.95847 25.77122,-14.98618 27.91355,-19.23457 2.85499,-5.66161 2.84964,-8.672 -0.0251,-14.10815 -4.22793,-7.99512 -4.56967,-8.05985 -42.55383,-8.05985 -37.66775,0 -34.25593,-0.76968 -39.05704,8.811 -9.07218,18.1037 -34.49063,17.12201 -42.45605,-1.6397 -1.03724,-2.44311 -1.42786,-5.81339 -1.18092,-10.18898 1.00396,-17.78913 19.23387,-37.39789 39.66564,-42.6658 8.75399,-2.25704 77.12129,-2.31946 86.62349,-0.0791 21.58685,5.08962 40.30378,23.51686 45.96564,45.25422 2.02065,7.75777 1.99925,23.13203 -0.0432,31.04292 -2.58669,10.01891 -8.89509,20.98538 -16.44014,28.57941 -5.46451,5.49999 -10.33962,8.83642 -25.95307,17.7618 -18.36745,10.49968 -19.25446,11.1485 -19.89272,14.5507 -2.61866,13.95861 -16.59987,22.7841 -30.13477,19.02223 z"
     id="path4" />
</svg>
