<?xml version="1.0" encoding="UTF-8" standalone="no"?>
<svg
   viewBox="0 0 512 512"
   version="1.1"
   id="svg1"
   sodipodi:docname="circle-xmark.svg"
   inkscape:version="1.3.2 (091e20e, 2023-11-25, custom)"
   xmlns:inkscape="http://www.inkscape.org/namespaces/inkscape"
   xmlns:sodipodi="http://sodipodi.sourceforge.net/DTD/sodipodi-0.dtd"
   xmlns="http://www.w3.org/2000/svg"
   xmlns:svg="http://www.w3.org/2000/svg">
  <defs
     id="defs1" />
  <sodipodi:namedview
     id="namedview1"
     pagecolor="#505050"
     bordercolor="#eeeeee"
     borderopacity="1"
     inkscape:showpageshadow="0"
     inkscape:pageopacity="0"
     inkscape:pagecheckerboard="0"
     inkscape:deskcolor="#505050"
     inkscape:zoom="0.99414062"
     inkscape:cx="256"
     inkscape:cy="256"
     inkscape:window-width="1366"
     inkscape:window-height="705"
     inkscape:window-x="-8"
     inkscape:window-y="-8"
     inkscape:window-maximized="1"
     inkscape:current-layer="svg1" />
  <!--! Font Awesome Free 6.5.1 by @fontawesome - https://fontawesome.com License - https://fontawesome.com/license/free (Icons: CC BY 4.0, Fonts: SIL OFL 1.1, Code: MIT License) Copyright 2023 Fonticons, Inc. -->
  <path
     d="M256 48a208 208 0 1 1 0 416 208 208 0 1 1 0-416zm0 464A256 256 0 1 0 256 0a256 256 0 1 0 0 512zM175 175c-9.4 9.4-9.4 24.6 0 33.9l47 47-47 47c-9.4 9.4-9.4 24.6 0 33.9s24.6 9.4 33.9 0l47-47 47 47c9.4 9.4 24.6 9.4 33.9 0s9.4-24.6 0-33.9l-47-47 47-47c9.4-9.4 9.4-24.6 0-33.9s-24.6-9.4-33.9 0l-47 47-47-47c-9.4-9.4-24.6-9.4-33.9 0z"
     id="path1" />
  <path
     style="fill:#ff0000;stroke-width:1.00589"
     d="M 240.22419,510.87163 C 217.42721,509.63267 190.34174,504.09946 169.25086,496.37267 154.22391,490.86745 128.54718,477.87703 115.6778,469.26889 55.914603,429.29418 15.779129,367.859 4.0492624,298.39966 -0.16015873,273.47322 -0.16732643,238.56923 4.0318696,213.70334 23.792326,96.690191 123.17644,7.521359 240.91159,1.17151 c 46.38192,-2.5015313 87.48581,5.8528461 128.17663,26.051933 40.9875,20.346365 75.8564,51.252005 100.93239,89.460247 8.10376,12.34769 21.18668,38.46967 26.42432,52.76007 8.01189,21.85973 13.26893,48.2333 14.40693,72.27699 1.31008,27.67925 -1.01703,52.22797 -7.32529,77.2747 -4.53746,18.01584 -9.14231,30.2882 -18.63523,49.66467 -27.86219,56.87088 -76.18345,101.46689 -135.58079,125.12846 -33.55466,13.36685 -70.63069,19.173 -109.08636,17.08305 z m 46.4151,-48.73927 c 44.03672,-6.47289 85.18635,-27.17671 116.75136,-58.74171 31.80698,-31.80699 51.9983,-72.12305 58.95558,-117.71678 2.38209,-15.61071 2.38817,-43.66712 0.0129,-59.34774 C 448.34951,133.84105 378.15895,63.650489 285.67387,49.640888 269.82253,47.239733 241.99099,47.277154 225.82318,49.721356 133.92868,63.613711 63.61131,134.0997 49.640888,226.32613 c -2.36777,15.63095 -2.36777,43.71679 0,59.34774 12.430394,82.05987 69.681342,147.80682 148.448782,170.47846 28.66929,8.25188 59.10843,10.30753 88.54962,5.98003 z"
     id="path2" />
  <path
     style="fill:#ff0000;stroke-width:1.00589"
     d="m 182.56974,341.11991 c -11.9854,-5.49806 -17.30812,-19.97437 -11.54492,-31.39896 1.41637,-2.80773 11.30556,-13.56354 26.98217,-29.34671 l 24.74635,-24.91457 -25.27454,-25.38013 c -13.90099,-13.95907 -26.04297,-26.9163 -26.98217,-28.79385 -1.89456,-3.7874 -2.27035,-13.19596 -0.68728,-17.2071 2.03008,-5.14378 7.13313,-10.83946 11.68654,-13.04373 5.74318,-2.78022 14.81462,-3.02694 19.7898,-0.53823 1.87755,0.9392 14.83478,13.08118 28.79385,26.98217 l 25.38013,25.27454 24.91457,-24.74635 c 15.64909,-15.54344 26.54838,-25.57046 29.30785,-26.96235 11.40326,-5.75186 25.96047,-0.41519 31.43782,11.5251 2.27205,4.95294 2.42334,13.37083 0.33049,18.38988 -1.01496,2.43406 -10.32183,12.52879 -26.65619,28.91273 -13.80322,13.84512 -25.09676,25.61754 -25.09676,26.16094 0,0.5434 11.13678,12.07451 24.7484,25.6247 15.7223,15.65134 25.43615,26.10416 26.6341,28.66028 3.8146,8.13936 1.97426,18.79475 -4.40794,25.52165 -6.62414,6.9819 -17.8671,9.21738 -26.35374,5.24003 -2.55612,-1.19795 -13.00894,-10.9118 -28.66028,-26.6341 C 268.1078,300.83423 256.56171,289.69745 256,289.69745 c -0.56171,0 -12.10781,11.13678 -25.65799,24.7484 -15.65134,15.7223 -26.10416,25.43615 -28.66028,26.6341 -5.21466,2.44391 -13.83226,2.46192 -19.11199,0.04 z"
     id="path3" />
</svg>
