<?xml version="1.0" encoding="UTF-8" standalone="no"?>
<svg
   viewBox="0 0 640 512"
   version="1.1"
   id="svg1"
   sodipodi:docname="discord.svg"
   inkscape:version="1.3.2 (091e20e, 2023-11-25, custom)"
   xmlns:inkscape="http://www.inkscape.org/namespaces/inkscape"
   xmlns:sodipodi="http://sodipodi.sourceforge.net/DTD/sodipodi-0.dtd"
   xmlns="http://www.w3.org/2000/svg"
   xmlns:svg="http://www.w3.org/2000/svg">
  <defs
     id="defs1" />
  <sodipodi:namedview
     id="namedview1"
     pagecolor="#505050"
     bordercolor="#eeeeee"
     borderopacity="1"
     inkscape:showpageshadow="0"
     inkscape:pageopacity="0"
     inkscape:pagecheckerboard="0"
     inkscape:deskcolor="#505050"
     inkscape:zoom="0.99414062"
     inkscape:cx="320.37721"
     inkscape:cy="256"
     inkscape:window-width="1366"
     inkscape:window-height="705"
     inkscape:window-x="-8"
     inkscape:window-y="-8"
     inkscape:window-maximized="1"
     inkscape:current-layer="svg1" />
  <!--! Font Awesome Free 6.5.1 by @fontawesome - https://fontawesome.com License - https://fontawesome.com/license/free (Icons: CC BY 4.0, Fonts: SIL OFL 1.1, Code: MIT License) Copyright 2023 Fonticons, Inc. -->
  <path
     d="M524.531,69.836a1.5,1.5,0,0,0-.764-.7A485.065,485.065,0,0,0,404.081,32.03a1.816,1.816,0,0,0-1.923.91,337.461,337.461,0,0,0-14.9,30.6,447.848,447.848,0,0,0-134.426,0,309.541,309.541,0,0,0-15.135-30.6,1.89,1.89,0,0,0-1.924-.91A483.689,483.689,0,0,0,116.085,69.137a1.712,1.712,0,0,0-.788.676C39.068,183.651,18.186,294.69,28.43,404.354a2.016,2.016,0,0,0,.765,1.375A487.666,487.666,0,0,0,176.02,479.918a1.9,1.9,0,0,0,2.063-.676A348.2,348.2,0,0,0,208.12,430.4a1.86,1.86,0,0,0-1.019-2.588,321.173,321.173,0,0,1-45.868-21.853,1.885,1.885,0,0,1-.185-3.126c3.082-2.309,6.166-4.711,9.109-7.137a1.819,1.819,0,0,1,1.9-.256c96.229,43.917,200.41,43.917,295.5,0a1.812,1.812,0,0,1,1.924.233c2.944,2.426,6.027,4.851,9.132,7.16a1.884,1.884,0,0,1-.162,3.126,301.407,301.407,0,0,1-45.89,21.83,1.875,1.875,0,0,0-1,2.611,391.055,391.055,0,0,0,30.014,48.815,1.864,1.864,0,0,0,2.063.7A486.048,486.048,0,0,0,610.7,405.729a1.882,1.882,0,0,0,.765-1.352C623.729,277.594,590.933,167.465,524.531,69.836ZM222.491,337.58c-28.972,0-52.844-26.587-52.844-59.239S193.056,219.1,222.491,219.1c29.665,0,53.306,26.82,52.843,59.239C275.334,310.993,251.924,337.58,222.491,337.58Zm195.38,0c-28.971,0-52.843-26.587-52.843-59.239S388.437,219.1,417.871,219.1c29.667,0,53.307,26.82,52.844,59.239C470.715,310.993,447.538,337.58,417.871,337.58Z"
     id="path1" />
  <path
     style="fill:#ffffff;stroke-width:1.00589"
     d="M 162.45187,474.81079 C 120.61416,460.63954 77.790379,439.00983 41.365592,413.65178 c -9.485825,-6.6038 -12.070208,-8.9116 -12.524757,-11.18434 -0.315,-1.575 -1.092986,-13.4715 -1.728858,-26.43666 -2.116009,-43.14453 1.770847,-88.19071 11.224927,-130.08972 12.66279,-56.11951 35.788237,-110.49834 69.564986,-163.580057 l 8.07865,-12.69597 14.68556,-6.233992 c 20.16482,-8.559924 49.27148,-18.161998 71.51858,-23.593458 25.20636,-6.153945 33.9075,-7.707848 35.09248,-6.26703 0.5124,0.623033 4.17977,7.696245 8.14972,15.718249 6.18693,12.50184 7.52957,14.552796 9.39855,14.356804 1.19925,-0.12576 7.83862,-0.961969 14.75414,-1.858242 26.67552,-3.457228 79.64034,-2.989093 108.50478,0.959031 l 9.28113,1.269487 7.35262,-15.262686 c 4.04394,-8.394477 7.75664,-15.508144 8.25046,-15.80815 1.17838,-0.715898 29.93749,5.238356 44.65423,9.245163 17.58376,4.787387 45.06759,14.26035 61.60958,21.235222 l 14.83553,6.255344 9.87615,15.705781 c 12.97855,20.639454 17.56101,28.749204 27.7265,49.068604 39.25512,78.46558 56.12158,161.38102 50.81296,249.79631 -0.61453,10.23497 -1.51807,19.3658 -2.00788,20.29074 -1.21599,2.29623 -32.53565,23.05644 -49.18683,32.60344 -24.98656,14.32613 -55.09979,27.84239 -83.99214,37.69971 l -14.08251,4.80459 -2.68777,-3.18071 c -3.66947,-4.34248 -17.5203,-26.29572 -23.72536,-37.60416 -3.67757,-6.70221 -4.76044,-9.52018 -3.91961,-10.2 0.639,-0.51664 5.23568,-2.6124 10.21486,-4.65723 15.34628,-6.3024 36.71512,-17.68086 36.71512,-19.55004 0,-1.8825 -9.17222,-9.1415 -11.55088,-9.1415 -0.84931,0 -6.36475,2.05898 -12.25654,4.57552 -32.54053,13.8989 -71.07213,23.516 -106.88806,26.67817 -16.94102,1.49572 -57.73228,0.64857 -72.99803,-1.516 -33.05839,-4.68745 -67.75955,-14.29114 -95.21993,-26.3525 -4.23894,-1.86186 -8.43773,-3.38519 -9.33065,-3.38519 -2.42695,0 -11.63017,7.22055 -11.63017,9.12467 0,1.87844 17.82916,11.4509 35.6852,19.15935 6.07246,2.62147 11.1901,5.21417 11.37256,5.76155 0.72149,2.16446 -11.47586,23.57602 -23.16068,40.65692 -3.31717,4.84904 -6.31666,8.9842 -6.66552,9.18923 -0.34887,0.20504 -6.97144,-1.77371 -14.71682,-4.39724 z m 71.78968,-138.29176 c 19.53307,-5.19891 35.44635,-22.53161 39.87417,-43.43082 7.5399,-35.58824 -12.87844,-69.11336 -45.00321,-73.89132 -14.43334,-2.1467 -29.16919,2.74817 -40.71783,13.52541 -7.57485,7.06887 -12.26277,14.48418 -15.99399,25.29914 -2.43417,7.0555 -2.77023,9.51228 -2.75053,20.10823 0.0192,10.30446 0.41251,13.25977 2.68815,20.19675 9.29481,28.33389 36.31336,45.0036 61.90324,38.19261 z m 195.7363,-0.0789 c 18.7034,-4.87163 33.83223,-21.13246 39.23988,-42.17604 2.03491,-7.9187 1.99319,-24.22504 -0.0836,-32.66742 -2.49579,-10.14583 -7.9535,-19.76649 -15.58643,-27.47518 -29.16902,-29.45858 -75.8677,-14.46445 -86.93674,27.91386 -2.14856,8.22586 -2.13995,24.39479 0.0174,32.69156 3.8575,14.83511 16.0159,30.93874 28.29019,37.46994 10.58212,5.63079 23.65679,7.21324 35.05924,4.24328 z"
     id="path2" />
</svg>
