<?xml version="1.0" encoding="UTF-8" standalone="no"?>
<!-- Created with Inkscape (http://www.inkscape.org/) -->

<svg
   width="512"
   height="512"
   viewBox="0 0 512 512"
   version="1.1"
   id="svg1"
   inkscape:version="1.3.2 (091e20e, 2023-11-25, custom)"
   sodipodi:docname="drawinggood2.svg"
   xmlns:inkscape="http://www.inkscape.org/namespaces/inkscape"
   xmlns:sodipodi="http://sodipodi.sourceforge.net/DTD/sodipodi-0.dtd"
   xmlns="http://www.w3.org/2000/svg"
   xmlns:svg="http://www.w3.org/2000/svg">
  <sodipodi:namedview
     id="namedview1"
     pagecolor="#505050"
     bordercolor="#eeeeee"
     borderopacity="1"
     inkscape:showpageshadow="0"
     inkscape:pageopacity="0"
     inkscape:pagecheckerboard="0"
     inkscape:deskcolor="#505050"
     inkscape:document-units="px"
     inkscape:zoom="1.0610557"
     inkscape:cx="305.82748"
     inkscape:cy="167.28622"
     inkscape:window-width="1366"
     inkscape:window-height="705"
     inkscape:window-x="-8"
     inkscape:window-y="-8"
     inkscape:window-maximized="1"
     inkscape:current-layer="layer1" />
  <defs
     id="defs1" />
  <g
     inkscape:label="Layer 1"
     inkscape:groupmode="layer"
     id="layer1">
    <text
       xml:space="preserve"
       style="font-style:normal;font-variant:normal;font-weight:normal;font-stretch:normal;font-size:73.7832px;font-family:'Gill Sans Ultra Bold';-inkscape-font-specification:'Gill Sans Ultra Bold, ';fill:#fff5ee;stroke-width:1.38344"
       x="10.245069"
       y="132.07266"
       id="text1"
       transform="scale(0.882526,1.1331111)"><tspan
         sodipodi:role="line"
         id="tspan1"
         x="10.245069"
         y="132.07266"
         style="fill:#fff5ee;stroke-width:1.38344">DELOS RANCH</tspan><tspan
         sodipodi:role="line"
         x="10.245069"
         y="224.30167"
         id="tspan2"
         style="fill:#fff5ee;stroke-width:1.38344">&amp;</tspan><tspan
         sodipodi:role="line"
         x="10.245069"
         y="316.53067"
         id="tspan3"
         style="fill:#fff5ee;stroke-width:1.38344">FARM PRODUCE</tspan></text>
    <path
       style="fill:#f5f5f5"
       d="m 262.00321,245.03897 c 1.13811,-4.32655 -1.41224,-9.90016 0,-14.13686 1.04456,-3.13369 1.16293,-2.10539 1.88491,-2.82738 0.62338,-0.62337 -0.62337,-1.26153 0,-1.88491 0.49672,-0.49672 1.3882,-0.44574 1.88492,-0.94246 0.70246,-0.70247 0.3914,-2.00078 0.94246,-2.82737 1.28735,-1.93103 2.7665,-2.20397 3.76983,-4.71229 0.23334,-0.58337 -0.28099,-1.32294 0,-1.88491 0.14049,-0.28099 0.72031,0.22213 0.94245,0 0.22214,-0.22214 -0.22214,-0.72032 0,-0.94246 0.22214,-0.22214 0.72032,0.22214 0.94246,0 0.22214,-0.22214 -0.22214,-0.72032 0,-0.94246 0.22214,-0.22214 0.62831,0 0.94246,0 0.31415,-0.6283 0.5528,-1.30043 0.94246,-1.88491 -0.0941,-1.86707 1.38819,-0.44574 1.88491,-0.94246 0.31415,-0.31415 0.62831,-2.51322 0.94246,-2.82737 0.22214,-0.22214 0.72032,0.22213 0.94246,0 0.22214,-0.22214 -0.22214,-0.72032 0,-0.94246 1.42368,-1.42368 4.15986,-3.21741 5.65474,-4.71229 0.49672,-0.49672 0.44574,-1.3882 0.94246,-1.88492 0.22214,-0.22213 0.72032,0.22214 0.94246,0 0.22214,-0.22213 -0.22214,-0.72031 0,-0.94245 0.22214,-0.22214 0.66147,0.14049 0.94245,0 1.76848,-0.88424 8.06772,-5.6104 9.42458,-6.59721 10.76181,-7.82676 21.94476,-15.68467 33.92847,-21.67652 2.66568,-1.33284 5.70046,-1.7575 8.48212,-2.82737 4.79146,-1.84287 9.27483,-4.97653 14.13686,-6.59721 1.51967,-0.50655 3.17798,-0.48216 4.71229,-0.94245 0.42572,-0.12772 6.16615,-2.59846 7.53966,-2.82738 6.00641,-1.00106 12.7182,0 18.84915,0 2.20834,0 4.71229,-0.23116 4.71229,1.88492"
       id="path1" />
    <path
       style="fill:#fff5ee"
       d="m 268.6004,237.49931 c -6.46944,2.45699 -11.21639,7.86079 -16.96423,11.30949 -0.44565,0.26739 -9.36894,8.37085 -9.42458,8.48212 -0.27837,0.55675 -0.94067,6.59541 -0.94245,6.5972 -0.22214,0.22214 -0.72032,-0.22214 -0.94246,0 -0.0943,0.0942 -0.0943,2.73313 0,2.82737 0.31371,0.31371 4.22598,0.16211 4.71229,0 5.64854,-1.88284 -2.36717,0.24113 3.76983,-2.82737 0.56197,-0.28099 1.28885,0.19869 1.88491,0 1.87545,-0.62515 0.43982,-0.87963 0.94246,-1.88492 0.72172,-1.44344 1.67948,-0.73701 2.82737,-1.88491 0.22214,-0.22214 -0.14049,-0.66147 0,-0.94246 1.13095,-2.2619 4.5238,-3.39285 5.65475,-5.65474 0.14049,-0.28099 -0.22214,-0.72032 0,-0.94246 0.68115,-0.68116 5.25263,-2.42526 5.65474,-2.82737 0.22214,-0.22214 -0.22214,-0.72032 0,-0.94246 0.22214,-0.22214 0.66147,0.14049 0.94246,0 0.79475,-0.39738 1.09016,-1.48754 1.88491,-1.88492 3.73995,-1.86997 3.60292,-1.88491 8.48212,-1.88491"
       id="path3" />
    <path
       style="display:none;fill:#f5f5f5"
       d="m 123.46194,210.16804 c 2.19907,0 4.39814,0 6.5972,0 4.0022,0 5.11947,1.14605 8.48212,2.82737 0.56903,0.28452 2.39171,-0.43566 2.82738,0 0.22213,0.22214 -0.22214,0.72032 0,0.94246 0.54624,0.54624 3.22358,1.33867 3.76983,1.88491 0.22213,0.22214 -0.22214,0.72032 0,0.94246 0.22213,0.22214 1.25661,0 0.94245,0 -3.49667,0 -7.88964,0.68397 -11.30949,0 -1.36449,-0.2729 -3.34779,-1.61202 -4.71229,-1.88491 -0.92109,-0.18422 -4.15086,-0.1939 -4.71228,-0.94246 -0.84296,-1.12395 -1.25661,-2.51322 -1.88492,-3.76983 z"
       id="path5" />
    <path
       style="fill:#f5f5f5"
       d="m 262.00321,245.03897 c 1.31108,-4.53315 -1.63612,-29.71378 0,-32.98601 0.0919,-0.18375 1.68042,-0.73796 1.88491,-0.94246 0.92714,-0.92714 0.38954,-3.60645 0.94246,-4.71229 0.54892,-1.09784 1.33599,-1.72953 1.88492,-2.82737 0.28451,-0.56903 -0.43567,-2.39171 0,-2.82737 0.47122,-0.47123 1.41368,-0.47123 1.88491,-0.94246 0.62745,-0.62745 -0.62745,-1.25747 0,-1.88492 0.22214,-0.22214 0.72032,0.22214 0.94246,0 0.71962,-0.71962 0.4304,-4.63063 0.94246,-5.65474 0.99709,-1.9942 3.41326,-3.41326 4.71228,-4.71229 0.39493,-0.39493 0.65687,-2.25619 0.94246,-2.82737 0.63114,-1.26229 2.24836,-1.3059 2.82737,-1.88492 0.47123,-0.47123 0.47123,-1.41368 0.94246,-1.88491 0.22214,-0.22214 0.72032,0.22214 0.94246,0 0.53252,-0.53252 1.18285,-3.06777 1.88491,-3.76983 0.22214,-0.22214 0.66148,0.14049 0.94246,0 2.08383,-1.04192 0.29247,-0.58493 0.94246,-1.88492 1.96114,-3.92228 -0.0651,1.00752 1.88491,-0.94246 0.22214,-0.22213 -0.22214,-0.72031 0,-0.94245 0.31416,-0.31416 2.51322,-0.62831 2.82738,-0.94246 0.22214,-0.22214 -0.22214,-0.72032 0,-0.94246 0.44428,-0.44428 1.32294,0.28099 1.88491,0 1.29881,-0.6494 1.26786,-2.21031 1.88492,-2.82737 0.44428,-0.44428 1.44063,0.44428 1.88491,0 0.22214,-0.22214 -0.22214,-0.72032 0,-0.94246 0.4333,-0.4333 3.02867,-1.51433 3.76983,-1.88491 0.75397,-0.37699 2.07341,0.37698 2.82738,0 0.39737,-0.19869 0.54508,-0.74377 0.94245,-0.94246 0.78468,-0.39234 3.17202,0.59781 3.76983,0 0.22214,-0.22214 -0.22214,-0.72032 0,-0.94246 0.44428,-0.44428 1.32295,0.28099 1.88492,0 0.39737,-0.19869 0.54508,-0.74377 0.94246,-0.94246 0.56903,-0.28451 2.3917,0.43567 2.82737,0 0.22214,-0.22214 -0.22214,-0.72031 0,-0.94245 1.52743,-1.52744 7.39784,1.01336 9.42457,0 4.95634,-2.47817 13.93874,-0.94246 19.79161,-0.94246 1.25661,0 2.88128,0.88856 3.76983,0 0.22214,-0.22214 -0.22214,-0.72032 0,-0.94246 0.36722,-0.36722 3.19471,0 3.76983,0 2.7812,0 17.353,-0.74808 18.84916,0 0.39737,0.19869 0.54508,0.74377 0.94245,0.94246 1.78855,0.89427 7.12269,-1.35943 8.48212,0 0.22214,0.22214 -0.22214,0.72032 0,0.94246 0.95513,0.95512 7.9238,0 9.42458,0"
       id="path8" />
    <path
       style="fill:#f5f5f5"
       d="m 264.83058,247.86634 c 3.08786,1.04642 5.88941,0.58856 8.48211,1.88492 3.01587,1.50793 8.29363,-1.50794 11.3095,0 0.39737,0.19868 0.54508,0.74377 0.94245,0.94245 0.42861,0.21431 16.53563,0.21431 16.96424,0 0.39737,-0.19868 0.54508,-0.74377 0.94246,-0.94245 0.56903,-0.28452 2.3917,0.43566 2.82737,0 0.22214,-0.22214 -0.22214,-0.72032 0,-0.94246 0.44428,-0.44428 1.32294,0.28098 1.88491,0 0.39738,-0.19869 0.54509,-0.74377 0.94246,-0.94246 0.56197,-0.28099 1.44064,0.44428 1.88492,0 0.22214,-0.22214 -0.22214,-0.72032 0,-0.94246 0.65298,-0.65298 4.0593,-0.28947 4.71228,-0.94245 0.37724,-0.37724 0.51042,-1.19767 1.88492,-1.88492 0.7874,-0.3937 6.39936,-0.74462 6.5972,-0.94246 0.22214,-0.22214 -0.22214,-0.72032 0,-0.94245 0.44428,-0.44428 1.28886,0.19868 1.88492,0 2.05327,-0.68443 3.89232,-1.94617 5.65474,-2.82738 0.56198,-0.28098 1.44064,0.44428 1.88492,0 0.22214,-0.22214 -0.22214,-0.72032 0,-0.94246 0.31415,-0.31415 2.51322,-0.6283 2.82737,-0.94245 0.47123,-0.47123 0.47123,-1.41369 0.94246,-1.88492 0.44428,-0.44428 1.44064,0.44428 1.88491,0 0.22214,-0.22214 -0.22214,-0.72032 0,-0.94246 0.31416,-0.31415 2.51322,-0.6283 2.82738,-0.94245 0.22214,-0.22214 -0.22214,-0.72032 0,-0.94246 0.44428,-0.44428 1.44063,0.44428 1.88491,0 0.44428,-0.44428 -0.44428,-1.44064 0,-1.88492 0.65299,-0.65298 4.0593,-0.28947 4.71229,-0.94245 1.94998,-1.94998 -2.97983,0.0762 0.94246,-1.88492 0.57118,-0.28559 2.43244,-0.54753 2.82737,-0.94246 0.22214,-0.22214 -0.22214,-0.72031 0,-0.94245 0.44428,-0.44428 1.32294,0.28098 1.88492,0 1.2988,-0.64941 1.26785,-2.21032 1.88491,-2.82738 0.78538,-0.78538 2.98445,-0.15707 3.76983,-0.94245 0.31415,-0.31416 0.62831,-2.51322 0.94246,-2.82738 0.62194,-0.62193 3.02186,-1.33144 3.76983,-2.82737 0.38824,-0.77649 0.38232,-1.32477 0.94246,-1.88491 0.44427,-0.44428 1.44063,0.44427 1.88491,0 0.44428,-0.44428 -0.44428,-1.44064 0,-1.88492 0.22214,-0.22214 0.66147,0.14049 0.94246,0 0.89836,-0.44918 4.24311,-4.7164 4.71229,-5.65474 0.14049,-0.28099 -0.22214,-0.72032 0,-0.94246 0.0511,-0.0511 2.7763,-1.83385 2.82737,-1.88492 0.39493,-0.39493 0.65686,-2.25618 0.94246,-2.82737 0.99011,-1.98023 1.8666,0.0183 2.82737,-0.94246 1.16978,-1.16978 0.24391,-3.07128 0.94246,-3.76983 0.22214,-0.22214 0.72032,0.22214 0.94245,0 0.90248,-0.90247 2.16973,-5.2819 2.82738,-6.5972 0.28098,-0.56197 -0.28099,-1.32294 0,-1.88492 0.39737,-0.79475 1.48754,-1.09016 1.88491,-1.88491 0.37699,-0.75397 -0.37698,-2.07341 0,-2.82737 0.1405,-0.28099 0.72032,0.22214 0.94246,0 0.20513,-0.20513 0,-17.00778 0,-18.84916"
       id="path9" />
    <path
       style="fill:#fff5ee;stroke-width:0.942458"
       d="m 262.30207,231.23027 c -0.21498,-16.27784 -0.0846,-18.11251 1.39183,-19.58896 0.65452,-0.65453 1.78483,-3.3743 2.5118,-6.04395 0.72697,-2.66964 1.65277,-4.8539 2.05734,-4.8539 0.40456,0 1.38014,-2.17049 2.16794,-4.8233 0.7878,-2.65282 2.39463,-5.81452 3.57073,-7.026 1.1761,-1.21149 3.41067,-3.72778 4.96573,-5.59177 5.36276,-6.42814 8.79928,-9.8902 9.81723,-9.8902 0.56157,0 1.02103,-0.44913 1.02103,-0.99808 0,-0.54894 0.4271,-0.73411 0.94912,-0.41149 0.52201,0.32262 1.20354,-0.0765 1.51452,-0.88684 0.31097,-0.81038 1.15618,-1.47342 1.87825,-1.47342 0.72207,0 1.31286,-0.39552 1.31286,-0.87895 0,-0.98925 3.65321,-2.42935 5.34806,-2.10819 0.60885,0.11536 1.35146,-0.18578 1.65024,-0.66922 0.29878,-0.48343 1.39102,-0.65727 2.42721,-0.3863 1.09471,0.28627 1.88398,0.0285 1.88398,-0.61533 0,-0.6094 0.3948,-0.86399 0.87733,-0.56577 0.48254,0.29822 1.13228,0.12972 1.44387,-0.37445 0.3116,-0.50417 1.18911,-0.67776 1.95004,-0.38577 0.76093,0.292 1.3835,0.0727 1.3835,-0.48724 0,-1.0549 2.46147,-1.20714 21.91214,-1.35523 6.09063,-0.0464 11.07388,-0.38518 11.07388,-0.75291 0,-0.36772 4.34708,-0.93573 9.66019,-1.26223 5.3131,-0.32651 13.45127,-0.82252 18.08482,-1.10225 4.63354,-0.27972 9.91907,-0.22823 11.74561,0.11443 l 3.32098,0.62302 -2.32103,1.84569 c -1.77866,1.41439 -107.53887,72.5716 -120.77306,81.2581 l -2.65378,1.74185 z"
       id="path12" />
    <path
       style="fill:#008000;stroke-width:0.942458"
       d="m 285.49364,249.63638 c -0.4194,-0.67861 -2.38038,-0.86535 -5.47475,-0.52135 -2.6517,0.2948 -7.05775,0.018 -9.7912,-0.6151 l -4.96992,-1.1511 5.44115,-3.2554 c 4.68565,-2.8034 62.08796,-41.39828 103.33081,-69.47526 l 13.06848,-8.89666 -0.36461,9.84973 c -0.20054,5.41735 -0.81181,10.43457 -1.35837,11.14939 -0.54656,0.71481 -1.50914,3.1021 -2.13905,5.3051 -0.62991,2.20299 -1.55238,4.00544 -2.04992,4.00544 -0.49755,0 -0.90463,0.88792 -0.90463,1.97315 0,1.18054 -0.75717,2.17115 -1.88492,2.46607 -1.0367,0.2711 -1.88491,0.83153 -1.88491,1.24539 0,1.06082 -3.23128,4.84711 -10.60265,12.42376 -3.49887,3.59631 -6.36159,6.93063 -6.36159,7.4096 0,0.47897 -0.80284,0.87085 -1.78408,0.87085 -0.98125,0 -2.0282,0.63615 -2.32657,1.41368 -0.29836,0.77753 -1.19195,1.41369 -1.98574,1.41369 -0.7938,0 -1.44327,0.37813 -1.44327,0.84029 0,0.46215 -1.07761,1.11075 -2.39469,1.44131 -1.31708,0.33057 -2.14026,1.0127 -1.82929,1.51586 0.31097,0.50315 -0.42628,0.91483 -1.63832,0.91483 -1.21204,0 -2.81506,0.84821 -3.56227,1.88491 -0.74722,1.0367 -1.90526,1.88492 -2.57343,1.88492 -0.66817,0 -1.94111,0.84821 -2.82877,1.88491 -0.88765,1.03671 -2.15582,1.88492 -2.81815,1.88492 -0.66232,0 -1.20423,0.35342 -1.20423,0.78538 0,0.43196 -0.53013,0.83342 -1.17807,0.89213 -2.29643,0.20808 -8.24651,2.56415 -8.24651,3.26538 0,0.39152 -1.43244,0.71185 -3.1832,0.71185 -1.75076,0 -3.71117,0.63616 -4.35646,1.41369 -0.64529,0.77753 -2.18159,1.41369 -3.414,1.41369 -1.23241,0 -2.24074,0.33385 -2.24074,0.74189 0,0.40805 -0.94796,0.81331 -2.10657,0.90059 -1.15862,0.0873 -2.24628,0.5778 -2.41704,1.09007 -0.17075,0.51226 -0.87632,0.71425 -1.56793,0.44885 -0.6916,-0.26539 -1.53744,-0.0295 -1.87964,0.52417 -0.85043,1.37602 -16.2214,1.33045 -17.07495,-0.0506 z"
       id="path13" />
    <path
       style="fill:#008000;stroke-width:0.942458"
       d="m 241.43286,263.6525 c 0.32331,-1.68464 0.92491,-3.98182 1.33689,-5.10485 0.74635,-2.03448 8.26627,-8.73728 15.7348,-14.02507 l 3.92964,-2.78221 0.0201,-14.31686 c 0.0111,-7.87427 0.41329,-14.55985 0.89382,-14.85683 0.48054,-0.29699 1.37562,-2.12447 1.98908,-4.06107 0.61345,-1.9366 1.90171,-5.21751 2.8628,-7.29092 0.96108,-2.07341 2.35939,-5.2542 3.10736,-7.06843 3.80545,-9.23025 22.66,-26.26003 30.75028,-27.77421 3.37689,-0.63203 7.48927,-1.92586 10.83826,-3.40995 1.03671,-0.4594 8.67061,-1.00122 16.96424,-1.20403 8.29363,-0.20281 23.25409,-1.04759 33.24549,-1.87729 9.99139,-0.8297 19.67687,-1.19466 21.52328,-0.81103 l 3.35712,0.6975 -13.98363,9.42331 c -7.69099,5.18281 -34.76481,23.37267 -60.16404,40.42189 -25.39923,17.04923 -46.60453,31.39116 -47.12288,31.87095 -0.51835,0.47979 0.23534,0.34249 1.67487,-0.30511 1.87542,-0.8437 2.90607,-0.88871 3.63599,-0.1588 0.72992,0.72992 -0.0767,1.64433 -2.84568,3.22592 -2.12539,1.21398 -3.86761,2.92085 -3.87161,3.79303 -0.004,0.87219 -0.8687,1.85921 -1.92158,2.19338 -1.05288,0.33417 -3.49149,2.31795 -5.41913,4.4084 -1.92765,2.09045 -4.39283,4.76476 -5.4782,5.94292 -1.08536,1.17815 -2.84951,2.42017 -3.92033,2.76004 -1.07082,0.33986 -2.46128,1.23767 -3.08991,1.99513 -0.62863,0.75745 -1.92865,1.37718 -2.88892,1.37718 -1.46207,0 -1.65038,-0.49802 -1.15813,-3.06299 z m 23.0467,-20.26283 c 1.19647,-1.52561 1.15211,-1.54561 -0.59144,-0.26669 -1.0367,0.76044 -2.06163,1.50263 -2.27761,1.6493 -0.21598,0.14668 0.0502,0.26669 0.59145,0.26669 0.54127,0 1.56619,-0.74219 2.2776,-1.6493 z"
       id="path14" />
    <path
       style="fill:#008000;stroke-width:0.942458"
       d="m 242.22922,262.71005 c 0.35125,-1.68465 1.20614,-3.96107 1.89976,-5.05872 1.25731,-1.98969 14.88676,-13.37172 16.96864,-14.17061 0.72654,-0.2788 1.31317,-5.28569 1.73983,-14.84965 0.6385,-14.31252 0.67775,-14.51143 4.8611,-24.63527 6.13923,-14.85714 9.71028,-19.69669 21.57739,-29.24207 6.45067,-5.18863 8.75604,-6.41357 16.73707,-8.89309 8.08144,-2.51071 11.43738,-2.98794 26.44734,-3.76096 9.45527,-0.48694 24.94645,-1.39134 34.42484,-2.00976 10.40424,-0.67883 17.55834,-0.78292 18.05334,-0.26266 0.48326,0.50792 -23.34779,17.09735 -58.04045,40.4035 -32.37319,21.74796 -59.3156,40.09028 -59.872,40.76071 -0.80457,0.96944 -0.36112,1.11487 2.16625,0.71044 2.83806,-0.45414 2.98226,-0.37849 1.34839,0.70742 -1.00623,0.66877 -2.77109,2.20778 -3.92191,3.42002 -1.15081,1.21223 -2.44806,2.53945 -2.88277,2.94938 -0.43471,0.40992 -3.54707,3.38957 -6.91635,6.62144 -6.15955,5.90833 -12.2683,10.37286 -14.19302,10.37286 -0.67159,0 -0.81141,-1.07752 -0.39745,-3.06298 z m 22.64011,-18.67624 c 1.10515,-1.78818 -0.50668,-2.22942 -2.14806,-0.58804 -1.46924,1.46923 -1.47182,1.5932 -0.0332,1.5932 0.85802,0 1.83958,-0.45232 2.18125,-1.00516 z"
       id="path15" />
    <path
       style="fill:#008000;stroke-width:0.942458"
       d="m 242.1075,262.75931 c 0.92981,-4.64905 2.82549,-6.89689 11.78404,-13.97315 l 8.29195,-6.54972 0.63053,-13.97291 c 0.62212,-13.78653 0.68702,-14.10963 4.86623,-24.22345 6.16556,-14.92086 9.71428,-19.72837 21.65422,-29.33532 6.5097,-5.23776 8.78915,-6.45224 16.68632,-8.89045 7.93157,-2.44883 11.43716,-2.94195 26.38881,-3.71198 9.48319,-0.4884 24.9972,-1.39399 34.47559,-2.01241 10.4044,-0.67885 17.55865,-0.78293 18.05413,-0.26266 0.48395,0.50816 -22.70683,16.68191 -56.51825,39.41705 -31.53642,21.20541 -58.53349,39.53885 -59.99349,40.74097 l -2.65455,2.18568 3.29861,-0.49612 3.2986,-0.49612 -2.33569,1.69451 c -1.28463,0.93198 -3.04467,2.4791 -3.9112,3.43806 -0.86653,0.95895 -1.936,2.07411 -2.3766,2.47815 -0.4406,0.40403 -3.55778,3.37886 -6.92706,6.61073 -6.21028,5.95699 -12.27072,10.37286 -14.23595,10.37286 -0.71106,0 -0.87346,-1.02765 -0.47624,-3.01372 z m 22.76183,-18.7255 c 1.10515,-1.78818 -0.50668,-2.22942 -2.14806,-0.58804 -1.46924,1.46923 -1.47182,1.5932 -0.0332,1.5932 0.85802,0 1.83958,-0.45232 2.18125,-1.00516 z"
       id="path16" />
    <path
       style="fill:#008000;stroke-width:0.942458"
       d="m 242.1075,262.75931 c 0.92981,-4.64905 2.82549,-6.89689 11.78404,-13.97315 l 8.29195,-6.54972 0.63805,-14.13963 0.63805,-14.13963 4.69284,-11.08354 c 5.58787,-13.19739 10.29967,-19.49078 21.01136,-28.06417 6.66831,-5.33716 8.94649,-6.55283 16.857,-8.99516 7.93496,-2.44988 11.43077,-2.94121 26.38881,-3.70891 9.48319,-0.48671 24.70882,-1.39145 33.83475,-2.01053 9.12594,-0.61908 17.34783,-0.83579 18.27088,-0.48158 1.26925,0.48705 -4.15289,4.57855 -22.24734,16.78764 -13.15909,8.879 -39.61754,26.72608 -58.79655,39.66017 -19.17901,12.9341 -35.50141,24.11865 -36.272,24.85455 -1.2184,1.16358 -0.9754,1.25289 1.86388,0.68503 l 3.26494,-0.65299 -5.59751,5.10863 c -3.07863,2.80974 -7.94638,7.38439 -10.81722,10.16591 -5.38069,5.21324 -11.43446,9.5508 -13.32969,9.5508 -0.71106,0 -0.87346,-1.02765 -0.47624,-3.01372 z m 22.76183,-18.7255 c 1.10515,-1.78818 -0.50668,-2.22942 -2.14806,-0.58804 -1.46924,1.46923 -1.47182,1.5932 -0.0332,1.5932 0.85802,0 1.83958,-0.45232 2.18125,-1.00516 z"
       id="path17" />
    <path
       style="fill:#008000;stroke-width:0.942458"
       d="m 242.1075,262.75931 c 0.92977,-4.64886 2.82547,-6.89688 11.78175,-13.97134 l 8.28966,-6.54791 0.60886,-14.0669 0.60886,-14.0669 4.74706,-11.24019 c 5.61513,-13.29563 11.17939,-20.6235 21.88825,-28.82582 10.68848,-8.18671 19.46457,-10.69313 41.71312,-11.91308 9.33033,-0.51161 24.92574,-1.43787 34.65648,-2.05836 10.86613,-0.69288 18.01496,-0.79087 18.52868,-0.25397 0.50323,0.52591 -22.80482,16.807 -58.50552,40.86715 -32.63809,21.99613 -59.55172,40.33233 -59.80806,40.7471 -0.25634,0.41477 0.92153,0.4766 2.6175,0.13741 2.96812,-0.59363 2.85646,-0.40783 -2.98209,4.96209 -3.33612,3.06834 -8.20152,7.64331 -10.812,10.1666 -4.97287,4.80675 -11.02171,9.07784 -12.85631,9.07784 -0.71106,0 -0.87346,-1.02765 -0.47624,-3.01372 z m 22.76183,-18.7255 c 1.10515,-1.78818 -0.50668,-2.22942 -2.14806,-0.58804 -1.46924,1.46923 -1.47182,1.5932 -0.0332,1.5932 0.85802,0 1.83958,-0.45232 2.18125,-1.00516 z"
       id="path18" />
    <path
       style="fill:#008000;stroke-width:0.942458"
       d="m 242.1075,262.75931 c 0.92352,-4.61762 2.74411,-6.78582 11.75874,-14.00385 l 8.31999,-6.66183 0.58023,-13.84226 c 0.54825,-13.0793 0.7694,-14.30952 4.0124,-22.31934 1.8877,-4.66239 4.22932,-10.03961 5.20361,-11.94938 2.96754,-5.81685 10.57493,-14.21737 18.08243,-19.96765 10.53859,-8.07191 19.46956,-10.6489 41.20893,-11.89065 9.07116,-0.51814 24.67054,-1.44248 34.66528,-2.05408 11.02791,-0.67482 18.49695,-0.77178 18.99809,-0.24662 0.48984,0.5133 -13.39942,10.45095 -34.13989,24.4268 -65.0594,43.83993 -83.61059,56.51038 -83.61059,57.10599 0,0.32658 1.13603,0.3766 2.52452,0.11118 2.07846,-0.39733 1.21364,0.74978 -4.89465,6.49228 -4.08053,3.83618 -8.92749,8.40569 -10.77102,10.15448 -3.81766,3.62147 -9.85965,7.65865 -11.46183,7.65865 -0.71106,0 -0.87346,-1.02765 -0.47624,-3.01372 z m 22.76183,-18.7255 c 1.02665,-1.66116 -0.0557,-1.89406 -1.99247,-0.42876 -1.59451,1.20632 -1.62165,1.37763 -0.22243,1.40394 0.87652,0.0165 1.87323,-0.42234 2.2149,-0.97518 z"
       id="path19" />
    <path
       style="fill:#008000;stroke-width:0.942458"
       d="m 242.1075,262.75931 c 0.92357,-4.61788 2.74413,-6.78583 11.76213,-14.00656 l 8.32337,-6.66454 0.54708,-13.83956 c 0.51525,-13.03455 0.74101,-14.31806 3.88115,-22.06599 6.61198,-16.31427 10.75946,-22.10021 22.53113,-31.43208 6.56582,-5.20498 9.06209,-6.53871 16.67512,-8.90928 8.08159,-2.51648 11.29333,-2.92646 32.98602,-4.21072 42.58751,-2.52129 45.88842,-2.64832 46.40402,-1.78569 0.2775,0.46427 -13.54876,10.3396 -30.72502,21.94519 -89.43431,60.42861 -87.38231,58.99746 -85.02272,59.29877 2.03098,0.25934 1.25961,1.27764 -7.10378,9.3778 -9.84325,9.53344 -17.19621,15.30638 -19.49565,15.30638 -1.03345,0 -1.219,-0.733 -0.76285,-3.01372 z m 22.22455,-18.62599 c 0.76252,-0.48223 1.15567,-1.10751 0.87366,-1.38951 -0.282,-0.28201 -1.32999,0.10555 -2.32885,0.86124 -1.98705,1.50329 -0.77963,1.94162 1.45519,0.52827 z"
       id="path20" />
    <path
       style="fill:#008000;stroke-width:0.942458"
       d="m 242.10467,262.71005 c 0.85497,-4.3652 3.01508,-6.9225 11.98323,-14.18655 l 7.9153,-6.41127 0.65196,-14.06724 c 0.65072,-14.0408 0.6603,-14.08703 5.09619,-24.59621 5.49559,-13.01974 10.79572,-20.15664 21.10692,-28.42154 6.8855,-5.51905 9.20703,-6.78053 16.90867,-9.18792 8.42362,-2.63308 10.85238,-2.90466 43.04357,-4.81307 18.76393,-1.11239 34.84981,-1.74102 35.74643,-1.39696 1.8114,0.6951 2.24657,0.38769 -60.82277,42.96688 -55.28528,37.32404 -56.44379,38.14939 -54.03143,38.49298 1.7188,0.2448 0.54905,1.73991 -7.33705,9.3778 -9.84297,9.53317 -17.19592,15.30608 -19.49534,15.30608 -1.03543,0 -1.22055,-0.74055 -0.76568,-3.06298 z m 21.78345,-18.61354 c 0.32036,-0.51835 0.15836,-0.94246 -0.35999,-0.94246 -0.51835,0 -1.20457,0.42411 -1.52493,0.94246 -0.32036,0.51835 -0.15836,0.94246 0.35999,0.94246 0.51835,0 1.20457,-0.42411 1.52493,-0.94246 z"
       id="path21" />
    <path
       style="fill:#008000;stroke-width:0.942458"
       d="m 242.10467,262.71005 c 0.85498,-4.36522 3.01511,-6.92251 11.98323,-14.18648 l 7.9153,-6.4112 0.61245,-13.97371 0.61244,-13.97371 4.48375,-10.62256 c 5.53765,-13.1194 10.81195,-20.23159 21.14643,-28.51515 6.89328,-5.52528 9.20423,-6.77995 16.95194,-9.20366 8.48007,-2.65281 10.83259,-2.9165 43.02017,-4.82204 18.72725,-1.10868 34.79428,-1.73 35.7045,-1.38071 1.8999,0.72906 3.45251,-0.37176 -57.97333,41.10394 -60.13628,40.60497 -60.05243,40.54437 -56.09453,40.54437 1.68494,0 -15.6996,17.01629 -21.85713,21.39413 -5.71772,4.06516 -7.29448,4.07649 -6.50522,0.0468 z m 21.78345,-18.61354 c 0.32036,-0.51835 0.15836,-0.94246 -0.35999,-0.94246 -0.51835,0 -1.20457,0.42411 -1.52493,0.94246 -0.32036,0.51835 -0.15836,0.94246 0.35999,0.94246 0.51835,0 1.20457,-0.42411 1.52493,-0.94246 z"
       id="path22" />
    <path
       style="fill:#008000;stroke-width:0.942458"
       d="m 242.1075,262.75931 c 0.86898,-4.34489 2.65468,-6.67187 9.29133,-12.10769 12.10643,-9.9159 10.737,-7.17448 11.29315,-22.60733 0.44952,-12.47402 0.74315,-14.26197 3.44801,-20.99523 6.59883,-16.42663 11.2919,-23.01171 23.01237,-32.28978 6.43041,-5.0904 9.19051,-6.5839 16.50416,-8.93049 8.34469,-2.6774 10.4848,-2.91931 42.94157,-4.85396 18.78755,-1.11987 34.93151,-1.73977 35.87547,-1.37754 1.95547,0.75039 2.8199,0.13285 -52.42344,37.45135 -51.04911,34.48518 -62.96818,42.72104 -62.97363,43.51365 -0.003,0.38877 0.62307,0.70685 1.39053,0.70685 1.68494,0 -15.6996,17.01629 -21.85713,21.39413 -5.69734,4.05067 -7.29805,4.07431 -6.50239,0.096 z m 21.78062,-18.6628 c 0.32036,-0.51835 0.13333,-0.94246 -0.41561,-0.94246 -0.54894,0 -0.99808,0.42411 -0.99808,0.94246 0,0.51835 0.18703,0.94246 0.41561,0.94246 0.22858,0 0.67772,-0.42411 0.99808,-0.94246 z"
       id="path23" />
    <path
       style="fill:#008000;stroke-width:0.942458"
       d="m 242.1075,262.75931 c 0.90302,-4.5151 2.59528,-6.5851 11.38586,-13.92736 4.42548,-3.69634 8.21314,-7.63385 8.44708,-8.78126 0.23326,-1.14409 0.6169,-7.38148 0.85254,-13.86087 0.38071,-10.46825 0.76295,-12.62071 3.43098,-19.32038 6.52189,-16.37708 12.52012,-24.55825 24.53692,-33.46668 4.85399,-3.59841 8.93891,-5.65931 15.22265,-7.68005 8.12494,-2.61284 10.42912,-2.87 42.70011,-4.76564 18.76144,-1.10207 34.87424,-1.71115 35.80621,-1.35352 2.0035,0.76881 4.53272,-1.02643 -61.2269,43.45879 -51.94597,35.14052 -55.34656,37.57802 -53.04426,38.02141 1.75157,0.33732 -14.35567,16.42274 -21.6088,21.57952 -5.69734,4.05067 -7.29805,4.07431 -6.50239,0.096 z m 21.78062,-18.6628 c 0.32036,-0.51835 0.13333,-0.94246 -0.41561,-0.94246 -0.54894,0 -0.99808,0.42411 -0.99808,0.94246 0,0.51835 0.18703,0.94246 0.41561,0.94246 0.22858,0 0.67772,-0.42411 0.99808,-0.94246 z"
       id="path24" />
    <path
       style="fill:#008000;stroke-width:0.942458"
       d="m 241.74389,263.6525 c 0.006,-3.59659 3.25811,-7.7241 11.66183,-14.8008 9.14027,-7.69696 8.73153,-6.67123 9.40608,-23.60434 0.37291,-9.36102 0.83949,-11.86591 3.42323,-18.37792 6.41479,-16.16774 12.46478,-24.48482 24.30303,-33.40999 4.70593,-3.54792 8.63329,-5.51859 15.26493,-7.65963 8.56422,-2.76497 10.31791,-2.96394 42.94172,-4.87186 18.70707,-1.09403 34.7858,-1.69255 35.73049,-1.33004 2.09109,0.80243 5.53366,-1.65262 -57.44242,40.96486 -55.66573,37.67037 -59.04032,40.0741 -56.86341,40.50387 1.82571,0.36044 -15.57657,17.73417 -22.09593,22.05967 -4.81672,3.19584 -6.3342,3.32198 -6.32955,0.52618 z m 22.14423,-19.55599 c 0.32036,-0.51835 0.13333,-0.94246 -0.41561,-0.94246 -0.54894,0 -0.99808,0.42411 -0.99808,0.94246 0,0.51835 0.18703,0.94246 0.41561,0.94246 0.22858,0 0.67772,-0.42411 0.99808,-0.94246 z"
       id="path25" />
    <path
       style="fill:#008000;stroke-width:0.942458"
       d="m 241.74389,263.6525 c 0.006,-3.56373 3.27295,-7.7637 11.20207,-14.40093 5.01376,-4.19687 7.8813,-7.33884 8.47282,-9.2837 0.49177,-1.61688 1.10097,-8.02906 1.35378,-14.24928 0.40117,-9.87069 0.84094,-12.26869 3.45679,-18.84915 6.43427,-16.18613 12.47454,-24.48789 24.30871,-33.40999 4.70248,-3.54533 8.63384,-5.51878 15.24824,-7.65428 8.53342,-2.75507 10.35666,-2.96275 42.90261,-4.88687 18.69474,-1.10523 34.78098,-1.70615 35.74717,-1.33538 2.13391,0.81885 5.59991,-1.65905 -55.98962,40.02784 -25.65841,17.36691 -49.30231,33.45781 -52.54201,35.75755 -5.48008,3.89013 -7.17463,5.90083 -4.97299,5.90083 1.39133,0 -18.31318,18.84175 -22.85802,21.85718 -4.81672,3.19584 -6.3342,3.32198 -6.32955,0.52618 z m 22.14423,-19.55599 c 0.32036,-0.51835 0.13333,-0.94246 -0.41561,-0.94246 -0.54894,0 -0.99808,0.42411 -0.99808,0.94246 0,0.51835 0.18703,0.94246 0.41561,0.94246 0.22858,0 0.67772,-0.42411 0.99808,-0.94246 z"
       id="path26" />
    <path
       style="fill:#008000;stroke-width:0.942458"
       d="m 241.74389,263.6525 c 0.006,-3.56054 3.27094,-7.76201 11.17094,-14.37487 4.15117,-3.47482 7.84017,-7.01633 8.19779,-7.87002 0.35763,-0.85368 0.97953,-7.31018 1.38201,-14.34777 0.78978,-13.80962 2.18796,-18.73966 9.09446,-32.06749 6.96509,-13.44089 20.00326,-24.60431 34.02399,-29.1317 7.71639,-2.49167 11.19013,-2.98071 29.6874,-4.17943 32.19288,-2.08628 47.50859,-2.72265 49.26896,-2.04713 2.02946,0.77878 4.96838,-1.32651 -51.41069,36.82807 -63.19303,42.76593 -66.0276,44.80698 -62.22729,44.80698 1.39133,0 -18.31318,18.84175 -22.85802,21.85718 -4.81672,3.19584 -6.3342,3.32198 -6.32955,0.52618 z"
       id="path27" />
    <path
       style="fill:#008000;stroke-width:0.942458"
       d="m 241.74389,263.6525 c 0.006,-3.45263 3.16263,-7.63995 10.51376,-13.94548 3.805,-3.26379 7.49606,-6.74338 8.20235,-7.73243 0.824,-1.15387 1.55449,-6.41512 2.0385,-14.68189 0.60099,-10.26461 1.24608,-14.18928 3.17338,-19.3066 8.3222,-22.09683 21.73965,-36.24804 39.9412,-42.12545 7.70577,-2.48824 11.21558,-2.98384 29.6874,-4.19199 31.84388,-2.08274 47.45665,-2.73002 49.25005,-2.04183 2.05263,0.78767 4.61714,-1.05795 -48.56441,34.95057 -66.01743,44.69953 -68.79314,46.69174 -65.05466,46.69174 1.39133,0 -18.31318,18.84175 -22.85802,21.85718 -4.81672,3.19584 -6.3342,3.32198 -6.32955,0.52618 z"
       id="path28" />
    <path
       style="fill:#008000;stroke-width:0.942458"
       d="m 241.74037,263.82616 c 0,-3.44069 1.84926,-5.89293 10.96946,-14.54613 l 8.93987,-8.48212 0.81558,-13.2278 c 0.64751,-10.50198 1.31117,-14.54448 3.22061,-19.6174 8.31809,-22.09913 21.82322,-36.28896 40.14582,-42.18118 7.23034,-2.32515 11.25964,-2.89323 28.93738,-4.07983 30.20052,-2.02718 47.9632,-2.76259 49.79041,-2.06143 2.04983,0.7866 4.24288,-0.78965 -50.26355,36.12666 -37.26968,25.24213 -59.34479,40.45211 -63.76489,43.93466 -0.67807,0.53424 -0.64324,0.92035 0.11097,1.23031 1.27568,0.52425 -16.82964,18.42307 -22.51618,22.25938 -4.58576,3.09368 -6.38548,3.27544 -6.38548,0.64488 z"
       id="path29" />
    <path
       style="fill:#008000;stroke-width:0.942458"
       d="m 241.74037,263.82616 c 0,-3.44069 1.84926,-5.89293 10.96946,-14.54613 l 8.93987,-8.48212 0.81558,-13.2278 c 0.64751,-10.50198 1.31117,-14.54448 3.22061,-19.6174 3.86941,-10.28007 8.82098,-18.89741 14.40272,-25.06544 12.13544,-13.4101 24.52073,-18.9704 46.00912,-20.65553 22.4952,-1.76409 56.61229,-3.31118 58.34623,-2.6458 2.26418,0.86885 6.17368,-1.94271 -54.58381,39.25459 -44.18106,29.95746 -57.05575,38.84787 -59.84606,41.32574 -0.25917,0.23016 0.0234,0.59596 0.62794,0.8129 1.29366,0.46423 -16.92942,18.43311 -22.51618,22.20211 -4.58576,3.09368 -6.38548,3.27544 -6.38548,0.64488 z"
       id="path30" />
    <path
       style="fill:#008000;stroke-width:0.942458"
       d="m 241.74037,263.82616 c 0,-3.43505 1.84451,-5.88781 10.93887,-14.54613 l 8.90929,-8.48212 0.85902,-13.26196 c 0.67544,-10.42772 1.37026,-14.6202 3.2512,-19.61741 8.30364,-22.06072 21.82196,-36.25852 40.12861,-42.14561 7.1416,-2.29661 11.39343,-2.90968 28.46615,-4.10447 28.99896,-2.02943 51.64492,-2.83315 51.63098,-1.83243 -0.0134,0.96168 -8.24085,6.69375 -54.65066,38.07515 -55.19177,37.31959 -63.6116,43.35796 -60.45777,43.35796 1.42643,0 -17.95778,18.7195 -22.69021,21.91214 -4.58576,3.09368 -6.38548,3.27544 -6.38548,0.64488 z"
       id="path31" />
    <path
       style="fill:#008000;stroke-width:0.942458"
       d="m 241.74037,263.82616 c 0,-3.45057 1.84043,-5.90179 10.92153,-14.54613 l 8.91069,-8.48212 0.86699,-13.26196 c 0.68062,-10.41117 1.38122,-14.62813 3.25917,-19.61741 9.83939,-26.14084 27.1536,-41.32351 51.12676,-44.83257 7.13236,-1.044 52.74945,-3.81565 62.74928,-3.81259 3.49887,0.001 6.35559,0.32003 6.34827,0.70879 -0.0154,0.81766 -7.67214,6.14627 -50.40817,35.08098 -59.02989,39.96659 -67.76646,46.20599 -64.69883,46.20599 1.42643,0 -17.95778,18.7195 -22.69021,21.91214 -4.58576,3.09368 -6.38548,3.27544 -6.38548,0.64488 z"
       id="path32" />
    <path
       style="fill:#008000;stroke-width:0.942458"
       d="m 241.74037,263.82616 c 0,-3.44527 1.83601,-5.89706 10.89289,-14.54613 l 8.88204,-8.48212 0.90526,-13.28754 c 0.70455,-10.34143 1.43353,-14.69101 3.28782,-19.61741 9.83036,-26.11686 27.10325,-41.2906 50.97946,-44.78402 7.61192,-1.11373 51.71705,-3.83361 62.16518,-3.83361 3.89585,0 7.07703,0.31808 7.06929,0.70684 -0.0174,0.87357 -8.35035,6.6577 -60.77445,42.18504 -46.38146,31.43229 -56.04924,38.32554 -54.48354,38.84744 1.28659,0.42886 -17.05329,18.46617 -22.53847,22.16663 -4.58576,3.09368 -6.38548,3.27544 -6.38548,0.64488 z"
       id="path33" />
    <path
       style="fill:#008000;stroke-width:0.942458"
       d="m 241.74037,263.82616 c 0,-3.44527 1.83601,-5.89706 10.89289,-14.54613 l 8.88204,-8.48212 0.90899,-13.19441 c 1.0087,-14.64173 2.3486,-19.57639 8.55446,-31.50483 7.35511,-14.13746 21.00311,-26.09614 34.84873,-30.53523 8.28955,-2.65773 11.77642,-3.05974 42.41059,-4.88963 25.67204,-1.53347 37.70538,-1.75433 37.68424,-0.69164 -0.0173,0.8699 -8.74177,6.93645 -57.94708,40.29343 -49.21958,33.36667 -57.12501,38.978 -56.84424,40.34842 0.28098,1.3714 -17.66866,18.98477 -22.98791,22.55726 -4.60654,3.09382 -6.40271,3.27473 -6.40271,0.64488 z"
       id="path34" />
    <path
       style="fill:#008000;stroke-width:0.942458"
       d="m 241.74037,263.82616 c 0,-3.44035 1.8319,-5.89261 10.86628,-14.54613 l 8.85544,-8.48212 0.93802,-13.19441 c 1.04033,-14.6336 2.40101,-19.63066 8.57864,-31.50483 7.35511,-14.13746 21.00311,-26.09614 34.84873,-30.53523 8.23451,-2.64009 11.66712,-3.04067 41.93936,-4.89432 24.9634,-1.52857 38.18143,-1.7666 38.14698,-0.68695 -0.0301,0.94284 -6.56779,5.50295 -53.69753,37.45448 -49.52366,33.57449 -61.33561,41.94358 -61.06688,43.26756 0.26627,1.31194 -17.85835,19.0196 -23.00633,22.47707 -4.60654,3.09382 -6.40271,3.27473 -6.40271,0.64488 z"
       id="path35" />
    <path
       style="fill:#008000;stroke-width:0.942458"
       d="m 289.33447,249.69642 c -2.59176,-0.39737 -7.09788,-0.75965 -10.01361,-0.80506 -6.34126,-0.0988 -11.36901,-1.00587 -10.99288,-1.98334 0.14983,-0.38938 9.17865,-6.62452 20.06404,-13.85586 10.88538,-7.23134 36.97812,-24.79669 57.98387,-39.03411 21.00575,-14.23742 38.68517,-26.19086 39.2876,-26.56318 0.81595,-0.50428 0.96084,1.5515 0.56806,8.05931 -0.66353,10.99367 -4.09763,19.97257 -10.21004,26.69541 -2.3302,2.56291 -7.09613,7.87166 -10.59096,11.79721 -3.49482,3.92555 -8.89885,8.71746 -12.00896,10.64868 -3.11011,1.93122 -6.4808,4.02073 -7.49041,4.64335 -1.00962,0.62263 -4.4664,2.92208 -7.68174,5.1099 -5.62151,3.82506 -9.71396,5.70963 -17.81387,8.20328 -2.0734,0.63832 -4.95482,1.65418 -6.40315,2.25747 -1.44833,0.6033 -3.67889,1.35932 -4.95681,1.68006 -1.27791,0.32073 -2.54141,0.93577 -2.80777,1.36675 -0.26636,0.43098 -2.48891,1.05581 -4.939,1.38851 -2.45009,0.33269 -5.09087,0.71947 -5.86839,0.85951 -0.77753,0.14003 -3.53422,-0.0705 -6.12598,-0.46789 z"
       id="path36" />
    <path
       style="fill:#008000;stroke-width:0.942458"
       d="m 288.86324,249.67689 c -2.33258,-0.40061 -6.62665,-0.75981 -9.54238,-0.79823 -6.32923,-0.0834 -11.36995,-0.98905 -10.99288,-1.97504 0.14983,-0.39181 7.90633,-5.7781 17.23666,-11.96955 9.33033,-6.19144 35.41285,-23.75138 57.96114,-39.02209 22.5483,-15.27071 41.52406,-28.08783 42.16836,-28.48249 0.91658,-0.56144 1.04476,1.19034 0.58915,8.0517 -0.69967,10.53678 -4.18784,20.0267 -9.54618,25.97143 -1.93815,2.15024 -6.70471,7.45902 -10.59235,11.79727 -4.00245,4.46639 -9.52121,9.41222 -12.72317,11.40232 -3.11011,1.93302 -6.4808,4.024 -7.49041,4.64662 -1.00962,0.62263 -4.4664,2.92208 -7.68174,5.1099 -3.21534,2.18782 -7.69061,4.64476 -9.94505,5.45986 -2.25444,0.81511 -6.85568,2.48222 -10.22496,3.70469 -3.36929,1.22248 -8.45856,3.05882 -11.30949,4.08077 -6.41866,2.30082 -12.37219,2.97337 -17.9067,2.02284 z"
       id="path37" />
    <path
       style="fill:#008000;stroke-width:0.942458"
       d="m 292.46068,250.20716 c -0.22934,-0.22933 -5.61042,-0.80389 -11.95798,-1.27679 -6.34755,-0.4729 -11.83435,-1.16756 -12.19288,-1.54369 -0.35853,-0.37613 0.13845,-1.16426 1.10439,-1.7514 0.96594,-0.58715 27.26051,-18.26135 58.43237,-39.276 31.17186,-21.01466 57.20326,-38.53221 57.84756,-38.92791 0.91665,-0.56296 1.04479,1.18795 0.58915,8.04982 -0.69967,10.53678 -4.18784,20.0267 -9.54618,25.97143 -1.93815,2.15024 -6.70471,7.45388 -10.59235,11.78586 -3.88763,4.33198 -8.72539,8.91217 -10.75056,10.17821 -2.02517,1.26605 -5.11878,3.25614 -6.87467,4.42243 -1.7559,1.16629 -3.38768,2.12053 -3.62618,2.12053 -0.23851,0 -3.21898,1.94684 -6.62328,4.32633 -3.40429,2.37948 -7.32535,4.69083 -8.71346,5.13634 -1.38811,0.4455 -5.49258,1.92098 -9.12104,3.27883 -14.03144,5.25089 -19.00306,6.82919 -23.20354,7.36625 -2.39491,0.3062 -4.54202,0.3691 -4.77135,0.13976 z"
       id="path38" />
    <path
       style="fill:#008000;stroke-width:0.942458"
       d="m 288.86324,249.67689 c -2.33258,-0.40061 -6.62665,-0.75981 -9.54238,-0.79823 -6.41405,-0.0845 -11.36355,-0.99154 -10.99288,-2.01449 0.14983,-0.41351 10.87507,-7.84917 23.83387,-16.52368 12.95879,-8.67451 39.0413,-26.22337 57.96114,-38.99747 18.91983,-12.77409 34.94779,-23.5548 35.61769,-23.95713 0.97806,-0.58739 1.09464,1.00168 0.59177,8.06654 -0.72962,10.25071 -4.25041,20.09 -9.13448,25.52749 -1.67327,1.86288 -6.43516,7.15384 -10.58198,11.7577 -4.14681,4.60385 -9.19662,9.40797 -11.22179,10.67581 -2.02517,1.26783 -5.11878,3.2594 -6.87467,4.42569 -1.7559,1.16629 -3.36544,2.12053 -3.57676,2.12053 -0.21132,0 -3.14231,1.92803 -6.5133,4.28452 -5.60565,3.91864 -9.80238,5.70859 -30.71707,13.10118 -7.35041,2.5981 -13.13261,3.31333 -18.84916,2.33154 z"
       id="path39" />
    <path
       style="fill:#008000;stroke-width:0.942458"
       d="m 241.74389,263.6525 c 0.006,-3.43673 3.01386,-7.41422 11.19252,-14.79911 4.23161,-3.82093 7.89588,-7.83268 8.14282,-8.915 0.24694,-1.08232 0.86033,-7.26927 1.36309,-13.74878 1.01596,-13.0936 2.6019,-18.68403 8.53643,-30.09094 7.35511,-14.13746 21.00311,-26.09614 34.84873,-30.53523 8.23451,-2.64009 11.66712,-3.04067 41.93936,-4.89432 24.96413,-1.52862 38.17779,-1.76653 38.15387,-0.68695 -0.0198,0.89392 -7.92235,6.4149 -52.29073,36.53207 -55.82491,37.89383 -62.93196,42.94941 -62.49089,44.45271 0.31642,1.07846 -18.29433,19.0566 -22.99601,22.21433 -4.68491,3.14646 -6.40385,3.27304 -6.39919,0.47122 z"
       id="path40" />
    <path
       style="fill:#008000;stroke-width:0.942458"
       d="m 241.74389,263.6525 c 0.006,-3.43673 3.01386,-7.41422 11.19252,-14.79911 4.23161,-3.82093 7.89588,-7.83268 8.14282,-8.915 0.24694,-1.08232 0.86033,-7.26927 1.36309,-13.74878 1.01596,-13.0936 2.6019,-18.68403 8.53643,-30.09094 7.35893,-14.1448 21.01285,-26.10594 34.84873,-30.52825 8.41212,-2.68874 11.57506,-3.06574 40.9969,-4.88653 24.83408,-1.53687 39.12695,-1.79348 39.08452,-0.70172 -0.0387,0.99684 -5.91468,5.11873 -48.03786,33.6979 -60.1301,40.79624 -66.53091,45.37069 -66.87673,47.7946 -0.18061,1.26594 -18.8803,19.03973 -22.80414,21.67501 -4.73091,3.17732 -6.45095,3.31149 -6.44628,0.50282 z"
       id="path41" />
    <path
       style="fill:#008000;stroke-width:0.942458"
       d="m 241.74037,263.84132 c 0,-3.48799 2.52956,-6.9093 11.21963,-15.17487 6.87234,-6.53663 8.57357,-8.68562 8.58004,-10.83826 0.0242,-8.04748 2.09326,-24.22423 3.69323,-28.87464 7.25802,-21.0958 22.77297,-37.67874 40.59421,-43.38856 8.64219,-2.7689 11.45566,-3.1074 40.52568,-4.87573 25.7634,-1.56718 39.58321,-1.79513 39.58321,-0.6529 0,0.96086 -0.67791,1.43567 -46.88159,32.83622 -61.24483,41.6227 -68.58027,46.85414 -67.69853,48.28082 0.53583,0.867 -18.15602,18.57876 -23.2468,22.02788 -4.55886,3.08872 -6.36908,3.27632 -6.36908,0.66004 z"
       id="path42" />
    <path
       style="fill:#008000;stroke-width:0.942458"
       d="m 241.74037,263.84132 c 0,-3.39376 2.48722,-6.82198 11.07673,-15.26747 l 8.38646,-8.24584 1.0648,-12.95946 c 1.1767,-14.3213 2.6564,-19.63336 8.71039,-31.26988 7.3631,-14.15282 20.86765,-25.97499 35.02542,-30.66203 5.74412,-1.90163 11.1136,-2.69107 25.91759,-3.81051 25.93543,-1.96118 54.01461,-2.86714 54.01461,-1.74275 0,1.133 -1.19363,1.96941 -55.60499,38.96405 -47.97107,32.61584 -59.02389,40.55815 -58.69471,42.17671 0.11488,0.5649 -4.33823,5.24853 -9.89581,10.40807 -14.47274,13.43618 -20.00049,16.86582 -20.00049,12.40911 z"
       id="path43" />
    <path
       style="fill:#008000;stroke-width:0.942458"
       d="m 241.74037,263.82616 c 0,-3.28283 1.7582,-5.72214 10.82419,-15.01736 l 8.73255,-8.95335 1.02365,-12.72318 c 1.13187,-14.06823 2.63045,-19.44791 8.62956,-30.97897 7.40239,-14.22832 21.2345,-26.40848 34.80407,-30.64746 8.73738,-2.72946 11.64885,-3.07997 40.12754,-4.831 25.2036,-1.54966 40.05444,-1.78638 40.05444,-0.63848 0,0.96957 -0.46385,1.29389 -53.24885,37.23081 -49.03133,33.38136 -62.0556,42.71425 -61.30458,43.92941 0.27735,0.44876 -4.05221,5.04608 -9.62125,10.21627 -14.51064,13.4714 -20.02132,16.88804 -20.02132,12.41331 z"
       id="path44" />
    <path
       style="fill:#008000;stroke-width:0.942458"
       d="m 284.62219,249.55471 c -14.0353,-1.39212 -16.49301,-1.77051 -16.49301,-2.53923 0,-0.40444 7.52788,-5.74057 16.72862,-11.85804 9.20074,-6.11748 35.38928,-23.7076 58.19675,-39.08915 22.80748,-15.38156 42.03378,-28.30299 42.72513,-28.71428 1.02961,-0.61254 1.13792,0.84808 0.59878,8.07432 -0.77612,10.40263 -4.32123,20.14578 -9.41881,25.88601 -12.13662,13.66669 -18.19043,20.03535 -20.23946,21.29204 -1.29588,0.79478 -7.44542,4.72704 -13.66564,8.73836 -8.88854,5.73208 -14.26125,8.38257 -25.09871,12.38183 -11.92123,4.3992 -22.32175,7.32067 -24.27333,6.8183 -0.31801,-0.0819 -4.39516,-0.52743 -9.06032,-0.99016 z"
       id="path45" />
    <path
       style="fill:#008000;stroke-width:0.942458"
       d="m 287.92079,249.70315 c -2.33259,-0.41505 -6.41461,-0.78607 -9.07116,-0.82449 -5.73694,-0.083 -10.72045,-0.97962 -10.72045,-1.92885 0,-0.3745 4.34708,-3.5624 9.66019,-7.08422 5.3131,-3.52182 31.50164,-21.11153 58.19675,-39.08824 26.69511,-17.97672 49.11612,-33.02794 49.82446,-33.44715 1.07036,-0.63346 1.17344,0.73123 0.61025,8.07902 -0.72931,9.51534 -4.3294,20.19566 -8.31539,24.66915 -13.22398,14.8413 -19.8713,21.52924 -24.21262,24.36057 -19.61375,12.79176 -22.48619,14.33523 -35.83594,19.25608 -12.46892,4.59616 -21.90985,7.21073 -24.8456,6.88073 -0.57719,-0.0649 -2.95791,-0.45755 -5.29049,-0.8726 z"
       id="path46" />
    <path
       style="fill:#008000;stroke-width:0.942458"
       d="m 241.74037,263.82616 c 0,-3.24987 1.75247,-5.68431 10.81054,-15.01736 l 8.68955,-8.95335 1.05198,-12.72318 c 1.16224,-14.05671 2.68077,-19.4902 8.65788,-30.97897 7.41631,-14.25508 21.19615,-26.3738 34.91764,-30.70841 7.52435,-2.37694 17.52837,-3.51037 46.13994,-5.22752 19.00376,-1.14053 33.92847,-1.21063 33.92847,-0.15935 0,1.02429 -0.92499,1.67302 -49.95025,35.03185 -53.36467,36.31155 -63.17648,43.3129 -64.09868,45.73847 -0.41164,1.0827 -5.13658,6.02459 -10.49985,10.98199 -14.15991,13.08832 -19.64722,16.44425 -19.64722,12.01583 z"
       id="path47" />
    <path
       style="fill:#14440f;stroke-width:0.942458;fill-opacity:1"
       d="m 241.74037,263.82616 c 0,-3.28783 1.76889,-5.73602 10.6605,-14.75443 l 8.56824,-8.69041 1.19377,-12.88784 c 1.35531,-14.6319 2.61057,-19.17101 8.46966,-30.62694 7.62906,-14.91665 21.20788,-26.99035 35.39561,-31.47226 5.4864,-1.73315 11.92045,-2.70787 24.73483,-3.74717 23.59543,-1.91369 55.17339,-2.91838 55.17339,-1.75542 0,1.21563 1.06563,0.4633 -48.51268,34.24987 -59.31552,40.42227 -65.52468,44.85527 -65.52468,46.78104 0,1.40956 -18.42972,18.67458 -23.76026,22.25868 -4.60132,3.09379 -6.39838,3.27491 -6.39838,0.64488 z"
       id="path48" />
    <path
       style="fill:#14440f;fill-opacity:1;stroke-width:0.942458"
       d="m 286.97833,249.70315 c -2.33258,-0.41505 -6.57364,-0.79186 -9.42458,-0.83736 -5.94473,-0.0949 -9.62482,-0.89497 -9.2275,-2.00616 0.15079,-0.42169 26.78078,-18.61686 59.17775,-40.4337 48.56084,-32.70195 58.95475,-39.34437 59.19487,-37.82957 0.82812,5.2241 -1.57237,17.82445 -4.63443,24.32653 -3.81315,8.09693 -19.89588,26.09278 -28.17162,31.52276 -18.88493,12.391 -22.5373,14.37974 -34.72928,18.91032 -19.37312,7.19913 -23.17907,7.94969 -32.18521,6.34718 z"
       id="path49" />
    <path
       style="fill:#14440f;fill-opacity:1;stroke-width:0.942458"
       d="m 285.56464,249.20109 c -1.0367,-0.1614 -5.22482,-0.56891 -9.30693,-0.90557 -7.16301,-0.59075 -7.36034,-0.67079 -5.65474,-2.29365 2.10403,-2.00198 37.87136,-26.31743 77.16387,-52.45779 36.41478,-24.22587 37.53647,-24.92605 38.20322,-23.84721 0.80143,1.29673 -0.45842,10.87662 -2.23328,16.98191 -4.73243,16.279 -27.48904,38.37725 -52.23432,50.72316 -7.75164,3.86745 -21.15273,8.989 -28.96454,11.06952 -4.28898,1.14228 -12.15195,1.48029 -16.97328,0.72963 z"
       id="path50" />
    <path
       style="fill:#14440f;fill-opacity:1;stroke-width:0.942458"
       d="m 242.31545,264.05616 c -0.98295,-1.59045 2.59116,-6.54297 10.66355,-14.77613 l 8.31649,-8.48212 1.49235,-13.82901 c 1.16366,-10.78322 2.14358,-15.51772 4.44917,-21.49633 8.14666,-21.12498 25.5161,-37.04257 44.71644,-40.97873 9.97637,-2.0452 26.80959,-3.32354 51.36394,-3.90066 l 22.14775,-0.52055 -2.35614,1.93414 c -1.29588,1.06378 -20.16859,14.11637 -41.93936,29.00575 -61.79315,42.26135 -63.05926,43.19631 -75.98836,56.11394 -14.15511,14.14255 -21.31301,19.44221 -22.86583,16.9297 z"
       id="path51" />
    <path
       style="fill:#32cd32;fill-opacity:1;stroke-width:0.942458"
       d="m 483.16033,147.39326 c -6.21228,-3.09571 -10.86605,-9.05812 -13.35194,-17.10647 -6.61043,-21.40208 6.15156,-43.541801 25.11817,-43.575438 3.62954,-0.0064 14.28324,3.280941 16.73899,5.165096 1.73999,1.334987 1.66467,1.69456 -2.41443,11.526592 l -4.21044,10.14861 -6.59578,-0.30471 c -6.77575,-0.31302 -7.80274,0.12518 -9.15362,3.90575 -0.40534,1.13435 0.20063,2.5103 1.81768,4.12735 2.12337,2.12337 2.97747,2.36038 6.85231,1.90146 2.43462,-0.28835 5.00997,-0.66128 5.72299,-0.82875 0.87708,-0.20601 2.64731,3.19187 5.47297,10.50514 l 4.17658,10.80963 -2.06142,1.66924 c -3.07095,2.4867 -10.8903,4.51399 -17.41064,4.51399 -4.32883,0 -7.00153,-0.61376 -10.70142,-2.45749 z"
       id="path52" />
    <path
       style="fill:#32cd32;fill-opacity:1;stroke-width:0.942458"
       d="m 439.22149,141.53769 c -6.98617,-13.52651 -7.0398,-13.54387 -7.07472,-2.28958 l -0.03,9.66019 H 421.74976 411.38273 V 118.27842 87.648554 h 7.47133 7.47133 l 5.48746,10.366251 c 3.0181,5.701435 5.80554,10.366605 6.1943,10.367035 0.38877,4.3e-4 0.70685,-4.66438 0.70685,-10.366253 V 87.648554 h 10.36703 10.36703 v 31.101096 31.1011 h -7.96652 -7.96651 z"
       id="path53" />
    <path
       style="fill:#32cd32;fill-opacity:1;stroke-width:0.942458"
       d="m 347.38311,132.17967 c 2.49552,-9.20074 6.18613,-22.87815 8.20136,-30.39425 l 3.66405,-13.665637 14.99323,-0.251773 14.99323,-0.251773 7.8963,29.467953 c 4.34296,16.20738 8.09926,29.99809 8.34733,30.64603 0.34402,0.89854 -2.01677,1.17808 -9.94924,1.17808 h -10.40028 l -1.16002,-5.18352 -1.16002,-5.18352 h -8.36172 c -5.85034,0 -8.48039,0.35383 -8.75684,1.17807 -0.21732,0.64794 -0.85651,2.98053 -1.42044,5.18352 l -1.02531,4.00545 h -10.19947 -10.19946 z m 31.0136,-8.72966 c 0,-1.25168 -3.61468,-14.28394 -4.0951,-14.76436 -0.20403,-0.20403 -1.08097,2.50704 -1.94876,6.02459 -0.86779,3.51756 -1.79998,7.13774 -2.07154,8.04486 -0.41973,1.40209 0.15146,1.6493 3.81083,1.6493 2.36752,0 4.30457,-0.42948 4.30457,-0.95439 z"
       id="path54" />
    <path
       style="fill:#32cd32;fill-opacity:1;stroke-width:0.942458"
       d="M 288.86324,118.27842 V 87.648554 h 16.8236 c 10.03049,0 18.11718,0.431585 20.02723,1.068848 4.26583,1.42324 9.04487,6.051023 10.35816,10.03031 1.67673,5.080548 0.71241,14.348498 -1.87035,17.975648 l -2.19104,3.07703 2.8977,5.88606 c 2.96006,6.01274 5.75095,15.98104 5.77594,20.63009 l 0.0139,2.59176 h -10.29922 -10.29921 l -0.66645,-5.41914 c -1.33947,-10.89174 -4.30921,-17.19985 -8.09737,-17.19985 -1.59356,0 -1.73885,0.94499 -1.73885,11.30949 v 11.3095 h -10.36703 -10.36704 z m 26.94221,-8.47525 c 2.604,-3.97419 0.22882,-9.902668 -3.96739,-9.902668 -2.12954,0 -2.24075,0.304038 -2.24075,6.125978 0,5.89086 0.0896,6.12597 2.33442,6.12597 1.44824,0 2.91876,-0.89182 3.87372,-2.34928 z"
       id="path55" />
    <path
       style="fill:#32cd32;fill-opacity:1;stroke-width:0.942458"
       d="m 226.18982,149.22819 c -4.4281,-0.94889 -9.89404,-3.38677 -9.87256,-4.40329 0.0128,-0.60507 0.97265,-4.83302 2.13304,-9.39545 l 2.1098,-8.29532 2.81486,2.96033 c 5.41924,5.69931 11.80816,7.12031 13.14044,2.92264 0.94956,-2.9918 -0.3664,-4.5904 -7.04492,-8.55803 -8.4323,-5.00955 -10.64699,-8.16005 -11.13612,-15.84169 -0.69812,-10.963706 3.60343,-17.608232 13.25472,-20.474358 7.4244,-2.20481 17.57658,-1.505632 25.23744,1.738095 l 2.5177,1.066038 -2.37136,8.850393 -2.37136,8.850392 -1.82263,-2.25319 c -4.56994,-5.64949 -12.23772,-7.559847 -13.77241,-3.43126 -0.43353,1.16629 -0.58342,2.65882 -0.33307,3.31672 0.25035,0.65791 4.0713,3.20254 8.49102,5.65475 5.3052,2.9435 8.77735,5.57944 10.21798,7.75715 6.73543,10.18152 1.59486,25.63475 -9.64801,29.00319 -3.62126,1.08496 -17.38014,1.42527 -21.54456,0.53289 z"
       id="path56" />
    <path
       style="fill:#32cd32;fill-opacity:1;stroke-width:0.942458"
       d="m 177.90859,147.87636 c -5.0037,-2.47679 -9.25491,-7.27341 -12.41199,-14.00438 -2.18097,-4.64987 -2.44911,-6.37034 -2.43027,-15.59356 0.0191,-9.33646 0.27559,-10.88901 2.58062,-15.61795 5.81015,-11.919969 15.87527,-17.776774 25.90751,-15.07537 16.03766,4.318491 24.43798,28.44111 16.30601,46.82479 -2.24805,5.0821 -7.96159,11.34239 -12.4343,13.6242 -4.81874,2.45833 -12.36988,2.39035 -17.51758,-0.15773 z m 12.90591,-26.23738 c 0.53659,-1.00262 0.97561,-3.15103 0.97561,-4.77424 0,-4.44551 -1.5303,-6.5972 -4.692,-6.5972 -3.17235,0 -5.67503,2.90935 -5.67503,6.5972 0,5.65334 7.01294,9.21846 9.39142,4.77424 z"
       id="path57" />
    <path
       style="fill:#32cd32;fill-opacity:1;stroke-width:0.942458"
       d="M 118.27842,118.27842 V 87.648554 h 10.36704 10.36703 v 23.561436 23.56144 h 9.42458 9.42457 v 7.06843 7.06844 h -19.79161 -19.79161 z"
       id="path58" />
    <path
       style="fill:#32cd32;fill-opacity:1;stroke-width:0.942458"
       d="M 72.098004,118.27842 V 87.648554 h 19.791609 19.791607 v 7.53966 7.539656 h -9.42457 -9.42458 v 4.24106 4.24106 h 6.125975 6.125975 v 7.53966 7.53966 H 98.958045 92.83207 v 4.24106 4.24106 h 9.42458 9.42457 v 7.06843 7.06844 H 91.889613 72.098004 Z"
       id="path59" />
    <path
       style="fill:#32cd32;fill-opacity:1;stroke-width:0.942458"
       d="M 14.608092,118.27842 V 87.648554 h 13.023349 c 16.820318,0 21.601562,1.300107 27.625353,7.511837 5.999682,6.186869 8.637502,13.273419 8.6052,23.118029 -0.03987,12.15211 -3.946571,21.11576 -11.477725,26.33485 -5.327256,3.69179 -8.679606,4.29503 -23.868705,4.29503 H 14.608092 Z m 26.90288,5.69759 c 4.420489,-4.42049 2.201153,-12.76602 -3.394882,-12.76602 h -2.773931 v 7.53966 c 0,6.96721 0.146366,7.53966 1.927754,7.53966 1.060265,0 2.968742,-1.04098 4.241059,-2.3133 z"
       id="path60" />
    <path
       style="fill:#32cd32;fill-opacity:1;stroke-width:0.942458"
       d="M 519.76535,118.27842 V 87.648554 h 10.36703 10.36703 v 11.309491 11.309495 h 6.12598 6.12597 V 98.958045 87.648554 h 9.89581 9.8958 v 30.629866 30.62988 h -9.8958 -9.89581 v -11.3095 -11.30949 h -6.12597 -6.12598 v 11.30949 11.3095 h -10.36703 -10.36703 z"
       id="path61" />
    <path
       style="fill:#32cd32;fill-opacity:1;stroke-width:0.942458"
       d="m 565.16593,357.88039 c -5.15837,-1.65068 -11.80347,-8.38957 -14.8049,-15.01387 -2.30828,-5.0945 -2.69446,-7.14276 -2.71877,-14.42006 -0.0457,-13.67473 4.915,-23.89668 14.26383,-29.39201 3.93069,-2.31049 5.4807,-2.65145 12.05057,-2.65079 6.2166,6.1e-4 8.49061,0.44627 12.95879,2.53961 2.98052,1.39638 5.41913,2.90403 5.41913,3.35033 0,0.87082 -6.2554,16.665 -7.60093,19.19149 -0.68491,1.28604 -1.52591,1.37916 -5.44933,0.60341 -6.19576,-1.22506 -9.91873,0.41934 -10.32369,4.55988 -0.16791,1.7168 0.28701,3.37477 1.11441,4.06145 1.67166,1.38736 6.40689,1.72527 10.95005,0.78141 l 3.2986,-0.68531 4.16307,10.94927 4.16307,10.94926 -2.26919,1.71165 c -5.2334,3.94756 -18.15612,5.72303 -25.21471,3.46428 z"
       id="path62" />
    <path
       style="fill:#32cd32;fill-opacity:1;stroke-width:0.942458"
       d="m 599.87424,327.504 v -30.62987 h 19.32038 19.32038 v 7.53966 7.53966 h -9.42457 -9.42458 v 4.24106 4.24106 h 6.5972 6.59721 v 7.06843 7.06844 h -6.59721 -6.5972 v 4.24106 4.24105 h 9.42458 9.42457 v 7.53967 7.53966 h -19.32038 -19.32038 z"
       id="path63" />
    <path
       style="fill:#32cd32;fill-opacity:1;stroke-width:0.942458"
       d="m 506.86032,357.11879 c -2.17342,-1.07583 -5.6439,-3.79191 -7.71218,-6.03573 -5.92819,-6.43132 -6.89838,-10.90125 -7.4191,-34.1817 l -0.44795,-20.02723 h 10.4723 10.4723 l 0.0144,16.72863 c 0.008,9.20074 0.37684,17.30048 0.81977,17.99942 0.44294,0.69894 1.60274,1.11863 2.57733,0.93264 2.23982,-0.42744 2.96315,-5.84762 3.09246,-23.17312 l 0.0932,-12.48757 h 9.97419 9.97419 l -0.314,20.9934 -0.314,20.9934 -3.06937,6.23089 c -5.93991,12.05811 -17.87355,17.14522 -28.21358,12.02697 z"
       id="path64" />
    <path
       style="fill:#32cd32;fill-opacity:1;stroke-width:0.942458"
       d="m 434.94417,327.58509 v -30.71096 h 13.96897 c 16.42428,0 20.86043,1.12269 26.4254,6.68766 14.69776,14.69776 11.31628,43.65546 -6.10493,52.28028 -3.05296,1.51145 -6.19818,1.86499 -18.97451,2.13287 l -15.31493,0.32111 z m 26.90288,5.6165 c 3.14733,-3.14734 3.14733,-8.24783 0,-11.39517 -1.27232,-1.27232 -3.1808,-2.3133 -4.24106,-2.3133 -1.79084,0 -1.92776,0.56896 -1.92776,8.01088 0,7.44193 0.13692,8.01089 1.92776,8.01089 1.06026,0 2.96874,-1.04098 4.24106,-2.3133 z"
       id="path65" />
    <path
       style="fill:#32cd32;fill-opacity:1;stroke-width:0.942458"
       d="m 392.73915,356.64612 c -5.39616,-2.68902 -9.53217,-7.32014 -12.70284,-14.22348 -1.75652,-3.82437 -2.09053,-6.20799 -2.09053,-14.91864 0,-8.71064 0.33401,-11.09426 2.09053,-14.91863 3.17067,-6.90334 7.30668,-11.53446 12.70284,-14.22348 8.15236,-4.06249 15.62284,-3.02498 22.65095,3.14578 13.1714,11.56464 14.25306,36.47351 2.16488,49.85368 -7.05388,7.8078 -15.95068,9.70246 -24.81583,5.28477 z m 12.20778,-25.51835 c 1.16326,-1.05274 1.72351,-2.88382 1.72351,-5.63302 0,-3.28313 -0.44809,-4.36687 -2.31,-5.58684 -2.87288,-1.88238 -5.5517,-1.11242 -6.97155,2.00381 -3.23306,7.0958 2.36207,13.91833 7.55804,9.21605 z"
       id="path66" />
    <path
       style="fill:#32cd32;fill-opacity:1;stroke-width:0.942458"
       d="m 321.84926,327.504 v -30.62987 h 17.60914 c 15.95189,0 17.99318,0.18592 21.68984,1.97544 9.27181,4.48841 12.22048,18.4192 5.80558,27.42809 -1.81741,2.55232 -1.81596,2.57568 0.43835,7.07708 2.96924,5.92895 5.10177,12.67239 6.12236,19.36 l 0.827,5.41914 h -10.58699 -10.58699 l -0.64297,-5.41914 c -1.34293,-11.31871 -4.1538,-17.19985 -8.22062,-17.19985 -1.57028,0 -1.72063,0.98825 -1.72063,11.30949 v 11.3095 h -10.36704 -10.36703 z m 26.8066,-8.22059 c 2.88108,-4.11331 0.63788,-10.15733 -3.76983,-10.15733 -2.20579,0 -2.3027,0.25782 -2.3027,6.12598 0,5.86815 0.0969,6.12597 2.3027,6.12597 1.31116,0 2.93445,-0.90194 3.76983,-2.09462 z"
       id="path67" />
    <path
       style="fill:#32cd32;fill-opacity:1;stroke-width:0.942458"
       d="m 268.12918,327.44688 v -30.68699 l 17.74372,0.29274 c 17.14653,0.28288 17.85945,0.37203 21.18227,2.64888 10.14775,6.95339 11.33638,24.36607 2.30057,33.70207 -5.14488,5.3158 -11.27062,5.72215 -17.66133,1.17156 l -2.83117,-2.01597 v 12.78735 12.78736 h -10.36703 -10.36703 z m 26.38881,-5.12639 c 4.01114,-4.01114 1.38734,-13.19441 -3.76983,-13.19441 -1.72784,0 -1.88492,0.62831 -1.88492,7.53966 0,6.91136 0.15708,7.53966 1.88492,7.53966 1.0367,0 2.73313,-0.84821 3.76983,-1.88491 z"
       id="path68" />
    <path
       style="fill:#32cd32;fill-opacity:1;stroke-width:0.942458"
       d="m 177.65325,327.504 v -30.62987 h 9.87126 9.87126 l 4.68249,6.66763 4.68249,6.66763 4.43368,-6.66763 4.43367,-6.66763 h 10.22876 10.22876 v 30.62987 30.62988 h -10.34424 -10.34425 l -0.2584,-15.78617 -0.2584,-15.78616 -4.11196,5.99549 -4.11196,5.99549 -3.89893,-5.93574 -3.89893,-5.93575 -0.25841,15.72642 -0.2584,15.72642 H 187.9975 177.65325 Z"
       id="path69" />
    <path
       style="fill:#32cd32;fill-opacity:1;stroke-width:0.942458"
       d="m 119.22088,327.504 v -30.62987 h 17.60914 c 15.65016,0 18.03541,0.20814 21.44091,1.87094 5.71956,2.79268 8.4212,7.41221 8.85824,15.14671 0.31235,5.52795 0.0249,7.00275 -2.14037,10.98105 l -2.50118,4.59549 2.40241,4.29837 c 2.56355,4.58668 6.16602,17.25932 6.16602,21.69057 v 2.67662 h -10.29922 -10.29922 l -0.66644,-5.41914 c -1.33947,-10.89174 -4.30921,-17.19985 -8.09738,-17.19985 -1.59355,0 -1.73884,0.94499 -1.73884,11.30949 v 11.3095 h -10.36703 -10.36704 z m 26.94221,-8.47525 c 2.60399,-3.97419 0.22882,-9.90267 -3.9674,-9.90267 -2.12953,0 -2.24074,0.30404 -2.24074,6.12598 0,5.89086 0.0896,6.12597 2.33442,6.12597 1.44824,0 2.91876,-0.89182 3.87372,-2.34928 z"
       id="path70" />
    <path
       style="fill:#32cd32;fill-opacity:1;stroke-width:0.942458"
       d="m 50.633569,356.9558 c 0.227564,-0.64794 3.983866,-14.44064 8.347336,-30.65046 l 7.933582,-29.47238 14.986259,0.2562 14.986259,0.2562 8.156005,30.15864 8.15601,30.15865 -9.83618,0.26875 c -5.4099,0.14782 -10.027246,0.0777 -10.260771,-0.15583 -0.233525,-0.23353 -0.946661,-2.475 -1.584749,-4.98105 l -1.160157,-4.55645 -8.500929,-0.2689 -8.50093,-0.26889 -1.167468,5.2168 -1.167468,5.2168 H 60.620091 c -7.912584,0 -10.301308,-0.28179 -9.986522,-1.17808 z m 35.180053,-25.91758 c -0.314057,-1.42547 -1.343669,-5.13639 -2.288029,-8.2465 l -1.717017,-5.65475 -1.527861,5.0219 c -0.840324,2.76205 -1.800084,6.47297 -2.1328,8.24651 l -0.60494,3.2246 h 4.420829 c 4.332845,0 4.409465,-0.0516 3.849818,-2.59176 z"
       id="path71" />
    <path
       style="fill:#32cd32;fill-opacity:1;stroke-width:0.942458"
       d="m 14.608092,327.504 v -30.62987 h 19.32038 19.320381 v 7.53966 7.53966 h -9.469547 -9.469548 l 0.280586,5.89036 0.280586,5.89036 6.832817,0.27691 6.832818,0.2769 v 7.02714 7.02715 h -7.068432 -7.068432 v 9.8958 9.89581 h -9.895804 -9.895805 z"
       id="path72" />
    <path
       style="fill:#32cd32;fill-opacity:1;stroke-width:0.942458"
       d="m 18.773721,252.68637 c -8.495008,-5.18024 -7.767543,-20.30834 1.300942,-27.05392 1.917727,-1.4265 3.668231,-2.73762 3.89001,-2.91359 0.221779,-0.17598 -0.502611,-1.93169 -1.609755,-3.90159 -4.291543,-7.63577 -3.523131,-16.3654 1.951497,-22.1702 5.933937,-6.29181 15.013656,-6.81149 21.126802,-1.20921 5.443457,4.98855 5.753449,14.3764 0.693762,21.00999 -1.266486,1.66045 -2.302702,3.41421 -2.302702,3.89724 0,1.2202 3.728679,5.84473 4.712506,5.84473 0.443229,0 1.55433,-1.69643 2.469115,-3.76983 l 1.663245,-3.76983 h 5.492526 5.492526 l -2.030391,4.00544 c -1.116715,2.20299 -3.29545,5.77683 -4.841633,7.94186 l -2.811241,3.93641 7.157707,9.25799 7.157707,9.258 -10.060165,0.26938 -10.060164,0.26937 -2.239177,-2.86113 c -2.695006,-3.44358 -3.260226,-3.49405 -7.113346,-0.63515 -6.186414,4.59013 -14.913809,5.71985 -20.039771,2.59404 z m 16.622901,-11.27182 2.148198,-1.73951 -2.626876,-3.44401 c -2.940457,-3.85514 -4.69611,-4.31867 -6.139829,-1.62105 -1.399644,2.61525 -1.203676,5.354 0.505388,7.06307 1.935035,1.93503 3.485168,1.86948 6.113119,-0.2585 z m 6.960527,-28.62884 c 2.948013,-4.20888 1.040312,-8.74557 -3.409934,-8.10915 -3.13777,0.44873 -4.387924,4.62753 -2.325892,7.77458 1.954036,2.98224 3.805676,3.09024 5.735826,0.33457 z"
       id="path73" />
  </g>
</svg>
