<?xml version="1.0" encoding="UTF-8" standalone="no"?>
<!-- Created with Inkscape (http://www.inkscape.org/) -->

<svg
   width="512"
   height="512"
   viewBox="0 0 512 512"
   version="1.1"
   id="svg1"
   inkscape:version="1.3.2 (091e20e, 2023-11-25, custom)"
   sodipodi:docname="drawinggood.svg"
   xmlns:inkscape="http://www.inkscape.org/namespaces/inkscape"
   xmlns:sodipodi="http://sodipodi.sourceforge.net/DTD/sodipodi-0.dtd"
   xmlns="http://www.w3.org/2000/svg"
   xmlns:svg="http://www.w3.org/2000/svg">
  <sodipodi:namedview
     id="namedview1"
     pagecolor="#505050"
     bordercolor="#eeeeee"
     borderopacity="1"
     inkscape:showpageshadow="0"
     inkscape:pageopacity="0"
     inkscape:pagecheckerboard="0"
     inkscape:deskcolor="#505050"
     inkscape:document-units="px"
     inkscape:zoom="1.0610557"
     inkscape:cx="305.82748"
     inkscape:cy="167.28622"
     inkscape:window-width="1366"
     inkscape:window-height="705"
     inkscape:window-x="-8"
     inkscape:window-y="-8"
     inkscape:window-maximized="1"
     inkscape:current-layer="layer1" />
  <defs
     id="defs1" />
  <g
     inkscape:label="Layer 1"
     inkscape:groupmode="layer"
     id="layer1">
    <text
       xml:space="preserve"
       style="font-style:normal;font-variant:normal;font-weight:normal;font-stretch:normal;font-size:73.7832px;font-family:'Gill Sans Ultra Bold';-inkscape-font-specification:'Gill Sans Ultra Bold, ';fill:#fff5ee;stroke-width:1.38344"
       x="10.245069"
       y="132.07266"
       id="text1"
       transform="scale(0.882526,1.1331111)"><tspan
         sodipodi:role="line"
         id="tspan1"
         x="10.245069"
         y="132.07266"
         style="fill:#fff5ee;stroke-width:1.38344">DELOS RANCH</tspan><tspan
         sodipodi:role="line"
         x="10.245069"
         y="224.30167"
         id="tspan2"
         style="fill:#fff5ee;stroke-width:1.38344">&amp;</tspan><tspan
         sodipodi:role="line"
         x="10.245069"
         y="316.53067"
         id="tspan3"
         style="fill:#fff5ee;stroke-width:1.38344">FARM PRODUCE</tspan></text>
    <path
       style="fill:#f5f5f5"
       d="m 262.00321,245.03897 c 1.13811,-4.32655 -1.41224,-9.90016 0,-14.13686 1.04456,-3.13369 1.16293,-2.10539 1.88491,-2.82738 0.62338,-0.62337 -0.62337,-1.26153 0,-1.88491 0.49672,-0.49672 1.3882,-0.44574 1.88492,-0.94246 0.70246,-0.70247 0.3914,-2.00078 0.94246,-2.82737 1.28735,-1.93103 2.7665,-2.20397 3.76983,-4.71229 0.23334,-0.58337 -0.28099,-1.32294 0,-1.88491 0.14049,-0.28099 0.72031,0.22213 0.94245,0 0.22214,-0.22214 -0.22214,-0.72032 0,-0.94246 0.22214,-0.22214 0.72032,0.22214 0.94246,0 0.22214,-0.22214 -0.22214,-0.72032 0,-0.94246 0.22214,-0.22214 0.62831,0 0.94246,0 0.31415,-0.6283 0.5528,-1.30043 0.94246,-1.88491 -0.0941,-1.86707 1.38819,-0.44574 1.88491,-0.94246 0.31415,-0.31415 0.62831,-2.51322 0.94246,-2.82737 0.22214,-0.22214 0.72032,0.22213 0.94246,0 0.22214,-0.22214 -0.22214,-0.72032 0,-0.94246 1.42368,-1.42368 4.15986,-3.21741 5.65474,-4.71229 0.49672,-0.49672 0.44574,-1.3882 0.94246,-1.88492 0.22214,-0.22213 0.72032,0.22214 0.94246,0 0.22214,-0.22213 -0.22214,-0.72031 0,-0.94245 0.22214,-0.22214 0.66147,0.14049 0.94245,0 1.76848,-0.88424 8.06772,-5.6104 9.42458,-6.59721 10.76181,-7.82676 21.94476,-15.68467 33.92847,-21.67652 2.66568,-1.33284 5.70046,-1.7575 8.48212,-2.82737 4.79146,-1.84287 9.27483,-4.97653 14.13686,-6.59721 1.51967,-0.50655 3.17798,-0.48216 4.71229,-0.94245 0.42572,-0.12772 6.16615,-2.59846 7.53966,-2.82738 6.00641,-1.00106 12.7182,0 18.84915,0 2.20834,0 4.71229,-0.23116 4.71229,1.88492"
       id="path1" />
    <path
       style="fill:#fff5ee"
       d="m 268.6004,237.49931 c -6.46944,2.45699 -11.21639,7.86079 -16.96423,11.30949 -0.44565,0.26739 -9.36894,8.37085 -9.42458,8.48212 -0.27837,0.55675 -0.94067,6.59541 -0.94245,6.5972 -0.22214,0.22214 -0.72032,-0.22214 -0.94246,0 -0.0943,0.0942 -0.0943,2.73313 0,2.82737 0.31371,0.31371 4.22598,0.16211 4.71229,0 5.64854,-1.88284 -2.36717,0.24113 3.76983,-2.82737 0.56197,-0.28099 1.28885,0.19869 1.88491,0 1.87545,-0.62515 0.43982,-0.87963 0.94246,-1.88492 0.72172,-1.44344 1.67948,-0.73701 2.82737,-1.88491 0.22214,-0.22214 -0.14049,-0.66147 0,-0.94246 1.13095,-2.2619 4.5238,-3.39285 5.65475,-5.65474 0.14049,-0.28099 -0.22214,-0.72032 0,-0.94246 0.68115,-0.68116 5.25263,-2.42526 5.65474,-2.82737 0.22214,-0.22214 -0.22214,-0.72032 0,-0.94246 0.22214,-0.22214 0.66147,0.14049 0.94246,0 0.79475,-0.39738 1.09016,-1.48754 1.88491,-1.88492 3.73995,-1.86997 3.60292,-1.88491 8.48212,-1.88491"
       id="path3" />
    <path
       style="display:none;fill:#f5f5f5"
       d="m 123.46194,210.16804 c 2.19907,0 4.39814,0 6.5972,0 4.0022,0 5.11947,1.14605 8.48212,2.82737 0.56903,0.28452 2.39171,-0.43566 2.82738,0 0.22213,0.22214 -0.22214,0.72032 0,0.94246 0.54624,0.54624 3.22358,1.33867 3.76983,1.88491 0.22213,0.22214 -0.22214,0.72032 0,0.94246 0.22213,0.22214 1.25661,0 0.94245,0 -3.49667,0 -7.88964,0.68397 -11.30949,0 -1.36449,-0.2729 -3.34779,-1.61202 -4.71229,-1.88491 -0.92109,-0.18422 -4.15086,-0.1939 -4.71228,-0.94246 -0.84296,-1.12395 -1.25661,-2.51322 -1.88492,-3.76983 z"
       id="path5" />
    <path
       style="fill:#f5f5f5"
       d="m 262.00321,245.03897 c 1.31108,-4.53315 -1.63612,-29.71378 0,-32.98601 0.0919,-0.18375 1.68042,-0.73796 1.88491,-0.94246 0.92714,-0.92714 0.38954,-3.60645 0.94246,-4.71229 0.54892,-1.09784 1.33599,-1.72953 1.88492,-2.82737 0.28451,-0.56903 -0.43567,-2.39171 0,-2.82737 0.47122,-0.47123 1.41368,-0.47123 1.88491,-0.94246 0.62745,-0.62745 -0.62745,-1.25747 0,-1.88492 0.22214,-0.22214 0.72032,0.22214 0.94246,0 0.71962,-0.71962 0.4304,-4.63063 0.94246,-5.65474 0.99709,-1.9942 3.41326,-3.41326 4.71228,-4.71229 0.39493,-0.39493 0.65687,-2.25619 0.94246,-2.82737 0.63114,-1.26229 2.24836,-1.3059 2.82737,-1.88492 0.47123,-0.47123 0.47123,-1.41368 0.94246,-1.88491 0.22214,-0.22214 0.72032,0.22214 0.94246,0 0.53252,-0.53252 1.18285,-3.06777 1.88491,-3.76983 0.22214,-0.22214 0.66148,0.14049 0.94246,0 2.08383,-1.04192 0.29247,-0.58493 0.94246,-1.88492 1.96114,-3.92228 -0.0651,1.00752 1.88491,-0.94246 0.22214,-0.22213 -0.22214,-0.72031 0,-0.94245 0.31416,-0.31416 2.51322,-0.62831 2.82738,-0.94246 0.22214,-0.22214 -0.22214,-0.72032 0,-0.94246 0.44428,-0.44428 1.32294,0.28099 1.88491,0 1.29881,-0.6494 1.26786,-2.21031 1.88492,-2.82737 0.44428,-0.44428 1.44063,0.44428 1.88491,0 0.22214,-0.22214 -0.22214,-0.72032 0,-0.94246 0.4333,-0.4333 3.02867,-1.51433 3.76983,-1.88491 0.75397,-0.37699 2.07341,0.37698 2.82738,0 0.39737,-0.19869 0.54508,-0.74377 0.94245,-0.94246 0.78468,-0.39234 3.17202,0.59781 3.76983,0 0.22214,-0.22214 -0.22214,-0.72032 0,-0.94246 0.44428,-0.44428 1.32295,0.28099 1.88492,0 0.39737,-0.19869 0.54508,-0.74377 0.94246,-0.94246 0.56903,-0.28451 2.3917,0.43567 2.82737,0 0.22214,-0.22214 -0.22214,-0.72031 0,-0.94245 1.52743,-1.52744 7.39784,1.01336 9.42457,0 4.95634,-2.47817 13.93874,-0.94246 19.79161,-0.94246 1.25661,0 2.88128,0.88856 3.76983,0 0.22214,-0.22214 -0.22214,-0.72032 0,-0.94246 0.36722,-0.36722 3.19471,0 3.76983,0 2.7812,0 17.353,-0.74808 18.84916,0 0.39737,0.19869 0.54508,0.74377 0.94245,0.94246 1.78855,0.89427 7.12269,-1.35943 8.48212,0 0.22214,0.22214 -0.22214,0.72032 0,0.94246 0.95513,0.95512 7.9238,0 9.42458,0"
       id="path8" />
    <path
       style="fill:#f5f5f5"
       d="m 264.83058,247.86634 c 3.08786,1.04642 5.88941,0.58856 8.48211,1.88492 3.01587,1.50793 8.29363,-1.50794 11.3095,0 0.39737,0.19868 0.54508,0.74377 0.94245,0.94245 0.42861,0.21431 16.53563,0.21431 16.96424,0 0.39737,-0.19868 0.54508,-0.74377 0.94246,-0.94245 0.56903,-0.28452 2.3917,0.43566 2.82737,0 0.22214,-0.22214 -0.22214,-0.72032 0,-0.94246 0.44428,-0.44428 1.32294,0.28098 1.88491,0 0.39738,-0.19869 0.54509,-0.74377 0.94246,-0.94246 0.56197,-0.28099 1.44064,0.44428 1.88492,0 0.22214,-0.22214 -0.22214,-0.72032 0,-0.94246 0.65298,-0.65298 4.0593,-0.28947 4.71228,-0.94245 0.37724,-0.37724 0.51042,-1.19767 1.88492,-1.88492 0.7874,-0.3937 6.39936,-0.74462 6.5972,-0.94246 0.22214,-0.22214 -0.22214,-0.72032 0,-0.94245 0.44428,-0.44428 1.28886,0.19868 1.88492,0 2.05327,-0.68443 3.89232,-1.94617 5.65474,-2.82738 0.56198,-0.28098 1.44064,0.44428 1.88492,0 0.22214,-0.22214 -0.22214,-0.72032 0,-0.94246 0.31415,-0.31415 2.51322,-0.6283 2.82737,-0.94245 0.47123,-0.47123 0.47123,-1.41369 0.94246,-1.88492 0.44428,-0.44428 1.44064,0.44428 1.88491,0 0.22214,-0.22214 -0.22214,-0.72032 0,-0.94246 0.31416,-0.31415 2.51322,-0.6283 2.82738,-0.94245 0.22214,-0.22214 -0.22214,-0.72032 0,-0.94246 0.44428,-0.44428 1.44063,0.44428 1.88491,0 0.44428,-0.44428 -0.44428,-1.44064 0,-1.88492 0.65299,-0.65298 4.0593,-0.28947 4.71229,-0.94245 1.94998,-1.94998 -2.97983,0.0762 0.94246,-1.88492 0.57118,-0.28559 2.43244,-0.54753 2.82737,-0.94246 0.22214,-0.22214 -0.22214,-0.72031 0,-0.94245 0.44428,-0.44428 1.32294,0.28098 1.88492,0 1.2988,-0.64941 1.26785,-2.21032 1.88491,-2.82738 0.78538,-0.78538 2.98445,-0.15707 3.76983,-0.94245 0.31415,-0.31416 0.62831,-2.51322 0.94246,-2.82738 0.62194,-0.62193 3.02186,-1.33144 3.76983,-2.82737 0.38824,-0.77649 0.38232,-1.32477 0.94246,-1.88491 0.44427,-0.44428 1.44063,0.44427 1.88491,0 0.44428,-0.44428 -0.44428,-1.44064 0,-1.88492 0.22214,-0.22214 0.66147,0.14049 0.94246,0 0.89836,-0.44918 4.24311,-4.7164 4.71229,-5.65474 0.14049,-0.28099 -0.22214,-0.72032 0,-0.94246 0.0511,-0.0511 2.7763,-1.83385 2.82737,-1.88492 0.39493,-0.39493 0.65686,-2.25618 0.94246,-2.82737 0.99011,-1.98023 1.8666,0.0183 2.82737,-0.94246 1.16978,-1.16978 0.24391,-3.07128 0.94246,-3.76983 0.22214,-0.22214 0.72032,0.22214 0.94245,0 0.90248,-0.90247 2.16973,-5.2819 2.82738,-6.5972 0.28098,-0.56197 -0.28099,-1.32294 0,-1.88492 0.39737,-0.79475 1.48754,-1.09016 1.88491,-1.88491 0.37699,-0.75397 -0.37698,-2.07341 0,-2.82737 0.1405,-0.28099 0.72032,0.22214 0.94246,0 0.20513,-0.20513 0,-17.00778 0,-18.84916"
       id="path9" />
    <path
       style="fill:#fff5ee;stroke-width:0.942458"
       d="m 262.30207,231.23027 c -0.21498,-16.27784 -0.0846,-18.11251 1.39183,-19.58896 0.65452,-0.65453 1.78483,-3.3743 2.5118,-6.04395 0.72697,-2.66964 1.65277,-4.8539 2.05734,-4.8539 0.40456,0 1.38014,-2.17049 2.16794,-4.8233 0.7878,-2.65282 2.39463,-5.81452 3.57073,-7.026 1.1761,-1.21149 3.41067,-3.72778 4.96573,-5.59177 5.36276,-6.42814 8.79928,-9.8902 9.81723,-9.8902 0.56157,0 1.02103,-0.44913 1.02103,-0.99808 0,-0.54894 0.4271,-0.73411 0.94912,-0.41149 0.52201,0.32262 1.20354,-0.0765 1.51452,-0.88684 0.31097,-0.81038 1.15618,-1.47342 1.87825,-1.47342 0.72207,0 1.31286,-0.39552 1.31286,-0.87895 0,-0.98925 3.65321,-2.42935 5.34806,-2.10819 0.60885,0.11536 1.35146,-0.18578 1.65024,-0.66922 0.29878,-0.48343 1.39102,-0.65727 2.42721,-0.3863 1.09471,0.28627 1.88398,0.0285 1.88398,-0.61533 0,-0.6094 0.3948,-0.86399 0.87733,-0.56577 0.48254,0.29822 1.13228,0.12972 1.44387,-0.37445 0.3116,-0.50417 1.18911,-0.67776 1.95004,-0.38577 0.76093,0.292 1.3835,0.0727 1.3835,-0.48724 0,-1.0549 2.46147,-1.20714 21.91214,-1.35523 6.09063,-0.0464 11.07388,-0.38518 11.07388,-0.75291 0,-0.36772 4.34708,-0.93573 9.66019,-1.26223 5.3131,-0.32651 13.45127,-0.82252 18.08482,-1.10225 4.63354,-0.27972 9.91907,-0.22823 11.74561,0.11443 l 3.32098,0.62302 -2.32103,1.84569 c -1.77866,1.41439 -107.53887,72.5716 -120.77306,81.2581 l -2.65378,1.74185 z"
       id="path12" />
    <path
       style="fill:#fff5ee;stroke-width:0.942458"
       d="m 285.49364,249.63638 c -0.4194,-0.67861 -2.38038,-0.86535 -5.47475,-0.52135 -2.6517,0.2948 -7.05775,0.018 -9.7912,-0.6151 l -4.96992,-1.1511 5.44115,-3.2554 c 4.68565,-2.8034 62.08796,-41.39828 103.33081,-69.47526 l 13.06848,-8.89666 -0.36461,9.84973 c -0.20054,5.41735 -0.81181,10.43457 -1.35837,11.14939 -0.54656,0.71481 -1.50914,3.1021 -2.13905,5.3051 -0.62991,2.20299 -1.55238,4.00544 -2.04992,4.00544 -0.49755,0 -0.90463,0.88792 -0.90463,1.97315 0,1.18054 -0.75717,2.17115 -1.88492,2.46607 -1.0367,0.2711 -1.88491,0.83153 -1.88491,1.24539 0,1.06082 -3.23128,4.84711 -10.60265,12.42376 -3.49887,3.59631 -6.36159,6.93063 -6.36159,7.4096 0,0.47897 -0.80284,0.87085 -1.78408,0.87085 -0.98125,0 -2.0282,0.63615 -2.32657,1.41368 -0.29836,0.77753 -1.19195,1.41369 -1.98574,1.41369 -0.7938,0 -1.44327,0.37813 -1.44327,0.84029 0,0.46215 -1.07761,1.11075 -2.39469,1.44131 -1.31708,0.33057 -2.14026,1.0127 -1.82929,1.51586 0.31097,0.50315 -0.42628,0.91483 -1.63832,0.91483 -1.21204,0 -2.81506,0.84821 -3.56227,1.88491 -0.74722,1.0367 -1.90526,1.88492 -2.57343,1.88492 -0.66817,0 -1.94111,0.84821 -2.82877,1.88491 -0.88765,1.03671 -2.15582,1.88492 -2.81815,1.88492 -0.66232,0 -1.20423,0.35342 -1.20423,0.78538 0,0.43196 -0.53013,0.83342 -1.17807,0.89213 -2.29643,0.20808 -8.24651,2.56415 -8.24651,3.26538 0,0.39152 -1.43244,0.71185 -3.1832,0.71185 -1.75076,0 -3.71117,0.63616 -4.35646,1.41369 -0.64529,0.77753 -2.18159,1.41369 -3.414,1.41369 -1.23241,0 -2.24074,0.33385 -2.24074,0.74189 0,0.40805 -0.94796,0.81331 -2.10657,0.90059 -1.15862,0.0873 -2.24628,0.5778 -2.41704,1.09007 -0.17075,0.51226 -0.87632,0.71425 -1.56793,0.44885 -0.6916,-0.26539 -1.53744,-0.0295 -1.87964,0.52417 -0.85043,1.37602 -16.2214,1.33045 -17.07495,-0.0506 z"
       id="path13" />
  </g>
</svg>
