<?xml version="1.0" encoding="UTF-8" standalone="no"?>
<!-- Created with Inkscape (http://www.inkscape.org/) -->

<svg
   width="511.09653"
   height="220.79292"
   viewBox="0 0 511.09653 220.79292"
   version="1.1"
   id="svg1"
   inkscape:version="1.3.2 (091e20e, 2023-11-25, custom)"
   sodipodi:docname="drawinggood6.svg"
   xmlns:inkscape="http://www.inkscape.org/namespaces/inkscape"
   xmlns:sodipodi="http://sodipodi.sourceforge.net/DTD/sodipodi-0.dtd"
   xmlns="http://www.w3.org/2000/svg"
   xmlns:svg="http://www.w3.org/2000/svg">
  <sodipodi:namedview
     id="namedview1"
     pagecolor="#505050"
     bordercolor="#eeeeee"
     borderopacity="1"
     inkscape:showpageshadow="0"
     inkscape:pageopacity="0"
     inkscape:pagecheckerboard="0"
     inkscape:deskcolor="#505050"
     inkscape:document-units="px"
     inkscape:zoom="0.92370266"
     inkscape:cx="199.1983"
     inkscape:cy="168.34422"
     inkscape:window-width="1366"
     inkscape:window-height="705"
     inkscape:window-x="-8"
     inkscape:window-y="-8"
     inkscape:window-maximized="1"
     inkscape:current-layer="layer1"
     showguides="true"
     showgrid="false" />
  <defs
     id="defs1" />
  <g
     inkscape:label="Layer 1"
     inkscape:groupmode="layer"
     id="layer1"
     transform="translate(0.4188824,-57.457908)">
    <path
       style="display:none;fill:#f5f5f5"
       d="m 123.46194,210.16804 c 2.19907,0 4.39814,0 6.5972,0 4.0022,0 5.11947,1.14605 8.48212,2.82737 0.56903,0.28452 2.39171,-0.43566 2.82738,0 0.22213,0.22214 -0.22214,0.72032 0,0.94246 0.54624,0.54624 3.22358,1.33867 3.76983,1.88491 0.22213,0.22214 -0.22214,0.72032 0,0.94246 0.22213,0.22214 1.25661,0 0.94245,0 -3.49667,0 -7.88964,0.68397 -11.30949,0 -1.36449,-0.2729 -3.34779,-1.61202 -4.71229,-1.88491 -0.92109,-0.18422 -4.15086,-0.1939 -4.71228,-0.94246 -0.84296,-1.12395 -1.25661,-2.51322 -1.88492,-3.76983 z"
       id="path5" />
    <path
       style="fill:#006400;stroke-width:0.942458"
       d=""
       id="path6" />
    <path
       style="fill:#006400;stroke-width:0.942458"
       d=""
       id="path10" />
    <path
       style="fill:#006400;stroke-width:0.942458"
       d=""
       id="path14" />
    <path
       style="fill:#006400"
       id="path17"
       d="m 183.94915,188.08599 c 1.59928,-2.32888 3.5721,-4.37126 5.51316,-6.41337 2.36389,-2.54323 4.59551,-5.22444 7.24897,-7.47596 1.75873,-1.76378 3.77042,-3.25288 5.53809,-4.99939 2.32897,-2.35124 4.75272,-4.61109 7.1712,-6.87247 2.30573,-2.19383 4.35824,-4.18765 7.18976,-5.66903 2.80536,-1.44766 5.68473,-2.72985 8.5597,-4.02972 1.79193,-0.70767 3.51544,-1.56431 5.23647,-2.42174 1.43884,-0.59855 3.01358,-0.63628 4.54829,-0.69305 0.87941,-0.16384 1.85278,0.14972 2.72469,-0.0288 0.98534,-0.20171 1.9589,-0.95222 2.83867,-1.4093 2.49479,-1.44234 4.77561,-3.21064 7.42312,-4.37158 1.93629,-0.65971 3.96588,-1.01682 5.8999,-1.67837 2.68106,-0.96454 5.48904,-1.34952 8.2742,-1.87666 3.24487,-0.41053 6.41653,-1.20048 9.65881,-1.62186 3.08365,-0.38834 6.19686,-0.25621 9.28421,-0.56031 3.24746,-0.38299 6.20563,-1.56931 9.1247,-2.96391 1.97949,-1.32947 4.1185,-2.00136 6.45391,-2.31812 2.11159,-0.13617 4.1868,-0.16711 6.27172,-0.54288 1.81719,-0.35183 3.66502,-0.45699 5.51069,-0.51743 0.30762,-0.006 0.61524,-0.0123 0.92286,-0.0185 0,0 -12.03433,-8.68878 -12.03433,-8.68878 v 0 c -0.31245,0.0123 -0.6249,0.0246 -0.93734,0.037 -1.87854,0.10942 -3.74769,0.30926 -5.5969,0.66722 -2.07428,0.30045 -4.18044,0.18681 -6.24644,0.57661 -2.38794,0.49389 -4.55478,1.39657 -6.61994,2.70532 -2.75824,1.35338 -5.65582,2.279 -8.73292,2.56705 -3.13054,0.16901 -6.2819,0.10746 -9.38732,0.6057 -3.21731,0.50361 -6.38461,1.2667 -9.6144,1.70222 -2.90241,0.44802 -5.77585,1.01444 -8.58183,1.89773 -2.00984,0.55499 -4.05706,1.04455 -5.96413,1.90258 -2.55704,1.35034 -4.83095,3.16875 -7.47888,4.35828 -2.01444,0.96907 -3.05774,0.88629 -5.26338,0.91407 -1.70288,0.13395 -3.40718,0.35189 -4.93163,1.18469 -1.65434,0.8837 -3.35742,1.6788 -5.05159,2.48182 -2.84874,1.40806 -5.76984,2.65721 -8.6001,4.10426 -2.78261,1.57459 -4.96969,3.86989 -7.27756,6.05802 -2.41539,2.29458 -4.94943,4.45359 -7.33209,6.77933 -1.82293,1.6565 -3.71065,3.23933 -5.45326,4.9852 -2.60517,2.36312 -4.71543,5.2119 -7.29157,7.61112 -1.97694,2.11087 -3.93326,4.24164 -5.85535,6.40253 z" />
    <path
       style="fill:#006400"
       id="path18"
       d="m 181.95806,184.72457 c 0.005,-1.9492 -0.36655,-3.9937 0.23177,-5.88208 0.86789,-2.01745 1.16703,-4.14556 1.36552,-6.31226 0.24657,-2.51523 1.11716,-4.88561 2.14602,-7.1728 1.50837,-2.74297 3.24012,-5.35932 5.08758,-7.88424 1.43871,-2.04678 3.07836,-3.94389 4.64187,-5.89774 1.94411,-2.16275 4.30469,-3.87736 6.4768,-5.79142 1.74841,-1.51789 4.10316,-1.90113 6.24843,-2.58584 2.51547,-0.84802 5.15152,-1.07012 7.7833,-1.20555 2.4975,-0.37341 4.70856,-1.67881 7.09101,-2.44966 3.04039,-1.24538 6.33485,-1.53988 9.40861,-2.65528 1.49257,-0.61458 2.9694,-1.25864 4.46684,-1.86142 0.19654,-0.0791 1.80496,-0.6726 2.08652,-0.97889 0.22909,-0.2492 0.29749,-0.60814 0.44623,-0.91222 -4.40838,-2.74995 -8.69895,-5.69845 -13.22514,-8.24986 -0.15116,-0.0852 -2.12304,0.37697 -2.4923,0.452 -1.68423,0.34222 -3.27855,0.74113 -4.91443,1.27516 -2.47438,0.86807 -4.98905,1.78468 -7.26458,3.10579 -1.93857,1.32342 -4.13741,2.15632 -6.2012,3.23483 -1.97029,0.94962 -3.92643,1.94306 -5.7712,3.12083 -0.32712,0.18518 -0.647,0.38378 -0.98136,0.55555 -0.90158,0.46315 -1.01965,0.38219 -1.85191,0.96768 -0.70713,0.49747 -1.29228,1.08029 -2.03556,1.53365 -0.53563,0.40357 -1.08141,0.98059 -1.7641,1.14558 -0.16023,0.0387 -0.3422,0.0569 -0.49449,-0.006 -0.14152,-0.0586 -0.45361,-0.40389 -0.31897,-0.33083 4.21114,2.28504 8.3778,4.65112 12.5667,6.97668 0.0763,-0.5474 -0.41976,0.18478 -0.43261,0.0405 -0.0101,-0.11385 1.44832,-1.65106 1.60842,-1.80796 1.45921,-1.14443 3.09446,-2.00615 4.60599,-3.08867 1.76688,-1.23799 3.68132,-2.1941 5.66924,-3.01836 1.8134,-0.39853 3.37562,-1.07064 4.73598,-2.34741 1.2925,-1.05854 2.70022,-1.80122 4.26319,-2.3856 1.9007,-0.62932 3.90224,-0.75171 5.88719,-0.82442 2.20231,0.13159 4.33972,-0.29232 6.51416,-0.5526 2.70376,-0.29742 5.42432,-0.36797 8.14187,-0.40299 2.24874,-0.002 4.49696,-0.0119 6.74553,-0.0367 2.54325,-0.008 5.08645,0.0163 7.62964,0.0299 2.25364,0.006 4.50772,0.0162 6.76098,-0.028 3.32182,-0.0141 6.60653,0.13523 9.87822,-0.50056 3.50118,-0.52761 6.98211,-1.10871 10.46259,-1.7577 2.92828,-0.52306 5.77011,-1.39519 8.70189,-1.92393 7.31743,-1.1365 5.42519,0.63359 -9.39031,-9.41699 -0.18801,-0.12755 -0.43762,0.1299 -0.66314,0.15743 -0.29971,0.0366 -0.60343,0.0227 -0.90515,0.034 -2.78365,0.0394 -5.5675,0.0468 -8.35133,0.0629 -3.02692,0.0169 -6.03053,0.50052 -9.0497,0.72168 -2.77521,0.23744 -5.56584,0.0632 -8.33158,0.38048 -2.77756,0.3663 -5.49191,1.06564 -8.2741,1.42765 -2.30563,0.51752 -4.62462,0.88061 -6.91617,1.45172 -1.74824,0.35145 -3.38663,1.08118 -4.98914,1.83674 -1.87438,0.60119 -3.72309,1.31825 -5.50002,2.17013 -1.59295,0.48246 -2.99112,1.56885 -4.67709,1.64239 -0.30541,-5.41254 -0.1281,-0.16457 12.61676,7.49698 0.0162,0.01 2.18214,-1.32805 2.28528,-1.38233 2.02972,-0.89099 4.24132,-1.2405 6.39497,-1.71447 2.39817,-0.41723 4.81211,-0.60649 7.21528,-0.99434 2.18553,-0.48409 4.46823,-0.27354 6.6417,-0.75586 0.2045,-0.0887 0.46114,-0.10329 0.61351,-0.26597 3.53835,-3.7777 -8.11621,-6.48597 -12.59009,-9.08895 -0.158,-0.0919 -2.85465,-0.0511 -3.15759,-0.0615 -2.2268,-0.0702 -4.45483,-0.0813 -6.68255,-0.0871 -1.83813,0.27902 -3.61055,0.91939 -5.29917,1.68712 -1.70745,0.56095 -3.39792,1.18946 -5.14739,1.61402 -1.77589,0.682 -3.41975,1.6665 -5.16175,2.43945 -0.38526,0.0598 -0.87208,0.25752 -1.21865,-0.0927 -0.0985,-0.0995 -0.21259,-0.48365 -0.094,-0.40927 4.23367,2.6556 8.28266,5.6005 12.54084,8.21662 0.1311,0.0805 0.22995,-0.20587 0.35719,-0.29238 0.26316,-0.17894 0.5412,-0.33497 0.8118,-0.50245 2.41796,-1.26578 4.92667,-2.17313 7.60552,-2.68313 8.01,-1.247 9.426,3.11541 -8.40026,-9.0925 -2.06075,0.0704 -4.12345,0.0617 -6.18517,0.0636 -2.1227,-0.20854 -4.07955,0.37574 -6.06657,1.01946 -1.86701,0.42537 -3.66967,1.03273 -5.38349,1.89235 -0.16448,0.16297 -0.38833,0.28259 -0.49344,0.4889 -2.76802,5.43322 12.3528,8.50323 12.88609,8.79135 0.0561,0.0303 2.17157,-0.54674 2.24877,-0.57048 2.62215,-1.2206 5.40538,-1.89711 8.17716,-2.6632 2.22018,-0.88493 4.49844,-1.59116 6.76701,-2.33278 2.20891,-0.48046 4.20319,-1.54835 6.38608,-2.1305 1.93128,-0.35147 3.86022,-0.47579 5.78312,-0.87247 1.84116,-0.37856 3.71942,-0.47645 5.59289,-0.53521 1.96054,-0.0348 3.92163,-0.0398 5.88246,-0.0445 2.43808,0.0648 4.89144,-0.17224 7.31203,0.15229 2.19644,0.37885 4.40563,0.64554 6.63291,0.7272 1.92635,0.0851 3.78662,0.64517 5.71029,0.85565 2.06726,0.15325 4.14416,0.15246 6.2164,0.16737 1.22958,0.18898 2.58445,-0.23996 3.8023,0.0259 0.17342,0.0379 0.61873,0.3476 0.46894,0.25235 -4.22267,-2.68527 -8.45916,-5.34875 -12.68874,-8.02313 -4.05002,1.85841 -8.37149,3.11411 -12.57561,4.59858 -7.07967,2.47469 -14.126,5.06559 -21.27638,7.33185 -2.94439,1.00364 -6.01708,1.24482 -9.09978,1.32144 -2.61407,0.008 -5.2283,-0.0137 -7.84232,-0.034 -2.67836,-0.1876 -5.14924,0.6126 -7.59965,1.5669 -2.88129,1.45128 -5.81334,2.79439 -8.7657,4.10167 -2.43023,1.1707 -4.73198,2.4878 -6.89022,4.09764 -2.30804,1.7112 -4.48841,3.61153 -6.99316,5.03264 -2.14238,1.58625 -4.57106,2.50188 -7.09005,3.30739 -4.36901,1.19078 -8.63268,2.67473 -12.8162,4.40205 -2.57056,1.03581 -4.73958,2.69544 -6.99764,4.24538 -0.33565,0.14855 -0.93488,0.54716 -1.38121,0.34442 -0.15397,-0.0699 -0.46288,-0.47898 -0.31429,-0.39824 4.17567,2.3448 8.35135,4.68959 12.52702,7.03438 -0.49338,-0.37434 -0.311,-0.1363 -0.5432,-0.7171 0.20496,-2.04449 2.87065,-3.28867 4.38391,-4.34584 2.64545,-1.78488 5.32427,-3.52497 7.82891,-5.50648 1.86243,-1.28503 3.72694,-2.54071 5.56105,-3.86275 0.18138,-0.1401 1.0723,-0.86371 1.38032,-0.98985 0.38865,-0.15916 0.52237,0.22793 0.41353,0.16306 -13.20583,-7.87036 -10.01417,-11.92503 -13.39689,-7.098 -1.60847,1.60011 -3.13356,3.26395 -4.6125,4.98461 -1.51277,2.11416 -2.96603,4.29236 -4.24667,6.55802 -1.05483,2.01377 -2.32292,3.87797 -3.64676,5.71709 -1.01585,1.53754 -1.6734,3.25091 -2.33103,4.96074 -0.70417,1.82464 -1.93005,3.39465 -2.52045,5.26197 -0.50371,6.04246 8.74748,10.17558 14.44176,8.96939 0.97199,-0.20589 1.30999,-0.37746 2.25795,-0.73557 2.68376,-1.1055 5.05573,-2.80772 7.44564,-4.42714 1.6154,-1.46793 3.25478,-2.84185 5.18946,-3.86924 2.04081,-1.0468 3.6821,-2.66374 5.50298,-4.02153 1.78775,-1.42343 3.87013,-2.4069 5.89877,-3.4332 1.74182,-1.26307 3.68925,-2.16865 5.59465,-3.1441 1.96589,-1.18703 4.08171,-2.07502 6.13383,-3.09471 2.06442,-1.14275 4.18228,-2.20187 6.35571,-3.1287 2.59033,-1.12311 5.00566,-2.59408 7.50249,-3.90441 2.48414,-1.23986 4.99766,-2.35569 7.58562,-3.35692 2.70475,-0.93693 5.37389,-2.06297 7.87569,-3.45691 3.39046,-1.72567 6.72494,-3.55886 10.25552,-4.98634 2.90011,-0.87213 5.67437,-2.09214 8.52287,-3.10828 2.20602,-0.47893 4.27556,-1.34862 6.3942,-2.0988 2.0921,-0.89485 4.31599,-1.34544 6.46747,-2.0616 1.64996,-0.62815 3.27072,-1.62857 5.03242,-1.88376 2.32076,4.79142 0.20354,0.28086 -12.54936,-7.57098 -0.057,-0.0351 -0.13051,-0.0849 -0.19209,-0.0586 -0.85323,0.36392 -1.65374,1.07953 -2.46731,1.53678 -1.85711,0.92235 -3.68497,1.8843 -5.54965,2.79307 -2.05603,1.1144 -4.05157,2.32394 -6.18016,3.30427 -2.00185,0.96976 -4.05208,1.8235 -6.05766,2.79121 -1.60315,0.50876 -3.19246,1.07355 -4.81999,1.51034 -1.6754,0.63762 -3.35711,1.28958 -5.08789,1.76718 -1.70987,0.82234 -3.54309,1.32348 -5.29031,2.05235 -2.71238,0.85366 -5.16503,2.35237 -7.61921,3.75931 -2.24898,1.21548 -4.66209,2.07434 -6.87169,3.3628 -1.88711,1.07338 -3.82804,2.04689 -5.72343,3.10457 -2.48995,1.70458 -4.94737,3.45459 -7.45494,5.13649 -3.49818,2.25214 -7.07071,4.38498 -10.75697,6.31491 -2.55259,1.31673 -4.91146,2.91218 -7.14993,4.70431 -2.59094,1.86554 -5.22991,3.65036 -7.7876,5.56988 -3.0111,1.98662 -6.20244,3.65927 -9.22946,5.62163 -2.30935,1.54385 -4.59704,3.07909 -7.01122,4.46352 -2.77243,1.40967 -5.52689,2.85814 -8.34804,4.16824 -2.02025,1.07448 -3.6791,2.67066 -5.61129,3.88327 -1.4812,1.28221 -3.07461,2.38898 -4.70819,3.46349 -1.63542,0.6939 -2.99383,2.77994 -4.93323,2.37539 -3.12667,-4.34092 -0.24492,-0.20592 12.091,6.62438 0.17173,0.0951 -0.30674,-0.25824 -0.40325,-0.42917 -0.0946,-0.16758 -0.12933,-0.36566 -0.15331,-0.5566 -0.0557,-0.44356 0.0278,-1.09331 0.0658,-1.52326 0.0975,-1.44643 0.58592,-2.8034 1.50006,-3.9285 0.86883,-1.11891 1.49582,-2.38943 2.24384,-3.58352 0.76255,-1.22227 1.02009,-2.66031 1.78042,-3.88243 0.7435,-1.36195 1.70794,-2.57955 2.44117,-3.94433 1.49878,-2.19832 1.7411,-4.98482 2.45299,-7.50174 1.27416,-4.30176 3.82885,-8.06408 6.61599,-11.52708 0.27715,-0.34943 0.54173,-0.7092 0.83144,-1.04828 0.1282,-0.15004 1.85723,-1.6243 1.38596,-1.90015 -12.69638,-7.43151 -9.73131,-9.70875 -13.88831,-6.31814 -1.1691,1.27115 -2.00689,2.78331 -2.87089,4.26564 -0.87085,1.55243 -1.77669,3.08196 -2.65632,4.63066 -0.75661,1.42382 -1.45972,2.87773 -2.22246,4.29825 -0.84497,1.68936 -1.6352,3.40182 -2.38043,5.13902 -0.79384,1.61112 -2.04742,2.91178 -2.97346,4.43528 -0.44049,0.83924 -0.55342,1.84559 -1.06989,2.64962 -0.0505,0.0786 -0.31065,0.11578 -0.22911,0.16134 13.25968,7.40921 12.37376,11.9513 13.22286,6.49471 1.57927,-4.63139 4.30114,-8.75541 7.01274,-12.78878 1.99418,-2.80905 3.27035,-6.18309 5.66575,-8.69539 1.15239,-1.07072 2.23037,-2.17242 3.15501,-3.45211 1.33278,-1.3668 2.4912,-2.88891 3.74581,-4.3283 1.61666,-1.65906 2.24039,-3.77593 2.9715,-5.89094 0.47412,-1.44195 1.22206,-2.80553 2.28366,-3.89416 1.45189,-1.22281 2.99691,-2.33864 4.49479,-3.51422 1.80792,-1.06706 3.40377,-2.36855 4.97814,-3.75109 1.47202,-1.20029 3.21053,-1.98133 4.7846,-3.01942 1.40821,-0.96842 3.03966,-1.19952 4.69961,-1.33062 1.91222,-0.0917 3.82812,-0.081 5.74212,-0.082 2.23879,-0.32549 4.45114,-0.77798 6.60149,-1.48367 2.06586,-0.86244 4.28061,-1.36063 6.3514,-2.19147 1.66228,-0.86063 3.22196,-1.87784 4.80844,-2.86183 1.65231,-0.82854 3.56272,-0.87804 5.37591,-0.9611 1.8273,0.13919 3.5607,-0.41138 5.3456,-0.68549 1.50589,-0.18584 3.02582,-0.25651 4.5426,-0.23476 0.0503,-0.0114 0.19285,-0.004 0.15085,-0.0341 -11.30201,-8.04566 -8.34334,-9.63285 -15.93526,-8.35681 -2.20247,0.17483 -4.33448,0.65556 -6.4969,1.07251 -1.80097,0.11585 -3.47059,0.78567 -5.23275,1.10935 -1.78263,0.63612 -3.58747,1.22885 -5.3343,1.95949 -1.93169,0.77956 -3.97786,1.21372 -5.92589,1.93235 -1.64889,0.61131 -3.17584,1.50639 -4.79538,2.20036 -0.85995,0.69889 -1.96902,0.93818 -2.85355,1.58569 -0.94199,0.68958 -0.16241,0.27389 -0.77662,0.5799 -5.84743,12.57263 10.70237,9.69632 15.17987,7.02338 1.74683,-0.86907 3.51573,-1.67054 5.41814,-2.12795 1.82464,-0.59108 3.64944,-1.06443 5.35383,-1.9639 0.67222,-0.46907 1.56348,-0.49348 2.26031,-0.89833 4.50121,-2.61508 -8.1263,-6.60417 -12.70341,-9.08401 -1.90784,-0.15026 -3.66427,0.38164 -5.42393,1.04055 -1.69739,0.38176 -2.89897,1.54424 -4.22562,2.5604 -1.35741,0.8262 -2.58532,1.81397 -4.07148,2.41171 -1.39743,1.02041 -2.983,1.7126 -4.43432,2.64434 -4.61985,4.45373 10.46989,8.28493 12.18834,9.25692 0.238,0.13462 0.44672,-0.31726 0.68524,-0.45098 0.5988,-0.33569 0.78806,-0.32384 1.49005,-0.49288 2.15207,-0.6055 4.24471,-1.37831 6.38351,-2.02323 0.61722,-0.48373 1.58199,-0.51975 2.16051,-1.06379 3.75198,-3.52833 -9.52248,-7.34876 -12.76066,-9.16157 -2.14648,0.023 -4.13179,0.86399 -6.0394,1.76823 -2.2262,0.96542 -4.38557,2.07278 -6.43216,3.37699 -1.84339,1.35261 -3.83909,2.35667 -5.29474,4.15666 0,0 12.72843,7.62384 12.72843,7.62384 v 0 c 1.35597,-1.64455 3.31596,-2.52191 5.02171,-3.75364 2.00097,-1.22484 4.04665,-2.36933 6.22841,-3.24749 1.79235,-0.7043 3.75067,-1.42591 5.66993,-0.80759 -4.15148,-2.41403 -8.4766,-4.55152 -12.45444,-7.24208 -0.41989,-0.28401 1.50811,-1.17053 0.81053,-0.86929 -0.63881,0.27586 -1.22518,0.69903 -1.90823,0.88323 -2.08451,0.73106 -4.17259,1.43752 -6.32636,1.94567 -0.53952,0.14491 -1.06035,0.45148 -1.61873,0.43412 -0.11232,-0.004 -0.37479,-0.24818 -0.28063,-0.18685 11.11084,7.23638 10.71972,9.64444 12.28341,7.91011 1.38691,-0.89048 2.88009,-1.62867 4.28697,-2.48755 1.50971,-0.76347 2.88751,-1.73299 4.27599,-2.69517 1.20098,-0.95527 2.4272,-1.78597 3.94283,-2.17225 1.64634,-0.54844 3.3441,-0.77419 5.05561,-0.35139 -4.14777,-2.37622 -8.54769,-4.35836 -12.4433,-7.12867 -0.77543,-0.55144 2.09645,-1.63247 0.20962,-0.82131 -0.28387,0.12204 -0.572,0.23415 -0.85438,0.35959 -0.27322,0.12137 -0.5414,0.25378 -0.81209,0.38067 -1.67943,0.7295 -3.42542,1.2453 -5.17943,1.76511 -1.94053,0.61623 -3.79578,1.46285 -5.61582,2.37193 -1.11647,0.50245 -0.39235,0.20727 -1.45375,0.57531 -0.35825,0.12422 -1.3817,0.18937 -1.06543,0.39854 12.52286,8.28232 15.80962,4.03266 12.4559,8.18287 0.92894,-0.9133 2.22781,-1.29836 3.31902,-1.98329 1.5534,-0.72148 3.0629,-1.55028 4.67882,-2.12097 1.99725,-0.6363 4.02499,-1.18501 5.97231,-1.97175 1.73042,-0.62317 3.44066,-1.32977 5.23998,-1.73298 1.71858,-0.41397 3.41138,-0.91309 5.17253,-1.13143 2.12932,-0.44778 4.27111,-0.75973 6.43219,-1.01625 6.9073,-0.82409 9.40726,3.38175 -8.48356,-8.89666 -1.51178,0.17694 -3.04628,0.15395 -4.54404,0.45977 -1.73014,0.32125 -3.44383,0.62676 -5.21458,0.59637 -2.01866,0.18213 -4.08906,0.42562 -5.83187,1.55069 -1.47694,0.9749 -2.99791,1.89387 -4.61805,2.61369 -2.07253,0.72003 -4.13145,1.47641 -6.21599,2.1595 -2.08881,0.55939 -4.22735,0.99287 -6.3909,1.10538 -1.96573,-0.006 -3.93874,-0.0423 -5.89501,0.18778 -1.82271,0.2797 -3.54813,0.79643 -5.06252,1.89441 -1.66271,1.0237 -3.41368,1.92221 -4.90212,3.20597 -1.56256,1.35169 -3.14033,2.63017 -4.92646,3.68546 -1.56786,1.20789 -3.17698,2.37577 -4.64027,3.70533 -1.15637,1.29312 -2.11443,2.75707 -2.59845,4.43962 -0.64014,1.94667 -1.05942,3.91941 -2.58585,5.43151 -1.3111,1.4627 -2.61726,2.92966 -3.96114,4.35993 -0.90726,1.22471 -1.9664,2.28513 -2.98612,3.41186 -2.19831,2.76833 -3.41225,6.16774 -5.41471,9.07283 -2.65989,4.20126 -5.20747,8.47802 -7.61554,12.82674 -2.67588,5.3554 -1.01786,1.2995 12.67264,8.39949 0.0992,0.0515 0.33942,-0.58413 0.64333,-1.34818 0.38457,-0.96682 0.31299,-0.78784 0.64998,-1.67298 0.94535,-1.5858 2.24081,-2.9512 3.02593,-4.63887 0.72832,-1.69402 1.55741,-3.34119 2.33626,-5.0104 0.76729,-1.40979 1.55122,-2.81347 2.25052,-4.25699 0.85375,-1.54833 1.70778,-3.09136 2.57887,-4.62964 0.80316,-1.32095 1.55305,-2.71978 2.74448,-3.74 4.28755,-3.5409 -0.41797,0.55854 -12.81982,-7.27209 -0.33939,-0.2143 0.41612,-0.68657 0.63039,-1.02599 0.0695,-0.11009 -0.12538,0.22848 -0.19599,0.33786 -0.39315,0.60901 -0.83489,1.18603 -1.1982,1.81477 -2.66701,3.74077 -5.2483,7.65373 -6.74093,12.02707 -0.82945,2.36966 -1.30594,4.93952 -2.69117,7.05929 -0.71181,1.34537 -1.6818,2.53314 -2.42607,3.8616 -0.73191,1.2388 -1.08376,2.6179 -1.77409,3.87188 -0.70506,1.16326 -1.33324,2.37457 -2.1661,3.45787 -0.99904,1.37685 -1.70034,2.93544 -1.85092,4.6483 -0.94212,6.82762 1.23806,13.07923 13.72844,11.42904 1.94242,-0.65825 3.48086,-2.01181 5.24657,-3.01601 1.64333,-1.06187 3.17586,-2.25707 4.70304,-3.4772 1.81182,-1.25332 3.46969,-2.73237 5.41803,-3.778 2.80417,-1.42439 5.60259,-2.85931 8.42699,-4.24286 2.41201,-1.40622 4.6656,-3.02003 6.9809,-4.57447 3.03319,-1.9782 6.20784,-3.72095 9.20859,-5.74679 2.59759,-1.92751 5.38984,-3.54654 7.96115,-5.50766 2.17216,-1.69096 4.44579,-3.24051 6.85076,-4.58449 3.68296,-1.99319 7.2138,-4.24582 10.7733,-6.44848 2.5735,-1.5943 5.09719,-3.26491 7.65635,-4.87824 1.91707,-1.02085 3.8195,-2.06739 5.71257,-3.13206 2.23019,-1.1969 4.58873,-2.14416 6.76813,-3.43974 2.44338,-1.3729 4.93432,-2.67149 7.62421,-3.49857 1.75891,-0.6309 3.53327,-1.21415 5.25853,-1.93404 1.71655,-0.55749 3.41557,-1.16798 5.12803,-1.73731 1.64994,-0.54266 3.34108,-0.99407 4.9064,-1.756 1.97832,-1.00951 4.05512,-1.78881 6.03695,-2.78983 2.07727,-1.06004 4.04847,-2.30718 6.15505,-3.30328 1.91607,-0.88119 3.74596,-1.91271 5.61659,-2.88434 7.25204,-4.20033 4.07983,-2.34481 -9.09971,-10.65229 -0.12734,-0.0803 -0.25483,0.1603 -0.38225,0.24045 -1.67974,0.65584 -3.35465,1.32298 -5.02475,2.00207 -2.14021,0.73825 -4.35151,1.25331 -6.45406,2.10734 -2.0901,0.77207 -4.19372,1.49131 -6.31738,2.1635 -2.82421,1.08259 -5.6385,2.18855 -8.48184,3.21902 -3.49435,1.55401 -6.83065,3.42088 -10.27173,5.08623 -2.60506,1.16554 -5.23261,2.29646 -7.92048,3.25712 -2.62555,1.00963 -5.13646,2.26134 -7.65397,3.51279 -2.48701,1.29839 -4.89915,2.75312 -7.51982,3.77915 -2.163,0.99683 -4.29911,2.04722 -6.40821,3.15302 -2.07019,0.97634 -4.10221,2.02842 -6.1032,3.13991 -1.93906,0.95365 -3.88696,1.89532 -5.66394,3.13641 -2.05304,1.13332 -4.19246,2.14386 -6.00124,3.66238 -1.74392,1.37417 -3.44431,2.81755 -5.44159,3.8237 -1.88286,1.14858 -3.52079,2.56005 -5.16601,4.0206 -2.28613,1.55846 -4.55036,3.23786 -7.23928,4.03397 -0.85695,0.19666 -1.20696,0.3488 -2.07666,0.287 -0.25059,-0.0178 -0.95005,-0.29149 -0.73674,-0.15879 4.02437,2.50352 8.13702,4.86227 12.20552,7.2934 -0.61175,-0.0297 -0.37343,0.091 -0.75062,-0.28061 0.13617,-1.88149 1.80497,-3.32515 2.34619,-5.09902 0.61054,-1.59838 1.24245,-3.1866 2.16545,-4.6357 1.30064,-1.90729 2.47109,-3.88297 3.59295,-5.9011 1.27047,-2.16634 2.64298,-4.27772 4.14156,-6.29326 1.5092,-1.73318 3.07961,-3.38884 4.73422,-4.98364 3.8879,-4.3148 0.99454,-0.689 -11.68498,-9.21176 -0.0135,-0.009 -0.85224,0.69431 -1.23242,0.99438 -0.25431,0.20071 -0.51607,0.3918 -0.7741,0.58769 -1.79111,1.37724 -3.71481,2.55608 -5.4889,3.95829 -2.46716,1.94776 -5.03659,3.77497 -7.6738,5.48369 -2.19333,1.46367 -4.79705,2.732 -5.41836,5.52221 -0.59776,6.57814 10.29799,12.34249 15.51488,8.35083 2.1079,-1.53811 4.25004,-3.01391 6.64282,-4.09 4.13789,-1.74537 8.32202,-3.30662 12.71085,-4.31538 2.67542,-0.83213 5.25083,-1.69812 7.45948,-3.48723 2.43675,-1.58597 4.67231,-3.45749 7.0493,-5.13079 2.11222,-1.46741 4.34208,-2.74238 6.64018,-3.89858 2.94977,-1.31122 5.84264,-2.75389 8.83762,-3.96048 2.34213,-0.87657 4.74155,-1.29153 7.25478,-1.13938 2.62358,0.0152 5.24852,0.0732 7.87115,-0.0278 3.11994,-0.16316 6.1935,-0.63912 9.0999,-1.85073 6.89908,-2.6576 13.74738,-5.46779 20.83577,-7.60111 1.33271,-0.41279 2.65839,-0.84897 3.99812,-1.23836 3.33344,-0.96887 6.96028,-1.4527 9.89941,-3.42282 -12.95978,-9.41836 -7.76515,-8.71815 -16.37259,-8.71154 -2.05153,-0.0242 -4.11042,-0.0461 -6.14511,-0.33976 -1.90372,-0.29705 -3.78762,-0.74802 -5.72728,-0.73486 -2.19367,-0.18024 -4.37067,-0.48502 -6.55818,-0.72277 -2.47793,-0.10482 -4.95771,-0.0688 -7.43736,-0.0854 -1.98634,-0.005 -3.97375,-0.0257 -5.95858,0.0714 -1.9191,0.11065 -3.83153,0.30683 -5.71304,0.71615 -1.94583,0.35028 -3.94684,0.39255 -5.84134,1.01098 -2.14903,0.7081 -4.21009,1.66654 -6.42677,2.16676 -2.20141,0.76818 -4.40332,1.52791 -6.5876,2.34298 -2.79823,0.73332 -5.51031,1.69869 -8.28556,2.49274 -0.35249,0.0399 -1.14945,0.15755 -1.54534,0.11142 -0.15968,-0.0186 -0.59709,-0.22881 -0.45999,-0.14487 12.50382,7.65463 15.96461,4.11445 11.83645,8.12284 -0.0476,0.0462 0.0945,-0.0932 0.14181,-0.13977 1.65786,-0.79375 3.45734,-1.20375 5.2104,-1.73113 1.89981,-0.5652 3.81278,-0.77764 5.79756,-0.66835 2.09068,-0.0109 4.1831,-0.0444 6.27268,0.0372 -10.9164,-8.25871 -7.6846,-9.73059 -15.78547,-8.11054 -2.75999,0.70562 -5.37628,1.77441 -7.91699,3.06198 -0.35022,0.21334 -0.7174,0.40104 -1.05067,0.64 -0.23197,0.16633 -0.86001,0.39129 -0.6382,0.57096 8.85417,7.17222 8.10005,10.5392 14.09658,8.09129 1.64742,-0.79042 3.24901,-1.73412 5.01245,-2.23334 1.77789,-0.51755 3.55117,-1.07873 5.27107,-1.76492 1.60023,-0.59311 3.19653,-1.24712 4.93567,-1.22815 2.20013,0.001 4.40192,4.4e-4 6.59934,0.12414 0.59476,0.0451 1.65337,0.10481 2.25093,0.22853 0.28622,0.0593 1.08072,0.42076 0.8381,0.25778 -4.00644,-2.6914 -8.10584,-5.24177 -12.15876,-7.86265 0.16663,-0.19192 0.42917,-0.33164 0.49988,-0.57577 0.0349,-0.12049 -0.24163,0.0675 -0.36244,0.10129 -2.176,0.26432 -4.37172,0.3795 -6.52877,0.7996 -2.43146,0.36164 -4.90065,0.46443 -7.29544,1.05583 -2.2647,0.51045 -4.57491,0.91348 -6.65423,2.00591 -7.31457,3.78041 -0.57773,4.21954 9.32096,10.8244 0.14933,0.0996 0.31516,-0.172 0.47274,-0.258 1.59788,-0.59867 3.11255,-1.40589 4.70611,-2.01794 1.83892,-0.7835 3.71852,-1.44994 5.59372,-2.13871 1.51176,-0.72088 3.10671,-1.28021 4.74235,-1.64387 2.248,-0.54986 4.53749,-0.91655 6.80775,-1.36108 2.71638,-0.46668 5.39308,-1.1838 8.14806,-1.39677 2.78572,-0.14278 5.58172,-0.0945 8.36104,-0.3622 2.96829,-0.28717 5.9341,-0.72298 8.92312,-0.66267 2.82856,0.006 5.65859,-0.0192 8.48557,0.092 0.31392,0.0296 0.63499,0.0157 0.94175,0.0887 0.17831,0.0424 0.63571,0.36124 0.48899,0.25141 -12.27969,-9.19118 -7.34687,-9.66253 -14.49863,-8.27007 -2.91408,0.62983 -5.79772,1.39527 -8.73707,1.90635 -3.4186,0.74685 -6.8606,1.31339 -10.33092,1.76958 -3.26419,0.3827 -6.54015,0.30592 -9.8227,0.26166 -2.27948,-0.0425 -4.55966,-0.0348 -6.83949,-0.0298 -2.52048,0.0114 -5.041,0.0315 -7.56151,0.0196 -2.27025,-0.0262 -4.54066,-0.0509 -6.81027,0.0344 -2.72927,0.0965 -5.45927,0.23864 -8.17445,0.54135 -2.18488,0.23596 -4.36241,0.39186 -6.56098,0.41626 -2.09299,0.15924 -4.18403,0.4379 -6.14759,1.2246 -1.68363,0.70684 -3.21959,1.57757 -4.61985,2.76183 -1.30849,1.05197 -2.84837,1.44933 -4.40552,2.01578 -2.02198,0.93422 -3.98271,1.96745 -5.7997,3.26645 -1.62731,1.06991 -3.39605,1.93085 -4.8263,3.27721 -1.08258,1.11487 -2.57458,2.27941 -2.40414,3.9828 9.58198,5.43557 10.42018,10.51504 16.46098,5.78845 1.53243,-1.11513 3.0046,-2.26004 4.74035,-3.06837 1.8637,-1.0992 3.80989,-2.04094 5.74742,-3.00066 2.09225,-1.05257 4.18722,-2.09563 6.20826,-3.28475 2.22272,-1.16327 4.54585,-2.18613 6.93226,-2.95694 1.60557,-0.45151 3.20339,-0.85311 4.87137,-1.00243 0.42895,-0.0384 0.86236,-0.0809 1.29131,-0.0425 0.32557,0.0292 1.21901,0.42889 0.94998,0.24323 -3.90166,-2.69239 -7.92959,-5.19705 -11.89439,-7.79558 0.13791,-0.0927 0.55585,-0.36433 0.41372,-0.27821 -1.9386,1.1747 -4.13189,1.86903 -6.24428,2.67155 -3.07536,0.99648 -6.28646,1.53514 -9.31915,2.68394 -2.30534,0.74803 -4.53538,1.85208 -6.96992,2.09444 -2.70504,0.22681 -5.39536,0.57011 -7.96743,1.48883 -2.37233,0.69484 -4.82829,1.2847 -6.62664,3.10593 -2.18093,2.00874 -4.54263,3.81934 -6.58281,5.97825 -1.64561,1.91898 -3.21069,3.92346 -4.60544,6.03186 -1.87341,2.61654 -3.68014,5.28963 -5.28267,8.08196 -1.19217,2.39476 -2.03405,4.96465 -2.42764,7.616 -0.17168,2.04822 -0.45675,4.06932 -1.30814,5.96328 -0.67114,2.03514 -0.396,4.13947 -0.53041,6.25307 z" />
    <circle
       id="path19"
       style="fill:#006400;stroke:#000000"
       cx="205.45576"
       cy="143.25356"
       r="0.47446087" />
    <path
       style="fill:#006400"
       id="path20"
       d="m 188.59777,215.94143 c 1.76986,-1.10473 3.60647,-2.10547 5.42114,-3.13879 1.67165,-0.69255 3.0938,-1.82553 4.62165,-2.76714 1.78055,-1.04312 3.79116,-1.45635 5.59426,-2.4441 1.81264,-0.946 3.63945,-1.7381 5.65317,-2.11489 2.35143,-0.61347 4.72239,-1.21166 7.00709,-2.04561 2.0106,-0.88609 3.58225,-2.41878 5.46975,-3.51985 2.24895,-1.19724 4.36801,-2.60922 6.52394,-3.95903 1.81187,-0.86006 3.38643,-2.09676 5.16591,-3.0161 1.96546,-1.1818 3.79763,-2.56691 5.61335,-3.96703 1.96819,-1.71449 4.06753,-3.30105 6.23033,-4.76464 2.1886,-1.71429 4.47265,-3.31072 6.67346,-5.01784 3.25168,-2.09293 6.46351,-4.24407 9.76636,-6.26406 3.47971,-2.10297 7.12522,-3.9685 10.29661,-6.533 2.40671,-1.97024 4.92004,-3.82024 7.53293,-5.50836 0.3968,-0.21235 0.7846,-0.44246 1.19041,-0.63704 2.71565,-1.30209 -0.37045,0.2585 2.2446,-0.82874 1.3551,-0.5634 2.61751,-1.44393 3.9209,-2.11772 2.54436,-1.39915 5.22318,-2.4708 7.74655,-3.91162 2.45164,-1.24667 4.71747,-2.81863 7.24356,-3.92297 2.25481,-1.12776 4.44894,-2.42176 6.53074,-3.84401 2.26252,-1.21839 4.39787,-2.64981 6.60843,-3.95617 1.55757,-0.68966 3.07248,-1.49729 4.68631,-2.05307 0,0 -12.33938,-8.28002 -12.33938,-8.28002 v 0 c -1.60659,0.7004 -3.18257,1.48834 -4.71209,2.34189 -2.20451,1.37463 -4.46241,2.65214 -6.68652,3.99453 -2.0377,1.37272 -4.1777,2.59906 -6.39305,3.66247 -2.46813,1.25662 -4.79051,2.77692 -7.26636,4.02172 -2.52267,1.36054 -5.14185,2.52232 -7.64664,3.91802 -2.4871,1.26111 -5.0953,2.25915 -7.49035,3.68665 -2.61677,1.75329 -5.11756,3.68986 -7.59063,5.63777 -3.11207,2.49158 -6.52698,4.51598 -9.96486,6.52267 -3.37608,2.06575 -6.84194,4.01015 -10.1151,6.22793 -2.19281,1.68175 -4.4459,3.28609 -6.65327,4.94593 -2.13554,1.52905 -4.28296,3.04626 -6.23795,4.80631 -1.83539,1.29108 -3.64168,2.62221 -5.58586,3.74921 -1.75545,1.01234 -3.47654,2.08306 -5.21888,3.11765 -2.09238,1.42009 -4.23314,2.76672 -6.49756,3.9006 -1.78677,1.07452 -3.27451,2.61333 -5.29187,3.27539 -2.26949,0.72855 -4.54732,1.44217 -6.88524,1.92136 -2.08379,0.51386 -4.01783,1.38888 -5.91032,2.39739 -1.88573,0.87878 -3.93362,1.39235 -5.69132,2.54653 -1.49232,0.96784 -2.99739,1.91693 -4.57713,2.73852 -1.78048,1.08084 -3.60785,2.0815 -5.49211,2.97138 z" />
    <path
       style="fill:#006400"
       id="path21"
       d="m 305.65781,127.04337 c 21.92446,13.42022 12.98327,7.90896 8.44054,4.15869 -0.22559,-0.20351 -1.06024,-0.97894 -1.33432,-1.13851 -4.47443,-2.60506 -8.9974,-5.12586 -13.48806,-7.70283 -0.44716,-0.25661 -1.80615,-0.99495 -1.36027,-0.73613 4.04104,2.34571 8.10698,4.64827 12.16046,6.9724 -4.77891,-3.17659 -2.50725,-1.68545 -13.995,-8.06383 -0.34522,-0.19168 -1.18443,-0.20388 -1.53934,-0.31093 -0.46441,-0.14009 -0.88744,-0.39415 -1.34407,-0.55782 -1.62883,-0.46173 -3.33305,-0.50407 -5.01389,-0.55251 -1.24275,-0.0261 -2.48585,-0.0241 -3.7288,-0.0237 0,0 12.00332,8.72725 12.00332,8.72725 v 0 c 1.23296,0.009 2.46657,0.0166 3.69798,0.0865 1.63044,0.1165 3.26284,0.29859 4.78765,0.9312 0.70436,0.25317 1.44397,0.39671 2.13308,0.69003 0.22114,0.0941 0.85222,0.44407 0.64471,0.32283 -18.77271,-10.9679 -15.83249,-9.2277 -11.52929,-6.67698 4.4505,2.58726 8.89836,5.17907 13.35151,7.76178 7.26944,4.21608 -16.50292,-10.12852 -9.18308,-5.34823 4.73007,4.77394 11.41852,7.4377 16.98631,10.81122 z" />
    <path
       style="fill:#006400"
       id="path22"
       d="m 309.93615,138.11623 c -0.74656,1.97161 -1.64826,3.88483 -2.58648,5.77204 -0.77533,1.8557 -1.6211,3.72589 -2.88706,5.30343 -0.80641,1.48506 -1.84452,2.74425 -3.17151,3.78465 -1.21116,1.13344 -2.66373,1.8348 -3.88453,2.97295 -1.44211,1.46715 -3.10152,2.69319 -4.76727,3.89077 -1.5497,1.05527 -3.2001,1.92122 -4.7584,2.96088 -1.67535,0.83026 -2.99025,2.21045 -4.33412,3.48497 -1.40445,1.36968 -2.97594,2.54902 -4.47782,3.80974 -1.78894,1.14427 -3.48451,2.43211 -5.32601,3.49324 -1.88697,1.01139 -3.02762,2.48711 -4.11632,4.27919 -1.03416,2.13031 -2.60983,3.84968 -4.37287,5.39089 -1.48905,1.69944 -3.31422,3.01314 -5.00601,4.47721 -1.59606,1.52978 -3.10075,3.15958 -4.56843,4.81375 -1.84754,1.9072 -3.8453,3.66196 -5.97871,5.24067 -1.7905,1.34519 -3.59703,2.88971 -5.71528,3.68619 -1.67734,0.95293 -3.42183,1.82909 -5.0177,2.91646 -2.05224,1.24677 -4.10477,2.48746 -6.24851,3.57236 -2.37928,1.43237 -4.96007,2.34698 -7.5334,3.33309 -2.25009,0.7906 -4.62295,0.97585 -6.98541,1.08708 -2.35219,0.0879 -4.70665,0.0596 -7.05984,0.0439 -2.18141,-0.004 -4.36283,-0.006 -6.54426,-0.0138 -2.04271,0.074 -4.04619,0.56149 -6.09154,0.74888 -2.11324,0.16605 -4.23398,0.18174 -6.35248,0.19102 -2.02697,-0.004 -4.0537,-0.003 -6.08057,0.0174 -2.067,-0.37449 -4.16373,-0.47212 -6.07742,-1.38198 -1.92175,-0.76363 -3.77062,-1.6392 -5.81722,-2.00636 -2.32748,-0.23932 -4.62792,-0.27828 -6.9123,-0.78906 -6.04096,-3.02895 6.60825,7.58924 11.76755,8.16581 0.12805,0.0143 1.52667,-0.027 1.52845,-0.027 2.03194,-0.0305 4.0642,-0.007 6.0962,0.005 1.92786,0.0113 3.85576,0.0143 5.78364,0.0161 1.75625,-0.45366 3.53426,-0.69688 5.34019,-0.82969 2.83962,0.14288 4.84568,-1.35491 7.10603,-2.89395 2.42364,-1.48321 4.52159,-3.41805 6.64178,-5.29627 1.63165,-1.38438 3.22376,-2.82654 4.89593,-4.1616 1.17355,-1.06744 2.3044,-2.17248 3.47972,-3.24027 2.00499,-1.0472 2.70801,-1.82401 3.76399,-3.83138 0.83962,-1.64331 2.12485,-2.98395 3.27154,-4.41166 1.15068,-1.43173 2.74355,-1.93776 4.35934,-2.61434 1.93586,-0.51246 3.76594,-1.32381 5.65611,-1.96775 2.05129,-0.91444 4.23644,-1.44315 6.38213,-2.08023 2.2949,-0.31589 3.50459,-0.98022 5.07686,-2.64148 1.51905,-1.2602 2.72137,-2.89552 4.38871,-3.96759 1.27167,-1.01729 2.67218,-1.87715 4.12878,-2.60374 0.73119,-0.9822 2.68333,-0.87377 3.19674,-2.00666 0.16303,-0.35975 0.22711,-0.75658 0.34066,-1.13487 -13.64893,-7.3664 -9.95336,-9.15164 -18.2002,-5.20093 -1.90358,0.92045 -3.59385,2.14927 -5.30284,3.37169 -1.40745,0.73253 -2.52765,1.88967 -3.78279,2.84231 -1.68572,1.51903 -3.57319,2.77451 -5.5183,3.93973 -1.70412,1.17989 -3.47737,2.27879 -5.02912,3.66165 -4.08968,3.46386 -0.96399,0.67095 12.92114,7.49991 0.2134,0.10496 0.27075,-0.39269 0.43001,-0.56931 0.55811,-0.61895 1.19198,-1.20559 1.82066,-1.75208 1.57564,-0.99429 3.22843,-1.85941 4.81466,-2.83141 0.84654,-0.60578 2.45853,-0.77232 2.9645,-1.81919 0.18917,-0.3914 0.30482,-0.81426 0.45723,-1.22139 -13.97577,-7.9044 -9.28881,-9.03293 -15.46755,-5.9691 -1.13596,0.56328 -2.22873,1.10717 -3.31631,1.76506 -1.90189,1.14102 -3.88433,2.11161 -5.8721,3.08752 -1.4557,1.0841 -3.02921,1.93946 -4.68956,2.66519 -1.84709,0.6443 -3.64021,1.56749 -5.28839,2.62206 -1.80737,1.44124 -3.54507,2.94907 -5.3852,4.35228 -2.22092,1.75456 -4.62213,3.25138 -6.95318,4.85272 -1.67652,0.86031 -3.21539,1.9887 -4.94888,2.73013 -1.52505,0.6893 -3.04993,1.4305 -4.64082,1.96329 -1.32423,0.6187 -2.58493,1.39246 -3.95939,1.89456 -0.45474,0.27891 -0.77751,0.49999 -1.2629,0.713 -0.73823,0.32396 -1.29194,0.35468 -1.14869,0.45595 12.39741,8.76452 8.14934,10.56362 13.476,7.93661 4.22713,-2.18774 8.64062,-3.99801 12.94455,-6.02903 3.35765,-1.51161 6.43228,-3.55448 9.56887,-5.46505 1.94702,-1.51928 4.21512,-2.55756 6.14923,-4.08565 1.52363,-0.93012 2.65937,-2.30847 4.05502,-3.39634 1.43366,-1.47217 3.06004,-2.63763 4.88794,-3.5644 1.64587,-0.83048 2.5762,-2.53347 3.74698,-3.89488 1.50962,-1.28812 2.94423,-2.65922 4.68629,-3.62699 1.64955,-0.87114 3.19312,-1.93585 4.99563,-2.46535 1.94816,-0.7603 3.71561,-1.8623 5.45926,-3.00165 1.89873,-1.36361 4.11251,-2.01182 6.21642,-2.93085 1.00974,-0.54671 2.18991,-0.55199 3.20191,-1.07736 2.53602,-1.31655 -1.01761,0.34006 1.55228,-0.82887 1.7256,-0.92087 3.48203,-1.76739 5.21991,-2.66336 2.32944,-1.14377 4.61941,-2.3873 7.00718,-3.40853 2.49404,-1.2023 4.98695,-2.3955 7.55464,-3.43484 1.66426,-0.74449 3.49672,-1.07472 5.17085,-1.7767 2.89532,-5.47068 1.13212,-1.33551 -12.58331,-8.90933 -0.22162,-0.12239 -0.47359,0.17971 -0.70565,0.28092 -0.8889,0.38769 -1.78129,0.76008 -2.67005,1.14994 -2.44311,0.65637 -4.63152,1.63414 -6.69194,3.1017 -1.88697,1.33086 -3.87955,2.54379 -5.64565,4.03467 -1.46542,1.19481 -2.8087,2.50413 -4.44592,3.47096 -1.79936,0.99254 -3.58302,2.3244 -5.67289,2.5456 -5.48651,-0.12465 -1.68186,-0.13209 12.21118,7.51898 0.12718,0.07 0.17782,-0.22985 0.2743,-0.33835 0.22984,-0.25846 0.45585,-0.52136 0.70426,-0.76205 0.51495,-0.49895 1.58987,-1.37988 2.11623,-1.82039 2.01492,-1.57561 3.99688,-3.23409 6.18116,-4.57592 2.35768,-1.64015 5.09666,-2.54462 7.67172,-3.76694 2.7723,-0.78467 5.33613,-2.07475 8.0087,-3.11553 1.88093,-0.50975 3.72427,-1.13125 5.65002,-1.46127 2.12928,-0.11482 3.75,-1.49279 5.35968,-2.74212 1.8898,-1.18264 3.42385,-2.81963 5.38135,-3.89646 1.83402,-1.09018 3.64867,-2.20661 5.44481,-3.35978 2.34572,-1.24127 4.46139,-2.86484 6.64263,-4.36773 2.11163,-1.49585 4.57699,-2.25494 6.97199,-3.14687 1.88799,-0.54719 3.86042,-0.61958 5.81197,-0.67096 1.73656,0.0551 3.55235,-0.33489 5.15898,0.45667 -4.22534,-2.37454 -8.59629,-4.5068 -12.67602,-7.12362 -0.37093,-0.23792 1.61162,-1.63761 -0.61451,-1.17877 -0.24805,0.0511 -0.47996,0.16188 -0.71994,0.24281 -1.73673,0.53697 -3.57422,0.6269 -5.37865,0.71694 -1.74265,0.1273 -3.39235,-0.53849 -5.0142,-1.07882 -1.6543,-0.72051 -3.08124,-1.74891 -4.83188,-2.24132 -0.28706,-0.0541 -0.58237,-0.0752 -0.86119,-0.16243 -0.597,-0.27724 -0.79829,-0.39508 -1.42773,-0.59056 -0.77949,-0.24209 -1.40822,-0.2321 -2.08388,-0.70843 4.16787,2.39369 8.33574,4.78738 12.50361,7.18108 -0.12723,0.17211 -0.44976,0.53119 -0.37735,0.78605 0.0527,0.18544 1.45996,-0.003 1.52382,-0.007 2.02028,-0.0941 4.04328,-0.0837 6.06514,-0.0783 1.73494,-0.0304 3.61282,0.077 5.16372,0.92386 -4.13192,-2.33491 -8.30042,-4.60625 -12.39578,-7.00472 -0.437,-0.25593 0.87635,0.19292 0.43744,-0.35955 -0.0793,-0.0999 -1.26484,0.61342 -1.52149,0.73973 -2.03669,1.31899 -4.32619,2.14757 -6.64406,2.82275 -1.56189,0.43942 -2.76663,1.35547 -3.86268,2.50682 0,0 12.65474,7.74083 12.65474,7.74083 v 0 c 0.96236,-0.93698 2.05397,-1.59832 3.35984,-1.97015 2.39024,-0.79943 4.76017,-1.68323 6.95285,-2.94169 8.18316,-4.58876 -4.67575,-7.16787 -10.72139,-10.70359 -1.78878,-0.37047 -3.56493,-0.58245 -5.39908,-0.45415 -2.07562,0.008 -4.15655,-0.0143 -6.22739,0.13939 -1.16932,0.15657 -2.12383,0.29825 -2.71617,1.46562 -2.3299,4.59174 15.76037,21.32401 12.91605,8.47277 1.50017,0.31332 2.90954,0.93332 4.37982,1.35457 1.6185,0.73215 3.12691,1.71039 4.85627,2.19051 1.73033,0.53451 3.50263,0.82736 5.31694,0.61005 1.88713,-0.14984 3.77229,-0.36406 5.60299,-0.86829 0.98696,-0.12122 1.99339,-0.0852 2.60819,-1.02287 3.39008,-5.17023 -11.32042,-7.72353 -12.71388,-8.51114 -1.7763,-0.16107 -3.56612,-0.0504 -5.34573,-0.008 -2.06792,0.12369 -4.14922,0.3255 -6.10077,1.07249 -2.40914,1.00968 -4.85276,1.95015 -6.96369,3.53653 -2.21703,1.47367 -4.46176,2.90764 -6.77385,4.2283 -1.79874,1.11737 -3.59496,2.23669 -5.40638,3.3332 -1.92343,1.20881 -3.55743,2.78499 -5.45592,4.03144 -1.56145,1.10605 -3.09531,2.01656 -5.05386,2.16404 -1.95567,0.45022 -3.89272,1.02619 -5.7696,1.73461 -2.6106,1.17032 -5.21295,2.31956 -7.92596,3.24165 -2.66671,1.22481 -5.48323,2.18534 -7.92064,3.85474 -2.13789,1.48027 -4.11391,3.17537 -6.15613,4.78184 -1.07172,0.86617 -2.20612,1.7005 -3.14766,2.71404 -0.26246,0.28253 -1.04699,0.65464 -0.74058,0.88878 11.39028,8.70333 7.85234,9.50987 13.2336,8.04204 2.08872,-0.72488 4.00546,-1.84094 5.89376,-2.97914 1.64824,-1.06482 3.09431,-2.33924 4.55614,-3.64096 1.75941,-1.42492 3.68826,-2.63734 5.53777,-3.94108 2.0298,-1.32204 4.23513,-2.09131 6.53916,-2.80863 0.74948,-0.26431 1.73538,-0.77601 2.56426,-0.73039 0.16364,0.009 0.60357,0.24684 0.46525,0.15894 -12.60485,-8.0097 -15.38602,-3.87724 -11.82712,-8.50245 -1.62928,0.71093 -3.3728,1.15481 -4.99282,1.89583 -2.51018,1.125 -4.96342,2.36156 -7.46059,3.51251 -2.4226,1.07839 -4.81774,2.21829 -7.20816,3.36639 -1.75113,0.84514 -3.41661,1.84933 -5.20061,2.62851 -1.53771,0.73289 -3.1438,1.21469 -4.71329,1.87254 -2.17732,0.89848 -4.29797,1.87967 -6.28227,3.16657 -1.71709,1.03133 -3.46569,2.02918 -5.37285,2.67198 -1.79349,0.73937 -3.41576,1.81437 -5.11152,2.74822 -1.78249,1.15983 -3.42708,2.53792 -4.96567,4.00343 -1.07055,1.23831 -1.93039,2.69418 -3.44151,3.45347 -1.83327,1.05836 -3.48901,2.31253 -5.02248,3.7748 -1.3861,1.09739 -2.59536,2.39859 -4.08847,3.36716 -1.88573,1.44286 -3.93464,2.65881 -5.83278,4.08634 -3.09022,1.87588 -6.12066,3.8767 -9.3991,5.41537 -4.26074,2.15063 -8.60697,4.17558 -13.14397,5.67749 -5.74411,1.20447 -1.81593,0.14423 11.27998,8.65338 0.0986,0.064 2.03534,-1.24024 2.34095,-1.16008 1.30753,-0.61059 2.585,-1.28536 3.90891,-1.86195 1.58464,-0.65645 3.16545,-1.32988 4.70783,-2.08014 1.71241,-0.91431 3.3635,-1.95493 4.99825,-2.99963 2.27192,-1.68911 4.68357,-3.16956 6.91026,-4.92146 1.8373,-1.36093 3.58395,-2.83072 5.45869,-4.137 1.65336,-0.95629 3.32316,-1.88052 5.13398,-2.50874 1.65825,-0.78526 3.26114,-1.64373 4.76479,-2.70037 1.9522,-1.05151 3.93079,-2.04895 5.82346,-3.20859 7.7578,-4.30701 9.21607,-0.16031 -7.634,-9.2801 1.25039,-1.91943 0.83634,-1.04032 0.32052,-0.72685 -0.69662,0.42333 -1.48768,0.67936 -2.15786,1.15151 -1.69212,0.97266 -3.36666,1.97047 -4.97479,3.07991 -5.8187,5.45585 -2.67306,2.58369 10.07804,10.6333 0.0422,0.0266 0.0295,-0.0953 0.0443,-0.14288 1.43389,-1.34077 3.13584,-2.38158 4.7408,-3.50025 1.99885,-1.21234 3.90564,-2.57626 5.74535,-4.0177 1.20693,-0.99146 2.40922,-1.9939 3.74361,-2.81377 1.57956,-1.21736 3.22655,-2.33259 5.05344,-3.15505 7.64199,-3.24859 8.09065,0.44378 -8.03369,-8.70286 0.77242,-0.97109 1.00311,-1.01455 0.18549,-0.56561 -0.75396,0.41398 -1.49332,0.84544 -2.22188,1.30344 -1.48831,0.81616 -2.96097,1.67205 -4.26364,2.77032 -1.59496,1.26806 -2.8837,2.86686 -4.44649,4.17565 -1.479,1.27982 -2.78299,1.64825 -4.69746,2.05741 -2.14897,0.67051 -4.31907,1.26947 -6.39999,2.14128 -1.90893,0.68395 -3.83076,1.32598 -5.74066,2.00431 -1.83388,0.73468 -3.49527,1.68027 -4.77446,3.23114 -1.21814,1.48776 -2.46513,2.96973 -3.39349,4.66276 -0.10874,0.19697 -0.64155,1.19297 -0.82584,1.42213 -0.70874,0.88131 -1.93899,1.12536 -2.70266,1.95283 -1.17479,1.04308 -2.30078,2.1384 -3.45751,3.20074 -1.59925,1.42148 -3.18786,2.85427 -4.79627,4.26554 -2.06385,1.83039 -4.10575,3.70418 -6.46094,5.1615 -2.16164,1.36993 -4.23608,2.28808 -6.83773,2.19592 -1.77234,0.17968 -3.51051,0.55446 -5.28014,0.71152 -1.9225,-0.002 -3.84501,-0.004 -5.76751,-0.0107 -2.05176,-0.006 -4.10411,-0.0221 -6.15539,0.0314 -0.43294,0.0223 -1.34719,0.04 -1.78798,0.17059 -5.92548,1.75535 7.31035,8.9299 12.37759,9.31214 2.27049,0.34404 4.59875,0.23764 6.83419,0.82994 1.94871,0.60747 3.80477,1.46197 5.72496,2.15279 2.06058,0.5746 4.21597,0.83081 6.34953,0.93085 2.04752,0.0241 4.09513,0.0373 6.1427,0.006 2.13477,-0.0371 4.27098,-0.10236 6.3959,-0.32471 2.00593,-0.22368 3.99533,-0.66768 6.02145,-0.61235 2.18114,-0.002 4.3622,0.004 6.54327,0.0138 2.36229,-0.008 4.72587,-0.0207 7.08545,-0.14593 2.46751,-0.20207 4.92177,-0.53312 7.24273,-1.44795 2.607,-0.99114 5.08714,-2.21841 7.55324,-3.52014 2.18138,-1.15533 4.3865,-2.28026 6.4674,-3.61097 1.57611,-0.98908 3.21213,-1.8974 4.87642,-2.72802 2.09013,-1.0708 3.92516,-2.58376 5.74069,-4.06009 2.19843,-1.67618 4.36773,-3.39544 6.27048,-5.41101 1.41033,-1.60209 2.86048,-3.19523 4.45079,-4.61751 1.77247,-1.40438 3.37777,-2.96946 5.00242,-4.54229 1.83341,-1.66754 3.43141,-3.54832 4.62318,-5.73538 0.99228,-1.56354 2.09587,-2.78115 3.74947,-3.68551 1.85042,-1.17033 3.65585,-2.41815 5.45256,-3.66511 1.55085,-1.24653 3.07718,-2.52114 4.53715,-3.87382 1.32267,-1.18862 2.57974,-2.47097 4.19793,-3.26077 1.60979,-0.98567 3.21801,-1.96299 4.75953,-3.05486 1.71206,-1.22759 3.3688,-2.53546 4.9015,-3.98345 1.25172,-1.04126 2.74383,-1.73866 3.87298,-2.93456 1.33578,-1.18516 2.48073,-2.49991 3.35258,-4.06883 1.23215,-1.71798 2.12028,-3.64271 2.93914,-5.5859 0.94678,-1.8788 1.79646,-3.80398 2.75329,-5.6779 z" />
    <path
       style="display:inline;fill:#006400"
       id="path23"
       d="m 317.78015,147.1854 c 2.1301,-1.22242 4.27311,-2.44599 6.53818,-3.40556 1.55101,-0.90276 3.26715,-1.44302 4.70611,-2.52859 1.19104,-0.71978 2.14453,-1.93766 3.53304,-2.28095 -0.093,5.51619 0.15853,0.24067 -12.63406,-7.16565 -0.10684,-0.0619 -0.0649,0.24268 -0.13287,0.34574 -0.11641,0.17645 -0.27769,0.31885 -0.41281,0.48142 -0.79384,0.95509 -0.26462,0.40562 -1.12997,1.22591 -1.74189,1.3335 -3.31139,2.863 -4.87247,4.4078 -1.21137,1.61715 -2.9137,2.71658 -4.37366,4.07276 -1.17693,1.24368 -2.05951,2.7456 -3.00292,4.17451 -1.2178,1.68033 -2.42155,3.33766 -3.4646,5.13455 -0.97189,1.83387 -1.59582,3.81916 -2.56385,5.65474 -1.194,2.06523 -2.92212,3.72906 -4.44024,5.54506 -1.59263,2.25443 -3.28811,4.4271 -5.22769,6.39256 -1.77912,1.94923 -3.98201,3.45112 -5.74894,5.40066 -1.44049,1.46302 -2.89168,2.91544 -4.34238,4.36832 -1.80811,1.68575 -3.83663,3.03859 -5.85989,4.43554 -1.67676,1.07375 -3.55379,1.77948 -5.15859,2.95664 -1.70155,1.19971 -3.44112,2.34039 -5.1479,3.53135 -1.46932,1.3249 -3.27828,2.09646 -5.04969,2.91546 -1.72324,1.02105 -3.25041,2.3568 -4.8097,3.61589 -2.33073,1.53877 -4.7077,2.99385 -7.24387,4.17043 -2.08971,0.67786 -4.10521,1.59485 -6.25885,2.06021 -1.88672,0.68868 -3.85362,0.98626 -5.74656,1.65713 -2.71317,0.71186 -4.83675,2.63165 -7.20948,4.02259 -2.20863,1.00142 -4.68436,1.36718 -7.07066,1.73686 -1.35634,0.19224 -2.72374,0.26984 -4.09005,0.34656 0,0 11.97681,8.571 11.97681,8.571 v 0 c 1.38887,-0.12165 2.77826,-0.24634 4.15528,-0.47148 2.5416,-0.46093 5.19586,-0.80034 7.43185,-2.185 2.22111,-1.45689 4.33516,-3.1315 6.99536,-3.7154 1.92937,-0.51877 3.89465,-0.89534 5.79001,-1.54149 2.1445,-0.64655 4.21088,-1.54739 6.28198,-2.39119 2.58753,-1.29103 5.05862,-2.75763 7.4484,-4.3872 1.57976,-1.12045 3.01902,-2.44916 4.76533,-3.3045 1.78287,-0.9198 3.57063,-1.81602 5.09569,-3.14812 1.72895,-1.17684 3.48679,-2.31076 5.21459,-3.48999 1.65637,-1.06526 3.45778,-1.89409 5.08548,-3.01242 2.0662,-1.45973 4.14338,-2.91044 5.99459,-4.64625 1.49374,-1.45288 3.02458,-2.87371 4.41593,-4.42676 1.72845,-1.94023 3.85812,-3.48853 5.61901,-5.40457 1.95921,-2.00805 3.66075,-4.22096 5.34482,-6.46194 1.57519,-1.89974 3.38042,-3.62852 4.63095,-5.77933 0.98574,-1.81029 1.63406,-3.7598 2.5407,-5.60683 1.03792,-1.76977 2.22585,-3.39822 3.47197,-5.02734 0.89164,-1.32275 1.69499,-2.7415 2.83434,-3.86091 1.47677,-1.34278 3.02756,-2.61138 4.27659,-4.18373 1.59443,-1.53275 3.26564,-2.95806 4.97757,-4.35368 0.28598,-0.29227 2.5374,-2.68135 2.30541,-2.85937 -11.92795,-9.15317 -8.46719,-11.36022 -13.08421,-8.07505 -1.29135,0.75468 -2.46483,1.68129 -3.68148,2.54589 -1.42193,0.90001 -2.98486,1.53862 -4.44259,2.37704 -2.21387,1.08136 -4.33941,2.36062 -6.64096,3.25205 z" />
    <path
       style="fill:#006400"
       id="path24"
       d="m 259.8711,176.04994 c -5.69034,2.91422 -11.72833,5.18153 -17.69497,7.48207 -3.59774,2.06728 -7.81416,3.34142 -11.24394,5.6851 -0.17238,0.38653 -0.88268,0.9463 -0.51712,1.15958 4.45889,2.60142 9.08044,5.02719 13.96823,6.68812 0.67742,0.23019 1.10007,-0.91526 1.64053,-1.38408 0.95404,-0.82758 1.8714,-1.69769 2.84272,-2.50491 5.19166,-4.31455 5.55323,-4.40287 11.4671,-8.6612 6.71046,-4.57982 13.43584,-9.14914 20.33992,-13.43512 1.41435,-0.87802 2.84186,-1.7357 4.28896,-2.55862 0.47379,-0.26942 1.93123,-0.42598 1.46991,-0.71624 -4.38765,-2.76067 -9.23338,-4.71549 -13.85007,-7.07324 -7.16266,6.06499 -14.80963,11.50902 -22.57825,16.76117 -5.71706,3.86514 -3.47786,2.5685 -8.12128,4.96248 -0.31879,-0.032 -1.23925,-0.24651 -0.95639,-0.096 4.58075,2.43714 8.87581,5.72941 13.90967,6.98766 1.4237,0.35587 2.32887,-1.78788 3.53213,-2.62795 4.66604,-3.25767 9.5685,-6.15189 14.45498,-9.05958 2.04973,-1.23197 5.12793,-3.03019 7.18443,-4.43771 5.59766,-3.8312 0.22114,-4.44157 -11.59928,-9.38009 -0.98616,-0.41202 -1.769,1.20102 -2.67779,1.76347 -1.26035,0.78004 -2.55185,1.50856 -3.82777,2.26284 -3.87165,1.92558 -7.41766,4.58006 -11.42138,6.25364 -0.53331,0.22293 -2.16127,0.0968 -1.68234,0.42047 12.69217,8.57729 9.40537,10.22544 15.10275,5.3377 7.09009,-5.43568 14.68549,-10.17865 22.59165,-14.32698 3.20079,-1.74705 6.50267,-3.33131 9.61238,-5.23699 1.79184,-1.33962 3.84849,-2.26728 5.86951,-3.20591 1.52414,-0.40717 2.91173,-1.79403 4.56505,-1.58206 -4.27777,-2.45587 -8.50966,-4.99343 -12.83331,-7.3676 -0.032,-0.0176 -0.96203,0.91721 -1.23246,1.13761 -1.62879,1.32748 -3.3921,2.53697 -5.06654,3.80784 -4.10499,3.44792 -8.70287,6.20296 -13.15272,9.16089 -5.03013,3.00597 -10.25089,5.67211 -15.21438,8.79026 -4.98865,2.95796 -9.75332,6.26294 -14.7054,9.28563 -4.38749,2.70639 -9.01628,4.96948 -13.62698,7.25973 -3.82858,1.66957 -7.65954,3.34043 -11.51796,4.94478 -1.09924,0.51791 -6.48455,2.76554 -6.9782,3.66639 -0.24248,0.44252 -0.17052,0.99468 -0.25579,1.49202 4.73879,2.33048 9.28153,5.11135 14.21635,6.99144 0.70164,0.26731 1.42143,-0.48661 2.11731,-0.76856 1.05076,-0.42573 2.0844,-0.89273 3.12026,-1.35351 3.7064,-1.64873 7.37918,-3.37488 11.07169,-5.05443 4.86555,-2.35707 9.70192,-4.70543 14.89818,-6.2277 0.20999,-0.0492 2.92122,-0.76264 3.40124,-0.62149 0.23885,0.0702 0.50243,0.81638 0.28858,0.68889 -4.27789,-2.55036 -8.25268,-5.6001 -12.60068,-8.02902 -0.26871,-0.15011 -0.45733,0.41369 -0.70549,0.59579 -0.3567,0.26173 -0.73743,0.48903 -1.10615,0.73355 -2.92221,1.43783 -5.80655,2.95966 -8.65061,4.54675 -2.93381,1.78811 -6.03097,3.17137 -9.26853,4.29363 -3.37476,1.4834 -7.01991,1.99997 -10.56534,2.86448 -2.54615,0.3882 -4.79942,1.65633 -7.12482,2.67927 -8.10473,3.01386 0.30457,5.28365 10.14225,10.27731 0.62672,0.31813 1.34422,-0.41112 2.01634,-0.61668 6.09717,-2.01661 11.81431,-4.97912 17.58414,-7.75948 3.28149,-1.85747 6.97154,-2.77517 10.2504,-4.62092 2.97295,-5.59789 1.36153,-1.65487 -13.00783,-8.304 -0.35842,-0.16586 -0.75276,0.23928 -1.1304,0.35486 -1.97226,0.6036 -3.88208,1.22969 -5.80338,1.98663 -4.38787,1.63908 -8.65039,3.61937 -12.92274,5.54228 -3.40931,1.22375 -6.55129,3.03655 -9.79749,4.60974 -9.35585,3.70227 -1.78942,4.25035 8.94429,10.88369 4.92252,-1.90638 9.75555,-4.05152 14.55169,-6.25907 4.36145,-2.06766 8.8614,-3.82438 13.26107,-5.80266 0.1942,-0.0299 0.47108,-0.25148 0.58259,-0.0897 0.11489,0.16669 -0.0973,0.65152 -0.26915,0.54445 -4.31882,-2.69124 -8.27504,-5.94246 -12.62665,-8.58035 -0.24975,-0.15139 -0.47422,0.34384 -0.73087,0.48321 -0.68663,0.37289 -1.36619,0.58321 -2.09994,0.84734 -2.86685,1.28547 -5.61555,2.82287 -8.49182,4.08466 -3.17562,1.64875 -6.5015,2.98521 -9.72355,4.53982 -6.79957,3.1396 -14.02146,1.34333 9.88577,9.15694 1.32795,0.43401 2.57139,-1.09326 3.85709,-1.63989 11.17493,-4.13641 22.07882,-8.93232 32.8971,-13.91386 4.50946,-2.03386 3.13259,-1.44438 7.27124,-3.20343 0.52951,-0.22506 3.04134,-1.16642 3.74826,-1.78184 0.24276,-0.21133 0.75918,-0.64607 0.49457,-0.82931 -4.25498,-2.94653 -8.8592,-5.3537 -13.2888,-8.03054 -4.06788,1.31577 -7.8891,3.24394 -11.69722,5.16127 -4.40238,2.18248 -8.61121,4.74687 -12.73912,7.40855 -2.78532,1.90493 -5.94458,2.98919 -9.04644,4.23675 -3.23053,1.27278 -6.53289,2.23631 -9.95203,2.82911 -3.14033,0.29331 -6.24462,0.85008 -9.37607,1.21786 -6.53362,0.71732 0.83654,2.25281 11.39849,8.46541 0.0565,0.0332 3.05171,-1.12819 3.9007,-1.4245 4.00542,-1.16153 7.92052,-2.60119 11.87345,-3.9226 0.0989,-0.13299 3.79725,-0.99287 3.94546,-1.15954 0.35463,-0.39878 1.16428,-1.16114 0.70708,-1.43638 -12.65484,-7.61831 -9.47183,-8.46038 -15.55705,-6.09496 -3.75664,1.57684 -7.57831,2.98907 -11.33125,4.57349 -3.06128,1.20191 -6.09815,2.47688 -9.26472,3.37857 -2.13883,0.49501 -4.10591,0.66098 -4.107,3.2569 13.31282,8.3715 9.74635,7.83092 19.66435,8.00592 4.10666,-0.58181 7.4369,-3.2677 10.9446,-5.28688 3.25878,-1.96869 6.61386,-3.76593 10.01384,-5.47679 3.06566,-1.60844 6.24959,-2.97056 9.47844,-4.21021 2.43989,-0.95757 4.55199,-2.52755 6.75815,-3.90438 1.84555,-1.41008 3.84824,-2.58301 5.75198,-3.90801 2.41805,-1.61878 4.83758,-3.23924 7.11167,-5.05818 0,0 -12.46741,-7.83674 -12.46741,-7.83674 v 0 c -2.24886,1.77527 -4.58695,3.45493 -7.03504,4.94367 -1.97494,1.2066 -3.89033,2.49598 -5.73972,3.88903 -2.12889,1.35606 -4.2522,2.75993 -6.60973,3.69365 -3.17746,1.37363 -6.31401,2.84016 -9.40952,4.39078 -3.41544,1.70292 -6.7453,3.54394 -9.94233,5.63466 -3.32185,1.96831 -6.72008,4.34843 -10.70604,4.47499 -1.44202,-0.0447 -2.90754,-0.0581 -4.3382,-0.26837 -4.85519,-0.71365 -14.35883,-8.93535 10.33823,6.75477 -2.36058,1.19746 1.93146,-1.09771 2.44019,-0.81689 3.12333,-1.05035 6.17449,-2.29857 9.20484,-3.59059 3.75128,-1.57481 7.53164,-3.09951 11.38034,-4.41912 6.25701,-1.86707 0.0702,0.38994 -10.55999,-7.7722 -0.41229,-0.31657 0.73295,-0.77716 0.91137,-1.26538 0.0712,-0.1947 -0.36301,0.20154 -0.55293,0.2846 -1.14232,0.49955 -1.76739,0.67598 -3.02306,1.10354 -3.94652,1.39985 -7.93899,2.63994 -11.9448,3.85799 -2.82858,0.90441 -0.69023,0.24331 -3.32272,1.00315 -0.33545,0.0968 -1.27616,0.0824 -1.00343,0.30045 12.23268,9.77823 7.29218,9.36295 13.13765,8.34766 3.08502,-0.47043 6.16546,-0.96262 9.25566,-1.39355 3.48576,-0.69877 6.92011,-1.67144 10.22103,-2.99973 3.14783,-1.28736 6.29643,-2.54723 9.06424,-4.57046 4.00622,-2.70689 8.15192,-5.21951 12.49183,-7.35821 3.67069,-1.79422 7.57656,-3.94585 11.72333,-4.16747 -3.97576,-2.63747 -7.99035,-5.21731 -11.92728,-7.9124 -0.0919,-0.0629 0.40285,-0.11144 0.33329,-0.0244 -0.6325,0.79103 -2.46981,1.60328 -3.09993,1.92966 -2.27767,1.17977 -4.59398,2.28413 -6.85411,3.49826 -10.6657,5.33025 -21.58787,10.19824 -33.02387,13.64895 -1.45348,0.41607 -5.10125,-0.0697 -4.36045,1.24821 6.14735,10.93645 7.9988,10.1226 14.30748,7.0481 3.1941,-1.57126 6.45672,-2.9892 9.66834,-4.52283 2.84905,-1.3129 5.63198,-2.77539 8.55105,-3.93226 1.43211,-0.55754 0.96386,-0.34973 2.31988,-0.97486 0.26115,-0.1204 0.99842,-0.18 0.78047,-0.36759 -24.02385,-20.67769 -7.48695,-11.56975 -12.49504,-8.19308 -4.09095,2.28699 -8.51616,3.96778 -12.6766,6.12243 -3.15625,1.40509 -6.31066,2.77371 -9.57683,3.90894 -0.83818,0.29132 -3.06436,1.03842 -4.13053,1.17716 -0.35436,0.0461 -0.71433,-0.0231 -1.07149,-0.0347 14.5758,9.63529 7.59613,9.69988 15.2506,6.15412 3.16156,-1.64929 6.29279,-3.36163 9.62709,-4.654 4.21489,-1.94095 8.40595,-3.97907 12.79949,-5.48788 1.9736,-0.65723 3.9223,-1.27086 5.97463,-1.63632 0.40875,-0.0728 1.58005,0.0645 1.23447,-0.16564 -12.37847,-8.2427 -15.32264,-3.32181 -11.80828,-8.34744 -2.61699,2.22082 -6.74031,2.83056 -9.55726,4.82628 -5.67399,2.79999 -11.27437,6.04208 -17.56004,7.24671 -0.67645,-0.002 -2.54934,-0.43956 -2.02936,-0.007 12.65759,10.53254 7.58056,9.59006 14.04848,6.86964 2.23124,-1.03362 4.4628,-2.08611 6.91177,-2.4928 3.5409,-0.85717 7.06596,-1.7667 10.47282,-3.0812 1.22992,-0.40329 2.57471,-0.80477 3.76357,-1.33728 1.981,-0.88732 3.7856,-2.16375 5.73221,-3.11905 2.90158,-1.58576 5.87343,-3.03896 8.79494,-4.58777 1.26752,-0.82706 2.43719,-1.56258 2.32096,-1.66659 -10.81268,-9.6762 -8.1413,-9.97724 -15.95004,-7.81026 -5.12494,1.60141 -9.70753,4.39957 -14.53563,6.70412 -3.67666,1.69868 -7.33562,3.50375 -11.15247,4.87522 -1.09914,0.39494 -2.2141,0.75041 -3.34382,1.04677 -0.72163,0.1893 -2.77971,-0.0627 -2.20068,0.4077 3.54137,2.87726 7.74404,4.828 11.61606,7.242 -0.35109,0.24437 -0.66475,0.55414 -1.05327,0.73312 -0.28005,0.12901 0.46437,-0.40849 0.72067,-0.5799 1.81272,-1.21232 3.85486,-2.01742 5.8163,-2.94351 3.83014,-1.65853 7.72108,-3.19711 11.43181,-5.11446 4.61212,-2.35347 9.32197,-4.52516 13.65129,-7.39413 4.89689,-3.07326 9.67346,-6.33332 14.61041,-9.3403 5.04591,-3.02196 10.27859,-5.72658 15.31199,-8.77439 4.5367,-2.90438 9.07324,-5.81435 13.30428,-9.16004 0.17092,-0.12194 3.40091,-2.42748 3.694,-2.63227 0.94323,-0.65907 2.07207,-1.33618 2.90196,-2.16475 0.38362,-0.38301 1.46997,-0.91987 1.04013,-1.25017 -3.9982,-3.07238 -8.61025,-5.25016 -12.91537,-7.87524 -1.59457,0.61488 -3.13406,1.32173 -4.67435,2.06434 -2.03196,1.02273 -4.12311,1.96156 -5.94633,3.34337 -2.98405,1.89035 -6.00722,3.71915 -9.04018,5.53148 -7.68548,4.63582 -15.06808,9.73114 -22.70343,14.44697 -6.84258,4.30296 -5.45697,2.13072 9.0359,10.38093 0.45602,0.25959 0.881,-0.57032 1.32585,-0.84862 1.99397,-1.24747 4.7413,-2.94428 6.7201,-4.05065 1.45499,-0.81349 2.9439,-1.56479 4.41584,-2.34719 1.3849,-0.65181 2.72872,-1.39921 4.1547,-1.95544 0.90221,-0.35192 3.48139,-0.0667 2.80432,-0.75906 -3.29836,-3.37303 -7.45823,-5.83076 -11.54795,-8.1825 -0.38641,-0.22221 -0.37234,0.83616 -0.69779,1.14075 -1.44207,1.3496 -5.23716,3.73553 -6.65743,4.67422 -4.86698,3.0231 -9.70712,6.11217 -14.69831,8.92901 -1.38468,0.78146 -4.98645,0.86559 -4.20557,2.25059 7.38519,13.09871 7.66087,12.39272 11.23204,8.57422 4.17896,-3.66623 8.65097,-6.879 13.19652,-10.07894 4.44426,-3.12863 8.56934,-6.03398 13.23383,-8.81677 1.48876,-0.88818 3.05258,-1.64404 4.57887,-2.46606 -3.64168,-2.88805 -7.05468,-6.09064 -10.92504,-8.66416 -0.32881,-0.21864 -0.18212,0.81676 -0.46947,1.0876 -1.15121,1.08506 -2.48748,1.95596 -3.75869,2.89759 -6.49489,4.81095 -13.23923,9.27006 -20.04661,13.62321 -4.19443,2.68348 -8.41164,5.3315 -12.58966,8.04043 -1.09132,0.70759 -2.143,1.47598 -3.24522,2.16647 -0.5701,0.35713 -2.29126,0.55147 -1.76767,0.97386 11.25048,9.07587 15.5541,3.83055 11.45889,8.29913 1.0873,-0.93136 2.36808,-1.53133 3.62466,-2.20795 2.26644,-1.2204 4.54818,-2.41053 6.87942,-3.50414 5.99525,-2.53208 11.97582,-5.13969 18.21779,-7.02089 z" />
    <path
       style="fill:#006400"
       id="path25"
       d="m 151.72119,206.71636 c -2.04778,-0.0818 -3.75496,0.77234 -5.49846,1.7037 -0.51865,0.2251 -3.07661,2.60212 -3.50744,2.37915 -0.11063,-0.0573 0.0117,-0.24887 0.0176,-0.3733 24.66076,15.45768 8.56303,10.66049 13.72799,6.50334 0.44836,-0.36087 0.95473,-0.64305 1.4314,-0.96561 1.74914,-0.66513 3.22998,-1.82453 4.92312,-2.59612 1.58726,-0.58256 3.16941,-1.3148 4.58106,-2.25307 1.24222,-0.81962 2.44073,-1.68628 3.72453,-2.44684 1.6272,-0.72195 3.32002,-1.23088 4.98218,-1.86289 0.38413,-0.0987 3.32181,-1.03415 3.41351,-0.90735 0.0927,0.12817 -0.0484,0.31262 -0.0726,0.46893 -11.99605,-7.86491 -9.34668,-11.07335 -15.81525,-5.95505 -1.4437,0.92931 -2.93198,1.77582 -4.30743,2.81311 -1.44285,1.14575 -3.01931,2.21917 -4.7177,2.95203 -1.24152,0.81562 -2.57012,1.50062 -3.77944,2.35615 -1.57191,0.95187 -3.14451,1.90156 -4.63688,2.97858 -1.91872,1.1092 -3.5287,2.56194 -4.87676,4.30923 -0.68517,0.78744 -1.07147,1.77543 -1.73921,2.57456 -3.55485,4.25434 -18.37786,-9.74971 12.26002,8.16452 0.6368,-1.19161 1.66449,-2.06941 2.10286,-3.35417 -0.0656,-11.86475 -10.29098,-10.02262 -16.03241,-7.88101 -0.68792,0.0746 -0.47152,0.2257 -0.75232,-0.24695 4.2399,2.52728 8.45676,5.09362 12.7197,7.58185 0.0553,0.0323 -0.0638,-0.12366 -0.0487,-0.18593 0.0475,-0.19606 0.47923,-0.68434 0.538,-0.75777 1.58911,-1.25107 2.50955,-1.11837 2.93676,-3.30803 -8.84426,-5.99454 -10.118,-9.97958 -16.38867,-6.1699 -0.50178,0.22585 -0.40649,0.35321 -0.477,-0.0142 4.29657,2.69975 8.50867,5.53886 12.88972,8.09924 0.0412,0.0241 1.77789,-0.84137 1.88115,-0.90082 1.29669,-0.80752 2.47905,-1.53134 3.99653,-1.83597 1.67366,-0.44938 3.26216,-1.12038 4.91625,-1.62543 7.07952,-2.47697 -6.98727,-12.43382 -11.76758,-8.4512 -1.04186,1.09918 -2.33655,1.94015 -3.55531,2.84369 -1.54328,1.12606 -2.93737,2.42915 -4.43804,3.6047 -0.58515,0.34748 -2.50661,2.91353 -3.15134,2.20544 16.70139,10.02598 9.46675,10.02523 16.35365,2.93209 1.06091,-1.43833 2.6625,-2.25459 3.98563,-3.39876 0.76461,-0.53951 0.37443,-0.22288 1.09363,-0.91188 0.11824,-0.11327 0.21007,-0.2641 0.35589,-0.33858 0.0415,-0.0212 0.11031,0.14506 0.0705,0.1208 -13.35462,-8.13449 -8.65715,-10.64233 -13.78774,-7.57673 -1.98234,0.94066 -3.88513,2.03952 -5.94634,2.80393 -1.3175,0.68608 -2.97639,-0.2919 -4.13051,0.73105 -0.14568,0.42801 -0.39789,0.83361 -0.43703,1.28403 -0.0169,0.19494 0.11168,0.41692 0.28065,0.5156 10.62414,6.20483 9.24336,7.23216 16.28028,7.72698 2.22394,-0.13903 4.13177,-1.39704 6.01352,-2.47581 1.74808,-1.31733 3.55035,-2.52296 5.4263,-3.6454 1.79917,-1.07889 3.18569,-2.67145 4.8841,-3.88372 0,0 -12.53197,-7.92382 -12.53197,-7.92382 v 0 c -1.59705,1.259 -3.00399,2.76142 -4.79778,3.75463 -1.86793,1.12289 -3.54406,2.50871 -5.41663,3.6256 -1.68677,0.98941 -3.44868,1.96796 -5.47412,1.71908 -0.64232,-0.0863 -1.31603,-0.15362 -1.94435,-0.32634 -0.26378,-0.0725 -1.00768,-0.41744 -0.77199,-0.27855 4.08294,2.40601 8.21684,4.72447 12.32526,7.0867 -0.15393,0.0273 -0.34232,-0.0189 -0.4618,0.0819 -0.29362,0.24776 -0.47376,0.60492 -0.71064,0.90737 -0.0863,0.22308 0.86601,0.0451 0.95539,0.0377 0.97712,-0.0805 1.9031,-0.31579 2.80591,-0.70624 2.05483,-0.89496 4.02729,-1.96516 6.07651,-2.8739 5.26872,-2.24608 1.44534,-0.35515 -11.26149,-8.80273 -0.10819,-0.0719 -0.16575,0.20011 -0.24852,0.30025 -0.3702,0.44787 -0.81512,0.8063 -1.28427,1.1498 -1.39778,1.12702 -2.88528,2.16167 -3.96205,3.62937 -1.17302,1.31092 -2.31029,2.66381 -3.34028,4.09082 -3.58436,4.96594 -0.0371,1.29486 11.89969,9.27838 1.23202,-0.87976 2.29276,-1.95072 3.42138,-2.95601 1.45359,-1.21798 2.89985,-2.43837 4.44234,-3.54572 1.21239,-0.942 2.52935,-1.73789 3.63343,-2.81279 4.50296,-3.27226 0.38342,-0.0565 -12.11996,-8.35931 -0.0791,-0.0525 0.27231,-0.23068 0.17773,-0.22253 -0.24766,0.0213 -0.94922,0.97862 -1.25317,0.70754 -1.60473,0.57884 -3.2151,1.12268 -4.86975,1.54733 -1.51555,0.49405 -2.7976,1.34299 -4.18688,2.10099 -0.46269,0.21251 -0.93498,0.40472 -1.39063,0.63192 -0.21647,0.10794 -0.82405,0.20271 -0.63422,0.35263 21.0081,16.5913 7.73245,11.17771 12.66124,8.16718 0.57139,-0.24554 1.1967,-0.57191 1.81085,-0.69045 0.2741,-0.0529 1.06054,0.30644 0.82164,0.16203 -4.15118,-2.50947 -8.3294,-4.97393 -12.49411,-7.4609 1.86583,-1.54459 -1.71678,1.54019 -1.9505,1.6341 -0.0981,0.11799 -1.4648,1.77656 -1.19769,1.96352 14.82389,10.37612 8.04594,9.68392 13.84443,7.66816 0.54079,-0.15512 0.79009,-0.28111 1.33861,-0.25756 0.8087,0.0347 0.89496,0.40754 0.86547,0.38978 -12.46438,-7.50853 -16.8528,-6.32282 -11.75906,-7.56504 0.0529,0.0451 0.17741,0.0685 0.15865,0.13539 -0.25958,0.92581 -1.49462,1.57875 -1.89305,2.46383 14.41049,9.19261 10.04498,11.50597 15.10764,4.55172 1.27935,-1.62647 2.87737,-2.85179 4.62923,-3.94282 1.52765,-1.03434 3.16116,-1.88903 4.71762,-2.87818 1.21662,-0.73574 2.37696,-1.55579 3.63455,-2.22312 1.69398,-0.91945 3.30086,-2.00503 4.83588,-3.16872 1.43215,-0.96738 2.93376,-1.83279 4.32423,-2.86008 6.66335,-4.92129 7.05084,-1.63687 -8.56053,-11.28239 -1.13291,0.80142 -2.5815,0.93272 -3.84024,1.47736 -1.73259,0.67958 -3.5653,1.13134 -5.18732,2.06597 -1.23911,0.81151 -2.45458,1.65147 -3.69252,2.46149 -1.4429,0.82048 -2.96362,1.49298 -4.48563,2.15205 -1.68115,0.90713 -3.31682,1.89614 -5.01411,2.77183 -7.5167,5.10219 -0.68897,5.10149 9.48866,11.34718 1.159,-1.02538 2.42418,-1.98059 3.75329,-2.76585 1.63898,-0.8366 3.3205,-1.24473 5.17932,-1.05254 z" />
    <circle
       id="path27"
       style="display:inline;fill:#006400;stroke:#000000"
       cx="74.454147"
       cy="58.432369"
       r="0.47446087" />
    <path
       style="fill:#ffffff;stroke-width:1.64888"
       d="m 144.01675,164.32036 c -4.90176,-3.34592 -8.50236,-10.97431 -5.17988,-10.97431 0.83729,0 5.60475,-1.93129 10.59435,-4.29175 6.10998,-2.89048 9.60961,-5.7057 10.71851,-8.62234 1.10144,-2.897 1.09655,-4.5139 -0.0148,-4.88434 -1.49128,-0.49709 1.74452,-8.52875 12.84885,-31.89249 6.87507,-14.465291 23.60033,-29.878902 35.5998,-32.807943 2.72065,-0.664106 10.88262,-2.942376 18.1377,-5.062822 11.44534,-3.345135 16.6825,-3.848521 39.57318,-3.803697 23.87232,0.04675 27.04253,0.395123 33.32417,3.662024 3.81813,1.9857 8.11497,3.610363 9.54851,3.610363 4.12824,0 23.77965,6.704324 24.88267,8.489028 0.54888,0.888106 -1.98017,4.349872 -5.62013,7.692811 -3.63996,3.342939 -9.2265,10.228422 -12.41455,15.301076 -13.08945,20.8272 -34.75574,38.64422 -67.24978,55.30208 -11.68468,5.99008 -12.90673,6.25471 -31.858,6.89866 -19.56545,0.66482 -32.62771,-0.98797 -43.0792,-5.45089 -4.51591,-1.92835 -5.78854,-1.7761 -11.54217,1.38088 -3.55665,1.95151 -7.43621,4.8467 -8.62124,6.43375 -2.63257,3.52567 -3.11958,3.4762 -9.64802,-0.98009 z m 35.71142,-14.06783 c 0,-0.79455 5.17042,-4.16162 11.48982,-7.48237 6.3194,-3.32075 13.55387,-7.76025 16.0766,-9.86555 2.52273,-2.1053 6.97675,-5.05314 9.89783,-6.55074 2.92107,-1.49761 6.76532,-4.28391 8.54277,-6.19178 3.04,-3.26306 18.48688,-11.78179 45.90329,-25.31501 21.34105,-10.534312 32.23789,-17.527132 30.31257,-19.452453 -1.24678,-1.246776 -5.49727,-0.03731 -14.58584,4.150362 -7.05447,3.250438 -14.68131,6.443164 -16.94852,7.094947 -6.16705,1.772917 -27.38848,12.905696 -39.84444,20.902434 -6.04395,3.88022 -18.2869,11.63876 -27.20656,17.24119 -28.70513,18.02969 -29.36259,18.56089 -26.00838,21.01355 2.77267,2.02742 2.76072,2.22351 -0.24168,3.96632 -2.83721,1.64692 -2.86498,1.83856 -0.27301,1.8836 1.58705,0.0276 2.88555,-0.59995 2.88555,-1.3945 z m 68.52568,-7.71518 c 3.01796,-2.41788 2.96535,-2.4522 -0.92151,-0.60109 -5.04728,2.40376 -5.9827,3.16538 -3.88773,3.16538 0.8847,0 3.04886,-1.15393 4.80924,-2.56429 z M 221.16412,82.790227 c -0.90157,-0.300524 -4.01398,0.681626 -6.91645,2.182556 -4.27943,2.21298 -5.53068,2.318886 -6.61766,0.56012 -0.73723,-1.192864 -1.82661,-1.682648 -2.42085,-1.088409 -0.59424,0.594239 -0.0851,2.145905 1.13133,3.448144 1.91503,2.050044 3.16778,1.903248 9.33732,-1.094147 3.91904,-1.90402 6.38789,-3.707739 5.48631,-4.008264 z"
       id="path2"
       transform="translate(-0.4188824,57.457908)" />
    <path
       style="fill:#ffffff;stroke-width:1.64888"
       d=""
       id="path4"
       transform="translate(-0.4188824,57.457908)" />
    <path
       style="fill:#ffffff;stroke-width:1.64888"
       d="m 182.20149,50.018519 c -6.05102,-3.197203 -10.71773,-7.163889 -10.71773,-9.110032 0,-0.798237 1.52068,-0.637493 3.3793,0.357211 1.85862,0.994701 5.38311,1.577305 7.83219,1.294674 3.45247,-0.398423 4.56838,-1.514772 4.96697,-4.968907 0.44686,-3.872486 -0.55038,-4.994436 -7.62643,-8.58014 -8.3097,-4.210843 -10.20092,-6.657041 -10.20092,-13.194378 0,-5.115216 6.61705,-10.8703002 12.4984,-10.8703002 6.1855,0 19.47869,7.0229302 20.21377,10.6791412 0.52268,2.5998 0.28137,2.598353 -3.71824,-0.02229 -3.42098,-2.241512 -4.76373,-2.398747 -6.70762,-0.785459 -3.71022,3.079209 -0.39077,7.608343 9.10166,12.418524 7.11765,3.606785 8.18521,4.803441 8.18521,9.175027 0,7.157509 -2.7266,11.335625 -9.14862,14.018914 -7.11673,2.973563 -11.85506,2.865461 -18.05794,-0.411981 z"
       id="path34"
       transform="translate(-0.4188824,57.457908)" />
    <path
       style="fill:#ffffff;stroke-width:1.64888"
       d="m 137.24011,50.81731 c -6.02047,-3.028443 -10.91036,-12.501976 -10.91036,-21.137429 0,-21.4157421 24.82862,-32.5438599 35.19326,-15.77352 9.91648,16.045196 2.21762,35.820246 -14.81115,38.043498 -3.15284,0.411631 -7.41512,-0.09802 -9.47175,-1.132549 z m 20.05975,-28.245088 c 1.49667,-2.458762 0.98532,-3.708638 -2.89854,-7.084691 -5.65099,-4.912127 -8.29076,-4.431343 -9.00661,1.640383 -1.00277,8.505469 7.6368,12.456411 11.90515,5.444308 z"
       id="path35"
       transform="translate(-0.4188824,57.457908)" />
    <path
       style="display:inline;fill:#ffffff;stroke-width:1.64888"
       d="M 91.512966,29.614897 V 8.2444113 l 4.122205,-0.022515 c 2.267213,-0.012383 5.863809,-0.4887788 7.992429,-1.0586569 3.50893,-0.9394131 3.68153,-0.733981 1.84888,2.2005544 -1.59626,2.5560152 -1.59414,6.2462722 0.0101,17.5474802 1.11728,7.870929 2.39679,14.310783 2.84336,14.310783 2.63468,0 10.40638,-6.063617 10.49413,-8.187703 0.16924,-4.096793 2.60451,3.221286 3.54772,10.661026 l 0.83618,6.595529 -15.84748,0.347236 -15.847494,0.347235 z"
       id="path36"
       transform="translate(-0.4188824,57.457908)" />
    <path
       style="fill:#ffffff;stroke-width:1.64888"
       d="M 57.710879,51.11535 C 50.002355,50.546375 44.808375,49.931253 46.168703,49.74841 52.747056,48.86421 53.058924,47.496604 50.969618,28.695346 49.870841,18.80766 48.206972,10.220028 47.272131,9.6117204 45.32139,8.3423574 51.847885,7.1677524 68.627901,5.768219 79.865756,4.8309283 80.412891,4.9514337 81.384223,8.5777709 c 0.558173,2.0838651 1.025453,4.1598441 1.0384,4.6132871 0.01295,0.453443 -3.686905,0.567329 -8.221896,0.253081 -6.08748,-0.421826 -8.25133,0.0097 -8.267952,1.648883 -0.01238,1.221133 -0.462295,3.860572 -0.999805,5.865419 -0.918346,3.425326 -0.65009,3.551338 4.447733,2.089302 6.349663,-1.82106 5.786306,-2.171631 7.212546,4.488296 l 1.129897,5.276128 -5.460821,-1.566143 c -3.003453,-0.86138 -5.617597,-1.566143 -5.809212,-1.566143 -0.687888,0 -2.529069,11.709067 -1.932413,12.289259 0.335582,0.326324 3.993123,1.096751 8.12787,1.712061 6.799419,1.011852 7.694651,0.750881 9.369475,-2.731302 l 1.851756,-3.850048 0.08908,4.122206 c 0.04899,2.267213 -0.358326,5.791699 -0.905156,7.83219 -1.088257,4.060821 0.26189,3.951016 -25.342849,2.061103 z"
       id="path37"
       transform="translate(-0.4188824,57.457908)" />
    <path
       style="fill:#ffffff;stroke-width:1.64888"
       d="M 9.6974318,49.78007 C 12.979312,47.474282 9.1162656,10.023707 5.2854441,7.0077496 3.845555,5.8741431 3.3657794,4.952252 4.219276,4.9591028 c 4.6185337,0.037071 23.6324,3.6245304 27.599466,5.2073552 12.977959,5.178091 12.503207,30.10765 -0.703419,36.937061 C 25.452475,50.031891 5.8528225,52.481222 9.6974318,49.78007 Z M 21.809324,33.389866 c 4.247093,-4.836586 4.864369,-9.715333 2.070904,-16.367788 -3.346682,-7.9699028 -5.074891,-5.420796 -6.066319,8.947818 -0.751175,10.886659 -0.104054,12.08844 3.995415,7.41997 z"
       id="path38"
       transform="translate(-0.4188824,57.457908)" />
  </g>
</svg>
