<?xml version="1.0" encoding="UTF-8" standalone="no"?>
<svg
   viewBox="0 0 512 512"
   version="1.1"
   id="svg1"
   sodipodi:docname="earth-africa.svg"
   inkscape:version="1.3.2 (091e20e, 2023-11-25, custom)"
   xmlns:inkscape="http://www.inkscape.org/namespaces/inkscape"
   xmlns:sodipodi="http://sodipodi.sourceforge.net/DTD/sodipodi-0.dtd"
   xmlns="http://www.w3.org/2000/svg"
   xmlns:svg="http://www.w3.org/2000/svg">
  <defs
     id="defs1" />
  <sodipodi:namedview
     id="namedview1"
     pagecolor="#505050"
     bordercolor="#eeeeee"
     borderopacity="1"
     inkscape:showpageshadow="0"
     inkscape:pageopacity="0"
     inkscape:pagecheckerboard="0"
     inkscape:deskcolor="#505050"
     inkscape:zoom="0.99414062"
     inkscape:cx="256"
     inkscape:cy="256"
     inkscape:window-width="1366"
     inkscape:window-height="705"
     inkscape:window-x="-8"
     inkscape:window-y="-8"
     inkscape:window-maximized="1"
     inkscape:current-layer="svg1" />
  <!--! Font Awesome Free 6.5.1 by @fontawesome - https://fontawesome.com License - https://fontawesome.com/license/free (Icons: CC BY 4.0, Fonts: SIL OFL 1.1, Code: MIT License) Copyright 2023 Fonticons, Inc. -->
  <path
     d="M177.8 63.2l10 17.4c2.8 4.8 4.2 10.3 4.2 15.9v41.4c0 3.9 1.6 7.7 4.3 10.4c6.2 6.2 16.5 5.7 22-1.2l13.6-17c4.7-5.9 12.9-7.7 19.6-4.3l15.2 7.6c3.4 1.7 7.2 2.6 11 2.6c6.5 0 12.8-2.6 17.4-7.2l3.9-3.9c2.9-2.9 7.3-3.6 11-1.8l29.2 14.6c7.8 3.9 12.6 11.8 12.6 20.5c0 10.5-7.1 19.6-17.3 22.2l-35.4 8.8c-7.4 1.8-15.1 1.5-22.4-.9l-32-10.7c-3.3-1.1-6.7-1.7-10.2-1.7c-7 0-13.8 2.3-19.4 6.5L176 212c-10.1 7.6-16 19.4-16 32v28c0 26.5 21.5 48 48 48h32c8.8 0 16 7.2 16 16v48c0 17.7 14.3 32 32 32c10.1 0 19.6-4.7 25.6-12.8l25.6-34.1c8.3-11.1 12.8-24.6 12.8-38.4V318.6c0-3.9 2.6-7.3 6.4-8.2l5.3-1.3c11.9-3 20.3-13.7 20.3-26c0-7.1-2.8-13.9-7.8-18.9l-33.5-33.5c-3.7-3.7-3.7-9.7 0-13.4c5.7-5.7 14.1-7.7 21.8-5.1l14.1 4.7c12.3 4.1 25.7-1.5 31.5-13c3.5-7 11.2-10.8 18.9-9.2l27.4 5.5C432 112.4 351.5 48 256 48c-27.7 0-54 5.4-78.2 15.2zM0 256a256 256 0 1 1 512 0A256 256 0 1 1 0 256z"
     id="path1" />
  <path
     style="fill:#ffffff;stroke-width:1.00589"
     d="M 240.22419,510.87163 C 217.42721,509.63267 190.34174,504.09946 169.25086,496.37267 154.22391,490.86745 128.54718,477.87703 115.6778,469.26889 55.914603,429.29418 15.779129,367.859 4.0492624,298.39966 -0.16015873,273.47322 -0.16732643,238.56923 4.0318696,213.70334 23.792326,96.690191 123.17644,7.521359 240.91159,1.17151 c 46.38192,-2.5015313 87.48581,5.8528461 128.17663,26.051933 40.9875,20.346365 75.8564,51.252005 100.93239,89.460247 8.10376,12.34769 21.18668,38.46967 26.42432,52.76007 8.01189,21.85973 13.26893,48.2333 14.40693,72.27699 1.31008,27.67925 -1.01703,52.22797 -7.32529,77.2747 -4.53746,18.01584 -9.14231,30.2882 -18.63523,49.66467 -27.88079,56.90883 -76.1438,101.4511 -135.58079,125.12846 -33.55466,13.36685 -70.63069,19.173 -109.08636,17.08305 z m 61.14044,-97.35472 c 6.54038,-2.83505 10.27447,-6.7987 26.02231,-27.62207 21.47012,-28.38994 23.67135,-33.36965 24.5904,-55.62945 0.5486,-13.28748 0.75371,-14.42916 3.02707,-16.84872 1.34124,-1.4275 2.95653,-2.59545 3.58954,-2.59545 0.63301,0 3.45237,-0.68346 6.26524,-1.51879 6.84843,-2.03377 14.40294,-8.88284 17.34747,-15.72758 2.7235,-6.33095 2.52625,-16.16765 -0.45089,-22.48644 -1.12886,-2.39593 -9.78179,-12.00579 -21.3902,-23.75575 -16.53768,-16.73935 -19.50782,-20.20194 -19.58251,-22.8294 -0.11738,-4.12832 2.4278,-7.78457 7.06626,-10.15094 6.99481,-3.56849 9.82422,-3.52417 22.1502,0.34691 21.45292,6.73748 31.41475,4.11876 40.78619,-10.72174 3.42853,-5.42936 8.95488,-8.83379 14.34142,-8.83481 2.13764,-4.1e-4 9.89348,1.19745 17.23519,2.66191 7.34171,1.46445 13.62594,2.38528 13.96495,2.04627 0.9912,-0.99121 -6.4132,-21.35316 -12.13662,-33.37542 -10.32446,-21.68695 -23.88226,-40.89396 -40.82719,-57.8389 C 347.32954,52.602627 265.12853,33.354198 189.33487,58.518984 l -12.34684,4.099364 3.19625,5.657427 c 1.75793,3.111585 4.82443,8.599667 6.81443,12.195738 l 3.61819,6.53831 0.50294,27.662087 c 0.48263,26.54439 0.59504,27.81017 2.78206,31.32709 3.96357,6.37375 12.68547,8.72067 19.82252,5.33392 1.97721,-0.93824 6.75512,-5.91482 11.95372,-12.45074 13.14802,-16.53027 16.16849,-17.28324 33.94512,-8.46208 10.34756,5.13469 12.10248,5.69164 18.00346,5.71369 7.71547,0.0288 12.41813,-2.04974 20.12665,-8.896 3.43392,-3.04981 5.97617,-4.50704 7.82048,-4.48277 1.50295,0.0198 10.87242,4.20681 20.82104,9.30452 16.99491,8.70824 18.26712,9.5601 21.04472,14.09128 3.38618,5.52397 4.5199,13.53611 2.69697,19.05965 -1.60894,4.87514 -7.24338,11.13146 -11.81944,13.12399 -2.12157,0.92378 -12.23148,3.79426 -22.46645,6.37883 -26.67783,6.7368 -28.26856,6.67584 -54.31827,-2.08167 -23.27651,-7.8252 -29.37914,-8.59998 -38.76055,-4.92099 -5.94284,2.33055 -49.0853,34.69649 -53.75061,40.32431 -1.71645,2.07056 -4.3494,6.25425 -5.85099,9.29708 -2.69777,5.46673 -2.73397,5.81033 -3.04869,28.93444 -0.26403,19.40109 -0.0355,24.38831 1.3365,29.17092 4.25613,14.8358 16.01703,27.08041 31.25181,32.53713 5.22145,1.8702 8.73928,2.18452 28.58677,2.55424 25.35164,0.47225 27.51691,0.97556 31.45795,7.31238 2.15484,3.46479 2.25851,4.76068 2.74244,34.28068 L 256,392.80157 l 3.59988,6.53831 c 4.05162,7.35877 10.46206,12.90272 17.90489,15.48472 6.32212,2.19322 17.15275,1.59962 23.85986,-1.30769 z"
     id="path2" />
</svg>
