<?xml version="1.0" encoding="UTF-8" standalone="no"?>
<svg
   viewBox="0 0 512 512"
   version="1.1"
   id="svg1"
   sodipodi:docname="envelope-open-text.svg"
   inkscape:version="1.3.2 (091e20e, 2023-11-25, custom)"
   xmlns:inkscape="http://www.inkscape.org/namespaces/inkscape"
   xmlns:sodipodi="http://sodipodi.sourceforge.net/DTD/sodipodi-0.dtd"
   xmlns="http://www.w3.org/2000/svg"
   xmlns:svg="http://www.w3.org/2000/svg">
  <defs
     id="defs1" />
  <sodipodi:namedview
     id="namedview1"
     pagecolor="#505050"
     bordercolor="#eeeeee"
     borderopacity="1"
     inkscape:showpageshadow="0"
     inkscape:pageopacity="0"
     inkscape:pagecheckerboard="0"
     inkscape:deskcolor="#505050"
     inkscape:zoom="0.99414062"
     inkscape:cx="256"
     inkscape:cy="256"
     inkscape:window-width="1366"
     inkscape:window-height="705"
     inkscape:window-x="-8"
     inkscape:window-y="-8"
     inkscape:window-maximized="1"
     inkscape:current-layer="svg1" />
  <!--! Font Awesome Free 6.5.1 by @fontawesome - https://fontawesome.com License - https://fontawesome.com/license/free (Icons: CC BY 4.0, Fonts: SIL OFL 1.1, Code: MIT License) Copyright 2023 Fonticons, Inc. -->
  <path
     d="M215.4 96H144 107.8 96v8.8V144v40.4 89L.2 202.5c1.6-18.1 10.9-34.9 25.7-45.8L48 140.3V96c0-26.5 21.5-48 48-48h76.6l49.9-36.9C232.2 3.9 243.9 0 256 0s23.8 3.9 33.5 11L339.4 48H416c26.5 0 48 21.5 48 48v44.3l22.1 16.4c14.8 10.9 24.1 27.7 25.7 45.8L416 273.4v-89V144 104.8 96H404.2 368 296.6 215.4zM0 448V242.1L217.6 403.3c11.1 8.2 24.6 12.7 38.4 12.7s27.3-4.4 38.4-12.7L512 242.1V448v0c0 35.3-28.7 64-64 64H64c-35.3 0-64-28.7-64-64v0zM176 160H336c8.8 0 16 7.2 16 16s-7.2 16-16 16H176c-8.8 0-16-7.2-16-16s7.2-16 16-16zm0 64H336c8.8 0 16 7.2 16 16s-7.2 16-16 16H176c-8.8 0-16-7.2-16-16s7.2-16 16-16z"
     id="path1" />
  <path
     style="fill:#ffffff;stroke-width:1.00589"
     d="M 57.094154,510.95812 C 42.065864,509.18091 30.85599,503.63216 19.486574,492.34283 12.918075,485.8206 10.51356,482.55537 7.2538229,475.73131 5.0223389,471.05984 2.6234114,464.97446 1.9228729,462.20825 0.94684955,458.35424 0.56332121,432.20033 0.2818562,350.30255 0.07983539,291.52063 0.13018842,243.42633 0.39375184,243.42633 c 0.26356342,0 49.96137616,36.68276 110.43957816,81.51726 71.90778,53.30761 112.39706,82.69639 117.00164,84.92459 20.60317,9.97008 45.95252,8.15126 64.60009,-4.63505 2.64362,-1.81269 52.10012,-38.33985 109.90333,-81.17148 57.80321,-42.83163 106.14314,-78.56131 107.42208,-79.3993 l 2.32534,-1.52362 -0.32685,107.02002 c -0.36434,119.29495 0.12342,111.03103 -7.47112,126.58156 -5.1451,10.53505 -17.10891,22.52447 -27.49413,27.55297 -16.17451,7.83168 3.59618,7.16224 -216.26719,7.32292 -108.15874,0.079 -199.703306,-0.21709 -203.432366,-0.65808 z"
     id="path2" />
  <path
     style="fill:#ffffff;stroke-width:1.00589"
     d="M 50.797642,239.24846 C 27.008251,221.5398 6.0456015,206.06917 4.213976,204.86927 1.0449628,202.79323 0.91213534,202.46079 1.4701562,198.00203 2.8078898,187.3131 8.7468968,174.91644 16.845292,165.90908 c 2.590983,-2.88179 10.724395,-9.69877 18.074248,-15.14882 l 13.363368,-9.90918 0.01487,-24.40589 C 48.313981,89.845663 49.139204,83.664028 53.93818,74.193705 57.341483,67.47761 67.47761,57.341483 74.193705,53.93818 84.51782,48.706555 88.58602,48.313909 132.6338,48.297776 l 40.59451,-0.01487 26.41814,-19.531723 C 226.91165,8.5932118 231.9925,5.4112543 241.41454,2.5932902 c 7.28691,-2.17938427 21.88401,-2.17938427 29.17092,0 9.5661,2.8610514 14.88996,6.1866984 41.93838,26.1976118 l 26.34703,19.492006 40.54492,0.01487 c 44.79718,0.01643 48.45466,0.398993 59.35407,6.208312 6.88026,3.667143 15.84419,12.88377 19.44874,19.997022 4.63017,9.137191 5.46753,15.53629 5.48363,41.905578 l 0.0149,24.3694 13.3281,9.89262 c 7.33045,5.44093 15.46386,12.27432 18.07424,15.1853 8.16011,9.0998 14.10552,21.5179 15.39052,32.14602 l 0.56652,4.68559 -6.32802,4.51515 c -3.48041,2.48333 -24.52414,17.98667 -46.76384,34.45187 -22.2397,16.46519 -40.68528,29.93672 -40.99017,29.93672 -0.3049,0 -0.55436,-39.60708 -0.55436,-88.01572 V 95.559921 H 256 95.559921 v 88.015719 c 0,48.40864 -0.339489,87.98301 -0.75442,87.94304 -0.414931,-0.04 -20.218468,-14.56157 -44.007859,-32.27022 z"
     id="path3" />
  <path
     style="fill:#ffffff;stroke-width:1.00589"
     d="m 168.22656,189.11349 c -9.71578,-5.92378 -9.71578,-20.24033 0,-26.16411 3.20258,-1.95263 5.23134,-1.99883 87.77344,-1.99883 82.5421,0 84.57086,0.0462 87.77344,1.99883 9.71578,5.92378 9.71578,20.24033 0,26.16411 -3.20258,1.95263 -5.23134,1.99883 -87.77344,1.99883 -82.5421,0 -84.57086,-0.0462 -87.77344,-1.99883 z"
     id="path4" />
  <path
     style="fill:#ffffff;stroke-width:1.00589"
     d="m 168.83709,253.46725 c -10.97612,-5.79887 -10.5546,-21.64997 0.72215,-27.15604 3.97799,-1.94233 6.33885,-1.99687 86.44076,-1.99687 80.10191,0 82.46277,0.0545 86.44077,1.99687 11.39064,5.56169 11.68814,21.50152 0.50776,27.20532 -3.77134,1.924 -6.2589,1.97925 -87.15993,1.93607 -80.27742,-0.0429 -83.41015,-0.11439 -86.95151,-1.98535 z"
     id="path5" />
</svg>
