<?xml version="1.0" encoding="UTF-8" standalone="no"?>
<svg
   viewBox="0 0 640 512"
   version="1.1"
   id="svg1"
   sodipodi:docname="eye-slash.svg"
   inkscape:version="1.3.2 (091e20e, 2023-11-25, custom)"
   xmlns:inkscape="http://www.inkscape.org/namespaces/inkscape"
   xmlns:sodipodi="http://sodipodi.sourceforge.net/DTD/sodipodi-0.dtd"
   xmlns="http://www.w3.org/2000/svg"
   xmlns:svg="http://www.w3.org/2000/svg">
  <defs
     id="defs1" />
  <sodipodi:namedview
     id="namedview1"
     pagecolor="#505050"
     bordercolor="#eeeeee"
     borderopacity="1"
     inkscape:showpageshadow="0"
     inkscape:pageopacity="0"
     inkscape:pagecheckerboard="0"
     inkscape:deskcolor="#505050"
     inkscape:zoom="0.99414062"
     inkscape:cx="320.37721"
     inkscape:cy="256"
     inkscape:window-width="1366"
     inkscape:window-height="705"
     inkscape:window-x="-8"
     inkscape:window-y="-8"
     inkscape:window-maximized="1"
     inkscape:current-layer="svg1" />
  <!--! Font Awesome Free 6.5.1 by @fontawesome - https://fontawesome.com License - https://fontawesome.com/license/free (Icons: CC BY 4.0, Fonts: SIL OFL 1.1, Code: MIT License) Copyright 2023 Fonticons, Inc. -->
  <path
     d="M38.8 5.1C28.4-3.1 13.3-1.2 5.1 9.2S-1.2 34.7 9.2 42.9l592 464c10.4 8.2 25.5 6.3 33.7-4.1s6.3-25.5-4.1-33.7L525.6 386.7c39.6-40.6 66.4-86.1 79.9-118.4c3.3-7.9 3.3-16.7 0-24.6c-14.9-35.7-46.2-87.7-93-131.1C465.5 68.8 400.8 32 320 32c-68.2 0-125 26.3-169.3 60.8L38.8 5.1zm151 118.3C226 97.7 269.5 80 320 80c65.2 0 118.8 29.6 159.9 67.7C518.4 183.5 545 226 558.6 256c-12.6 28-36.6 66.8-70.9 100.9l-53.8-42.2c9.1-17.6 14.2-37.5 14.2-58.7c0-70.7-57.3-128-128-128c-32.2 0-61.7 11.9-84.2 31.5l-46.1-36.1zM394.9 284.2l-81.5-63.9c4.2-8.5 6.6-18.2 6.6-28.3c0-5.5-.7-10.9-2-16c.7 0 1.3 0 2 0c44.2 0 80 35.8 80 80c0 9.9-1.8 19.4-5.1 28.2zm51.3 163.3l-41.9-33C378.8 425.4 350.7 432 320 432c-65.2 0-118.8-29.6-159.9-67.7C121.6 328.5 95 286 81.4 256c8.3-18.4 21.5-41.5 39.4-64.8L83.1 161.5C60.3 191.2 44 220.8 34.5 243.7c-3.3 7.9-3.3 16.7 0 24.6c14.9 35.7 46.2 87.7 93 131.1C174.5 443.2 239.2 480 320 480c47.8 0 89.9-12.9 126.2-32.5zm-88-69.3L302 334c-23.5-5.4-43.1-21.2-53.7-42.3l-56.1-44.2c-.2 2.8-.3 5.6-.3 8.5c0 70.7 57.3 128 128 128c13.3 0 26.1-2 38.2-5.8z"
     id="path1" />
  <path
     style="fill:#ffffff;stroke-width:1.00589"
     d="M 304.28291,479.09967 C 277.9658,477.65494 245.52922,469.99829 219.46535,459.07848 148.45118,429.32619 82.10992,363.91325 43.191063,285.27086 33.147369,264.97581 31.406991,259.01196 33.086984,250.64666 c 1.250402,-6.22622 13.070908,-31.24839 21.798717,-46.1445 5.942842,-10.14289 21.602968,-33.70088 25.922313,-38.9957 l 2.431619,-2.98077 3.896883,2.94918 c 2.143286,1.62205 10.379237,8.0906 18.302114,14.37456 14.06407,11.15479 14.3676,11.47715 12.81639,13.61116 -14.91779,20.52246 -36.777613,57.63954 -36.777613,62.44686 0,4.02552 14.510457,30.04797 27.255233,48.8784 35.41493,52.32563 82.81427,92.71826 131.59606,112.14313 13.5921,5.41237 30.18286,10.09744 45.03055,12.7162 18.6137,3.28299 50.47064,3.27299 69.15858,-0.0217 14.89278,-2.6256 26.03925,-5.63482 40.00866,-10.80116 l 9.77206,-3.61403 18.89592,14.83394 c 10.39274,8.15867 19.54779,15.44101 20.34454,16.18298 1.23169,1.14701 -0.57595,2.31567 -12.07073,7.80384 -39.69445,18.95204 -83.0314,27.49458 -127.18537,25.07064 z"
     id="path2" />
  <path
     style="fill:#ffffff;stroke-width:1.00589"
     d="m 298.24754,381.62154 c -40.31379,-7.23151 -75.2428,-33.61911 -93.05197,-70.29737 -7.70369,-15.86588 -11.59709,-31.66684 -12.73349,-51.67761 -0.56766,-9.99572 -0.45771,-11.53056 0.75715,-10.57016 0.78168,0.61796 13.3173,10.50035 27.85693,21.96086 14.53963,11.46052 27.17322,22.0449 28.07465,23.52085 12.03109,19.69909 26.6133,31.74208 45.90145,37.90855 6.10298,1.95114 9.90268,4.58001 34.28483,23.72041 l 27.42116,21.52609 -3.21571,1.15698 c -11.62138,4.18124 -39.57102,5.57198 -55.295,2.7514 z"
     id="path3" />
  <path
     style="fill:#ffffff;stroke-width:1.00589"
     d="m 611.88178,510.85425 c -5.77883,-1.01841 -7.23473,-1.88927 -19.91321,-11.91133 C 585.88291,494.13235 560.76071,474.4217 536.14145,455.1415 511.5222,435.86129 478.02593,409.61342 461.7053,396.81289 445.38468,384.01235 410.0778,356.34054 383.24558,335.31999 356.41336,314.29942 302.77407,272.26483 264.04715,241.90979 225.32024,211.55475 152.89587,154.82382 103.10413,115.84105 53.312377,76.858282 10.820507,43.333779 8.6777482,41.342155 -7.2434533,26.543927 2.6504288,0.80471513 24.259914,0.80471513 c 4.34314,0 6.980594,0.63034887 10.165846,2.42962737 3.271646,1.8480804 106.56765,82.0626755 114.48643,88.9045305 1.32826,1.14761 3.01558,0.278889 11.85187,-6.101941 37.78163,-27.282761 78.75213,-44.206509 123.40097,-50.973438 16.68325,-2.528495 49.18244,-3.007551 65.3831,-0.963784 76.24168,9.618143 145.44743,51.26586 201.58156,121.3109 21.03778,26.25128 39.24097,55.58099 51.50458,82.98625 3.86574,8.63869 4.27826,10.32844 4.29747,17.60314 0.0202,7.63794 -0.26022,8.66274 -5.51414,20.15266 -15.37374,33.62123 -41.27827,72.20358 -68.14694,101.49843 -6.5919,7.18713 -7.98884,9.23481 -6.96283,10.20635 0.70594,0.66847 24.59512,19.41425 53.08706,41.65729 28.49195,22.24305 53.0478,41.86708 54.56856,43.60897 1.52077,1.74189 3.47376,5.53354 4.34,8.4259 4.93118,16.46522 -9.35662,32.31203 -26.42167,29.30465 z M 497.55096,347.47314 c 23.16551,-25.18861 48.52849,-62.19142 59.25869,-86.45428 l 2.35155,-5.31729 -3.38092,-7.05481 C 540.75069,217.2853 515.57783,182.52381 487.89335,154.90092 409.70951,76.891057 309.07053,58.07126 219.47177,104.70527 c -10.03489,5.22291 -30.36371,17.64681 -30.36371,18.55668 0,0.3551 43.9661,34.80832 45.87917,35.95236 0.6143,0.36736 3.78286,-1.40302 7.04126,-3.93418 13.33681,-10.36013 30.97338,-18.85405 48.03947,-23.1362 13.77568,-3.45654 35.93707,-4.31119 50.38405,-1.94306 17.60557,2.88589 35.28728,9.91661 51.20754,20.36153 9.2956,6.09863 27.10104,23.89227 33.53842,33.51619 24.28114,36.3004 29.01131,80.39997 12.82247,119.54415 -1.9806,4.78903 -3.79951,9.3863 -4.04202,10.21616 -0.29746,1.01788 8.26536,8.30036 26.31599,22.38114 14.71631,11.47976 27.12885,20.8723 27.58343,20.8723 0.45457,0 4.80748,-4.32865 9.67312,-9.6192 z m -99.74088,-70.34937 c 0.90717,-3.31945 1.908,-11.03797 2.22406,-17.15227 1.29533,-25.05889 -7.25789,-45.80283 -26.16674,-63.4616 -12.99127,-12.13241 -33.03724,-20.47847 -49.18621,-20.47847 h -6.94199 l 0.80556,4.778 c 1.65323,9.80573 0.71824,21.39977 -2.49943,30.99377 -1.65841,4.94478 -2.94646,9.04394 -2.86233,9.10923 0.0841,0.0653 18.4481,14.45164 40.80883,31.96966 22.36074,17.51802 40.9963,31.49681 41.41237,31.064 0.41606,-0.43283 1.49871,-3.50287 2.40588,-6.82232 z"
     id="path4" />
</svg>
