<?xml version="1.0" encoding="UTF-8" standalone="no"?>
<svg
   viewBox="0 0 512 512"
   version="1.1"
   id="svg1"
   sodipodi:docname="facebook-messenger.svg"
   inkscape:version="1.3.2 (091e20e, 2023-11-25, custom)"
   xmlns:inkscape="http://www.inkscape.org/namespaces/inkscape"
   xmlns:sodipodi="http://sodipodi.sourceforge.net/DTD/sodipodi-0.dtd"
   xmlns="http://www.w3.org/2000/svg"
   xmlns:svg="http://www.w3.org/2000/svg">
  <defs
     id="defs1" />
  <sodipodi:namedview
     id="namedview1"
     pagecolor="#505050"
     bordercolor="#eeeeee"
     borderopacity="1"
     inkscape:showpageshadow="0"
     inkscape:pageopacity="0"
     inkscape:pagecheckerboard="0"
     inkscape:deskcolor="#505050"
     inkscape:zoom="0.99414062"
     inkscape:cx="256"
     inkscape:cy="256"
     inkscape:window-width="1366"
     inkscape:window-height="705"
     inkscape:window-x="-8"
     inkscape:window-y="-8"
     inkscape:window-maximized="1"
     inkscape:current-layer="svg1" />
  <!--! Font Awesome Free 6.5.1 by @fontawesome - https://fontawesome.com License - https://fontawesome.com/license/free (Icons: CC BY 4.0, Fonts: SIL OFL 1.1, Code: MIT License) Copyright 2023 Fonticons, Inc. -->
  <path
     d="M256.55 8C116.52 8 8 110.34 8 248.57c0 72.3 29.71 134.78 78.07 177.94 8.35 7.51 6.63 11.86 8.05 58.23A19.92 19.92 0 0 0 122 502.31c52.91-23.3 53.59-25.14 62.56-22.7C337.85 521.8 504 423.7 504 248.57 504 110.34 396.59 8 256.55 8zm149.24 185.13l-73 115.57a37.37 37.37 0 0 1-53.91 9.93l-58.08-43.47a15 15 0 0 0-18 0l-78.37 59.44c-10.46 7.93-24.16-4.6-17.11-15.67l73-115.57a37.36 37.36 0 0 1 53.91-9.93l58.06 43.46a15 15 0 0 0 18 0l78.41-59.38c10.44-7.98 24.14 4.54 17.09 15.62z"
     id="path1" />
  <path
     style="fill:#ffffff;stroke-width:1.00589"
     d="m 109.88847,502.93011 c -5.44464,-1.22572 -10.177541,-5.13579 -12.764112,-10.54504 -2.241185,-4.68695 -2.447695,-6.57078 -3.032394,-27.66208 C 93.184193,431.9778 93.761453,433.77822 79.629645,419.61613 54.008146,393.93971 37.024297,368.32472 24.710884,336.78783 6.9994569,291.42563 3.7586526,235.41024 16.058503,187.23648 23.721603,157.22309 39.537532,125.05842 58.664397,100.58939 65.536078,91.798437 83.202543,73.741146 92.79132,65.707494 122.24963,41.026788 161.7299,22.302923 201.61745,14.09574 232.1286,7.8178289 270.86459,7.084587 301.76817,12.199965 c 98.09456,16.237298 174.66608,87.097041 195.51599,180.931665 7.73414,34.80736 7.94981,75.27964 0.58157,109.13949 -21.3399,98.06494 -100.8041,169.24318 -205.65355,184.20946 -9.80689,1.39984 -18.86153,1.85624 -36.21218,1.82526 -25.4443,-0.0454 -37.63636,-1.36612 -60.30035,-6.53193 -20.10283,-4.58203 -16.92092,-5.21406 -52.55771,10.43954 -25.04626,11.00168 -27.90088,11.92164 -33.25347,10.71666 z m 29.93078,-179.38398 c 9.68173,-7.27532 28.54232,-21.52679 41.91243,-31.66992 25.51168,-19.35425 28.35064,-20.86626 34.62948,-18.44337 1.4348,0.55365 17.11271,11.85488 34.83982,25.11384 32.77676,24.51531 35.749,26.29941 46.2963,27.78943 5.64998,0.79816 17.19854,-1.67634 22.59743,-4.84195 2.36834,-1.38866 5.97585,-4.245 8.01668,-6.34742 5.09838,-5.25224 79.10418,-122.59294 79.86029,-126.62334 0.7967,-4.24677 -1.98054,-10.11002 -5.69981,-12.03333 -3.31818,-1.7159 -9.26589,-1.91387 -12.09005,-0.40244 -1.09149,0.58416 -18.82834,13.83407 -39.41521,29.44426 -48.09999,36.47228 -43.49259,33.36791 -49.52361,33.36791 -5.02521,0 -5.22443,-0.12847 -37.97334,-24.48988 -20.96177,-15.59313 -34.80646,-25.20606 -38.10994,-26.46129 -5.41268,-2.05666 -15.75477,-2.69802 -22.03986,-1.3668 -5.28401,1.11919 -14.33524,6.2608 -18.28562,10.38726 -4.81055,5.02498 -79.05391,122.85224 -79.81851,126.67527 -1.44575,7.22871 6.77289,15.18115 14.1827,13.72333 1.65972,-0.32653 10.93909,-6.54623 20.62082,-13.82156 z"
     id="path2" />
</svg>
