<?xml version="1.0" encoding="UTF-8" standalone="no"?>
<svg
   viewBox="0 0 640 512"
   version="1.1"
   id="svg1"
   sodipodi:docname="google-pay.svg"
   inkscape:version="1.3.2 (091e20e, 2023-11-25, custom)"
   xmlns:inkscape="http://www.inkscape.org/namespaces/inkscape"
   xmlns:sodipodi="http://sodipodi.sourceforge.net/DTD/sodipodi-0.dtd"
   xmlns="http://www.w3.org/2000/svg"
   xmlns:svg="http://www.w3.org/2000/svg">
  <defs
     id="defs1" />
  <sodipodi:namedview
     id="namedview1"
     pagecolor="#505050"
     bordercolor="#eeeeee"
     borderopacity="1"
     inkscape:showpageshadow="0"
     inkscape:pageopacity="0"
     inkscape:pagecheckerboard="0"
     inkscape:deskcolor="#505050"
     inkscape:zoom="0.99414062"
     inkscape:cx="320.37721"
     inkscape:cy="256"
     inkscape:window-width="1366"
     inkscape:window-height="705"
     inkscape:window-x="-8"
     inkscape:window-y="-8"
     inkscape:window-maximized="1"
     inkscape:current-layer="svg1" />
  <!--! Font Awesome Free 6.5.1 by @fontawesome - https://fontawesome.com License - https://fontawesome.com/license/free (Icons: CC BY 4.0, Fonts: SIL OFL 1.1, Code: MIT License) Copyright 2023 Fonticons, Inc. -->
  <path
     d="M105.72,215v41.25h57.1a49.66,49.66,0,0,1-21.14,32.6c-9.54,6.55-21.72,10.28-36,10.28-27.6,0-50.93-18.91-59.3-44.22a65.61,65.61,0,0,1,0-41l0,0c8.37-25.46,31.7-44.37,59.3-44.37a56.43,56.43,0,0,1,40.51,16.08L176.47,155a101.24,101.24,0,0,0-70.75-27.84,105.55,105.55,0,0,0-94.38,59.11,107.64,107.64,0,0,0,0,96.18v.15a105.41,105.41,0,0,0,94.38,59c28.47,0,52.55-9.53,70-25.91,20-18.61,31.41-46.15,31.41-78.91A133.76,133.76,0,0,0,205.38,215Zm389.41-4c-10.13-9.38-23.93-14.14-41.39-14.14-22.46,0-39.34,8.34-50.5,24.86l20.85,13.26q11.45-17,31.26-17a34.05,34.05,0,0,1,22.75,8.79A28.14,28.14,0,0,1,487.79,248v5.51c-9.1-5.07-20.55-7.75-34.64-7.75-16.44,0-29.65,3.88-39.49,11.77s-14.82,18.31-14.82,31.56a39.74,39.74,0,0,0,13.94,31.27c9.25,8.34,21,12.51,34.79,12.51,16.29,0,29.21-7.3,39-21.89h1v17.72h22.61V250C510.25,233.45,505.26,220.34,495.13,211ZM475.9,300.3a37.32,37.32,0,0,1-26.57,11.16A28.61,28.61,0,0,1,431,305.21a19.41,19.41,0,0,1-7.77-15.63c0-7,3.22-12.81,9.54-17.42s14.53-7,24.07-7C470,265,480.3,268,487.64,273.94,487.64,284.07,483.68,292.85,475.9,300.3Zm-93.65-142A55.71,55.71,0,0,0,341.74,142H279.07V328.74H302.7V253.1h39c16,0,29.5-5.36,40.51-15.93.88-.89,1.76-1.79,2.65-2.68A54.45,54.45,0,0,0,382.25,158.26Zm-16.58,62.23a30.65,30.65,0,0,1-23.34,9.68H302.7V165h39.63a32,32,0,0,1,22.6,9.23A33.18,33.18,0,0,1,365.67,220.49ZM614.31,201,577.77,292.7h-.45L539.9,201H514.21L566,320.55l-29.35,64.32H561L640,201Z"
     id="path1" />
  <path
     style="fill:#ffffff;stroke-width:1.00589"
     d="M 87.936853,339.49732 C 56.02642,333.85945 26.883433,312.14249 12.334042,283.15914 -0.87815092,256.83957 -2.8347793,225.05851 7.0838137,197.88092 27.834332,141.02315 90.981447,112.8073 146.11331,135.75875 c 7.50502,3.12435 19.39287,10.44448 25.87963,15.93577 l 3.5057,2.96773 -14.57053,15.04138 -14.57055,15.04137 -4.03432,-3.27481 c -10.42399,-8.46153 -26.48914,-13.25817 -40.7133,-12.15593 -42.123528,3.26416 -69.62186,47.25489 -54.896861,87.82181 3.545728,9.76836 8.360419,16.93626 16.807829,25.02271 19.362085,18.53478 47.470542,22.71448 71.770742,10.67228 10.38915,-5.14845 18.4103,-12.98465 23.18063,-22.64614 1.93994,-3.92902 3.80134,-8.84111 4.13646,-10.91576 l 0.6093,-3.77211 H 134.9214 106.62475 V 235.37917 215.2613 h 49.20875 49.20873 l 0.71519,6.67835 c 1.22155,11.4066 -0.10925,35.10174 -2.47789,44.11929 -5.27139,20.06854 -14.56479,36.25222 -28.09117,48.91841 -12.13619,11.3644 -25.40392,18.46364 -43.22842,23.13049 -10.27385,2.68992 -32.662871,3.39658 -44.023087,1.38948 z"
     id="path2" />
  <path
     style="fill:#ffffff;stroke-width:1.00589"
     d="m 279.63851,235.37917 v -92.54223 h 35.49789 c 39.02289,0 41.66154,0.30513 53.27919,6.16123 8.1214,4.09375 20.54266,16.42843 24.18415,24.01558 10.16805,21.18543 6.88649,44.34354 -8.64287,60.99316 -6.85154,7.3458 -13.39808,11.767 -22.66119,15.30423 -6.46213,2.46763 -7.72404,2.58014 -33.12279,2.95314 l -26.40472,0.38777 v 37.63469 37.63467 h -11.06483 -11.06483 z m 77.95677,-8.20482 c 15.33523,-8.14838 21.6714,-27.30504 14.33302,-43.33417 -3.27077,-7.14431 -7.50899,-11.80433 -14.01228,-15.40686 l -5.3502,-2.96377 -25.39883,-0.31425 -25.39882,-0.31424 v 32.81709 32.8171 l 25.39882,-0.31425 c 25.28029,-0.31278 25.4223,-0.32671 30.42829,-2.98665 z"
     id="path3" />
  <path
     style="fill:#ffffff;stroke-width:1.00589"
     d="m 430.29295,329.63946 c -7.67992,-2.67741 -16.39499,-8.31527 -21.05083,-13.61798 -1.7366,-1.97787 -4.55854,-6.55981 -6.27099,-10.18208 -2.79741,-5.91724 -3.1143,-7.55625 -3.12093,-16.14195 -0.005,-6.54284 0.54889,-11.14187 1.75676,-14.58547 3.96181,-11.29494 15.15238,-21.18378 29.16948,-25.77639 6.44395,-2.11131 9.10051,-2.38251 22.88171,-2.33585 15.61407,0.0529 20.46253,0.94411 32.44008,5.96313 1.56977,0.65779 1.75925,0.0455 1.75049,-5.65682 -0.018,-11.6953 -6.68922,-21.13619 -18.98144,-26.86181 -4.74418,-2.20981 -7.04595,-2.62878 -14.31563,-2.60578 -7.68004,0.0243 -9.40327,0.39209 -15.19403,3.24287 -3.82698,1.88402 -8.42662,5.24147 -11.1082,8.10829 l -4.57666,4.89283 -9.64986,-6.14142 c -5.30743,-3.37778 -9.6507,-6.48929 -9.65171,-6.91447 -0.001,-0.42518 2.87494,-3.64983 6.391,-7.16589 14.64385,-14.64384 38.45915,-20.13448 61.505,-14.18001 14.25142,3.6822 26.58696,13.30756 32.12476,25.06677 4.91109,10.42842 5.52271,17.26754 5.56117,62.18381 l 0.0351,40.99017 h -11.06483 -11.06483 v -8.55009 c 0,-4.70256 -0.28632,-8.5501 -0.63625,-8.5501 -0.34994,0 -3.32406,2.93327 -6.60916,6.51838 -4.45686,4.86387 -7.91993,7.48064 -13.64374,10.3095 -7.28867,3.60227 -8.22475,3.80504 -18.78966,4.07049 -9.53173,0.23948 -12.0849,-0.0574 -17.88679,-2.08013 z m 34.67557,-21.25478 c 12.25119,-5.79574 21.55838,-18.02041 22.61819,-29.70818 l 0.52837,-5.8269 -6.41511,-3.12392 c -11.80717,-5.74968 -29.48638,-6.6118 -41.72035,-2.03448 -12.32662,4.61198 -19.42845,16.15391 -16.53998,26.88088 1.59905,5.93841 7.9685,12.63851 14.47217,15.22345 7.37852,2.93264 19.17563,2.3175 27.05671,-1.41085 z"
     id="path4" />
  <path
     style="fill:#ffffff;stroke-width:1.00589"
     d="m 538.15324,383.57559 c 0,-0.37173 6.38283,-14.65253 14.18407,-31.7351 13.73042,-30.06585 14.14198,-31.1622 12.86797,-34.27893 -0.72385,-1.77084 -12.29324,-28.56824 -25.70975,-59.54977 l -24.39365,-56.33006 11.2127,-0.2862 c 6.16699,-0.1574 11.70642,-0.0967 12.30985,0.13482 0.60343,0.23156 9.4272,20.85307 19.60838,45.82558 10.18118,24.97251 18.94193,45.261 19.46833,45.08554 0.5264,-0.17547 9.07623,-20.78136 18.99961,-45.79086 l 18.04252,-45.47183 h 12.07343 c 9.42067,0 12.00199,0.28819 11.74821,1.3116 -0.17887,0.72137 -17.75234,41.90536 -39.05214,91.51996 l -38.72692,90.20837 -11.3163,0.0164 c -6.22397,0.009 -11.31631,-0.28778 -11.31631,-0.65951 z"
     id="path5" />
</svg>
