<?xml version="1.0" encoding="UTF-8" standalone="no"?>
<svg
   viewBox="0 0 576 512"
   version="1.1"
   id="svg1"
   sodipodi:docname="hand-holding-droplet.svg"
   inkscape:version="1.3.2 (091e20e, 2023-11-25, custom)"
   xmlns:inkscape="http://www.inkscape.org/namespaces/inkscape"
   xmlns:sodipodi="http://sodipodi.sourceforge.net/DTD/sodipodi-0.dtd"
   xmlns="http://www.w3.org/2000/svg"
   xmlns:svg="http://www.w3.org/2000/svg">
  <defs
     id="defs1" />
  <sodipodi:namedview
     id="namedview1"
     pagecolor="#505050"
     bordercolor="#eeeeee"
     borderopacity="1"
     inkscape:showpageshadow="0"
     inkscape:pageopacity="0"
     inkscape:pagecheckerboard="0"
     inkscape:deskcolor="#505050"
     inkscape:zoom="0.99414062"
     inkscape:cx="288.18861"
     inkscape:cy="256"
     inkscape:window-width="1366"
     inkscape:window-height="705"
     inkscape:window-x="-8"
     inkscape:window-y="-8"
     inkscape:window-maximized="1"
     inkscape:current-layer="svg1" />
  <!--! Font Awesome Free 6.5.1 by @fontawesome - https://fontawesome.com License - https://fontawesome.com/license/free (Icons: CC BY 4.0, Fonts: SIL OFL 1.1, Code: MIT License) Copyright 2023 Fonticons, Inc. -->
  <path
     d="M275.5 6.6C278.3 2.5 283 0 288 0s9.7 2.5 12.5 6.6L366.8 103C378 119.3 384 138.6 384 158.3V160c0 53-43 96-96 96s-96-43-96-96v-1.7c0-19.8 6-39 17.2-55.3L275.5 6.6zM568.2 336.3c13.1 17.8 9.3 42.8-8.5 55.9L433.1 485.5c-23.4 17.2-51.6 26.5-80.7 26.5H192 32c-17.7 0-32-14.3-32-32V416c0-17.7 14.3-32 32-32H68.8l44.9-36c22.7-18.2 50.9-28 80-28H272h16 64c17.7 0 32 14.3 32 32s-14.3 32-32 32H288 272c-8.8 0-16 7.2-16 16s7.2 16 16 16H392.6l119.7-88.2c17.8-13.1 42.8-9.3 55.9 8.5zM193.6 384l0 0-.9 0c.3 0 .6 0 .9 0z"
     id="path1" />
  <path
     style="fill:#ffffff;stroke-width:1.00589"
     d="m 26.959021,510.98729 c -6.13265,-1.06082 -14.214515,-5.49851 -18.1249981,-9.95231 -1.7040035,-1.94075 -4.2755882,-6.03888 -5.7146322,-9.10696 l -2.61644375,-5.57831 v -37.72103 c 0,-33.88759 0.18609822,-38.25466 1.83121145,-42.97202 2.4317277,-6.97299 9.3762706,-14.55079 16.5740186,-18.08537 5.683069,-2.79077 5.944626,-2.81999 28.226085,-3.1533 l 22.489861,-0.33642 25.229202,-20.16733 c 13.876065,-11.09203 27.723355,-21.76283 30.771775,-23.71287 7.3437,-4.69771 19.95432,-10.55045 29.30908,-13.60269 17.2855,-5.63985 18.86456,-5.71852 114.78491,-5.71852 87.05878,0 88.38275,0.0296 93.91277,2.09863 3.6516,1.36624 7.3204,3.80994 10.51277,7.00231 15.20625,15.20625 10.73444,40.80895 -8.80912,50.43538 -4.68019,2.30529 -5.14204,2.33066 -51.49661,2.8291 -46.56608,0.50071 -46.79052,0.51318 -50.4748,2.80414 -7.87367,4.89601 -10.07646,16.42898 -4.52748,23.70407 5.2848,6.92873 2.68087,6.68629 71.81298,6.68629 h 62.27484 l 62.01782,-45.67173 c 37.24382,-27.42743 63.94033,-46.41344 66.83051,-47.52849 3.53555,-1.36403 7.48202,-1.85407 14.87163,-1.84662 9.06117,0.009 10.65542,0.30153 16.07236,2.94785 7.99981,3.9081 14.97664,11.06647 18.93966,19.43246 2.91233,6.14798 3.21195,7.67386 3.21195,16.35762 0,8.77625 -0.27395,10.13361 -3.2759,16.23143 -1.80173,3.65985 -4.98094,8.40318 -7.06491,10.54073 -4.37066,4.48305 -133.41793,99.70413 -142.70373,105.29787 -12.99779,7.82985 -27.18088,13.28337 -44.17171,16.98441 l -9.9979,2.1778 -167.98428,0.22074 c -92.39135,0.12141 -170.111269,-0.14718 -172.710919,-0.59686 z"
     id="path2" />
  <path
     style="fill:#ffffff;stroke-width:1.00589"
     d="m 269.57957,253.50069 c -21.25293,-4.61052 -36.14106,-12.90046 -50.9387,-28.36348 -27.83463,-29.08618 -34.04529,-73.54489 -15.43145,-110.4653 5.55937,-11.02697 73.67238,-109.5706048 77.3398,-111.8926506 3.73208,-2.36298409 9.81242,-2.52189822 13.98254,-0.365444 3.91055,2.0222237 3.7312,1.7763566 42.79779,58.6730966 17.56093,25.575797 33.68833,50.019018 35.83868,54.318268 2.15036,4.29925 5.14857,11.89069 6.66269,16.86987 2.51631,8.27479 2.75978,10.52307 2.83234,26.15324 0.0875,18.84986 -1.4242,27.07464 -7.39761,40.24872 -18.44298,40.67511 -63.40118,63.99676 -105.68608,54.82368 z"
     id="path3" />
</svg>
