<?xml version="1.0" encoding="UTF-8" standalone="no"?>
<svg
   viewBox="0 0 512 512"
   version="1.1"
   id="svg1"
   sodipodi:docname="heart.svg"
   inkscape:version="1.3.2 (091e20e, 2023-11-25, custom)"
   xmlns:inkscape="http://www.inkscape.org/namespaces/inkscape"
   xmlns:sodipodi="http://sodipodi.sourceforge.net/DTD/sodipodi-0.dtd"
   xmlns="http://www.w3.org/2000/svg"
   xmlns:svg="http://www.w3.org/2000/svg">
  <defs
     id="defs1" />
  <sodipodi:namedview
     id="namedview1"
     pagecolor="#505050"
     bordercolor="#eeeeee"
     borderopacity="1"
     inkscape:showpageshadow="0"
     inkscape:pageopacity="0"
     inkscape:pagecheckerboard="0"
     inkscape:deskcolor="#505050"
     inkscape:zoom="0.99414062"
     inkscape:cx="256"
     inkscape:cy="256"
     inkscape:window-width="1366"
     inkscape:window-height="705"
     inkscape:window-x="-8"
     inkscape:window-y="-8"
     inkscape:window-maximized="1"
     inkscape:current-layer="svg1" />
  <!--! Font Awesome Free 6.5.1 by @fontawesome - https://fontawesome.com License - https://fontawesome.com/license/free (Icons: CC BY 4.0, Fonts: SIL OFL 1.1, Code: MIT License) Copyright 2023 Fonticons, Inc. -->
  <path
     d="M225.8 468.2l-2.5-2.3L48.1 303.2C17.4 274.7 0 234.7 0 192.8v-3.3c0-70.4 50-130.8 119.2-144C158.6 37.9 198.9 47 231 69.6c9 6.4 17.4 13.8 25 22.3c4.2-4.8 8.7-9.2 13.5-13.3c3.7-3.2 7.5-6.2 11.5-9c0 0 0 0 0 0C313.1 47 353.4 37.9 392.8 45.4C462 58.6 512 119.1 512 189.5v3.3c0 41.9-17.4 81.9-48.1 110.4L288.7 465.9l-2.5 2.3c-8.2 7.6-19 11.9-30.2 11.9s-22-4.2-30.2-11.9zM239.1 145c-.4-.3-.7-.7-1-1.1l-17.8-20c0 0-.1-.1-.1-.1c0 0 0 0 0 0c-23.1-25.9-58-37.7-92-31.2C81.6 101.5 48 142.1 48 189.5v3.3c0 28.5 11.9 55.8 32.8 75.2L256 430.7 431.2 268c20.9-19.4 32.8-46.7 32.8-75.2v-3.3c0-47.3-33.6-88-80.1-96.9c-34-6.5-69 5.4-92 31.2c0 0 0 0-.1 .1s0 0-.1 .1l-17.8 20c-.3 .4-.7 .7-1 1.1c-4.5 4.5-10.6 7-16.9 7s-12.4-2.5-16.9-7z"
     id="path1" />
  <path
     style="fill:#ffffff;stroke-width:1.00589"
     d="M 247.62723,478.79575 C 242.35451,477.68457 233.98301,473.8544 229.75952,470.6208 223.68925,465.9733 46.64794,300.97879 39.467418,293.27716 1.3793093,252.42494 -9.9670221,189.2046 11.112868,135.28916 23.743657,102.98375 49.587521,74.890378 80.97446,59.346664 c 23.1175,-11.448453 39.82713,-15.398957 65.3831,-15.457932 18.43774,-0.04255 27.86063,1.280932 43.1267,6.057298 22.69634,7.101115 44.94193,20.586366 60.89431,36.914057 l 5.4434,5.571469 9.34024,-8.83959 c 19.95997,-18.890063 44.1596,-31.474388 72.12568,-37.506888 14.84814,-3.202859 41.94205,-3.14387 56.99277,0.124085 56.68636,12.308281 99.74911,54.133497 113.19922,109.946137 4.67194,19.38668 4.94824,48.14308 0.65087,67.73959 -5.93023,27.04252 -18.58217,51.35263 -36.68446,70.48747 -10.3412,10.93106 -184.41645,172.69977 -190.5919,177.1177 -8.97461,6.42044 -22.88607,9.47498 -33.22716,7.29569 z M 347.53635,346.3392 c 46.47229,-43.14638 87.00856,-81.1235 90.08058,-84.39359 19.81919,-21.09698 29.79724,-52.92698 26.12277,-83.33168 -4.3376,-35.89195 -27.122,-66.75593 -59.11165,-80.07325 -14.6777,-6.110344 -21.30985,-7.369711 -38.98561,-7.402909 -18.51253,-0.03477 -27.03894,1.700173 -41.43429,8.430993 -16.05541,7.506996 -23.18427,13.298766 -41.7065,33.883926 -13.88802,15.43483 -17.37494,17.77333 -26.50165,17.77333 -9.01642,0 -12.63709,-2.37895 -25.46476,-16.73159 -18.88945,-21.13505 -25.98861,-26.98421 -41.89754,-34.520341 -15.37861,-7.284917 -22.41765,-8.767074 -41.77719,-8.796697 -18.24158,-0.02791 -24.5676,1.151676 -39.48856,7.363288 -20.955119,8.72364 -39.985401,26.92781 -49.986826,47.81688 -15.960526,33.33532 -12.110463,76.63639 9.475421,106.56862 6.177955,8.5667 12.021426,14.15673 105.637985,101.05615 l 83.47692,77.4873 3.53291,-3.34122 c 1.94309,-1.83767 41.55569,-38.64282 88.02799,-81.78921 z"
     id="path2" />
</svg>
