<?xml version="1.0" encoding="UTF-8" standalone="no"?>
<svg
   viewBox="0 0 448 512"
   version="1.1"
   id="svg1"
   sodipodi:docname="instagram.svg"
   inkscape:version="1.3.2 (091e20e, 2023-11-25, custom)"
   xmlns:inkscape="http://www.inkscape.org/namespaces/inkscape"
   xmlns:sodipodi="http://sodipodi.sourceforge.net/DTD/sodipodi-0.dtd"
   xmlns="http://www.w3.org/2000/svg"
   xmlns:svg="http://www.w3.org/2000/svg">
  <defs
     id="defs1" />
  <sodipodi:namedview
     id="namedview1"
     pagecolor="#505050"
     bordercolor="#eeeeee"
     borderopacity="1"
     inkscape:showpageshadow="0"
     inkscape:pageopacity="0"
     inkscape:pagecheckerboard="0"
     inkscape:deskcolor="#505050"
     inkscape:zoom="0.99414062"
     inkscape:cx="223.81139"
     inkscape:cy="256"
     inkscape:window-width="1366"
     inkscape:window-height="705"
     inkscape:window-x="-8"
     inkscape:window-y="-8"
     inkscape:window-maximized="1"
     inkscape:current-layer="svg1" />
  <!--! Font Awesome Free 6.5.1 by @fontawesome - https://fontawesome.com License - https://fontawesome.com/license/free (Icons: CC BY 4.0, Fonts: SIL OFL 1.1, Code: MIT License) Copyright 2023 Fonticons, Inc. -->
  <path
     d="M224.1 141c-63.6 0-114.9 51.3-114.9 114.9s51.3 114.9 114.9 114.9S339 319.5 339 255.9 287.7 141 224.1 141zm0 189.6c-41.1 0-74.7-33.5-74.7-74.7s33.5-74.7 74.7-74.7 74.7 33.5 74.7 74.7-33.6 74.7-74.7 74.7zm146.4-194.3c0 14.9-12 26.8-26.8 26.8-14.9 0-26.8-12-26.8-26.8s12-26.8 26.8-26.8 26.8 12 26.8 26.8zm76.1 27.2c-1.7-35.9-9.9-67.7-36.2-93.9-26.2-26.2-58-34.4-93.9-36.2-37-2.1-147.9-2.1-184.9 0-35.8 1.7-67.6 9.9-93.9 36.1s-34.4 58-36.2 93.9c-2.1 37-2.1 147.9 0 184.9 1.7 35.9 9.9 67.7 36.2 93.9s58 34.4 93.9 36.2c37 2.1 147.9 2.1 184.9 0 35.9-1.7 67.7-9.9 93.9-36.2 26.2-26.2 34.4-58 36.2-93.9 2.1-37 2.1-147.8 0-184.8zM398.8 388c-7.8 19.6-22.9 34.7-42.6 42.6-29.5 11.7-99.5 9-132.1 9s-102.7 2.6-132.1-9c-19.6-7.8-34.7-22.9-42.6-42.6-11.7-29.5-9-99.5-9-132.1s-2.6-102.7 9-132.1c7.8-19.6 22.9-34.7 42.6-42.6 29.5-11.7 99.5-9 132.1-9s102.7-2.6 132.1 9c19.6 7.8 34.7 22.9 42.6 42.6 11.7 29.5 9 99.5 9 132.1s2.7 102.7-9 132.1z"
     id="path1" />
  <path
     style="fill:#ffffff;stroke-width:1.00589"
     d="M 158.42829,478.82145 C 115.20439,477.6863 96.193134,474.90656 75.796575,466.73938 49.150802,456.06989 25.760892,433.46078 14.518939,407.5073 6.9439842,390.01955 3.5570222,373.2866 2.0746506,346.0275 -0.4767234,299.11071 0.12187974,176.71551 3.0315062,150.38114 6.7744832,116.50429 16.546035,93.116823 35.38595,72.943227 53.14172,53.93052 76.955925,41.558971 105.11591,36.718302 c 19.16871,-3.295077 38.26306,-3.927782 118.69548,-3.933058 83.41348,-0.0055 102.01564,0.677754 121.65769,4.468279 27.29147,5.266711 47.89026,16.089806 65.63685,34.487177 21.38506,22.169245 31.1193,45.89047 34.54119,84.17286 1.62578,18.18838 2.38047,138.84391 1.08219,173.01375 -1.64809,43.37665 -4.57051,59.92114 -14.14878,80.09949 -6.17662,13.01215 -11.53764,20.8646 -21.02255,30.79234 -10.27416,10.75385 -18.67763,16.93305 -31.83303,23.40732 -18.41925,9.06482 -34.94341,12.86064 -63.46495,14.57879 -22.30771,1.34381 -121.12951,1.98008 -157.83171,1.0162 z m 138.9427,-39.25066 c 22.89505,-1.05207 39.19897,-2.96852 51.05853,-6.00169 20.09148,-5.13853 38.19898,-19.89832 47.43637,-38.66633 5.46492,-11.10333 7.87492,-20.31378 10.23049,-39.09857 1.59312,-12.70445 1.7936,-23.74782 1.7936,-98.79831 0,-88.49907 -0.33537,-97.10656 -4.61583,-118.46695 -1.08345,-5.40673 -2.89605,-12.19651 -4.02798,-15.08841 C 394.09257,110.28391 381.246,94.828707 369.16306,87.258711 357.48244,79.940764 343.09671,75.931293 319.37132,73.381162 303.53509,71.679 172.30777,70.898298 146.93393,72.355291 113.97145,74.248032 99.756853,76.843901 86.003929,83.482323 71.435058,90.514597 59.330687,102.53503 51.927771,117.32219 42.185252,136.78265 40.17774,157.02147 39.768572,239.9057 c -0.518521,105.03565 1.700859,133.88392 11.850643,154.0387 6.760302,13.42417 15.211903,22.76005 27.846404,30.75995 14.573944,9.22792 33.438381,13.25752 69.406681,14.82586 25.46291,1.11027 124.63065,1.13737 148.49869,0.0406 z"
     id="path2" />
  <path
     style="fill:#ffffff;stroke-width:1.00589"
     d="m 205.06549,368.66949 c -36.42544,-6.13271 -68.6881,-30.70494 -84.43524,-64.30844 -14.84461,-31.67757 -14.50315,-66.64065 0.96351,-98.65575 14.49452,-30.00283 40.40724,-51.16752 74.18724,-60.59379 9.25034,-2.5813 11.18806,-2.76479 28.53334,-2.70203 16.80189,0.0608 19.56413,0.32407 28.44402,2.71116 42.81027,11.50826 75.47299,46.47294 83.7429,89.64483 1.81305,9.4648 2.10037,29.38936 0.56006,38.83767 -6.83658,41.93566 -36.48038,77.16471 -76.10041,90.43864 -17.64743,5.91243 -38.17194,7.6117 -55.89542,4.62771 z m 33.55819,-39.15487 c 15.82262,-3.02737 28.62635,-10.27713 40.5667,-22.9698 13.31458,-14.15347 19.76483,-30.87355 19.69316,-51.04777 -0.1052,-29.61048 -16.21581,-54.94981 -42.88354,-67.4487 -11.77507,-5.51885 -21.28666,-7.32909 -35.54689,-6.76525 -19.96793,0.78952 -35.50204,7.65536 -49.45115,21.85666 -17.97654,18.30157 -25.38105,42.22811 -20.67692,66.81436 2.94048,15.36849 9.39908,27.44659 20.74236,38.78988 18.13507,18.13507 42.3766,25.58829 67.55628,20.77062 z"
     id="path3" />
  <path
     style="fill:#ffffff;stroke-width:1.00589"
     d="m 336.77912,161.58608 c -4.82564,-1.33822 -6.18388,-2.13858 -11.24819,-6.62811 -7.46385,-6.61674 -9.84662,-19.97509 -5.30329,-29.7315 4.36545,-9.37441 12.96062,-14.87786 23.28513,-14.90935 10.18178,-0.0311 19.01683,5.46127 23.90965,14.86345 2.97566,5.71814 2.95534,16.5564 -0.0419,22.31813 -5.97147,11.47941 -18.7662,17.36946 -30.60145,14.08738 z"
     id="path4" />
</svg>
