<?xml version="1.0" encoding="UTF-8" standalone="no"?>
<svg
   viewBox="0 0 448 512"
   version="1.1"
   id="svg1"
   sodipodi:docname="linkedin.svg"
   inkscape:version="1.3.2 (091e20e, 2023-11-25, custom)"
   xmlns:inkscape="http://www.inkscape.org/namespaces/inkscape"
   xmlns:sodipodi="http://sodipodi.sourceforge.net/DTD/sodipodi-0.dtd"
   xmlns="http://www.w3.org/2000/svg"
   xmlns:svg="http://www.w3.org/2000/svg">
  <defs
     id="defs1" />
  <sodipodi:namedview
     id="namedview1"
     pagecolor="#505050"
     bordercolor="#eeeeee"
     borderopacity="1"
     inkscape:showpageshadow="0"
     inkscape:pageopacity="0"
     inkscape:pagecheckerboard="0"
     inkscape:deskcolor="#505050"
     inkscape:zoom="0.99414062"
     inkscape:cx="223.81139"
     inkscape:cy="256"
     inkscape:window-width="1366"
     inkscape:window-height="705"
     inkscape:window-x="-8"
     inkscape:window-y="-8"
     inkscape:window-maximized="1"
     inkscape:current-layer="svg1" />
  <!--! Font Awesome Free 6.5.1 by @fontawesome - https://fontawesome.com License - https://fontawesome.com/license/free (Icons: CC BY 4.0, Fonts: SIL OFL 1.1, Code: MIT License) Copyright 2023 Fonticons, Inc. -->
  <path
     d="M416 32H31.9C14.3 32 0 46.5 0 64.3v383.4C0 465.5 14.3 480 31.9 480H416c17.6 0 32-14.5 32-32.3V64.3c0-17.8-14.4-32.3-32-32.3zM135.4 416H69V202.2h66.5V416zm-33.2-243c-21.3 0-38.5-17.3-38.5-38.5S80.9 96 102.2 96c21.2 0 38.5 17.3 38.5 38.5 0 21.3-17.2 38.5-38.5 38.5zm282.1 243h-66.4V312c0-24.8-.5-56.7-34.5-56.7-34.6 0-39.9 27-39.9 54.9V416h-66.4V202.2h63.7v29.2h.9c8.9-16.8 30.6-34.5 62.9-34.5 67.2 0 79.7 44.3 79.7 101.9V416z"
     id="path1" />
  <path
     style="fill:#ffffff;stroke-width:1.00589"
     d="M 24.091723,478.44773 C 14.79651,475.92791 7.8037564,469.78258 3.3236157,460.19646 L 0.50294695,454.1611 V 256 57.8389 L 3.4053841,51.554602 C 6.7276826,44.361229 12.922416,38.10894 19.941173,34.865178 l 4.703228,-2.173626 h 199.166989 199.167 l 5.23245,2.366272 c 6.61312,2.990647 14.43133,11.170028 16.97057,17.754536 1.89041,4.902011 1.93843,9.935814 1.93843,203.18764 0,193.25182 -0.048,198.28563 -1.93843,203.18764 -2.53924,6.5845 -10.35745,14.76389 -16.97057,17.75453 l -5.23245,2.36628 -197.15521,0.18992 C 72.176201,479.64639 27.658089,479.41453 24.091723,478.44773 Z M 135.79568,309.31238 V 202.18468 H 102.09823 68.400786 v 107.1277 107.1277 h 33.697444 33.69745 z m 108.654,46.01964 c 0.0192,-67.15429 0.19369,-69.50157 6.05367,-81.43519 5.94726,-12.11135 15.94333,-17.6263 32.15284,-17.73911 7.85539,-0.0547 10.45105,0.33733 14.58546,2.20268 6.35998,2.86946 11.05674,7.3527 14.2499,13.60206 5.36171,10.49345 5.56525,13.21173 6.09194,81.35778 l 0.48784,63.11984 h 33.70696 33.70695 l -0.49759,-69.65815 c -0.33201,-46.47693 -0.90598,-72.67088 -1.72476,-78.7112 -4.02717,-29.70952 -13.46397,-48.32826 -29.96758,-59.12579 -13.53809,-8.85734 -25.95598,-12.05195 -47.00061,-12.09133 -16.22791,-0.0304 -24.99616,1.83951 -37.4262,7.9813 -8.29446,4.09838 -20.16934,14.44067 -24.6133,21.43668 l -2.84066,4.47198 v -14.27945 -14.27944 h -32.18861 -32.1886 v 107.1277 107.1277 h 33.69744 33.69745 z M 119.21912,169.52706 c 7.63364,-3.73479 14.40207,-10.50573 18.15524,-18.16197 2.69203,-5.49157 2.94784,-6.93181 2.94784,-16.59646 0,-9.92305 -0.20538,-11.00023 -3.29341,-17.2729 -14.63032,-29.7184 -57.046813,-28.678116 -70.765981,1.73557 -1.829294,4.05531 -2.266578,6.89155 -2.32122,15.05554 -0.06017,8.9898 0.232112,10.70041 2.749932,16.0943 3.007716,6.44338 8.994908,13.33394 14.865452,17.10839 6.796264,4.36965 11.804799,5.56128 22.083627,5.25418 8.20478,-0.24514 10.45434,-0.70962 15.57852,-3.21665 z"
     id="path2" />
</svg>
