<?xml version="1.0" encoding="UTF-8" standalone="no"?>
<svg
   viewBox="0 0 512 512"
   version="1.1"
   id="svg1"
   sodipodi:docname="magnifying-glass.svg"
   inkscape:version="1.3.2 (091e20e, 2023-11-25, custom)"
   xmlns:inkscape="http://www.inkscape.org/namespaces/inkscape"
   xmlns:sodipodi="http://sodipodi.sourceforge.net/DTD/sodipodi-0.dtd"
   xmlns="http://www.w3.org/2000/svg"
   xmlns:svg="http://www.w3.org/2000/svg">
  <defs
     id="defs1" />
  <sodipodi:namedview
     id="namedview1"
     pagecolor="#505050"
     bordercolor="#eeeeee"
     borderopacity="1"
     inkscape:showpageshadow="0"
     inkscape:pageopacity="0"
     inkscape:pagecheckerboard="0"
     inkscape:deskcolor="#505050"
     inkscape:zoom="0.99414062"
     inkscape:cx="256"
     inkscape:cy="256"
     inkscape:window-width="1366"
     inkscape:window-height="705"
     inkscape:window-x="-8"
     inkscape:window-y="-8"
     inkscape:window-maximized="1"
     inkscape:current-layer="svg1" />
  <!--! Font Awesome Free 6.5.1 by @fontawesome - https://fontawesome.com License - https://fontawesome.com/license/free (Icons: CC BY 4.0, Fonts: SIL OFL 1.1, Code: MIT License) Copyright 2023 Fonticons, Inc. -->
  <path
     d="M416 208c0 45.9-14.9 88.3-40 122.7L502.6 457.4c12.5 12.5 12.5 32.8 0 45.3s-32.8 12.5-45.3 0L330.7 376c-34.4 25.2-76.8 40-122.7 40C93.1 416 0 322.9 0 208S93.1 0 208 0S416 93.1 416 208zM208 352a144 144 0 1 0 0-288 144 144 0 1 0 0 288z"
     id="path1" />
  <path
     style="fill:#ffffff;stroke-width:1.00589"
     d="m 473.99986,510.94238 c -2.36648,-0.47228 -6.46594,-2.03609 -9.10992,-3.47512 -3.29835,-1.79519 -25.11877,-22.9298 -69.51991,-67.33494 l -64.71269,-64.71853 -7.15185,4.76606 c -17.32258,11.54394 -35.53167,20.25571 -54.5328,26.09011 C 164.14305,438.45849 52.19646,383.17144 13.584644,280.14145 4.9139532,257.00499 0.93265296,234.17421 0.93276633,207.58923 0.93284901,188.20023 2.557963,174.74784 7.1095095,156.45931 19.201353,107.87321 51.37762,62.845177 94.129367,34.68221 119.30572,18.097137 148.71802,7.0096543 179.4242,2.5288279 193.79832,0.43127259 221.24882,0.43299458 236.24113,2.5323919 341.69723,17.299595 419.07257,109.32303 415.10831,215.2613 c -1.44763,38.68493 -12.75399,74.49755 -33.34481,105.61886 l -6.32254,9.55599 65.15217,65.3831 c 45.43897,45.60003 65.84662,66.7527 67.44731,69.90963 1.6409,3.23625 2.4234,6.86275 2.74514,12.72246 0.39428,7.18069 0.13787,8.87777 -2.06994,13.70029 -3.52162,7.6922 -8.72768,13.06978 -15.56428,16.07702 -6.82381,3.00162 -13.18942,3.90361 -19.1515,2.71373 z M 237.39096,349.56696 c 28.76824,-6.37793 51.77075,-18.97249 72.48713,-39.68887 21.01791,-21.01791 33.60303,-44.22481 39.85535,-73.49302 2.61565,-12.24434 2.58148,-45.19935 -0.0594,-57.30895 -11.32141,-51.91309 -47.92219,-92.667988 -97.47879,-108.542381 -15.43575,-4.944507 -26.26369,-6.535553 -44.47813,-6.535563 -39.8318,-2.2e-5 -73.55645,13.951735 -101.66181,42.057104 -21.295125,21.29511 -34.540518,46.32326 -40.226818,76.01152 -2.463403,12.86146 -2.507037,38.03072 -0.08894,51.30059 10.496919,57.60414 54.205228,103.04359 111.245358,115.65138 12.53402,2.77044 13.85124,2.86771 34.25284,2.52937 12.61975,-0.20929 21.03712,-0.84693 26.15324,-1.98118 z"
     id="path2" />
</svg>
