<?xml version="1.0" encoding="UTF-8" standalone="no"?>
<svg
   viewBox="0 0 640 512"
   version="1.1"
   id="svg1"
   sodipodi:docname="motorcycle.svg"
   inkscape:version="1.3.2 (091e20e, 2023-11-25, custom)"
   xmlns:inkscape="http://www.inkscape.org/namespaces/inkscape"
   xmlns:sodipodi="http://sodipodi.sourceforge.net/DTD/sodipodi-0.dtd"
   xmlns="http://www.w3.org/2000/svg"
   xmlns:svg="http://www.w3.org/2000/svg">
  <defs
     id="defs1" />
  <sodipodi:namedview
     id="namedview1"
     pagecolor="#505050"
     bordercolor="#eeeeee"
     borderopacity="1"
     inkscape:showpageshadow="0"
     inkscape:pageopacity="0"
     inkscape:pagecheckerboard="0"
     inkscape:deskcolor="#505050"
     inkscape:zoom="0.99414062"
     inkscape:cx="320.37721"
     inkscape:cy="256"
     inkscape:window-width="1366"
     inkscape:window-height="705"
     inkscape:window-x="-8"
     inkscape:window-y="-8"
     inkscape:window-maximized="1"
     inkscape:current-layer="svg1" />
  <!--! Font Awesome Free 6.5.1 by @fontawesome - https://fontawesome.com License - https://fontawesome.com/license/free (Icons: CC BY 4.0, Fonts: SIL OFL 1.1, Code: MIT License) Copyright 2023 Fonticons, Inc. -->
  <path
     d="M280 32c-13.3 0-24 10.7-24 24s10.7 24 24 24h57.7l16.4 30.3L256 192l-45.3-45.3c-12-12-28.3-18.7-45.3-18.7H64c-17.7 0-32 14.3-32 32v32h96c88.4 0 160 71.6 160 160c0 11-1.1 21.7-3.2 32h70.4c-2.1-10.3-3.2-21-3.2-32c0-52.2 25-98.6 63.7-127.8l15.4 28.6C402.4 276.3 384 312 384 352c0 70.7 57.3 128 128 128s128-57.3 128-128s-57.3-128-128-128c-13.5 0-26.5 2.1-38.7 6L418.2 128H480c17.7 0 32-14.3 32-32V64c0-17.7-14.3-32-32-32H459.6c-7.5 0-14.7 2.6-20.5 7.4L391.7 78.9l-14-26c-7-12.9-20.5-21-35.2-21H280zM462.7 311.2l28.2 52.2c6.3 11.7 20.9 16 32.5 9.7s16-20.9 9.7-32.5l-28.2-52.2c2.3-.3 4.7-.4 7.1-.4c35.3 0 64 28.7 64 64s-28.7 64-64 64s-64-28.7-64-64c0-15.5 5.5-29.7 14.7-40.8zM187.3 376c-9.5 23.5-32.5 40-59.3 40c-35.3 0-64-28.7-64-64s28.7-64 64-64c26.9 0 49.9 16.5 59.3 40h66.4C242.5 268.8 190.5 224 128 224C57.3 224 0 281.3 0 352s57.3 128 128 128c62.5 0 114.5-44.8 125.8-104H187.3zM128 384a32 32 0 1 0 0-64 32 32 0 1 0 0 64z"
     id="path1" />
  <path
     style="fill:#ffffff;stroke-width:1.00589"
     d="M 113.84074,478.76075 C 70.945178,473.39312 33.894688,447.68844 14.627619,409.92925 5.2728292,391.59594 0.93440885,373.27774 0.92273425,352.06287 0.90333518,316.81095 13.133293,287.32493 38.094566,262.44281 c 19.014948,-18.95464 38.470974,-29.62034 64.506614,-35.3622 13.73469,-3.02902 36.66033,-2.97147 51.30059,0.12879 46.72874,9.8954 84.74412,45.80429 97.00879,91.63341 l 2.42959,9.0786 h -32.60204 -32.60206 l -2.4287,-4.7928 c -11.04655,-21.79932 -33.16398,-35.44295 -57.45588,-35.44295 -24.34509,0 -47.523454,14.18366 -57.65949,35.28389 -4.323184,8.99959 -7.220664,20.67405 -7.220664,29.09332 0,7.95974 2.833434,19.93149 6.546962,27.66208 16.240986,33.80944 57.108492,46.48277 90.521802,28.07151 7.61435,-4.19563 20.67936,-17.83681 24.21096,-25.27868 l 2.94817,-6.21246 32.8361,-0.0505 32.83611,-0.0505 -0.93143,4.27505 c -6.13752,28.16987 -26.1871,58.1606 -50.22748,75.13167 -14.4242,10.18263 -33.74217,18.49951 -50.23777,21.62868 -10.16844,1.92892 -28.81506,2.67462 -38.034,1.52103 z"
     id="path2" />
  <path
     style="fill:#ffffff;stroke-width:1.00589"
     d="m 119.70138,382.30494 c -8.38597,-2.56014 -16.00838,-9.02128 -20.250637,-17.16545 -1.933958,-3.71276 -2.357475,-6.06363 -2.3558,-13.07662 0.0018,-7.32308 0.38901,-9.28741 2.698499,-13.6878 3.550328,-6.76464 11.563378,-13.88266 18.055878,-16.03913 7.58191,-2.5183 18.00499,-1.63849 24.87297,2.09953 23.51687,12.79949 21.31004,47.46448 -3.61538,56.79027 -5.49673,2.05659 -14.55407,2.5603 -19.40553,1.0792 z"
     id="path3" />
  <path
     style="fill:#ffffff;stroke-width:1.00589"
     d="m 498.52985,478.81059 c -33.1412,-4.17023 -60.56923,-18.52323 -82.37044,-43.10419 -14.45505,-16.29814 -24.48627,-36.72979 -29.46036,-60.00502 -2.147,-10.04645 -2.4359,-34.10222 -0.5376,-44.76228 4.65744,-26.15408 18.25746,-51.73125 37.56272,-70.64312 l 7.93647,-7.77475 -7.22031,-13.34902 c -3.97117,-7.34197 -7.59889,-13.7558 -8.06158,-14.25297 -1.23941,-1.33177 -5.1974,1.59885 -15.33998,11.35817 -25.24094,24.28715 -41.11511,54.14981 -47.05215,88.51505 -2.26901,13.13373 -2.75428,37.00444 -0.99401,48.89713 0.5732,3.87269 1.05117,7.60707 1.06212,8.29862 0.0156,0.98171 -7.50358,1.25737 -34.29773,1.25737 h -34.31765 l 0.56774,-2.76621 c 0.31226,-1.52141 1.11263,-8.54441 1.7786,-15.60665 1.32172,-14.01605 0.32601,-31.00283 -2.68481,-45.80306 -3.33029,-16.37058 -11.821,-37.561 -20.83763,-52.00483 -22.75909,-36.458 -61.07275,-63.25477 -102.94195,-71.99811 -15.07311,-3.14764 -30.71101,-3.89961 -81.604208,-3.92405 l -47.528487,-0.0228 v -16.38591 c 0,-18.9173 1.328209,-25.76652 6.366264,-32.82914 3.708127,-5.19825 11.082762,-10.5819 16.590942,-12.11177 2.320431,-0.64449 25.067162,-1.02393 61.034939,-1.01812 63.81702,0.0103 64.16149,0.0401 77.95677,6.7533 6.85432,3.33549 9.9972,6.10136 34.36871,30.24592 14.75347,14.61608 27.27023,26.41135 27.815,26.21169 2.04841,-0.75074 97.73682,-80.87833 97.73387,-81.84043 -0.002,-0.55324 -3.52975,-7.56935 -7.84015,-15.591352 l -7.83707,-14.585462 -32.72051,-0.502947 -32.72051,-0.502947 -4.92122,-3.044274 c -12.82957,-7.936411 -15.17799,-25.855256 -4.70362,-35.889448 7.78403,-7.456916 6.86004,-7.301464 45.49741,-7.654383 37.41145,-0.341722 43.03844,0.153812 51.72373,4.554983 8.29147,4.201607 14.31364,11.477391 23.05524,27.854606 7.00656,13.12666 8.07125,14.630525 9.53734,13.471452 0.90768,-0.717598 12.46383,-10.284107 25.68034,-21.25891 13.21651,-10.974801 26.12549,-20.916674 28.68663,-22.093049 4.17296,-1.916718 6.4849,-2.142667 22.25975,-2.17548 17.27893,-0.03594 17.70879,0.01526 23.33936,2.780252 7.19775,3.534577 14.14229,11.112377 16.57402,18.085366 2.7013,7.74598 2.7013,45.003578 0,52.749553 -2.43173,6.97299 -9.37627,14.55079 -16.57402,18.08537 l -5.73622,2.81687 -34.8385,0.50295 -34.8385,0.50294 27.47759,50.79765 c 21.51617,39.77679 27.87429,50.76185 29.30608,50.63269 1.00567,-0.0907 6.35502,-1.18016 11.88744,-2.42098 12.05089,-2.70281 34.75288,-3.21847 46.77406,-1.06246 52.19363,9.36099 92.37049,48.32814 103.84381,100.71715 2.75472,12.57852 2.92805,36.82361 0.34876,48.78586 -9.83816,45.62739 -40.37327,81.1722 -82.83375,96.42374 -15.95149,5.72968 -40.36585,8.64681 -55.95274,6.68547 z m 27.04972,-63.8787 c 23.32585,-4.88052 42.77021,-23.75676 48.81402,-47.38779 8.37255,-32.73637 -11.09454,-67.02254 -43.95806,-77.4206 -6.33884,-2.00561 -25.47679,-3.18627 -25.47679,-1.57171 0,0.63529 6.65417,13.46345 14.78704,28.50703 13.19371,24.40474 14.83171,27.9695 15.2016,33.08319 0.52527,7.26175 -1.09869,12.17526 -5.71711,17.29797 -9.17039,10.17169 -24.81693,10.4429 -33.95542,0.58855 -1.73007,-1.86559 -9.65148,-15.49243 -17.60314,-30.28186 -7.95166,-14.78943 -14.75648,-26.89788 -15.12182,-26.90766 -1.53442,-0.0411 -9.08708,13.59317 -11.53643,20.82591 -15.85452,46.81704 25.90432,93.44858 74.56611,83.26697 z"
     id="path4" />
</svg>
