<?xml version="1.0" encoding="UTF-8" standalone="no"?>
<svg
   viewBox="0 0 512 512"
   version="1.1"
   id="svg1"
   sodipodi:docname="signal-messenger.svg"
   inkscape:version="1.3.2 (091e20e, 2023-11-25, custom)"
   xmlns:inkscape="http://www.inkscape.org/namespaces/inkscape"
   xmlns:sodipodi="http://sodipodi.sourceforge.net/DTD/sodipodi-0.dtd"
   xmlns="http://www.w3.org/2000/svg"
   xmlns:svg="http://www.w3.org/2000/svg">
  <defs
     id="defs1" />
  <sodipodi:namedview
     id="namedview1"
     pagecolor="#505050"
     bordercolor="#eeeeee"
     borderopacity="1"
     inkscape:showpageshadow="0"
     inkscape:pageopacity="0"
     inkscape:pagecheckerboard="0"
     inkscape:deskcolor="#505050"
     inkscape:zoom="0.99414062"
     inkscape:cx="256"
     inkscape:cy="256"
     inkscape:window-width="1366"
     inkscape:window-height="705"
     inkscape:window-x="-8"
     inkscape:window-y="-8"
     inkscape:window-maximized="1"
     inkscape:current-layer="svg1" />
  <!--! Font Awesome Free 6.5.1 by @fontawesome - https://fontawesome.com License - https://fontawesome.com/license/free (Icons: CC BY 4.0, Fonts: SIL OFL 1.1, Code: MIT License) Copyright 2023 Fonticons, Inc. -->
  <path
     d="M194.6 7.5l5.8 23.3C177.7 36.3 156 45.3 136 57.4L123.7 36.8c22-13.3 45.9-23.2 70.9-29.3zm122.9 0l-5.8 23.3C334.3 36.3 356 45.3 376 57.4l12.4-20.6c-22-13.3-46-23.2-71-29.3zM36.8 123.7c-13.3 22-23.2 45.9-29.3 70.9l23.3 5.8C36.3 177.7 45.3 156 57.4 136L36.8 123.7zM24 256c0-11.6 .9-23.3 2.6-34.8L2.9 217.6c-3.8 25.4-3.8 51.3 0 76.7l23.7-3.6C24.9 279.3 24 267.6 24 256zM388.3 475.2L376 454.6c-20 12.1-41.6 21-64.2 26.6l5.8 23.3c24.9-6.2 48.8-16 70.8-29.3zM488 256c0 11.6-.9 23.3-2.6 34.8l23.7 3.6c3.8-25.4 3.8-51.3 0-76.7l-23.7 3.6c1.7 11.5 2.6 23.1 2.6 34.8zm16.5 61.4l-23.3-5.8c-5.6 22.7-14.5 44.3-26.6 64.3l20.6 12.4c13.3-22 23.2-46 29.3-71zm-213.8 168c-23 3.5-46.5 3.5-69.5 0l-3.6 23.7c25.4 3.8 51.3 3.8 76.7 0l-3.6-23.7zm152-91.8c-13.8 18.7-30.4 35.3-49.2 49.1l14.2 19.3c20.7-15.2 39-33.4 54.2-54.1l-19.3-14.4zM393.6 69.2c18.8 13.8 35.3 30.4 49.2 49.2L462.1 104C446.9 83.4 428.6 65.1 408 49.9L393.6 69.2zM69.2 118.4c13.8-18.8 30.4-35.3 49.2-49.2L104 49.9C83.4 65.1 65.1 83.4 49.9 104l19.3 14.4zm406 5.3L454.6 136c12.1 20 21 41.6 26.6 64.2l23.3-5.8c-6.2-24.9-16-48.8-29.3-70.8zm-254-97.1c23-3.5 46.5-3.5 69.5 0l3.6-23.7C268.9-1 243.1-1 217.6 2.9l3.6 23.7zM81.6 468.4L32 480l11.6-49.6L20.2 425 8.6 474.5c-.9 4-.8 8.1 .3 12.1s3.2 7.5 6.1 10.4s6.5 5 10.4 6.1s8.1 1.2 12.1 .3L87 492l-5.4-23.6zM25.2 403.6L48.6 409l8-34.4c-11.7-19.6-20.4-40.8-25.8-63L7.5 317.4c5.2 21.2 13.2 41.7 23.6 60.8l-5.9 25.3zm112 52l-34.4 8 5.4 23.4 25.3-5.9c19.2 10.4 39.6 18.4 60.8 23.6l5.8-23.3c-22.1-5.5-43.3-14.3-62.8-26l-.2 .2zM256 48c-37.2 0-73.6 10-105.6 28.9s-58.4 46-76.3 78.6s-26.9 69.3-25.8 106.4s12 73.3 31.8 104.8L60 452l85.3-20c27.3 17.2 58.2 27.8 90.3 31s64.5-1.1 94.6-12.6s57.2-29.8 79-53.6s37.8-52.2 46.8-83.2s10.5-63.6 4.7-95.3s-19-61.6-38.4-87.4s-44.5-46.7-73.4-61S288.3 48 256 48z"
     id="path1" />
  <path
     style="fill:#ffffff;stroke-width:1.00589"
     d="m 36.882267,405.87932 c -5.440489,-1.29208 -10.117442,-2.57488 -10.393228,-2.85066 -0.275787,-0.27579 0.746842,-5.95056 2.272509,-12.6106 L 31.535485,378.3089 25.415153,365.43736 C 19.321924,352.62281 13.652357,337.56279 10.068543,324.67228 l -1.882127,-6.76976 3.70247,-0.96501 c 11.476227,-2.99117 16.208662,-4.10369 17.427233,-4.09688 0.84375,0.005 2.208149,3.04041 3.578713,7.9624 4.342568,15.59509 13.949347,38.44041 21.393556,50.87477 1.921872,3.21018 2.035052,2.50242 -5.50937,34.45187 -0.293942,1.24479 -0.865305,2.22627 -1.269695,2.18107 -0.404391,-0.0452 -5.186566,-1.13935 -10.627056,-2.43142 z"
     id="path2" />
  <path
     style="fill:#ffffff;stroke-width:1.00589"
     d="m 2.6406482,290.05028 c -1.4095137,-8.7946 -1.88129879,-48.58812 -0.7088124,-59.78601 0.657954,-6.28382 1.3304521,-11.5593 1.49444,-11.72329 0.163988,-0.16399 5.3628409,0.46984 11.5530062,1.40851 11.237604,1.70406 11.254011,1.71063 10.708663,4.29313 -1.703236,8.06568 -2.503947,32.78947 -1.515784,46.80329 0.586812,8.322 1.30339,16.07647 1.592394,17.23217 0.487002,1.94746 -0.120728,2.19166 -8.30306,3.33631 -4.855687,0.67928 -10.0371142,1.47676 -11.5142833,1.7722 -2.4666826,0.49334 -2.7364011,0.22119 -3.3065635,-3.33631 z"
     id="path3" />
  <path
     style="fill:#ffffff;stroke-width:1.00589"
     d="m 21.123772,197.51143 c -3.042829,-0.81002 -7.195907,-1.90882 -9.229063,-2.44178 l -3.6966469,-0.96903 2.5351709,-9.28607 c 3.489683,-12.78234 10.404341,-30.0307 18.038074,-44.9953 3.527741,-6.91552 6.817665,-13.19237 7.310941,-13.94855 0.708605,-1.08628 2.927851,-0.16289 10.572339,4.39898 5.321509,3.17563 9.675472,5.9583 9.675472,6.18373 0,0.22543 -1.775804,3.54366 -3.946231,7.37384 -7.475158,13.19152 -15.265324,32.02155 -19.32002,46.69945 -2.681082,9.70546 -2.380401,9.52956 -11.940036,6.98473 z"
     id="path4" />
  <path
     style="fill:#ffffff;stroke-width:1.00589"
     d="m 60.102161,111.01496 c -4.840864,-3.63975 -8.801572,-6.92589 -8.801572,-7.30252 0,-1.652 14.482377,-18.61132 24.141454,-28.270397 9.623654,-9.623653 26.616647,-24.141454 28.257417,-24.141454 0.36949,0 2.61855,2.602751 4.99791,5.78389 2.37937,3.18114 5.38376,7.19476 6.67643,8.919156 l 2.35032,3.135266 -5.80116,4.351118 c -8.35288,6.265025 -29.511865,27.226031 -36.717114,36.373561 -3.390375,4.3043 -6.195322,7.81321 -6.233215,7.79756 -0.0379,-0.0156 -4.029605,-3.00642 -8.87047,-6.64618 z"
     id="path5" />
  <path
     style="fill:#ffffff;stroke-width:1.00589"
     d="m 130.26968,46.654587 c -4.58517,-7.68353 -5.49081,-9.8664 -4.39898,-10.602867 0.75618,-0.510068 7.96331,-4.222137 16.01584,-8.249043 14.87931,-7.440838 31.79384,-14.082343 44.93823,-17.645043 l 7.27271,-1.971218 0.96501,3.70247 c 2.98706,11.460463 4.10397,16.208566 4.09945,17.427233 -0.003,0.85501 -3.22409,2.252887 -8.63524,3.747689 -14.6779,4.054696 -33.50793,11.844862 -46.69945,19.32002 -3.83018,2.170427 -7.14841,3.946231 -7.37384,3.946231 -0.22543,0 -3.0081,-4.353963 -6.18373,-9.675472 z"
     id="path6" />
  <path
     style="fill:#ffffff;stroke-width:1.00589"
     d="M 219.95292,15.00191 C 219.01237,8.7992992 218.36412,3.6094177 218.51237,3.46884 219.67629,2.3651921 241.18791,0.87913438 256,0.87913438 c 14.64667,0 36.31495,1.48277842 37.46144,2.56351742 0.13385,0.1261742 -0.52059,5.3145011 -1.45431,11.5296152 -1.57935,10.512566 -1.84171,11.264648 -3.764,10.790025 -1.13647,-0.280601 -8.82861,-1.011514 -17.09364,-1.624251 -13.92106,-1.032053 -40.34716,-0.126055 -47.40639,1.62529 -1.93952,0.481182 -2.19563,-0.245984 -3.79018,-10.761421 z"
     id="path7" />
  <path
     style="fill:#ffffff;stroke-width:1.00589"
     d="m 367.7465,52.213168 c -13.21647,-7.630577 -40.34355,-18.521013 -51.21376,-20.560276 -2.48869,-0.46688 -3.69313,-1.233641 -3.67957,-2.342442 0.0225,-1.838672 4.6278,-20.2111998 5.21285,-20.7962464 0.61872,-0.6187228 19.1248,5.0571514 29.65529,9.0953734 8.33469,3.19618 33.72092,15.410456 38.47523,18.511891 1.17612,0.767231 0.36699,2.717762 -4.38661,10.574673 -3.20581,5.298655 -6.11802,9.610321 -6.47159,9.58148 -0.35357,-0.02884 -3.7699,-1.857845 -7.59184,-4.064453 z"
     id="path8" />
  <path
     style="fill:#ffffff;stroke-width:1.00589"
     d="m 438.50179,111.92296 c -6.20646,-8.25923 -24.01283,-26.404583 -34.63539,-35.294722 -4.97917,-4.167131 -9.05304,-7.695996 -9.05304,-7.841923 0,-0.772241 12.86227,-17.485726 13.45656,-17.485726 1.66728,0 18.58114,14.434555 28.28804,24.141454 9.62365,9.623654 24.14145,26.616647 24.14145,28.257417 0,0.36949 -2.60275,2.61855 -5.78389,4.99791 -3.18114,2.37937 -7.19476,5.38376 -8.91916,6.67643 l -3.13526,2.35032 z"
     id="path9" />
  <path
     style="fill:#ffffff;stroke-width:1.00589"
     d="m 481.29464,197.90963 c -0.25597,-0.69156 -1.5456,-4.87859 -2.86584,-9.30452 -1.32025,-4.42594 -4.00469,-12.19115 -5.96542,-17.25603 -3.56482,-9.20848 -14.14047,-31.18571 -15.87432,-32.98837 -0.50551,-0.52558 -0.91912,-1.26195 -0.91912,-1.63638 0,-0.37443 4.35396,-3.27902 9.67547,-6.45465 7.6475,-4.56367 9.86395,-5.48569 10.57468,-4.39898 3.23953,4.95326 15.36474,30.23517 18.50919,38.59295 3.7606,9.99545 9.6601,28.86675 9.1757,29.35115 -0.45961,0.4596 -19.23962,5.34707 -20.556,5.34966 -0.70891,0.001 -1.49837,-0.56328 -1.75434,-1.25483 z"
     id="path10" />
  <path
     style="fill:#ffffff;stroke-width:1.00589"
     d="m 495.60897,291.93663 c -9.78795,-1.53877 -9.8491,-1.56611 -9.30173,-4.15733 1.67472,-7.92799 2.46563,-32.26229 1.51079,-46.48369 -0.56845,-8.46659 -1.27136,-16.34133 -1.56202,-17.49943 -0.49545,-1.974 0.17793,-2.21176 10.77172,-3.80331 6.21512,-0.93372 11.4226,-1.57529 11.57218,-1.4257 0.14959,0.14958 0.8103,5.41328 1.46825,11.6971 1.16776,11.15272 0.70223,51.01762 -0.69698,59.68465 -0.69497,4.30484 0.17632,4.179 -13.76221,1.98771 z"
     id="path11" />
  <path
     style="fill:#ffffff;stroke-width:1.00589"
     d="m 465.22593,381.70438 c -4.97917,-3.01946 -9.04288,-5.83169 -9.03046,-6.24941 0.0124,-0.41772 3.44052,-7.5778 7.61801,-15.91129 6.77328,-13.51173 17.00381,-40.62741 17.00381,-45.06803 0,-0.90346 0.79214,-1.63357 1.76031,-1.62248 1.85803,0.0213 20.30946,4.60132 20.8537,5.17633 0.52225,0.55178 -4.33961,16.71184 -8.27207,27.49506 -3.80663,10.43817 -18.97431,41.77286 -20.18853,41.70717 -0.38044,-0.0206 -4.76559,-2.50789 -9.74477,-5.52735 z"
     id="path12" />
  <path
     style="fill:#ffffff;stroke-width:1.00589"
     d="m 403.30263,454.91552 c -2.37937,-3.18114 -5.36709,-7.1729 -6.63939,-8.87058 l -2.31326,-3.08669 8.78179,-7.11765 c 9.92276,-8.04241 27.53239,-25.84158 34.82416,-35.19899 l 4.86445,-6.24247 7.68215,5.61264 c 11.88494,8.68324 11.60146,6.96038 2.9016,17.63485 -8.75704,10.74462 -27.12405,28.99644 -37.57824,37.34257 -3.93387,3.14061 -7.38754,5.71021 -7.67482,5.71021 -0.28728,0 -2.46908,-2.60275 -4.84844,-5.78389 z"
     id="path13" />
  <path
     style="fill:#ffffff;stroke-width:1.00589"
     d="m 315.43875,493.28933 c -1.47686,-5.89385 -2.4458,-10.95549 -2.15321,-11.24809 0.29259,-0.29259 7.02217,-2.67179 14.95462,-5.28711 14.97752,-4.93807 28.54279,-10.78162 40.13763,-17.29018 3.71741,-2.08671 6.94337,-3.79401 7.1688,-3.79401 0.22543,0 3.0081,4.35396 6.18373,9.67547 4.56367,7.6475 5.48569,9.86395 4.39898,10.57468 -0.75618,0.49456 -7.48569,4.00994 -14.95445,7.81196 -13.92064,7.08638 -27.53549,12.57771 -41.74459,16.837 -4.42594,1.32671 -8.78047,2.64264 -9.67673,2.92429 -1.33053,0.41811 -2.12235,-1.45445 -4.31478,-10.20401 z"
     id="path14" />
  <path
     style="fill:#ffffff;stroke-width:1.00589"
     d="m 226.87514,509.81889 c -4.4006,-0.50165 -8.14311,-1.05412 -8.3167,-1.22771 -0.17359,-0.17359 0.45393,-5.39048 1.39448,-11.59309 1.59455,-10.51544 1.85066,-11.2426 3.79018,-10.76142 7.05923,1.75134 33.48533,2.65734 47.40639,1.62529 8.26503,-0.61274 15.95717,-1.34365 17.09364,-1.62425 1.92229,-0.47462 2.18465,0.27746 3.764,10.79002 0.93372,6.21512 1.58789,11.41 1.4537,11.54418 -0.13419,0.13419 -4.63922,0.73408 -10.01119,1.33309 -11.44545,1.27624 -45.07252,1.22506 -56.5745,-0.0861 z"
     id="path15" />
  <path
     style="fill:#ffffff;stroke-width:1.00589"
     d="m 178.54617,499.5381 c -14.48627,-4.77144 -27.20016,-9.90196 -37.93709,-15.30899 l -7.08395,-3.56742 -12.01812,2.71694 c -6.69943,1.51454 -12.3559,2.32801 -12.78136,1.83811 -0.86785,-0.99928 -5.38448,-20.56315 -4.86683,-21.0808 0.18574,-0.18573 7.79014,-2.07102 16.89868,-4.18953 l 16.56098,-3.85182 6.02838,3.44884 c 13.23838,7.5737 47.22803,21.20883 52.99456,21.25905 0.93552,0.008 1.96415,0.44068 2.28585,0.96119 0.90619,1.46626 -4.59226,22.1961 -5.87126,22.13538 -0.62327,-0.0296 -7.0177,-1.99202 -14.20984,-4.36095 z"
     id="path16" />
  <path
     style="fill:#ffffff;stroke-width:1.00589"
     d="M 27.245218,502.82125 C 13.856025,500.31329 6.5433191,487.87726 9.660565,472.91669 c 1.477422,-7.09058 10.677417,-46.75989 10.935332,-47.15189 0.08369,-0.12719 5.155317,1.00444 11.270284,2.51474 l 11.118119,2.746 -5.814003,24.6444 c -3.197702,13.55442 -5.739896,24.71851 -5.649321,24.80908 0.09057,0.0906 11.254663,-2.45217 24.809083,-5.65056 l 24.644401,-5.81524 2.703683,11.16168 c 1.487026,6.13892 2.614608,11.25075 2.505739,11.35962 -0.316905,0.3169 -48.152699,11.14901 -51.480542,11.65744 -1.659725,0.25357 -5.01588,0.0867 -7.458122,-0.37071 z"
     id="path17" />
  <path
     style="fill:#ffffff;stroke-width:1.00589"
     d="m 236.38507,462.61743 c -13.64717,-1.39099 -31.92699,-5.27506 -44.76228,-9.51101 -11.42449,-3.77036 -32.17289,-13.19408 -40.97728,-18.61147 l -5.01641,-3.08663 -41.65363,9.76194 c -22.909491,5.36906 -41.932041,9.48352 -42.27233,9.14323 -0.340289,-0.34029 3.79361,-19.34675 9.186444,-42.23659 l 9.805151,-41.61789 -2.521806,-3.9948 C 70.5901,350.45223 61.738763,329.89163 56.916377,313.08778 33.316069,230.85125 63.024123,141.93729 131.26916,90.555518 163.59479,66.217499 200.55484,52.396835 242.0677,49.124029 c 55.64869,-4.387254 114.69138,16.668514 155.59705,55.488941 87.42506,82.96839 87.90815,218.71376 1.074,301.78487 -29.52585,28.24631 -67.58742,47.17622 -109.0413,54.23165 -14.7102,2.50367 -39.26817,3.4194 -53.31238,1.98794 z"
     id="path18" />
</svg>
