<?xml version="1.0" encoding="UTF-8" standalone="no"?>
<svg
   viewBox="0 0 320 512"
   version="1.1"
   id="svg1"
   sodipodi:docname="wine-glass.svg"
   inkscape:version="1.3.2 (091e20e, 2023-11-25, custom)"
   xmlns:inkscape="http://www.inkscape.org/namespaces/inkscape"
   xmlns:sodipodi="http://sodipodi.sourceforge.net/DTD/sodipodi-0.dtd"
   xmlns="http://www.w3.org/2000/svg"
   xmlns:svg="http://www.w3.org/2000/svg">
  <defs
     id="defs1" />
  <sodipodi:namedview
     id="namedview1"
     pagecolor="#505050"
     bordercolor="#eeeeee"
     borderopacity="1"
     inkscape:showpageshadow="0"
     inkscape:pageopacity="0"
     inkscape:pagecheckerboard="0"
     inkscape:deskcolor="#505050"
     inkscape:zoom="0.99414062"
     inkscape:cx="160.44008"
     inkscape:cy="256"
     inkscape:window-width="1366"
     inkscape:window-height="705"
     inkscape:window-x="-8"
     inkscape:window-y="-8"
     inkscape:window-maximized="1"
     inkscape:current-layer="svg1" />
  <!--! Font Awesome Free 6.5.1 by @fontawesome - https://fontawesome.com License - https://fontawesome.com/license/free (Icons: CC BY 4.0, Fonts: SIL OFL 1.1, Code: MIT License) Copyright 2023 Fonticons, Inc. -->
  <path
     d="M32.1 29.3C33.5 12.8 47.4 0 64 0H256c16.6 0 30.5 12.8 31.9 29.3l14 168.4c6 72-42.5 135.2-109.9 150.6V448h48c17.7 0 32 14.3 32 32s-14.3 32-32 32H160 80c-17.7 0-32-14.3-32-32s14.3-32 32-32h48V348.4C60.6 333 12.1 269.8 18.1 197.8l14-168.4zm56 98.7H231.9l-5.3-64H93.4l-5.3 64z"
     id="path1" />
  <path
     style="fill:#ffffff;stroke-width:1.00589"
     d="m 75.171964,510.97572 c -10.414867,-1.79361 -19.719717,-9.0783 -24.162844,-18.91689 -3.084993,-6.83122 -2.93863,-18.03319 0.324307,-24.82111 3.480464,-7.24045 10.488829,-13.86134 17.416026,-16.45313 5.367289,-2.00816 7.620767,-2.15591 32.883567,-2.15591 h 27.1214 v -50.22331 -50.22332 l -5.78389,-1.6032 C 98.695783,339.8503 78.095009,327.71644 59.816451,309.3811 33.709055,283.19259 19.978247,251.92161 18.489272,215.2613 17.720053,196.32222 32.099672,26.403672 35.032779,19.772896 39.499088,9.6760647 48.929331,2.7149146 60.593691,0.90452445 64.451283,0.30579919 104.70235,0.04272474 164.46365,0.22564715 274.18255,0.56148394 266.7718,0.03054558 276.07797,8.2221767 c 5.63929,4.9638903 9.19141,10.8430973 10.54358,17.4509343 0.56348,2.753659 4.24474,43.934748 8.18058,91.513529 7.67261,92.75141 8.03979,102.57497 4.47412,119.70138 -5.88276,28.25575 -18.7374,52.03004 -39.1922,72.48483 -18.43976,18.43976 -38.33248,30.14393 -63.18032,37.17301 l -5.78389,1.63619 v 50.22332 50.22331 h 27.12141 c 30.92117,0 34.09366,0.60405 42.62822,8.11647 6.86119,6.03946 10.22665,13.6593 10.1877,23.06624 -0.0413,9.97145 -2.87564,16.42397 -10.12456,23.04907 -10.00785,9.14661 -3.68929,8.58087 -97.9778,8.77258 -45.64243,0.0928 -85.144715,-0.203 -87.782846,-0.65732 z M 232.36149,127.96709 c 0,-0.43304 -1.13163,-14.11095 -2.51473,-30.395381 -1.38311,-16.284423 -2.51474,-30.641321 -2.51474,-31.904218 V 63.371316 H 160.12401 92.915997 L 90.668353,91.284872 C 89.432148,106.63733 88.158107,121.34853 87.83715,123.97642 l -0.583559,4.778 h 72.553949 c 39.90468,0 72.55395,-0.3543 72.55395,-0.78733 z"
     id="path2" />
</svg>
